<svg width="344" height="465" viewBox="0 0 344 465" fill="none" xmlns="http://www.w3.org/2000/svg">
<g opacity="0.45">
<path opacity="0.0526316" d="M371.965 -123.161C360.773 -132.138 329.329 -143.909 293.081 -119.18C247.772 -88.2695 240.748 -35.2333 202.543 1.0999C174.346 27.9165 92.9977 78.1428 34.3574 60.603" stroke="white" stroke-opacity="0.7" stroke-width="3"/>
<path opacity="0.105263" d="M386.154 -101.974C375.963 -112.071 345.921 -127.064 307.287 -106.26C258.995 -80.2545 246.465 -28.2431 204.672 3.89763C173.826 27.6199 87.6734 69.0678 31.1878 45.4946" stroke="white" stroke-opacity="0.7" stroke-width="3"/>
<path opacity="0.157895" d="M398.413 -79.9567C389.332 -91.064 361.022 -109.116 320.425 -92.4635C269.679 -71.6484 251.782 -21.2316 206.858 6.36449C173.701 26.7325 83.6881 58.948 29.976 29.5995" stroke="white" stroke-opacity="0.7" stroke-width="3"/>
<path opacity="0.210526" d="M408.657 -57.3174C400.788 -69.313 374.52 -90.2248 332.405 -77.9076C279.761 -62.5109 256.691 -14.2412 209.129 8.508C174.025 25.2986 81.1377 47.9287 30.7876 13.1265" stroke="white" stroke-opacity="0.7" stroke-width="3"/>
<path opacity="0.263158" d="M416.842 -34.2692C410.269 -47.0216 386.331 -70.5647 343.159 -62.7171C289.194 -52.9076 261.205 -7.31366 211.526 10.3393C174.859 23.3685 80.115 36.1653 33.6786 -3.70926" stroke="white" stroke-opacity="0.7" stroke-width="3"/>
<path opacity="0.315789" d="M422.929 -11.0302C417.726 -24.3998 396.379 -50.3161 352.624 -47.0242C297.929 -42.9093 265.328 -0.490797 214.075 11.8725C176.247 20.9976 80.6847 23.8209 38.6706 -20.6892" stroke="white" stroke-opacity="0.7" stroke-width="3"/>
<path opacity="0.368421" d="M426.911 12.18C423.134 -1.66035 404.614 -29.666 360.754 -30.9658C305.928 -32.5906 269.072 6.18782 216.808 13.1261C178.233 18.247 82.8988 11.0658 45.7675 -37.592" stroke="white" stroke-opacity="0.7" stroke-width="3"/>
<path opacity="0.421053" d="M428.806 35.1402C426.495 20.9808 411.004 -8.80725 367.52 -14.6846C313.165 -22.0312 272.457 12.6821 219.754 14.1193C180.855 15.18 86.794 -1.92694 54.9522 -54.1995" stroke="white" stroke-opacity="0.7" stroke-width="3"/>
<path opacity="0.473684" d="M428.646 57.635C427.829 43.3117 415.536 12.0675 372.905 1.67707C319.615 -11.311 275.502 18.9571 222.937 14.8774C184.141 11.8662 92.3828 -14.9791 66.1794 -70.2937" stroke="white" stroke-opacity="0.7" stroke-width="3"/>
<path opacity="0.526316" d="M426.495 79.4519C427.179 65.1217 418.219 32.7636 376.908 17.9739C325.268 -0.513174 278.232 24.9779 226.382 15.4261C188.112 8.3761 99.6635 -27.9134 79.3856 -85.664" stroke="white" stroke-opacity="0.7" stroke-width="3"/>
<path opacity="0.578947" d="M422.434 100.387C424.612 86.2063 419.084 53.089 379.545 34.0621C330.12 10.2784 280.677 30.7132 230.11 15.7939C192.787 4.78231 108.616 -40.5538 94.4856 -100.108" stroke="white" stroke-opacity="0.7" stroke-width="3"/>
<path opacity="0.631579" d="M416.567 120.243C420.216 106.368 418.179 72.8544 380.845 49.7987C334.178 20.9791 282.87 36.1338 234.139 16.0105C198.171 1.15792 119.2 -52.7282 111.373 -113.433" stroke="white" stroke-opacity="0.7" stroke-width="3"/>
<path opacity="0.684211" d="M409.013 138.84C414.091 125.422 415.57 91.8792 380.85 65.0473C337.451 31.5075 284.84 41.216 238.479 16.1091C204.261 -2.42167 131.355 -64.2673 129.916 -125.458" stroke="white" stroke-opacity="0.7" stroke-width="3"/>
<path opacity="0.736842" d="M399.916 156.007C406.369 143.194 411.345 109.989 379.621 79.6748C339.965 41.7823 286.627 45.9383 243.145 16.1229C211.052 -5.88314 145.01 -75.0107 149.974 -136.016" stroke="white" stroke-opacity="0.7" stroke-width="3"/>
<path opacity="0.789474" d="M389.432 171.59C397.19 159.522 405.609 127.019 377.227 93.5552C341.749 51.725 288.27 50.283 248.142 16.0857C218.525 -9.15435 160.07 -84.8065 171.385 -144.959" stroke="white" stroke-opacity="0.7" stroke-width="3"/>
<path opacity="0.842105" d="M377.736 185.454C386.712 174.263 398.483 142.819 373.755 106.571C342.844 61.2617 289.808 54.2373 253.474 16.033C226.658 -12.1647 176.431 -93.5125 193.971 -152.153" stroke="white" stroke-opacity="0.7" stroke-width="3"/>
<path opacity="0.894737" d="M365.013 197.482C375.11 187.291 390.103 157.249 369.299 118.615C343.294 70.3227 291.282 57.7931 259.141 16.0001C235.419 -14.8462 193.971 -100.998 217.545 -157.484" stroke="white" stroke-opacity="0.7" stroke-width="3"/>
<path opacity="0.947368" d="M351.461 207.575C362.568 198.495 380.619 170.185 363.967 129.588C343.152 78.8418 292.736 60.9441 265.139 16.0205C244.771 -17.1365 212.556 -107.149 241.904 -160.861" stroke="white" stroke-opacity="0.7" stroke-width="3"/>
<path d="M337.285 215.659C349.28 207.789 370.192 181.521 357.875 139.406C342.478 86.7624 294.208 63.6928 271.459 16.1307C254.669 -18.9737 232.039 -111.861 266.841 -162.211" stroke="white" stroke-opacity="0.7" stroke-width="3"/>
</g>
<g opacity="0.5">
<path opacity="0.0344828" d="M-345.342 608.098C-367.471 599.189 -364.273 567.04 -341.089 562.49L-340.538 562.387L-200.596 537.894C-187.044 535.522 -177.752 522.985 -179.337 509.395L-179.42 508.747L-199.369 368.085C-202.719 344.466 -173.278 331.162 -157.745 348.965L-157.381 349.391L-66.1975 458.337C-57.3671 468.887 -41.8648 470.666 -30.8874 462.499L-30.3675 462.102L81.4738 374.496C100.253 359.786 126.495 378.63 118.844 400.983L118.657 401.511L69.9 534.951C65.1781 547.874 71.388 562.19 83.9506 567.612L84.5536 567.864L216.344 620.918C238.473 629.827 235.274 661.975 212.091 666.525L211.54 666.628L71.5987 691.122C58.0464 693.494 48.7532 706.03 50.3382 719.621L50.4223 720.269L70.3704 860.931C73.7197 884.549 44.2799 897.852 28.7473 880.051L28.3827 879.625L-62.8002 770.679C-71.6306 760.129 -87.1338 758.348 -98.1113 766.516L-98.6302 766.913L-210.473 854.52C-229.252 869.23 -255.494 850.385 -247.843 828.033L-247.656 827.504L-198.898 694.065C-194.176 681.142 -200.386 666.826 -212.948 661.403L-213.551 661.151L-345.342 608.098Z" stroke="white" stroke-width="2"/>
<path opacity="0.0689655" d="M-340.198 594.108C-361.831 584.054 -356.954 552.117 -333.565 548.786L-333.008 548.713L-195.07 531.952C-181.412 530.292 -171.476 518.259 -172.348 504.604L-172.397 503.953L-184.681 365.544C-186.79 341.783 -156.694 330.038 -142.115 348.628L-141.773 349.073L-58.2884 460.151C-50.0222 471.149 -34.6334 473.738 -23.2435 466.155L-22.7046 465.787L91.0187 385.944C110.542 372.236 135.762 392.428 126.952 414.35L126.737 414.868L72.2835 542.707C66.8919 555.364 72.3445 569.985 84.6055 576.058L85.1945 576.342L211.202 634.907C232.835 644.962 227.958 676.898 204.569 680.229L204.012 680.302L66.074 697.063C52.4164 698.723 42.4806 710.756 43.3521 724.411L43.4012 725.062L55.6857 863.471C57.7944 887.233 27.6986 898.977 13.1189 880.387L12.7771 879.942L-70.7074 768.864C-78.9736 757.866 -94.3624 755.278 -105.752 762.86L-106.291 763.228L-220.015 843.072C-239.538 856.779 -264.758 836.587 -255.948 814.665L-255.733 814.147L-201.279 686.309C-195.888 673.651 -201.34 659.03 -213.601 652.957L-214.19 652.674L-340.198 594.108Z" stroke="white" stroke-width="2"/>
<path opacity="0.103448" d="M-334.374 580.638C-355.451 569.465 -348.909 537.828 -325.377 535.725L-324.818 535.681L-189.3 526.376C-175.574 525.433 -165.022 513.937 -165.178 500.255L-165.193 499.602L-170.104 363.853C-170.966 340.014 -140.297 329.86 -126.71 349.189L-126.392 349.651L-50.575 462.36C-42.8958 473.776 -27.6635 477.166 -15.8923 470.191L-15.334 469.851L99.7713 397.723C119.986 385.057 144.114 406.541 134.169 427.971L133.927 428.477L74.2271 550.492C68.1804 562.85 72.8603 577.737 84.7868 584.443L85.3601 584.756L205.377 648.377C226.454 659.55 219.913 691.188 196.381 693.291L195.821 693.335L60.3033 702.639C46.5774 703.582 36.0256 715.079 36.1812 728.76L36.1961 729.414L41.1072 865.162C41.9695 889.001 11.3001 899.155 -2.28653 879.826L-2.60465 879.364L-78.4218 766.656C-86.1009 755.24 -101.333 751.849 -113.104 758.825L-113.663 759.165L-228.768 831.292C-248.982 843.959 -273.111 822.475 -263.165 801.044L-262.924 800.538L-203.224 678.523C-197.177 666.165 -201.857 651.279 -213.783 644.572L-214.357 644.259L-334.374 580.638Z" stroke="white" stroke-width="2"/>
<path opacity="0.137931" d="M-327.907 567.712C-348.37 555.452 -340.182 524.2 -316.573 523.332L-316.012 523.318L-183.308 521.168C-169.552 520.945 -158.412 510.017 -157.851 496.345L-157.832 495.692L-155.683 362.988C-155.296 339.136 -124.137 330.602 -111.58 350.615L-111.288 351.093L-43.0736 464.943C-36.0024 476.745 -20.9687 480.929 -8.84855 474.578L-8.27385 474.267L107.725 409.777C128.575 398.186 151.546 420.903 140.493 441.784L140.225 442.277L75.7352 558.276C69.0499 570.301 72.9438 585.413 84.5033 592.734L85.0596 593.077L198.91 661.29C219.373 673.551 211.184 704.803 187.574 705.671L187.014 705.685L54.3102 707.835C40.5538 708.058 29.4139 718.986 28.8532 732.657L28.8349 733.311L26.6849 866.014C26.2986 889.866 -4.86034 898.401 -17.417 878.389L-17.7103 877.91L-85.9236 764.06C-92.9949 752.258 -108.029 748.075 -120.149 754.425L-120.723 754.736L-236.724 819.225C-257.573 830.817 -280.544 808.1 -269.491 787.219L-269.223 786.726L-204.732 670.727C-198.047 658.702 -201.942 643.591 -213.501 636.269L-214.057 635.926L-327.907 567.712Z" stroke="white" stroke-width="2"/>
<path opacity="0.172414" d="M-320.839 555.375C-340.632 542.06 -330.82 511.28 -307.197 511.648L-306.636 511.663L-177.116 516.348C-163.367 516.846 -151.67 506.516 -150.395 492.893L-150.342 492.242L-141.463 362.94C-139.829 339.141 -108.266 332.25 -96.7744 352.892L-96.5063 353.384L-35.804 467.896C-29.3602 480.051 -14.5659 485.016 -2.13014 479.309L-1.53994 479.029L114.877 422.067C136.305 411.583 158.055 435.471 145.924 455.745L145.631 456.223L76.8133 566.049C69.5081 577.708 72.6058 593.002 83.7663 600.918L84.304 601.289L191.843 673.629C211.636 686.944 201.823 717.724 178.2 717.355L177.64 717.34L48.1191 712.654C34.3699 712.157 22.6733 722.487 21.3979 736.11L21.3454 736.762L12.4665 866.062C10.8324 889.861 -20.7306 896.754 -32.2227 876.112L-32.4907 875.619L-93.1928 761.107C-99.6368 748.951 -114.431 743.987 -126.867 749.694L-127.457 749.974L-243.874 806.936C-265.302 817.42 -287.052 793.532 -274.921 773.258L-274.628 772.78L-205.809 662.955C-198.504 651.296 -201.603 636.002 -212.763 628.086L-213.301 627.714L-320.839 555.375Z" stroke="white" stroke-width="2"/>
<path opacity="0.206897" d="M-313.214 543.651C-332.283 529.319 -320.873 499.093 -297.302 500.698L-296.742 500.742L-170.749 511.925C-157.044 513.141 -144.823 503.437 -142.836 489.899L-142.75 489.251L-127.491 363.685C-124.614 340.004 -92.7337 334.774 -82.3379 355.989L-82.096 356.495L-28.7838 471.201C-22.985 483.677 -8.47063 489.409 4.24686 484.36L4.85149 484.112L121.223 434.542C143.17 425.194 163.641 450.188 150.465 469.799L150.148 470.261L77.4666 573.785C69.561 585.045 71.8542 600.48 82.5851 608.97L83.1023 609.369L184.217 685.365C203.286 699.697 191.876 729.922 168.305 728.317L167.745 728.274L41.7518 717.091C28.0474 715.875 15.8263 725.578 13.8396 739.116L13.7531 739.764L-1.5045 865.331C-4.38238 889.011 -36.2632 894.242 -46.6589 873.026L-46.8999 872.52L-100.213 757.815C-106.012 745.338 -120.526 739.607 -133.244 744.655L-133.848 744.903L-250.22 794.473C-272.167 803.822 -292.637 778.827 -279.462 759.217L-279.144 758.755L-206.463 655.231C-198.558 643.971 -200.851 628.535 -211.582 620.046L-212.099 619.647L-313.214 543.651Z" stroke="white" stroke-width="2"/>
<path opacity="0.241379" d="M-305.075 532.552C-323.368 517.241 -310.392 487.655 -286.938 490.491L-286.381 490.564L-164.23 507.888C-150.608 509.82 -137.896 500.769 -135.204 487.353L-135.083 486.711L-113.812 365.185C-109.699 341.687 -77.5878 338.132 -68.3167 359.863L-68.1025 360.38L-22.0291 474.829C-16.8911 487.592 -2.69667 494.075 10.2676 489.699L10.8835 489.483L126.764 447.14C149.17 438.953 168.304 464.985 154.12 483.879L153.78 484.324L77.7006 581.449C69.2165 592.28 70.6995 607.814 80.9715 616.854L81.4671 617.279L176.076 696.464C194.369 711.774 181.393 741.36 157.938 738.525L157.382 738.451L35.231 721.127C21.6091 719.196 8.89686 728.247 6.20435 741.662L6.08316 742.304L-15.1872 863.831C-19.3003 887.329 -51.4113 890.883 -60.6825 869.153L-60.8967 868.635L-106.97 754.186C-112.108 741.423 -126.303 734.94 -139.267 739.316L-139.883 739.533L-255.764 781.875C-278.17 790.061 -297.304 764.03 -283.12 745.136L-282.779 744.691L-206.701 647.566C-198.217 636.735 -199.699 621.201 -209.971 612.162L-210.466 611.736L-305.075 532.552Z" stroke="white" stroke-width="2"/>
<path opacity="0.275862" d="M-296.466 522.107C-313.933 505.86 -299.426 476.993 -276.152 481.053L-275.599 481.155L-157.58 504.249C-144.078 506.892 -130.91 498.518 -127.519 485.262L-127.365 484.627L-100.46 367.417C-95.1224 344.167 -62.8705 342.298 -54.7491 364.483L-54.5614 365.012L-15.5523 478.768C-11.0894 491.782 2.74641 498.999 15.9219 495.308L16.5483 495.124L131.508 459.819C154.312 452.817 172.057 479.813 156.904 497.939L156.541 498.366L77.5299 589.026C68.4908 599.398 69.1583 614.989 78.9426 624.553L79.4152 625.005L167.47 706.91C184.937 723.157 170.429 752.024 147.155 747.964L146.604 747.862L28.5838 724.767C15.0817 722.125 1.91397 730.499 -1.47692 743.755L-1.63155 744.389L-28.536 861.6C-33.8731 884.85 -66.1264 886.719 -74.2475 864.533L-74.4343 864.005L-113.445 750.249C-117.908 737.235 -131.742 730.018 -144.918 733.709L-145.545 733.893L-260.504 769.197C-283.308 776.201 -301.054 749.204 -285.901 731.077L-285.537 730.651L-206.527 639.99C-197.487 629.618 -198.154 614.028 -207.939 604.463L-208.412 604.012L-296.466 522.107Z" stroke="white" stroke-width="2"/>
<path opacity="0.310345" d="M-287.435 512.325C-304.028 495.186 -288.03 467.117 -265 472.39L-264.454 472.521L-150.827 501.003C-137.482 504.348 -123.893 496.675 -119.813 483.615L-119.627 482.989L-87.4788 370.344C-80.9321 347.405 -48.6264 347.226 -41.6773 369.806L-41.5175 370.344L-9.3699 482.989C-5.59426 496.219 7.84372 504.15 21.1942 501.154L21.8307 501.002L135.458 472.521C158.597 466.721 174.905 494.609 158.824 511.918L158.439 512.324L76.9581 596.488C67.3887 606.373 67.239 621.977 76.5095 632.04L76.9583 632.515L158.438 716.678C175.031 733.817 159.033 761.884 136.003 756.612L135.458 756.482L21.8299 728C8.48472 724.655 -5.10362 732.327 -9.18369 745.387L-9.37047 746.013L-41.5175 858.658C-48.064 881.597 -80.3711 881.777 -87.3202 859.196L-87.4787 858.658L-119.626 746.013C-123.402 732.783 -136.841 724.852 -150.192 727.849L-150.827 728L-264.455 756.482C-287.594 762.282 -303.902 734.394 -287.821 717.085L-287.435 716.678L-205.956 632.515C-196.386 622.63 -196.236 607.026 -205.507 596.962L-205.955 596.487L-287.435 512.325Z" stroke="white" stroke-width="2"/>
<path opacity="0.344828" d="M-278.026 503.242C-293.699 485.258 -276.254 458.066 -253.532 464.536L-252.994 464.696L-143.991 498.17C-130.84 502.209 -116.868 495.259 -112.11 482.43L-111.891 481.814L-74.9029 373.953C-67.1645 351.388 -34.8928 352.9 -29.1352 375.814L-29.0046 376.359L-3.49337 487.495C-0.4153 500.905 12.5899 509.529 26.079 507.235L26.7217 507.117L138.626 485.219C162.037 480.639 176.864 509.342 159.899 525.785L159.492 526.171L76.0006 603.833C65.9268 613.203 64.9606 628.778 73.6919 639.313L74.1153 639.81L149.031 725.774C164.704 743.758 147.259 770.95 124.537 764.479L123.999 764.32L14.9964 730.845C1.84452 726.806 -12.1267 733.757 -16.8847 746.586L-17.104 747.201L-54.0922 855.063C-61.8306 877.627 -94.1023 876.115 -99.8599 853.202L-99.9905 852.657L-125.502 741.52C-128.58 728.111 -141.585 719.486 -155.074 721.78L-155.717 721.899L-267.621 743.796C-291.032 748.377 -305.858 719.673 -288.894 703.23L-288.487 702.844L-204.996 625.183C-194.922 615.812 -193.956 600.238 -202.687 589.703L-203.11 589.205L-278.026 503.242Z" stroke="white" stroke-width="2"/>
<path opacity="0.37931" d="M-268.288 494.851C-282.998 476.072 -264.154 449.83 -241.801 457.481L-241.272 457.667L-137.098 495.732C-124.176 500.454 -109.859 494.244 -104.436 481.682L-104.185 481.078L-62.7661 378.191C-53.8575 356.062 -21.7102 359.261 -17.1593 382.444L-17.0566 382.996L2.06537 492.246C4.43744 505.798 16.9739 515.09 30.5647 513.506L31.2129 513.422L141.025 497.848C164.643 494.499 177.947 523.939 160.145 539.472L159.719 539.836L74.6668 611.022C64.1163 619.852 62.3364 635.355 70.5044 646.333L70.9006 646.852L139.294 734.165C154.004 752.944 135.16 779.187 112.807 771.536L112.278 771.349L8.10403 733.284C-4.81849 728.563 -19.1342 734.772 -24.5571 747.334L-24.8083 747.938L-66.2275 850.825C-75.1361 872.954 -107.285 869.755 -111.835 846.571L-111.937 846.02L-131.059 736.77C-133.431 723.218 -145.967 713.926 -159.558 715.51L-160.206 715.593L-270.018 731.168C-293.637 734.517 -306.941 705.076 -289.139 689.544L-288.713 689.18L-203.66 617.994C-193.11 609.164 -191.33 593.661 -199.498 582.683L-199.895 582.164L-268.288 494.851Z" stroke="white" stroke-width="2"/>
<path opacity="0.413793" d="M-258.268 487.18C-271.975 467.657 -251.784 442.437 -229.862 451.247L-229.344 451.462L-130.171 493.705C-117.513 499.097 -102.891 493.644 -96.8186 481.383L-96.5361 480.794L-51.1029 383.042C-41.0485 361.409 -9.11178 366.286 -5.78061 389.675L-5.70689 390.231L7.29543 497.24C8.95521 510.897 20.9879 520.834 34.643 519.962L35.2939 519.912L142.667 510.382C166.429 508.274 178.173 538.37 159.583 552.95L159.138 553.291L72.9682 618.056C61.9699 626.322 59.3811 641.71 66.9634 653.1L67.3319 653.64L129.271 741.862C142.978 761.386 122.787 786.606 100.865 777.795L100.347 777.581L1.174 735.338C-11.4837 729.946 -26.1048 735.398 -32.1777 747.66L-32.4602 748.249L-77.894 846.002C-87.9486 867.634 -119.886 862.757 -123.216 839.367L-123.289 838.811L-136.292 731.804C-137.952 718.146 -149.984 708.209 -163.639 709.081L-164.291 709.131L-271.664 718.66C-295.425 720.769 -307.17 690.673 -288.579 676.093L-288.135 675.752L-201.965 610.987C-190.966 602.721 -188.378 587.332 -195.96 575.942L-196.329 575.403L-258.268 487.18Z" stroke="white" stroke-width="2"/>
<path opacity="0.448276" d="M-248.011 480.211C-260.678 459.997 -239.193 435.867 -217.763 445.813L-217.256 446.054L-123.23 492.061C-110.871 498.108 -95.9849 493.428 -89.2787 481.501L-88.9651 480.928L-39.9375 388.439C-28.7645 367.363 2.87346 373.905 4.97559 397.437L5.01938 397.996L12.1908 502.429C13.1333 516.155 24.6286 526.707 38.3103 526.552L38.9643 526.536L143.575 522.751C167.414 521.889 177.567 552.559 158.239 566.145L157.778 566.463L70.9214 624.89C59.5055 632.569 56.1149 647.801 63.0907 659.573L63.4305 660.131L119.014 748.833C131.68 769.048 110.196 793.176 88.7655 783.23L88.2592 782.99L-5.76771 736.983C-18.126 730.936 -33.013 735.616 -39.7192 747.543L-40.0321 748.117L-89.0598 840.603C-100.233 861.68 -131.87 855.139 -133.973 831.607L-134.017 831.047L-141.187 726.615C-142.13 712.889 -153.626 702.337 -167.308 702.492L-167.961 702.508L-272.572 706.293C-296.411 707.155 -306.565 676.485 -287.237 662.898L-286.775 662.58L-199.919 604.154C-188.503 596.475 -185.113 581.243 -192.088 569.472L-192.428 568.914L-248.011 480.211Z" stroke="white" stroke-width="2"/>
<path opacity="0.482759" d="M-237.563 473.955C-249.155 453.105 -226.437 430.134 -205.557 441.187L-205.063 441.455L-116.296 490.805C-104.271 497.49 -89.1595 493.596 -81.8384 482.037L-81.4965 481.481L-29.297 394.358C-17.0364 373.895 14.2166 382.083 15.0843 405.693L15.0988 406.253L16.7437 507.803C16.9665 521.56 27.8944 532.7 41.5656 533.261L42.2195 533.279L143.769 534.924C167.621 535.311 176.156 566.47 156.143 579.026L155.665 579.32L68.542 631.519C56.7403 638.591 52.557 653.624 58.907 665.744L59.2177 666.319L108.568 755.086C120.159 775.936 97.4425 798.907 76.5619 787.854L76.0681 787.586L-12.6993 738.236C-24.7241 731.551 -39.8343 735.445 -47.1556 747.004L-47.4988 747.56L-99.6983 834.683C-111.959 855.146 -143.211 846.958 -144.079 823.348L-144.094 822.788L-145.739 721.238C-145.962 707.481 -156.89 696.341 -170.561 695.78L-171.215 695.762L-272.765 694.117C-296.616 693.73 -305.151 662.571 -285.138 650.015L-284.66 649.721L-197.537 597.522C-185.736 590.45 -181.552 575.417 -187.902 563.297L-188.213 562.722L-237.563 473.955Z" stroke="white" stroke-width="2"/>
<path opacity="0.517241" d="M-226.974 468.418C-237.458 446.99 -213.57 425.24 -193.297 437.371L-192.818 437.663L-109.396 489.937C-97.7373 497.242 -82.4426 494.144 -74.5265 482.984L-74.1547 482.447L-19.2061 400.761C-5.89128 380.968 24.8887 390.78 24.5198 414.403L24.5056 414.964L20.9455 513.347C20.4481 527.096 30.7786 538.792 44.4018 540.067L45.0532 540.121L143.269 546.864C167.068 548.498 173.96 580.062 153.318 591.554L152.825 591.821L65.8432 637.93C53.6875 644.374 48.7235 659.168 54.4302 671.604L54.7097 672.195L97.9777 760.624C108.462 782.052 84.5733 803.803 64.2997 791.672L63.8214 791.379L-19.6005 739.105C-31.259 731.8 -46.5536 734.898 -54.4698 746.058L-54.8416 746.595L-109.79 828.281C-123.105 848.074 -153.885 838.262 -153.516 814.639L-153.502 814.078L-149.942 715.695C-149.444 701.946 -159.775 690.25 -173.398 688.974L-174.049 688.921L-272.265 682.178C-296.064 680.544 -302.957 648.98 -282.314 637.488L-281.821 637.221L-194.84 591.112C-182.684 584.668 -177.72 569.873 -183.427 557.437L-183.707 556.847L-226.974 468.418Z" stroke="white" stroke-width="2"/>
<path opacity="0.551724" d="M-216.288 463.593C-225.637 441.646 -200.643 421.176 -181.032 434.351L-180.569 434.668L-102.547 489.447C-91.2869 497.352 -75.8516 495.058 -67.3623 484.327L-66.9628 483.811L-9.68705 407.603C4.64531 388.533 34.871 399.944 33.2663 423.515L33.2228 424.074L24.7941 519.033C23.5778 532.737 33.2818 544.958 46.8198 546.944L47.4668 547.031L142.103 558.53C165.784 561.408 171.015 593.288 149.799 603.684L149.293 603.926L62.8425 644.107C50.366 649.906 44.6343 664.42 49.6828 677.137L49.931 677.742L87.2909 765.448C96.6395 787.395 71.6445 807.866 52.0335 794.69L51.5718 794.372L-26.4509 739.594C-37.711 731.689 -53.1461 733.982 -61.6356 744.712L-62.0344 745.23L-119.312 821.438C-133.644 840.507 -163.868 829.097 -162.264 805.526L-162.22 804.966L-153.792 710.007C-152.576 696.303 -162.28 684.083 -175.817 682.096L-176.465 682.009L-271.1 670.51C-294.781 667.633 -300.012 635.752 -278.796 625.356L-278.291 625.114L-191.84 584.934C-179.364 579.135 -173.632 564.621 -178.68 551.904L-178.929 551.3L-216.288 463.593Z" stroke="white" stroke-width="2"/>
<path opacity="0.586207" d="M-205.549 459.479C-213.736 437.073 -187.704 417.938 -168.81 432.122L-168.365 432.464L-95.769 489.329C-84.9379 497.813 -69.4038 496.33 -60.3644 486.058L-59.9385 485.563L-0.752612 414.847C14.5582 396.554 44.1454 409.53 41.3091 432.985L41.2358 433.541L28.287 524.844C26.3554 538.466 35.4061 551.177 48.8212 553.869L49.4633 553.991L140.299 569.889C163.796 574.002 167.352 606.113 145.621 615.384L145.103 615.599L59.5587 650.037C46.7957 655.175 40.3123 669.369 44.6883 682.333L44.9046 682.95L76.5534 769.565C84.7401 791.971 58.7091 811.105 39.8147 796.921L39.3694 796.58L-33.2264 739.715C-44.0575 731.231 -59.5921 732.713 -68.6315 742.985L-69.0561 743.481L-128.243 814.197C-143.554 832.49 -173.14 819.514 -170.304 796.058L-170.231 795.502L-157.282 704.2C-155.35 690.578 -164.402 677.866 -177.817 675.174L-178.459 675.054L-269.294 659.154C-292.792 655.041 -296.347 622.93 -274.616 613.659L-274.098 613.444L-188.553 579.007C-175.791 573.869 -169.307 559.675 -173.683 546.711L-173.9 546.095L-205.549 459.479Z" stroke="white" stroke-width="2"/>
<path opacity="0.62069" d="M-194.802 456.064C-201.805 433.26 -174.808 415.514 -156.682 430.667L-156.256 431.031L-89.0837 489.571C-78.7115 498.61 -63.121 497.942 -53.5565 488.157L-53.1053 487.685L7.57839 422.445C23.8255 404.978 52.6921 419.485 48.6326 442.759L48.5309 443.311L31.4192 530.753C28.7773 544.255 37.1507 557.423 50.4067 560.814L51.0411 560.968L137.884 580.902C161.134 586.239 163.003 618.492 140.818 626.613L140.288 626.801L56.0066 655.703C42.9921 660.166 35.7743 674.002 39.466 687.178L39.6505 687.804L65.8072 772.978C72.8104 795.782 45.814 813.528 27.6877 798.375L27.2611 798.01L-39.9101 739.472C-50.2824 730.432 -65.8733 731.099 -75.4379 740.884L-75.8883 741.356L-136.573 806.596C-152.82 824.063 -181.686 809.557 -177.627 786.282L-177.524 785.73L-160.414 698.289C-157.772 684.786 -166.145 671.618 -179.401 668.227L-180.036 668.073L-266.878 648.14C-290.128 642.803 -291.998 610.55 -269.812 602.429L-269.283 602.241L-185 573.339C-171.986 568.876 -164.769 555.04 -168.46 541.865L-168.644 541.238L-194.802 456.064Z" stroke="white" stroke-width="2"/>
<path opacity="0.655172" d="M-184.092 453.339C-189.892 430.2 -162.004 413.892 -144.696 429.972L-144.288 430.358L-82.511 490.166C-72.6262 499.735 -57.0228 499.885 -46.9594 490.614L-46.484 490.166L15.2931 430.359C32.4321 413.766 60.5001 429.764 55.2279 452.793L55.0975 453.339L34.1907 536.743C30.8456 550.088 38.5179 563.677 51.5781 567.757L52.2049 567.944L134.888 591.54C157.827 598.087 158.006 630.393 135.426 637.342L134.887 637.502L52.204 661.099C38.9742 664.875 31.0426 678.313 34.0392 691.664L34.1906 692.299L55.0971 775.704C60.8972 798.843 33.0082 815.152 15.6998 799.071L15.2929 798.685L-46.4842 738.877C-56.3692 729.307 -71.9732 729.158 -82.0367 738.429L-82.5112 738.877L-144.289 798.685C-161.428 815.277 -189.495 799.279 -184.223 776.249L-184.093 775.704L-163.186 692.3C-159.841 678.955 -167.513 665.366 -180.573 661.286L-181.2 661.099L-263.883 637.503C-286.822 630.956 -287.001 598.65 -264.421 591.7L-263.883 591.541L-181.199 567.944C-167.97 564.168 -160.038 550.729 -163.034 537.379L-163.186 536.744L-184.092 453.339Z" stroke="white" stroke-width="2"/>
<path opacity="0.689655" d="M-173.46 451.281C-178.041 427.87 -149.337 413.043 -132.894 430.008L-132.508 430.415L-76.0679 491.092C-66.6975 501.165 -51.123 502.132 -40.588 493.401L-40.0898 492.978L22.3833 438.532C40.3672 422.859 67.5601 440.305 61.0896 463.027L60.9304 463.564L36.6024 542.782C32.5633 555.934 39.5143 569.906 52.3436 574.663L52.9584 574.883L131.345 601.764C153.911 609.502 152.399 641.773 129.486 647.531L128.94 647.662L48.1723 666.202C34.7629 669.28 26.1389 682.286 28.4328 695.775L28.5508 696.417L44.4647 777.744C49.0457 801.155 20.3418 815.981 3.89886 799.016L3.51319 798.61L-52.9276 737.933C-62.2982 727.859 -77.8734 726.892 -88.4084 735.624L-88.9061 736.047L-151.38 790.492C-169.364 806.165 -196.555 788.72 -190.085 765.998L-189.926 765.46L-165.597 686.243C-161.558 673.091 -168.51 659.119 -181.339 654.361L-181.954 654.142L-260.342 627.261C-282.907 619.522 -281.395 587.251 -258.482 581.493L-257.937 581.362L-177.168 562.823C-163.759 559.745 -155.134 546.739 -157.428 533.249L-157.546 532.607L-173.46 451.281Z" stroke="white" stroke-width="2"/>
<path opacity="0.724138" d="M-162.947 449.892C-166.296 426.274 -136.856 412.97 -121.324 430.771L-120.959 431.198L-69.772 492.356C-60.9417 502.907 -45.4382 504.687 -34.4607 496.519L-33.9415 496.122L28.8429 446.943C47.6223 432.233 73.8641 451.076 66.2139 473.429L66.0271 473.958L38.6554 548.867C33.9335 561.79 40.1439 576.106 52.7065 581.528L53.309 581.78L127.293 611.562C149.422 620.471 146.223 652.619 123.04 657.17L122.488 657.272L43.9295 671.023C30.3773 673.395 21.0844 685.931 22.6693 699.522L22.7526 700.17L33.9513 779.133C37.3005 802.752 7.86028 816.055 -7.67223 798.253L-8.03611 797.827L-59.2238 736.668C-68.0543 726.118 -83.5576 724.338 -94.5351 732.506L-95.0543 732.903L-157.839 782.082C-176.618 796.792 -202.86 777.948 -195.209 755.595L-195.022 755.066L-167.651 680.157C-162.929 667.235 -169.139 652.919 -181.701 647.496L-182.305 647.245L-256.288 617.462C-278.417 608.553 -275.218 576.405 -252.035 571.854L-251.484 571.752L-172.925 558.001C-159.373 555.629 -150.079 543.093 -151.664 529.502L-151.748 528.855L-162.947 449.892Z" stroke="white" stroke-width="2"/>
<path opacity="0.758621" d="M-152.592 449.146C-154.701 425.384 -124.604 413.639 -110.025 432.23L-109.683 432.675L-63.6392 493.937C-55.373 504.936 -39.9841 507.525 -28.5941 499.942L-28.0549 499.573L34.6672 455.538C54.1908 441.831 79.4107 462.022 70.6008 483.944L70.3866 484.462L40.3525 554.969C34.9609 567.627 40.4137 582.248 52.675 588.321L53.2639 588.604L122.761 620.905C144.394 630.959 139.517 662.895 116.128 666.227L115.572 666.301L39.4943 675.545C25.8365 677.204 15.9003 689.237 16.7718 702.892L16.8211 703.544L23.5964 779.88C25.7053 803.642 -4.39068 815.387 -18.9704 796.796L-19.3128 796.351L-65.3568 735.089C-73.623 724.09 -89.0119 721.502 -100.402 729.084L-100.941 729.453L-163.663 773.489C-183.187 787.196 -208.407 767.004 -199.597 745.083L-199.382 744.564L-169.349 674.057C-163.957 661.399 -169.41 646.778 -181.671 640.705L-182.26 640.422L-251.757 608.122C-273.39 598.067 -268.513 566.131 -245.124 562.8L-244.567 562.726L-168.49 553.481C-154.832 551.822 -144.896 539.789 -145.768 526.134L-145.817 525.483L-152.592 449.146Z" stroke="white" stroke-width="2"/>
<path opacity="0.793103" d="M-142.433 449.019C-143.295 425.18 -112.626 415.026 -99.0389 434.354L-98.7212 434.817L-57.685 495.82C-50.0057 507.236 -34.7734 510.626 -23.0023 503.65L-22.4444 503.31L39.8557 464.272C60.07 451.605 84.199 473.089 74.2537 494.52L74.0124 495.025L41.6999 561.066C35.6531 573.424 40.3322 588.311 52.259 595.018L52.8329 595.33L117.792 629.765C138.868 640.938 132.327 672.576 108.795 674.678L108.235 674.723L34.8873 679.759C21.1612 680.701 10.6079 692.197 10.7637 705.88L10.7798 706.533L13.4375 780.006C14.2999 803.845 -16.3695 813.999 -29.9563 794.671L-30.274 794.208L-71.3102 733.205C-78.9894 721.789 -94.2217 718.399 -105.993 725.374L-106.551 725.715L-168.851 764.753C-189.065 777.42 -213.194 755.936 -203.249 734.505L-203.008 733.999L-170.695 667.959C-164.648 655.601 -169.327 640.714 -181.254 634.007L-181.828 633.695L-246.787 599.26C-267.863 588.087 -261.322 556.449 -237.79 554.347L-237.231 554.302L-163.882 549.266C-150.157 548.324 -139.604 536.828 -139.76 523.146L-139.775 522.492L-142.433 449.019Z" stroke="white" stroke-width="2"/>
<path opacity="0.827586" d="M-132.507 449.493C-132.121 425.641 -100.962 417.106 -88.4054 437.119L-88.1115 437.597L-51.9259 497.992C-44.8548 509.793 -29.8215 513.977 -17.7015 507.627L-17.1266 507.316L44.4089 473.106C65.2582 461.515 88.2291 484.231 77.1764 505.112L76.9092 505.605L42.6983 567.14C36.0131 579.165 39.9069 594.277 51.4661 601.598L52.0228 601.94L112.418 638.127C132.881 650.387 124.692 681.639 101.083 682.507L100.522 682.522L30.1251 683.662C16.369 683.885 5.22933 694.813 4.66844 708.484L4.65029 709.137L3.51022 779.534C3.12387 803.386 -28.0364 811.921 -40.5928 791.907L-40.8856 791.43L-77.0714 731.034C-84.1427 719.232 -99.1765 715.05 -111.297 721.4L-111.872 721.71L-173.407 755.921C-194.256 767.512 -217.227 744.794 -206.174 723.914L-205.906 723.421L-171.696 661.885C-165.011 649.861 -168.905 634.75 -180.464 627.429L-181.02 627.086L-241.415 590.9C-261.878 578.639 -253.69 547.387 -230.08 546.519L-229.52 546.505L-159.123 545.364C-145.367 545.141 -134.227 534.213 -133.667 520.542L-133.648 519.889L-132.507 449.493Z" stroke="white" stroke-width="2"/>
<path opacity="0.862069" d="M-122.847 450.539C-121.213 426.74 -89.6487 419.848 -78.1567 440.49L-77.8891 440.983L-46.3727 500.436C-39.9289 512.592 -25.1352 517.556 -12.6995 511.849L-12.1091 511.569L48.3336 481.996C69.7611 471.512 91.5118 495.4 79.3811 515.673L79.0885 516.152L43.3582 573.172C36.053 584.831 39.1511 600.124 50.3114 608.04L50.8488 608.412L106.682 645.97C126.475 659.285 116.662 690.065 93.0399 689.697L92.4787 689.682L25.2328 687.249C11.4837 686.752 -0.212493 697.082 -1.48805 710.705L-1.54035 711.356L-6.15026 778.488C-7.7846 802.287 -39.3476 809.179 -50.8395 788.536L-51.1078 788.044L-82.6234 728.591C-89.0674 716.435 -103.862 711.471 -116.297 717.178L-116.888 717.458L-177.331 747.032C-198.758 757.516 -220.509 733.627 -208.377 713.353L-208.084 712.876L-172.354 655.855C-165.049 644.197 -168.147 628.903 -179.308 620.986L-179.846 620.616L-235.678 583.057C-255.472 569.743 -245.659 538.962 -222.036 539.331L-221.476 539.346L-154.23 541.778C-140.481 542.275 -128.784 531.945 -127.509 518.322L-127.456 517.671L-122.847 450.539Z" stroke="white" stroke-width="2"/>
<path opacity="0.896552" d="M-113.484 452.132C-110.607 428.451 -78.7267 423.22 -68.3307 444.436L-68.0893 444.942L-41.0413 503.137C-35.2424 515.614 -20.728 521.346 -8.01051 516.297L-7.40627 516.048L51.6345 490.899C73.5814 481.551 94.0523 506.545 80.8771 526.156L80.5587 526.618L43.6843 579.14C35.7787 590.401 38.0723 605.836 48.8033 614.326L49.3202 614.724L100.62 653.281C119.69 667.613 108.28 697.838 84.709 696.234L84.1493 696.19L20.2267 690.516C6.5224 689.3 -5.69834 699.004 -7.68509 712.541L-7.77236 713.189L-15.5133 776.894C-18.3908 800.575 -50.2711 805.806 -60.667 784.591L-60.9084 784.084L-87.9565 725.889C-93.7553 713.412 -108.27 707.681 -120.987 712.729L-121.591 712.978L-180.632 738.127C-202.579 747.476 -223.05 722.481 -209.874 702.87L-209.556 702.408L-172.682 649.886C-164.776 638.626 -167.07 623.19 -177.801 614.701L-178.318 614.302L-229.618 575.745C-248.687 561.413 -237.277 531.187 -213.706 532.792L-213.147 532.836L-149.224 538.51C-135.52 539.726 -123.299 530.023 -121.313 516.485L-121.225 515.837L-113.484 452.132Z" stroke="white" stroke-width="2"/>
<path opacity="0.931035" d="M-104.451 454.243C-100.338 430.745 -68.2276 427.19 -58.9562 448.92L-58.7406 449.438L-35.9393 506.079C-30.8014 518.842 -16.6068 525.326 -3.64254 520.95L-3.0261 520.733L54.3232 499.778C76.7292 491.591 95.8635 517.621 81.6805 536.516L81.3384 536.961L43.6868 585.028C35.2028 595.859 36.6856 611.394 46.9573 620.433L47.4528 620.859L94.2754 660.048C112.569 675.359 99.5927 704.944 76.138 702.109L75.5814 702.036L15.1285 693.462C1.50654 691.53 -11.2053 700.581 -13.8978 713.996L-14.0188 714.638L-24.5456 774.782C-28.6585 798.28 -60.7699 801.836 -70.0412 780.105L-70.2558 779.586L-93.0571 722.946C-98.195 710.183 -112.39 703.699 -125.354 708.075L-125.97 708.292L-183.32 729.247C-205.726 737.434 -224.861 711.403 -210.677 692.508L-210.335 692.064L-172.683 643.997C-164.199 633.166 -165.682 617.631 -175.954 608.592L-176.449 608.166L-223.273 568.977C-241.565 553.666 -228.589 524.08 -205.134 526.916L-204.578 526.989L-144.125 535.563C-130.503 537.495 -117.791 528.444 -115.099 515.029L-114.978 514.386L-104.451 454.243Z" stroke="white" stroke-width="2"/>
<path opacity="0.965517" d="M-95.7738 456.843C-90.4368 433.593 -58.1843 431.723 -50.063 453.909L-49.8758 454.438L-31.0802 509.247C-26.6172 522.261 -12.7815 529.479 0.394009 525.787L1.01998 525.603L56.4098 508.593C79.2135 501.59 96.9594 528.586 81.8068 546.712L81.4419 547.139L43.3741 590.821C34.3348 601.193 35.0014 616.784 44.7862 626.349L45.2596 626.799L87.6849 666.263C105.152 682.51 90.6452 711.376 67.3711 707.317L66.8191 707.215L9.95569 696.088C-3.54662 693.445 -16.7157 701.818 -20.1065 715.075L-20.26 715.709L-33.2235 772.183C-38.5606 795.433 -70.8133 797.303 -78.9344 775.117L-79.1214 774.589L-97.9171 719.779C-102.38 706.765 -116.216 699.547 -129.391 703.239L-130.018 703.423L-185.407 720.433C-208.211 727.436 -225.957 700.44 -210.804 682.314L-210.44 681.887L-172.371 638.205C-163.332 627.833 -164 612.242 -173.784 602.677L-174.257 602.227L-216.683 562.763C-234.15 546.516 -219.643 517.65 -196.368 521.709L-195.816 521.811L-138.953 532.938C-125.451 535.581 -112.283 527.207 -108.892 513.951L-108.737 513.317L-95.7738 456.843Z" stroke="white" stroke-width="2"/>
<path d="M-87.4795 459.899C-80.933 436.96 -48.6269 436.781 -41.6777 459.361L-41.5186 459.899L-26.4717 512.621C-22.696 525.851 -9.25763 533.783 4.09277 530.786L4.72852 530.635L57.9102 517.304C81.0492 511.504 97.3581 539.393 81.2773 556.701L80.8906 557.107L42.7559 596.499C33.1862 606.384 33.0361 621.988 42.3066 632.052L42.7559 632.526L80.8906 671.918C97.4831 689.057 81.4858 717.124 58.4561 711.853L57.9102 711.722L4.72852 698.391C-8.61688 695.046 -22.2053 702.719 -26.2852 715.779L-26.4717 716.405L-41.5186 769.127C-48.0654 792.066 -80.3715 792.245 -87.3203 769.664L-87.4795 769.127L-102.525 716.405C-106.301 703.175 -119.74 695.243 -133.091 698.24L-133.727 698.391L-186.908 711.722C-210.047 717.521 -226.355 689.634 -210.274 672.325L-209.889 671.918L-171.753 632.526C-162.183 622.641 -162.034 607.037 -171.305 596.974L-171.753 596.499L-209.889 557.107C-226.481 539.968 -210.483 511.901 -187.453 517.174L-186.908 517.304L-133.727 530.635C-120.381 533.98 -106.793 526.307 -102.713 513.247L-102.525 512.621L-87.4795 459.899Z" stroke="white" stroke-width="2"/>
</g>
</svg>
