<svg width="1318" height="407" viewBox="0 0 1318 407" fill="none" xmlns="http://www.w3.org/2000/svg">
<g opacity="0.5">
<path opacity="0.0344828" d="M1010.65 105.589C988.525 96.6809 991.723 64.5319 1014.91 59.9813L1015.46 59.8792L1155.4 35.3855C1168.95 33.0134 1178.24 20.4769 1176.66 6.88622L1176.58 6.23824L1156.63 -134.423C1153.28 -158.042 1182.72 -171.346 1198.25 -153.543L1198.61 -153.117L1289.8 -44.1717C1298.63 -33.6213 1314.13 -31.8419 1325.11 -40.0097L1325.63 -40.4058L1437.47 -128.013C1456.25 -142.723 1482.49 -123.878 1474.84 -101.526L1474.65 -100.997L1425.9 32.4428C1421.17 45.3655 1427.38 59.6814 1439.95 65.1041L1440.55 65.356L1572.34 118.41C1594.47 127.318 1591.27 159.466 1568.09 164.017L1567.54 164.12L1427.59 188.614C1414.04 190.986 1404.75 203.522 1406.33 217.113L1406.42 217.761L1426.37 358.422C1429.72 382.041 1400.28 395.344 1384.74 377.542L1384.38 377.116L1293.2 268.171C1284.37 257.62 1268.86 255.84 1257.88 264.008L1257.37 264.405L1145.52 352.012C1126.74 366.721 1100.5 347.877 1108.15 325.525L1108.34 324.995L1157.1 191.556C1161.82 178.634 1155.61 164.318 1143.05 158.895L1142.44 158.643L1010.65 105.589Z" stroke="white" stroke-width="2"/>
<path opacity="0.0689655" d="M1015.8 91.6002C994.165 81.5458 999.042 49.6093 1022.43 46.2781L1022.99 46.2051L1160.93 29.4442C1174.58 27.7845 1184.52 15.7516 1183.65 2.09659L1183.6 1.44515L1171.31 -136.964C1169.21 -160.725 1199.3 -172.47 1213.88 -153.879L1214.22 -153.435L1297.71 -42.3569C1305.97 -31.3587 1321.36 -28.7701 1332.75 -36.3525L1333.29 -36.721L1447.01 -116.564C1466.54 -130.271 1491.76 -110.079 1482.95 -88.1576L1482.73 -87.6399L1428.28 40.1987C1422.89 52.8564 1428.34 67.4776 1440.6 73.5506L1441.19 73.8337L1567.2 132.4C1588.83 142.454 1583.95 174.39 1560.56 177.722L1560.01 177.795L1422.07 194.555C1408.41 196.215 1398.48 208.248 1399.35 221.903L1399.4 222.555L1411.68 360.964C1413.79 384.725 1383.69 396.47 1369.12 377.879L1368.77 377.434L1285.29 266.357C1277.02 255.358 1261.63 252.77 1250.24 260.352L1249.7 260.721L1135.98 340.564C1116.46 354.271 1091.24 334.079 1100.05 312.157L1100.26 311.64L1154.72 183.801C1160.11 171.143 1154.66 156.522 1142.39 150.449L1141.81 150.166L1015.8 91.6002Z" stroke="white" stroke-width="2"/>
<path opacity="0.103448" d="M1021.62 78.1303C1000.55 66.9576 1007.09 35.3202 1030.62 33.2176L1031.18 33.1728L1166.7 23.8679C1180.42 22.9252 1190.97 11.4289 1190.82 -2.25307L1190.8 -2.90619L1185.89 -138.654C1185.03 -162.494 1215.7 -172.647 1229.29 -153.319L1229.6 -152.857L1305.42 -40.1475C1313.1 -28.7317 1328.33 -25.3415 1340.1 -32.3172L1340.66 -32.6568L1455.77 -104.785C1475.98 -117.451 1500.11 -95.9671 1490.16 -74.5364L1489.92 -74.0306L1430.22 47.9841C1424.18 60.3422 1428.86 75.2288 1440.78 81.9351L1441.36 82.2487L1561.37 145.869C1582.45 157.042 1575.91 188.68 1552.38 190.783L1551.82 190.827L1416.3 200.132C1402.57 201.074 1392.02 212.571 1392.18 226.253L1392.19 226.906L1397.1 362.654C1397.97 386.493 1367.3 396.647 1353.71 377.319L1353.39 376.857L1277.57 264.148C1269.9 252.732 1254.66 249.341 1242.89 256.317L1242.33 256.657L1127.23 328.784C1107.01 341.451 1082.89 319.967 1092.83 298.536L1093.07 298.03L1152.77 176.016C1158.82 163.657 1154.14 148.771 1142.21 142.064L1141.64 141.751L1021.62 78.1303Z" stroke="white" stroke-width="2"/>
<path opacity="0.137931" d="M1028.09 65.2105C1007.63 52.9499 1015.81 21.6981 1039.42 20.8301L1039.98 20.8156L1172.69 18.6656C1186.44 18.4428 1197.58 7.51471 1198.14 -6.15685L1198.16 -6.80985L1200.31 -139.514C1200.7 -163.365 1231.86 -171.9 1244.42 -151.887L1244.71 -151.409L1312.92 -37.5593C1319.99 -25.7572 1335.03 -21.5734 1347.15 -27.9236L1347.72 -28.2347L1463.72 -92.7247C1484.57 -104.316 1507.54 -81.5986 1496.49 -60.7178L1496.22 -60.2253L1431.73 55.7743C1425.05 67.7992 1428.94 82.9112 1440.5 90.2324L1441.06 90.5746L1554.91 158.788C1575.37 171.049 1567.18 202.301 1543.57 203.169L1543.01 203.183L1410.31 205.333C1396.55 205.556 1385.41 216.484 1384.85 230.156L1384.83 230.809L1382.68 363.512C1382.29 387.364 1351.14 395.899 1338.58 375.887L1338.29 375.408L1270.07 261.558C1263 249.756 1247.97 245.573 1235.85 251.923L1235.27 252.234L1119.27 316.723C1098.42 328.315 1075.45 305.598 1086.51 284.717L1086.77 284.224L1151.26 168.225C1157.95 156.2 1154.05 141.089 1142.5 133.767L1141.94 133.424L1028.09 65.2105Z" stroke="white" stroke-width="2"/>
<path opacity="0.172414" d="M1035.16 52.8733C1015.36 39.5586 1025.18 8.77821 1048.8 9.14694L1049.36 9.16183L1178.88 13.8468C1192.63 14.3442 1204.33 4.01466 1205.6 -9.60846L1205.65 -10.2596L1214.53 -139.561C1216.17 -163.36 1247.73 -170.252 1259.22 -149.61L1259.49 -149.117L1320.19 -34.6059C1326.64 -22.4501 1341.43 -17.4854 1353.87 -23.1923L1354.46 -23.4729L1470.87 -80.4343C1492.3 -90.9187 1514.05 -67.0301 1501.92 -46.7564L1501.63 -46.2786L1432.81 63.5475C1425.5 75.206 1428.6 90.5002 1439.76 98.4164L1440.3 98.7872L1547.84 171.127C1567.63 184.442 1557.82 215.223 1534.2 214.854L1533.64 214.839L1404.12 210.153C1390.37 209.655 1378.67 219.986 1377.39 233.609L1377.34 234.26L1368.46 363.561C1366.83 387.36 1335.27 394.253 1323.77 373.61L1323.51 373.117L1262.8 258.605C1256.36 246.45 1241.56 241.486 1229.13 247.193L1228.54 247.472L1112.12 304.435C1090.69 314.919 1068.94 291.03 1081.07 270.757L1081.37 270.278L1150.19 160.453C1157.49 148.795 1154.39 133.5 1143.23 125.584L1142.7 125.212L1035.16 52.8733Z" stroke="white" stroke-width="2"/>
<path opacity="0.206897" d="M1042.78 41.1431C1023.71 26.8107 1035.12 -3.41499 1058.69 -1.81029L1059.25 -1.76607L1185.25 9.41687C1198.95 10.6332 1211.17 0.929137 1213.16 -12.6086L1213.25 -13.2564L1228.5 -138.823C1231.38 -162.503 1263.26 -167.734 1273.66 -146.518L1273.9 -146.012L1327.21 -31.3069C1333.01 -18.8304 1347.53 -13.099 1360.24 -18.1475L1360.85 -18.3955L1477.22 -67.9655C1499.17 -77.314 1519.64 -52.3198 1506.46 -32.7089L1506.14 -32.2467L1433.46 71.2768C1425.56 82.537 1427.85 97.9723 1438.58 106.462L1439.1 106.861L1540.21 182.857C1559.28 197.189 1547.87 227.414 1524.3 225.809L1523.74 225.766L1397.75 214.583C1384.04 213.367 1371.82 223.071 1369.84 236.609L1369.75 237.256L1354.49 362.823C1351.61 386.503 1319.73 391.734 1309.34 370.518L1309.1 370.013L1255.78 255.307C1249.98 242.83 1235.47 237.099 1222.75 242.147L1222.15 242.395L1105.78 291.965C1083.83 301.314 1063.36 276.32 1076.53 256.709L1076.85 256.247L1149.53 152.723C1157.44 141.463 1155.15 126.028 1144.41 117.538L1143.9 117.139L1042.78 41.1431Z" stroke="white" stroke-width="2"/>
<path opacity="0.241379" d="M1050.92 30.0435C1032.63 14.7327 1045.6 -14.8534 1069.06 -12.0174L1069.61 -11.9439L1191.77 5.37968C1205.39 7.31155 1218.1 -1.73948 1220.79 -15.1548L1220.91 -15.7972L1242.18 -137.324C1246.3 -160.821 1278.41 -164.376 1287.68 -142.645L1287.89 -142.128L1333.97 -27.6791C1339.11 -14.9162 1353.3 -8.43285 1366.26 -12.809L1366.88 -13.0254L1482.76 -55.3678C1505.17 -63.5549 1524.3 -37.5236 1510.12 -18.6291L1509.78 -18.1841L1433.7 78.9403C1425.21 89.7714 1426.7 105.306 1436.97 114.345L1437.46 114.771L1532.07 193.955C1550.37 209.266 1537.39 238.852 1513.93 236.016L1513.38 235.943L1391.23 218.619C1377.61 216.687 1364.89 225.738 1362.2 239.154L1362.08 239.796L1340.81 361.323C1336.7 384.82 1304.58 388.375 1295.31 366.644L1295.1 366.127L1249.03 251.678C1243.89 238.915 1229.69 232.432 1216.73 236.808L1216.11 237.024L1100.23 279.366C1077.83 287.553 1058.69 261.522 1072.88 242.628L1073.22 242.183L1149.3 145.058C1157.78 134.227 1156.3 118.693 1146.03 109.654L1145.53 109.228L1050.92 30.0435Z" stroke="white" stroke-width="2"/>
<path opacity="0.275862" d="M1059.53 19.5992C1042.06 3.35205 1056.57 -25.5144 1079.84 -21.4548L1080.4 -21.3532L1198.42 1.74158C1211.92 4.38373 1225.09 -3.98949 1228.48 -17.2457L1228.63 -17.8808L1255.54 -135.091C1260.87 -158.34 1293.13 -160.21 1301.25 -138.024L1301.43 -137.496L1340.44 -23.74C1344.91 -10.7258 1358.74 -3.50857 1371.92 -7.19999L1372.54 -7.3839L1487.5 -42.6885C1510.31 -49.6912 1528.05 -22.695 1512.9 -4.56881L1512.54 -4.14224L1433.53 86.5184C1424.49 96.8904 1425.15 112.481 1434.94 122.046L1435.41 122.497L1523.47 204.402C1540.93 220.649 1526.43 249.517 1503.15 245.456L1502.6 245.354L1384.58 222.259C1371.08 219.617 1357.91 227.991 1354.52 241.247L1354.36 241.882L1327.46 359.092C1322.12 382.342 1289.87 384.212 1281.75 362.025L1281.56 361.497L1242.55 247.742C1238.09 234.728 1224.25 227.51 1211.08 231.201L1210.45 231.385L1095.49 266.69C1072.69 273.693 1054.94 246.696 1070.1 228.57L1070.46 228.143L1149.47 137.482C1158.51 127.11 1157.84 111.52 1148.06 101.955L1147.58 101.504L1059.53 19.5992Z" stroke="white" stroke-width="2"/>
<path opacity="0.310345" d="M1068.56 9.82348C1051.97 -7.31554 1067.97 -35.3841 1091 -30.1119L1091.54 -29.9807L1205.17 -1.49896C1218.51 1.84627 1232.1 -5.82621 1236.18 -18.8869L1236.37 -19.5123L1268.52 -132.158C1275.06 -155.096 1307.37 -155.276 1314.32 -132.695L1314.48 -132.157L1346.63 -19.5126C1350.4 -6.28277 1363.84 1.64883 1377.19 -1.34772L1377.83 -1.49897L1491.45 -29.9807C1514.59 -35.7804 1530.9 -7.89199 1514.82 9.41631L1514.43 9.82279L1432.95 93.9863C1423.38 103.871 1423.24 119.475 1432.51 129.539L1432.95 130.013L1514.43 214.177C1531.03 231.316 1515.03 259.383 1492 254.111L1491.45 253.981L1377.83 225.498C1364.48 222.153 1350.89 229.825 1346.81 242.886L1346.63 243.512L1314.48 356.157C1307.93 379.096 1275.62 379.275 1268.68 356.695L1268.52 356.157L1236.37 243.512C1232.59 230.282 1219.15 222.35 1205.8 225.347L1205.17 225.498L1091.54 253.981C1068.4 259.781 1052.09 231.892 1068.17 214.584L1068.56 214.176L1150.04 130.013C1159.61 120.128 1159.76 104.524 1150.49 94.4608L1150.04 93.9854L1068.56 9.82348Z" stroke="white" stroke-width="2"/>
<path opacity="0.344828" d="M1077.97 0.734105C1062.3 -17.2498 1079.74 -44.4418 1102.46 -37.9715L1103 -37.812L1212 -4.33765C1225.16 -0.298637 1239.13 -7.24902 1243.89 -20.0778L1244.1 -20.6934L1281.09 -128.555C1288.83 -151.12 1321.1 -149.607 1326.86 -126.694L1326.99 -126.149L1352.5 -15.0127C1355.58 -1.60329 1368.59 7.02135 1382.08 4.72743L1382.72 4.60918L1494.62 -17.2884C1518.03 -21.8693 1532.86 6.83449 1515.9 23.2775L1515.49 23.6633L1432 101.325C1421.92 110.695 1420.96 126.27 1429.69 136.805L1430.11 137.303L1505.03 223.266C1520.7 241.25 1503.26 268.442 1480.53 261.972L1479.99 261.812L1370.99 228.338C1357.84 224.299 1343.87 231.249 1339.11 244.078L1338.89 244.693L1301.9 352.555C1294.17 375.119 1261.89 373.607 1256.14 350.694L1256.01 350.149L1230.49 239.013C1227.42 225.603 1214.41 216.979 1200.92 219.273L1200.28 219.391L1088.37 241.288C1064.96 245.869 1050.14 217.165 1067.1 200.722L1067.51 200.336L1151 122.675C1161.07 113.305 1162.04 97.7298 1153.31 87.1948L1152.89 86.6974L1077.97 0.734105Z" stroke="white" stroke-width="2"/>
<path opacity="0.37931" d="M1087.71 -7.65652C1073 -26.436 1091.84 -52.6777 1114.19 -45.0272L1114.72 -44.8405L1218.9 -6.77548C1231.82 -2.05366 1246.14 -8.26402 1251.56 -20.8263L1251.81 -21.4296L1293.23 -124.317C1302.14 -146.445 1334.29 -143.247 1338.84 -120.064L1338.94 -119.512L1358.06 -10.2623C1360.43 3.28994 1372.97 12.5826 1386.56 10.9977L1387.21 10.9146L1497.02 -4.65942C1520.64 -8.00885 1533.94 21.4316 1516.14 36.9643L1515.72 37.3282L1430.66 108.514C1420.11 117.344 1418.33 132.847 1426.5 143.825L1426.9 144.344L1495.29 231.657C1510 250.436 1491.16 276.679 1468.8 269.028L1468.27 268.841L1364.1 230.777C1351.18 226.055 1336.86 232.264 1331.44 244.827L1331.19 245.43L1289.77 348.317C1280.86 370.446 1248.71 367.247 1244.16 344.063L1244.06 343.513L1224.94 234.263C1222.57 220.71 1210.03 211.418 1196.44 213.003L1195.79 213.086L1085.98 228.66C1062.36 232.009 1049.06 202.569 1066.86 187.036L1067.28 186.672L1152.34 115.486C1162.89 106.656 1164.67 91.1529 1156.5 80.1755L1156.1 79.6566L1087.71 -7.65652Z" stroke="white" stroke-width="2"/>
<path opacity="0.413793" d="M1097.73 -15.3408C1084.02 -34.8645 1104.21 -60.0841 1126.13 -51.2741L1126.65 -51.0592L1225.83 -8.81573C1238.48 -3.42404 1253.1 -8.87653 1259.18 -21.1379L1259.46 -21.7272L1304.89 -119.479C1314.95 -141.112 1346.88 -136.235 1350.22 -112.846L1350.29 -112.29L1363.29 -5.28138C1364.95 8.37635 1376.98 18.3127 1390.64 17.441L1391.29 17.3914L1498.66 7.86126C1522.42 5.75262 1534.17 35.849 1515.58 50.4286L1515.13 50.7697L1428.96 115.535C1417.97 123.801 1415.38 139.189 1422.96 150.579L1423.33 151.119L1485.27 239.341C1498.97 258.865 1478.78 284.085 1456.86 275.274L1456.34 275.06L1357.17 232.817C1344.51 227.426 1329.89 232.877 1323.82 245.139L1323.54 245.728L1278.1 343.481C1268.05 365.113 1236.11 360.236 1232.78 336.846L1232.71 336.29L1219.7 229.283C1218.04 215.625 1206.01 205.688 1192.36 206.56L1191.71 206.61L1084.33 216.139C1060.57 218.248 1048.83 188.152 1067.42 173.572L1067.86 173.231L1154.03 108.466C1165.03 100.2 1167.62 84.8113 1160.04 73.4214L1159.67 72.8825L1097.73 -15.3408Z" stroke="white" stroke-width="2"/>
<path opacity="0.448276" d="M1107.99 -22.3106C1095.32 -42.5249 1116.8 -66.654 1138.23 -56.7087L1138.74 -56.467L1232.77 -10.4602C1245.12 -4.41365 1260.01 -9.09397 1266.72 -21.0206L1267.03 -21.5937L1316.06 -114.082C1327.23 -135.158 1358.87 -128.617 1360.97 -105.084L1361.02 -104.526L1368.19 -0.0925133C1369.13 13.6332 1380.62 24.1854 1394.31 24.0301L1394.96 24.0145L1499.57 20.2297C1523.41 19.3672 1533.56 50.0372 1514.24 63.624L1513.77 63.9414L1426.92 122.369C1415.5 130.048 1412.11 145.28 1419.09 157.051L1419.43 157.609L1475.01 246.312C1487.68 266.526 1466.19 290.654 1444.76 280.709L1444.26 280.468L1350.23 234.462C1337.87 228.415 1322.98 233.094 1316.28 245.021L1315.96 245.595L1266.94 338.082C1255.76 359.159 1224.13 352.618 1222.02 329.086L1221.98 328.526L1214.81 224.093C1213.87 210.367 1202.37 199.815 1188.69 199.971L1188.04 199.986L1083.42 203.771C1059.58 204.633 1049.43 173.964 1068.76 160.377L1069.22 160.059L1156.08 101.633C1167.49 93.9536 1170.88 78.7214 1163.91 66.9504L1163.57 66.3922L1107.99 -22.3106Z" stroke="white" stroke-width="2"/>
<path opacity="0.482759" d="M1118.43 -28.5658C1106.84 -49.4153 1129.56 -72.387 1150.44 -61.3337L1150.93 -61.0658L1239.7 -11.7154C1251.73 -5.03025 1266.84 -8.9242 1274.16 -20.4838L1274.5 -21.0397L1326.7 -108.162C1338.96 -128.625 1370.21 -120.437 1371.08 -96.8272L1371.09 -96.2671L1372.74 5.2828C1372.96 19.0391 1383.89 30.1791 1397.56 30.74L1398.22 30.7587L1499.77 32.4035C1523.62 32.7901 1532.15 63.9493 1512.14 76.5059L1511.66 76.7993L1424.54 128.999C1412.74 136.07 1408.55 151.104 1414.9 163.224L1415.21 163.798L1464.56 252.566C1476.16 273.415 1453.44 296.386 1432.56 285.333L1432.06 285.066L1343.3 235.715C1331.27 229.03 1316.16 232.925 1308.84 244.484L1308.5 245.04L1256.3 332.162C1244.04 352.625 1212.79 344.437 1211.92 320.828L1211.9 320.267L1210.26 218.717C1210.03 204.961 1199.11 193.821 1185.44 193.26L1184.78 193.241L1083.23 191.596C1059.38 191.21 1050.85 160.051 1070.86 147.494L1071.34 147.201L1158.46 95.0011C1170.26 87.9299 1174.44 72.8962 1168.09 60.7762L1167.78 60.2017L1118.43 -28.5658Z" stroke="white" stroke-width="2"/>
<path opacity="0.517241" d="M1129.02 -34.1032C1118.54 -55.5308 1142.43 -77.2811 1162.7 -65.1505L1163.18 -64.8578L1246.6 -12.5841C1258.26 -5.27866 1273.55 -8.37654 1281.47 -19.5371L1281.84 -20.0743L1336.79 -101.76C1350.1 -121.553 1380.88 -111.741 1380.52 -88.1177L1380.5 -87.557L1376.94 10.8257C1376.44 24.575 1386.77 36.271 1400.4 37.5465L1401.05 37.6L1499.27 44.3432C1523.06 45.9773 1529.96 77.5407 1509.31 89.0327L1508.82 89.3001L1421.84 135.409C1409.68 141.853 1404.72 156.647 1410.43 169.083L1410.71 169.674L1453.97 258.103C1464.46 279.531 1440.57 301.282 1420.3 289.151L1419.82 288.858L1336.4 236.584C1324.74 229.279 1309.44 232.377 1301.53 243.537L1301.15 244.074L1246.21 325.76C1232.89 345.553 1202.11 335.741 1202.48 312.118L1202.49 311.557L1206.05 213.174C1206.55 199.425 1196.22 187.729 1182.6 186.453L1181.95 186.4L1083.73 179.657C1059.93 178.023 1053.04 146.459 1073.68 134.967L1074.17 134.7L1161.16 88.5908C1173.31 82.1469 1178.28 67.3522 1172.57 54.9163L1172.29 54.3257L1129.02 -34.1032Z" stroke="white" stroke-width="2"/>
<path opacity="0.551724" d="M1139.71 -38.9276C1130.36 -60.8745 1155.35 -81.3449 1174.96 -68.1698L1175.43 -67.8524L1253.45 -13.0737C1264.71 -5.1683 1280.14 -7.46227 1288.63 -18.193L1289.03 -18.71L1346.31 -94.9177C1360.64 -113.987 1390.87 -102.577 1389.26 -79.0056L1389.22 -78.4463L1380.79 16.5121C1379.57 30.2165 1389.28 42.4372 1402.82 44.4238L1403.46 44.5106L1498.1 56.0098C1521.78 58.8873 1527.01 90.768 1505.8 101.164L1505.29 101.406L1418.84 141.586C1406.36 147.385 1400.63 161.899 1405.68 174.617L1405.93 175.221L1443.29 262.927C1452.64 284.874 1427.64 305.345 1408.03 292.169L1407.57 291.852L1329.55 237.074C1318.29 229.168 1302.85 231.461 1294.36 242.192L1293.96 242.71L1236.68 318.917C1222.35 337.986 1192.13 326.576 1193.73 303.005L1193.78 302.446L1202.2 207.487C1203.42 193.783 1193.72 181.563 1180.18 179.576L1179.53 179.488L1084.9 167.99C1061.21 165.112 1055.98 133.231 1077.2 122.836L1077.7 122.594L1164.16 82.4133C1176.63 76.6144 1182.36 62.1003 1177.32 49.383L1177.07 48.7791L1139.71 -38.9276Z" stroke="white" stroke-width="2"/>
<path opacity="0.586207" d="M1150.45 -43.042C1142.26 -65.4481 1168.29 -84.5831 1187.19 -70.3995L1187.63 -70.0577L1260.23 -13.1924C1271.06 -4.70852 1286.59 -6.1914 1295.63 -16.4633L1296.06 -16.9586L1355.24 -87.6746C1370.55 -105.968 1400.14 -92.9914 1397.31 -69.5363L1397.23 -68.9809L1384.28 22.3225C1382.35 35.9442 1391.4 48.6554 1404.82 51.3479L1405.46 51.4692L1496.29 67.3677C1519.79 71.4806 1523.35 103.591 1501.62 112.863L1501.1 113.078L1415.55 147.515C1402.79 152.653 1396.31 166.847 1400.68 179.811L1400.9 180.428L1432.55 267.043C1440.74 289.449 1414.71 308.583 1395.81 294.399L1395.37 294.059L1322.77 237.194C1311.94 228.709 1296.4 230.192 1287.36 240.464L1286.94 240.959L1227.75 311.675C1212.44 329.968 1182.86 316.992 1185.69 293.537L1185.77 292.981L1198.71 201.679C1200.65 188.057 1191.59 175.345 1178.18 172.653L1177.54 172.532L1086.7 156.632C1063.2 152.519 1059.65 120.408 1081.38 111.137L1081.9 110.923L1167.44 76.4855C1180.21 71.3474 1186.69 57.1532 1182.31 44.1891L1182.1 43.5731L1150.45 -43.042Z" stroke="white" stroke-width="2"/>
<path opacity="0.62069" d="M1161.19 -46.4574C1154.19 -69.2613 1181.19 -87.007 1199.31 -71.8541L1199.74 -71.4895L1266.91 -12.9501C1277.28 -3.91104 1292.87 -4.57877 1302.44 -14.3636L1302.89 -14.8359L1363.57 -80.0758C1379.82 -97.5426 1408.69 -83.036 1404.63 -59.7618L1404.53 -59.2102L1387.41 28.2321C1384.77 41.7342 1393.14 54.9025 1406.4 58.2933L1407.04 58.4472L1493.88 78.3809C1517.13 83.718 1519 115.971 1496.81 124.092L1496.28 124.28L1412 153.182C1398.99 157.645 1391.77 171.481 1395.46 184.657L1395.64 185.283L1421.8 270.457C1428.8 293.261 1401.81 311.007 1383.68 295.854L1383.26 295.489L1316.08 236.951C1305.71 227.911 1290.12 228.578 1280.56 238.363L1280.11 238.835L1219.42 304.075C1203.17 321.542 1174.31 307.036 1178.37 283.761L1178.47 283.209L1195.58 195.768C1198.22 182.265 1189.85 169.097 1176.59 165.706L1175.96 165.552L1089.12 145.619C1065.87 140.282 1064 108.029 1086.18 99.9075L1086.71 99.72L1170.99 70.8176C1184.01 66.3545 1191.23 52.519 1187.53 39.3438L1187.35 38.7172L1161.19 -46.4574Z" stroke="white" stroke-width="2"/>
<path opacity="0.655172" d="M1171.9 -49.1818C1166.1 -72.3208 1193.99 -88.6293 1211.3 -72.5487L1211.71 -72.1627L1273.49 -12.355C1283.37 -2.78571 1298.97 -2.63639 1309.04 -11.9067L1309.51 -12.3548L1371.29 -72.1623C1388.43 -88.7549 1416.5 -72.7574 1411.22 -49.7275L1411.09 -49.182L1390.19 34.2217C1386.84 47.567 1394.51 61.1558 1407.57 65.2359L1408.2 65.4232L1490.88 89.0193C1513.82 95.5658 1514 127.872 1491.42 134.821L1490.88 134.981L1408.2 158.578C1394.97 162.354 1387.04 175.792 1390.04 189.143L1390.19 189.778L1411.09 273.183C1416.89 296.322 1389 312.631 1371.7 296.55L1371.29 296.164L1309.51 236.356C1299.63 226.786 1284.02 226.637 1273.96 235.908L1273.48 236.356L1211.71 296.164C1194.57 312.756 1166.5 296.758 1171.77 273.728L1171.9 273.183L1192.81 189.779C1196.16 176.434 1188.48 162.845 1175.42 158.765L1174.8 158.578L1092.11 134.982C1069.17 128.435 1068.99 96.1286 1091.58 89.1795L1092.11 89.0199L1174.8 65.4231C1188.03 61.6472 1195.96 48.2084 1192.96 34.858L1192.81 34.2227L1171.9 -49.1818Z" stroke="white" stroke-width="2"/>
<path opacity="0.689655" d="M1182.54 -51.2396C1177.96 -74.6506 1206.66 -89.4773 1223.1 -72.5126L1223.49 -72.1054L1279.93 -11.429C1289.3 -1.35509 1304.87 -0.388643 1315.41 -9.11977L1315.91 -9.54239L1378.38 -63.9882C1396.36 -79.6612 1423.56 -62.2158 1417.09 -39.4933L1416.93 -38.9562L1392.6 40.2618C1388.56 53.4139 1395.51 67.3853 1408.34 72.143L1408.95 72.3624L1487.34 99.2433C1509.91 106.981 1508.4 139.253 1485.48 145.01L1484.94 145.142L1404.17 163.682C1390.76 166.76 1382.13 179.765 1384.43 193.254L1384.55 193.897L1400.46 275.224C1405.04 298.635 1376.34 313.461 1359.89 296.496L1359.51 296.089L1303.07 235.412C1293.7 225.338 1278.12 224.372 1267.59 233.103L1267.09 233.527L1204.62 287.972C1186.63 303.644 1159.44 286.2 1165.91 263.477L1166.07 262.939L1190.4 183.722C1194.44 170.57 1187.49 156.599 1174.66 151.841L1174.04 151.622L1095.65 124.74C1073.09 117.002 1074.6 84.7304 1097.51 78.9727L1098.06 78.8419L1178.83 60.3025C1192.24 57.2244 1200.86 44.2181 1198.57 30.7288L1198.45 30.0863L1182.54 -51.2396Z" stroke="white" stroke-width="2"/>
<path opacity="0.724138" d="M1193.05 -52.6283C1189.7 -76.2469 1219.14 -89.551 1234.67 -71.7491L1235.04 -71.3223L1286.22 -10.1642C1295.05 0.386289 1310.56 2.16619 1321.54 -6.00173L1322.05 -6.39859L1384.84 -55.5777C1403.62 -70.2878 1429.86 -51.4441 1422.21 -29.0915L1422.02 -28.5626L1394.65 46.3465C1389.93 59.2692 1396.14 73.5851 1408.7 79.0079L1409.31 79.2592L1483.29 109.042C1505.42 117.95 1502.22 150.099 1479.04 154.649L1478.48 154.752L1399.93 168.503C1386.37 170.875 1377.08 183.411 1378.67 197.001L1378.75 197.65L1389.95 276.613C1393.3 300.231 1363.86 313.535 1348.32 295.733L1347.96 295.307L1296.77 234.148C1287.94 223.597 1272.44 221.817 1261.46 229.985L1260.94 230.382L1198.16 279.561C1179.38 294.271 1153.14 275.427 1160.79 253.075L1160.97 252.546L1188.34 177.637C1193.07 164.714 1186.86 150.398 1174.29 144.975L1173.69 144.724L1099.71 114.941C1077.58 106.033 1080.78 73.8842 1103.96 69.3338L1104.51 69.2317L1183.07 55.481C1196.62 53.1089 1205.92 40.5727 1204.33 26.9817L1204.25 26.334L1193.05 -52.6283Z" stroke="white" stroke-width="2"/>
<path opacity="0.758621" d="M1203.4 -53.3749C1201.29 -77.1365 1231.39 -88.8821 1245.97 -70.2915L1246.31 -69.8462L1292.36 -8.58351C1300.62 2.41475 1316.01 5.00369 1327.4 -2.57865L1327.94 -2.9478L1390.66 -46.983C1410.19 -60.6902 1435.41 -40.4989 1426.6 -18.5773L1426.38 -18.0588L1396.35 52.448C1390.96 65.1057 1396.41 79.7271 1408.67 85.8L1409.26 86.0833L1478.76 118.384C1500.39 128.438 1495.51 160.374 1472.12 163.706L1471.57 163.78L1395.49 173.024C1381.83 174.683 1371.9 186.716 1372.77 200.371L1372.82 201.023L1379.59 277.359C1381.7 301.121 1351.61 312.866 1337.03 294.275L1336.68 293.83L1290.64 232.568C1282.37 221.569 1266.98 218.981 1255.59 226.563L1255.05 226.932L1192.33 270.968C1172.81 284.675 1147.59 264.483 1156.4 242.562L1156.61 242.043L1186.65 171.536C1192.04 158.878 1186.59 144.257 1174.33 138.184L1173.74 137.901L1104.24 105.601C1082.61 95.5461 1087.48 63.6099 1110.87 60.2785L1111.43 60.2051L1187.51 50.9603C1201.16 49.3008 1211.1 37.2684 1210.23 23.6132L1210.18 22.9616L1203.4 -53.3749Z" stroke="white" stroke-width="2"/>
<path opacity="0.793103" d="M1213.56 -53.5012C1212.7 -77.3405 1243.37 -87.4944 1256.96 -68.1665L1257.27 -67.7039L1298.31 -6.70083C1305.99 4.71502 1321.22 8.10587 1332.99 1.12991L1333.55 0.789496L1395.85 -38.2489C1416.07 -50.9156 1440.2 -29.4311 1430.25 -8.00059L1430.01 -7.49503L1397.7 58.5456C1391.65 70.9039 1396.33 85.7908 1408.26 92.4971L1408.83 92.8096L1473.79 127.245C1494.86 138.418 1488.32 170.055 1464.79 172.158L1464.23 172.202L1390.88 177.238C1377.16 178.181 1366.6 189.677 1366.76 203.359L1366.78 204.012L1369.43 277.485C1370.3 301.324 1339.63 311.478 1326.04 292.15L1325.72 291.688L1284.69 230.685C1277.01 219.269 1261.77 215.878 1250 222.854L1249.45 223.194L1187.15 262.233C1166.93 274.899 1142.8 253.415 1152.75 231.984L1152.99 231.479L1185.3 165.438C1191.35 153.08 1186.67 138.193 1174.74 131.487L1174.17 131.174L1109.21 96.7391C1088.13 85.5661 1094.67 53.9287 1118.21 51.8261L1118.77 51.7818L1192.11 46.7455C1205.84 45.803 1216.39 34.3071 1216.24 20.6251L1216.22 19.9718L1213.56 -53.5012Z" stroke="white" stroke-width="2"/>
<path opacity="0.827586" d="M1223.49 -53.0281C1223.88 -76.8799 1255.04 -85.4147 1267.59 -65.4023L1267.89 -64.924L1304.07 -4.52943C1311.14 7.27246 1326.18 11.4558 1338.3 5.10599L1338.87 4.79524L1400.41 -29.4152C1421.26 -41.0064 1444.23 -18.2895 1433.17 2.59105L1432.91 3.08424L1398.7 64.6194C1392.01 76.6442 1395.9 91.7557 1407.46 99.077L1408.02 99.4192L1468.42 135.606C1488.88 147.866 1480.69 179.118 1457.08 179.986L1456.52 180.001L1386.12 181.141C1372.37 181.364 1361.23 192.292 1360.67 205.963L1360.65 206.616L1359.51 277.013C1359.12 300.865 1327.96 309.4 1315.41 289.386L1315.11 288.909L1278.93 228.513C1271.86 216.711 1256.82 212.529 1244.7 218.879L1244.13 219.189L1182.59 253.4C1161.74 264.991 1138.77 242.273 1149.82 221.393L1150.09 220.9L1184.3 159.364C1190.99 147.34 1187.09 132.229 1175.53 124.908L1174.98 124.565L1114.58 88.379C1094.12 76.1184 1102.31 44.8664 1125.92 43.9984L1126.48 43.9838L1196.87 42.8432C1210.63 42.6203 1221.77 31.6924 1222.33 18.021L1222.35 17.3678L1223.49 -53.0281Z" stroke="white" stroke-width="2"/>
<path opacity="0.862069" d="M1233.15 -51.9816C1234.78 -75.7805 1266.35 -82.6733 1277.84 -62.0308L1278.11 -61.5376L1309.62 -2.085C1316.07 10.0708 1330.86 15.0353 1343.3 9.32838L1343.89 9.04814L1404.33 -20.5252C1425.76 -31.0094 1447.51 -7.12147 1435.38 13.1521L1435.08 13.6306L1399.35 70.6511C1392.05 82.3095 1395.15 97.603 1406.31 105.519L1406.84 105.891L1462.68 143.449C1482.47 156.764 1472.66 187.544 1449.04 187.176L1448.47 187.161L1381.23 184.728C1367.48 184.231 1355.78 194.561 1354.51 208.184L1354.46 208.835L1349.85 275.967C1348.21 299.766 1316.65 306.658 1305.16 286.015L1304.89 285.523L1273.37 226.07C1266.93 213.914 1252.13 208.95 1239.7 214.657L1239.11 214.937L1178.67 244.511C1157.24 254.995 1135.49 231.106 1147.62 210.832L1147.91 210.355L1183.64 153.334C1190.95 141.676 1187.85 126.382 1176.69 118.465L1176.15 118.095L1120.32 80.5363C1100.52 67.2216 1110.34 36.4407 1133.96 36.8098L1134.52 36.8245L1201.77 39.2569C1215.52 39.7543 1227.21 29.4243 1228.49 15.801L1228.54 15.1497L1233.15 -51.9816Z" stroke="white" stroke-width="2"/>
<path opacity="0.896552" d="M1242.51 -50.3889C1245.39 -74.0697 1277.27 -79.3008 1287.67 -58.0854L1287.91 -57.5788L1314.96 0.616381C1320.76 13.0929 1335.27 18.8247 1347.99 13.7763L1348.59 13.5273L1407.63 -11.6218C1429.58 -20.9703 1450.05 4.02425 1436.88 23.6352L1436.56 24.0969L1399.68 76.6194C1391.78 87.8797 1394.07 103.315 1404.8 111.805L1405.32 112.203L1456.62 150.76C1475.69 165.093 1464.28 195.317 1440.71 193.713L1440.15 193.669L1376.22 187.995C1362.52 186.779 1350.3 196.483 1348.31 210.02L1348.23 210.668L1340.48 274.373C1337.61 298.054 1305.73 303.285 1295.33 282.07L1295.09 281.563L1268.04 223.368C1262.24 210.891 1247.73 205.16 1235.01 210.208L1234.41 210.457L1175.37 235.606C1153.42 244.955 1132.95 219.96 1146.12 200.349L1146.44 199.887L1183.32 147.365C1191.22 136.105 1188.93 120.669 1178.2 112.18L1177.68 111.781L1126.38 73.2241C1107.31 58.8916 1118.72 28.6664 1142.29 30.2715L1142.85 30.3155L1206.77 35.9891C1220.48 37.2054 1232.7 27.5017 1234.69 13.9639L1234.77 13.3163L1242.51 -50.3889Z" stroke="white" stroke-width="2"/>
<path opacity="0.931035" d="M1251.55 -48.2777C1255.66 -71.7754 1287.77 -75.3308 1297.04 -53.6004L1297.26 -53.082L1320.06 3.55872C1325.19 16.3217 1339.39 22.8053 1352.35 18.4293L1352.97 18.2123L1410.32 -2.74283C1432.73 -10.9298 1451.86 15.1008 1437.68 33.9953L1437.33 34.4407L1399.68 82.5079C1391.2 93.3388 1392.68 108.873 1402.95 117.913L1403.45 118.339L1450.27 157.527C1468.56 172.838 1455.59 202.424 1432.13 199.588L1431.58 199.515L1371.12 190.942C1357.5 189.01 1344.79 198.06 1342.1 211.476L1341.98 212.118L1331.45 272.262C1327.34 295.759 1295.23 299.315 1285.95 277.584L1285.74 277.066L1262.94 220.425C1257.8 207.662 1243.61 201.179 1230.64 205.555L1230.03 205.772L1172.68 226.727C1150.27 234.914 1131.14 208.882 1145.32 189.988L1145.66 189.543L1183.31 141.476C1191.8 130.645 1190.31 115.111 1180.04 106.071L1179.55 105.645L1132.72 66.4566C1114.43 51.1459 1127.41 21.5599 1150.86 24.3957L1151.42 24.4688L1211.87 33.0424C1225.49 34.9743 1238.21 25.9234 1240.9 12.5081L1241.02 11.866L1251.55 -48.2777Z" stroke="white" stroke-width="2"/>
<path opacity="0.965517" d="M1260.22 -45.6776C1265.56 -68.9279 1297.81 -70.798 1305.93 -48.612L1306.12 -48.083L1324.92 6.72622C1329.38 19.7405 1343.21 26.9583 1356.39 23.2667L1357.02 23.0823L1412.41 6.07223C1435.21 -0.930901 1452.96 26.0655 1437.8 44.1918L1437.44 44.6187L1399.37 88.3007C1390.33 98.6729 1391 114.264 1400.78 123.828L1401.26 124.279L1443.68 163.742C1461.15 179.989 1446.64 208.856 1423.37 204.796L1422.82 204.694L1365.95 193.567C1352.45 190.925 1339.28 199.298 1335.89 212.554L1335.74 213.189L1322.77 269.663C1317.44 292.913 1285.18 294.782 1277.06 272.596L1276.87 272.068L1258.08 217.259C1253.62 204.244 1239.78 197.027 1226.6 200.718L1225.98 200.903L1170.59 217.913C1147.79 224.916 1130.04 197.92 1145.19 179.793L1145.56 179.366L1183.62 135.684C1192.66 125.312 1192 109.721 1182.21 100.157L1181.74 99.7063L1139.31 60.2428C1121.85 43.9956 1136.35 15.129 1159.63 19.1887L1160.18 19.2908L1217.04 30.418C1230.55 33.0601 1243.71 24.687 1247.1 11.431L1247.26 10.7961L1260.22 -45.6776Z" stroke="white" stroke-width="2"/>
<path d="M1268.52 -42.6216C1275.06 -65.5607 1307.37 -65.7402 1314.32 -43.1597L1314.48 -42.6216L1329.52 10.1001C1333.3 23.3298 1346.74 31.2617 1360.09 28.2651L1360.72 28.1138L1413.91 14.7827C1437.05 8.98262 1453.35 36.8718 1437.27 54.1802L1436.89 54.5864L1398.75 93.978C1389.18 103.863 1389.03 119.467 1398.3 129.531L1398.75 130.005L1436.89 169.397C1453.48 186.536 1437.48 214.603 1414.45 209.332L1413.91 209.201L1360.72 195.87C1347.38 192.525 1333.79 200.198 1329.71 213.258L1329.52 213.884L1314.48 266.606C1307.93 289.545 1275.62 289.724 1268.68 267.143L1268.52 266.606L1253.47 213.884C1249.7 200.654 1236.26 192.722 1222.91 195.719L1222.27 195.87L1169.09 209.201C1145.95 215 1129.64 187.113 1145.72 169.804L1146.11 169.397L1184.24 130.005C1193.81 120.12 1193.96 104.516 1184.69 94.4526L1184.24 93.978L1146.11 54.5864C1129.52 37.4473 1145.51 9.38032 1168.54 14.6528L1169.09 14.7827L1222.27 28.1138C1235.61 31.4589 1249.2 23.7864 1253.28 10.7261L1253.47 10.1001L1268.52 -42.6216Z" stroke="white" stroke-width="2"/>
</g>
<g opacity="0.45">
<path opacity="0.0526316" d="M221.407 -3.10722C210.216 -12.0838 178.771 -23.8549 142.524 0.873787C97.2143 31.7847 90.19 84.8209 51.9856 121.154C23.7879 147.971 -57.5599 198.197 -116.2 180.657" stroke="white" stroke-opacity="0.7" stroke-width="3"/>
<path opacity="0.105263" d="M235.599 18.0811C225.407 7.98382 195.365 -7.00961 156.731 13.7947C108.439 39.8001 95.9093 91.8116 54.1163 123.952C23.27 147.675 -62.8822 189.123 -119.368 165.549" stroke="white" stroke-opacity="0.7" stroke-width="3"/>
<path opacity="0.157895" d="M247.855 40.098C238.774 28.9907 210.464 10.9392 169.868 27.5912C119.122 48.4062 101.224 98.823 56.3003 126.419C23.1433 146.787 -66.8695 179.003 -120.582 149.654" stroke="white" stroke-opacity="0.7" stroke-width="3"/>
<path opacity="0.210526" d="M258.101 62.7373C250.231 50.7417 223.963 29.8298 181.848 42.1471C129.204 57.5437 106.135 105.814 58.5726 128.563C23.4682 145.353 -69.4189 167.983 -119.769 133.181" stroke="white" stroke-opacity="0.7" stroke-width="3"/>
<path opacity="0.263158" d="M266.284 85.786C259.712 73.0335 235.773 49.4905 192.601 57.3381C138.637 67.1476 110.648 112.742 60.9684 130.394C24.3012 143.424 -70.4426 156.22 -116.879 116.346" stroke="white" stroke-opacity="0.7" stroke-width="3"/>
<path opacity="0.315789" d="M272.372 109.024C267.168 95.6548 245.822 69.7385 202.066 73.0305C147.372 77.1454 114.77 119.564 63.5177 131.927C25.6895 141.052 -69.8729 143.876 -111.887 99.3655" stroke="white" stroke-opacity="0.7" stroke-width="3"/>
<path opacity="0.368421" d="M276.354 132.235C272.576 118.394 254.056 90.3887 210.196 89.0889C155.371 87.4641 118.514 126.243 66.25 133.181C27.6752 138.302 -67.6588 131.121 -104.79 82.4626" stroke="white" stroke-opacity="0.7" stroke-width="3"/>
<path opacity="0.421053" d="M278.248 155.195C275.938 141.036 260.446 111.247 216.962 105.37C162.608 98.0235 121.899 132.737 69.1963 134.174C30.2975 135.235 -63.7636 118.128 -95.6054 65.8551" stroke="white" stroke-opacity="0.7" stroke-width="3"/>
<path opacity="0.473684" d="M278.089 177.69C277.271 163.366 264.978 132.122 222.347 121.732C169.058 108.744 124.944 139.012 72.3795 134.932C33.5829 131.921 -58.1748 105.076 -84.3782 49.761" stroke="white" stroke-opacity="0.7" stroke-width="3"/>
<path opacity="0.526316" d="M275.939 199.507C276.623 185.176 267.664 152.818 226.352 138.029C174.712 119.542 127.676 145.033 75.8261 135.481C37.5568 128.431 -50.8921 92.1413 -71.17 34.3907" stroke="white" stroke-opacity="0.7" stroke-width="3"/>
<path opacity="0.578947" d="M271.878 220.441C274.057 206.261 268.528 173.144 228.989 154.117C179.565 130.333 130.122 150.768 79.554 135.849C42.2313 124.837 -41.9398 79.5008 -56.0701 19.947" stroke="white" stroke-opacity="0.7" stroke-width="3"/>
<path opacity="0.631579" d="M266.009 240.298C269.658 226.423 267.622 192.909 230.288 169.853C183.62 141.034 132.312 156.189 83.5811 136.065C47.6139 121.213 -31.3572 67.3265 -39.185 6.62189" stroke="white" stroke-opacity="0.7" stroke-width="3"/>
<path opacity="0.684211" d="M258.456 258.894C263.535 245.477 265.013 211.934 230.293 185.102C186.894 151.562 134.283 161.271 87.9222 136.164C53.7045 117.633 -19.2013 55.7874 -20.6408 -5.40292" stroke="white" stroke-opacity="0.7" stroke-width="3"/>
<path opacity="0.736842" d="M249.359 276.061C255.813 263.248 260.789 230.044 229.064 199.729C189.408 161.837 136.071 165.993 92.5883 136.178C60.495 114.172 -5.54683 45.044 -0.582329 -15.9616" stroke="white" stroke-opacity="0.7" stroke-width="3"/>
<path opacity="0.789474" d="M238.875 291.645C246.633 279.577 255.053 247.074 226.671 213.61C191.193 171.78 137.713 170.338 97.5853 136.14C67.9681 110.9 9.51383 35.2482 20.828 -24.9042" stroke="white" stroke-opacity="0.7" stroke-width="3"/>
<path opacity="0.842105" d="M227.179 305.509C236.156 294.318 247.927 262.873 223.198 226.626C192.287 181.316 139.251 174.292 102.918 136.088C76.101 107.89 25.8748 26.5422 43.4146 -32.0981" stroke="white" stroke-opacity="0.7" stroke-width="3"/>
<path opacity="0.894737" d="M214.456 317.537C224.553 307.345 239.547 277.304 218.742 238.67C192.737 190.377 140.726 177.848 108.585 136.055C84.8625 105.209 43.4146 19.0562 66.9879 -37.4294" stroke="white" stroke-opacity="0.7" stroke-width="3"/>
<path opacity="0.947368" d="M200.903 327.63C212.01 318.55 230.062 290.24 213.41 249.643C192.595 198.897 142.178 180.999 114.582 136.076C94.2138 102.919 61.9983 12.9059 91.3468 -40.8062" stroke="white" stroke-opacity="0.7" stroke-width="3"/>
<path d="M186.729 335.714C198.725 327.844 219.636 301.576 207.319 259.461C191.923 206.817 143.653 183.747 120.904 136.185C104.113 101.081 81.4829 8.19386 116.285 -42.1563" stroke="white" stroke-opacity="0.7" stroke-width="3"/>
</g>
</svg>
