<svg width="48" height="48" viewBox="0 0 48 48" fill="none" xmlns="http://www.w3.org/2000/svg">
<rect width="48" height="48" rx="24" fill="white" fill-opacity="0.1"/>
<rect x="0.5" y="0.5" width="47" height="47" rx="23.5" stroke="white" stroke-opacity="0.07"/>
<path d="M33.3743 14.625H14.6243C13.4785 14.625 12.541 15.5625 12.541 16.7083V19.8333H14.6243V16.7083H33.3743V31.2917H26.0827V33.375H33.3743C34.5202 33.375 35.4577 32.4375 35.4577 31.2917V16.7083C35.4577 15.5625 34.5202 14.625 33.3743 14.625ZM12.541 30.25V33.375H15.666C15.666 31.6458 14.2702 30.25 12.541 30.25ZM12.541 26.0833V28.1667C15.416 28.1667 17.7493 30.5 17.7493 33.375H19.8327C19.8327 29.3438 16.5723 26.0833 12.541 26.0833ZM12.541 21.9167V24C13.7722 24 14.9912 24.2425 16.1287 24.7136C17.2661 25.1848 18.2996 25.8753 19.1701 26.7459C20.0407 27.6164 20.7312 28.6499 21.2024 29.7873C21.6735 30.9248 21.916 32.1439 21.916 33.375H23.9993C23.9993 27.0417 18.8639 21.9167 12.541 21.9167ZM22.9577 23.0521V25.1354L26.6035 27.125L30.2493 25.1354V23.0521L26.6035 25.0417L22.9577 23.0521ZM26.6035 17.75L20.8743 20.875L26.6035 24L32.3327 20.875L26.6035 17.75Z" fill="white"/>
</svg>
