<svg width="48" height="48" viewBox="0 0 48 48" fill="none" xmlns="http://www.w3.org/2000/svg">
<rect width="48" height="48" rx="24" fill="white" fill-opacity="0.1"/>
<rect x="0.5" y="0.5" width="47" height="47" rx="23.5" stroke="white" stroke-opacity="0.07"/>
<path d="M12.334 24C12.334 22.3862 12.6404 20.8695 13.2533 19.45C13.8662 18.0306 14.6973 16.7959 15.7465 15.7459C16.7957 14.6959 18.0304 13.8648 19.4507 13.2527C20.8709 12.6406 22.3875 12.3342 24.0007 12.3334C26.4701 12.3334 28.6724 13.0139 30.6075 14.375C32.5426 15.7362 33.9473 17.4959 34.8215 19.6542C34.9576 19.9848 34.9627 20.3153 34.8367 20.6459C34.7106 20.9764 34.482 21.2 34.1507 21.3167C33.8395 21.4139 33.5432 21.3848 33.2617 21.2292C32.9801 21.0737 32.7806 20.8403 32.6631 20.5292C32.1965 19.3625 31.5257 18.332 30.6507 17.4375C29.7757 16.5431 28.7257 15.8528 27.5007 15.3667V15.8334C27.5007 16.475 27.2724 17.0245 26.8158 17.4819C26.3593 17.9392 25.8098 18.1675 25.1673 18.1667H22.834V20.5C22.834 20.8306 22.722 21.1079 22.498 21.3319C22.274 21.5559 21.9971 21.6675 21.6673 21.6667H19.334V24H20.5007C20.8312 24 21.1085 24.112 21.3325 24.336C21.5565 24.56 21.6681 24.8369 21.6673 25.1667V27.5H20.5007L14.9007 21.9C14.8423 22.25 14.789 22.6 14.7408 22.95C14.6926 23.3 14.6681 23.65 14.6673 24C14.6673 26.3723 15.4502 28.4431 17.0158 30.2125C18.5815 31.982 20.55 33.0028 22.9215 33.275C23.2326 33.3139 23.4904 33.4454 23.695 33.6694C23.8995 33.8934 24.0014 34.1703 24.0007 34.5C23.9999 34.8298 23.8879 35.1071 23.6647 35.3319C23.4414 35.5567 23.1743 35.6488 22.8632 35.6084C19.8882 35.3167 17.3895 34.0723 15.3673 31.875C13.3451 29.6778 12.334 27.0528 12.334 24ZM33.8006 34.2667L30.884 31.35C30.4757 31.5834 30.0382 31.7778 29.5715 31.9334C29.1048 32.0889 28.609 32.1667 28.084 32.1667C26.6257 32.1667 25.3863 31.6565 24.3658 30.636C23.3454 29.6156 22.8348 28.3758 22.834 26.9167C22.8332 25.4576 23.3438 24.2182 24.3658 23.1985C25.3878 22.1789 26.6272 21.6683 28.084 21.6667C29.5408 21.6652 30.7805 22.1758 31.8033 23.1985C32.8261 24.2213 33.3363 25.4607 33.334 26.9167C33.334 27.4417 33.2562 27.9375 33.1006 28.4042C32.9451 28.8709 32.7507 29.3084 32.5173 29.7167L35.434 32.6334C35.6479 32.8473 35.7548 33.1195 35.7548 33.45C35.7548 33.7806 35.6479 34.0528 35.434 34.2667C35.2201 34.4806 34.9479 34.5875 34.6173 34.5875C34.2868 34.5875 34.0145 34.4806 33.8006 34.2667ZM28.084 29.8334C28.9007 29.8334 29.5909 29.5514 30.1548 28.9875C30.7187 28.4237 31.0007 27.7334 31.0007 26.9167C31.0007 26.1 30.7187 25.4098 30.1548 24.8459C29.5909 24.282 28.9007 24 28.084 24C27.2673 24 26.577 24.282 26.0132 24.8459C25.4493 25.4098 25.1673 26.1 25.1673 26.9167C25.1673 27.7334 25.4493 28.4237 26.0132 28.9875C26.577 29.5514 27.2673 29.8334 28.084 29.8334Z" fill="white"/>
</svg>
