<svg width="52" height="52" viewBox="0 0 52 52" fill="none" xmlns="http://www.w3.org/2000/svg">
<rect x="51.8613" y="48.2002" width="48" height="48" rx="24" transform="rotate(176 51.8613 48.2002)" fill="black"/>
<rect x="51.3277" y="47.7363" width="47" height="47" rx="23.5" transform="rotate(176 51.3277 47.7363)" stroke="white" stroke-opacity="0.07"/>
<g clip-path="url(#clip0_2122_164172)">
<path d="M32.7852 26.4133C33.1055 26.9758 33.3438 27.5618 33.5 28.1711C33.6563 28.7805 33.7383 29.4094 33.7461 30.0579L33.7461 31.2649L26.2461 35.0266L18.7461 31.2649C18.7461 30.7961 18.75 30.3586 18.7578 29.9524C18.7656 29.5461 18.8008 29.1516 18.8633 28.7688C18.9258 28.386 19.0195 28.0032 19.1445 27.6204C19.2695 27.2375 19.457 26.8352 19.707 26.4133L17.2461 25.1829L17.2461 32.0618C17.4727 32.1399 17.6758 32.2493 17.8555 32.3899C18.0352 32.5305 18.1953 32.6946 18.3359 32.8821C18.4766 33.0696 18.5781 33.2727 18.6406 33.4915C18.7031 33.7102 18.7383 33.9407 18.7461 34.1829L18.7461 37.9329L14.2461 37.9329L14.2461 34.1829C14.2461 33.9485 14.2813 33.7219 14.3516 33.5032C14.4219 33.2844 14.5234 33.0774 14.6563 32.8821C14.7891 32.6868 14.9453 32.5227 15.125 32.3899C15.3047 32.2571 15.5117 32.1477 15.7461 32.0618L15.7461 24.4329L14.2461 23.6829L26.2461 17.6829L38.2461 23.6829L32.7852 26.4133ZM17.2461 34.1829C17.2461 33.9797 17.1719 33.804 17.0234 33.6555C16.875 33.5071 16.6992 33.4329 16.4961 33.4329C16.293 33.4329 16.1172 33.5071 15.9688 33.6555C15.8203 33.804 15.7461 33.9797 15.7461 34.1829L15.7461 36.4329L17.2461 36.4329L17.2461 34.1829ZM17.5977 23.6829L26.2461 28.0071L34.8945 23.6829L26.2461 19.3586L17.5977 23.6829ZM32.2461 30.3391C32.2461 29.7375 32.1875 29.179 32.0703 28.6633C31.9531 28.1477 31.7461 27.6204 31.4492 27.0813L26.2461 29.6829L21.043 27.0813C20.7852 27.5344 20.5898 28.011 20.457 28.511C20.3242 29.011 20.2539 29.5266 20.2461 30.0579L20.2461 30.3391L26.2461 33.3391L32.2461 30.3391Z" fill="white"/>
</g>
<defs>
<clipPath id="clip0_2122_164172">
<rect width="24" height="24" fill="white" transform="translate(14.2461 13.9329)"/>
</clipPath>
</defs>
</svg>
