<svg width="48" height="48" viewBox="0 0 48 48" fill="none" xmlns="http://www.w3.org/2000/svg">
<rect x="48" y="48" width="48" height="48" rx="24" transform="rotate(-180 48 48)" fill="black"/>
<rect x="47.5" y="47.5" width="47" height="47" rx="23.5" transform="rotate(-180 47.5 47.5)" stroke="white" stroke-opacity="0.07"/>
<path d="M17 28L22 25M26 23L31 20M24 17V22M24 26V31M17 20L22 23M26 25L31 28M32.5 21V26.5M25.5 32.5L31 29.5M16.5 29.5L22.5 32.5M15.5 27V21M16.5 18.5L22.5 15.5M31.5 18.5L25.5 15.5" stroke="white" stroke-width="1.5" stroke-linecap="round" stroke-linejoin="round"/>
<path d="M24 17C24.8284 17 25.5 16.3284 25.5 15.5C25.5 14.6716 24.8284 14 24 14C23.1716 14 22.5 14.6716 22.5 15.5C22.5 16.3284 23.1716 17 24 17Z" stroke="white" stroke-width="1.5" stroke-linecap="round" stroke-linejoin="round"/>
<path d="M24 34C24.8284 34 25.5 33.3284 25.5 32.5C25.5 31.6716 24.8284 31 24 31C23.1716 31 22.5 31.6716 22.5 32.5C22.5 33.3284 23.1716 34 24 34Z" stroke="white" stroke-width="1.5" stroke-linecap="round" stroke-linejoin="round"/>
<path d="M15.5 21C16.3284 21 17 20.3284 17 19.5C17 18.6716 16.3284 18 15.5 18C14.6716 18 14 18.6716 14 19.5C14 20.3284 14.6716 21 15.5 21Z" stroke="white" stroke-width="1.5" stroke-linecap="round" stroke-linejoin="round"/>
<path d="M32.5 21C33.3284 21 34 20.3284 34 19.5C34 18.6716 33.3284 18 32.5 18C31.6716 18 31 18.6716 31 19.5C31 20.3284 31.6716 21 32.5 21Z" stroke="white" stroke-width="1.5" stroke-linecap="round" stroke-linejoin="round"/>
<path d="M32.5 30C33.3284 30 34 29.3284 34 28.5C34 27.6716 33.3284 27 32.5 27C31.6716 27 31 27.6716 31 28.5C31 29.3284 31.6716 30 32.5 30Z" stroke="white" stroke-width="1.5" stroke-linecap="round" stroke-linejoin="round"/>
<path d="M15.5 30C16.3284 30 17 29.3284 17 28.5C17 27.6716 16.3284 27 15.5 27C14.6716 27 14 27.6716 14 28.5C14 29.3284 14.6716 30 15.5 30Z" stroke="white" stroke-width="1.5" stroke-linecap="round" stroke-linejoin="round"/>
<path d="M24 21.75L26 22.875V25.125L24 26.25L22 25.125V22.875L24 21.75Z" stroke="white" stroke-width="1.5" stroke-linecap="round" stroke-linejoin="round"/>
</svg>
