<svg width="51" height="51" viewBox="0 0 51 51" fill="none" xmlns="http://www.w3.org/2000/svg">
<rect x="48.5645" y="50.2466" width="48" height="48" rx="24" transform="rotate(-178 48.5645 50.2466)" fill="black"/>
<rect x="48.0822" y="49.7294" width="47" height="47" rx="23.5" transform="rotate(-178 48.0822 49.7294)" stroke="white" stroke-opacity="0.07"/>
<path d="M25.4167 17.9266L24.7773 18.5239C24.8592 18.6115 24.9582 18.6813 25.0682 18.7291C25.1781 18.7769 25.2968 18.8015 25.4167 18.8015C25.5366 18.8015 25.6552 18.7769 25.7652 18.7291C25.8751 18.6813 25.9741 18.6115 26.056 18.5239L25.4167 17.9266ZM22.423 33.3522C20.7313 31.9802 18.7573 30.18 17.2127 28.2096C15.6505 26.2181 14.625 24.1729 14.625 22.2946H12.875C12.875 24.7644 14.1933 27.1969 15.8348 29.2899C17.4938 31.4051 19.5798 33.2986 21.3205 34.7114L22.423 33.3522ZM14.625 22.2946C14.625 18.9054 16.1043 16.8112 17.9337 16.0937C19.7595 15.3786 22.3133 15.8896 24.7773 18.5239L26.056 17.3292C23.27 14.3496 19.9905 13.4092 17.2955 14.4639C14.604 15.5186 12.875 18.4142 12.875 22.2946H14.625ZM29.5117 34.7102C31.2535 33.2974 33.3395 31.4039 34.9985 29.2887C36.64 27.1957 37.9583 24.7632 37.9583 22.2922H36.2083C36.2083 24.1729 35.1817 26.2169 33.6207 28.2084C32.076 30.1789 30.102 31.9791 28.4103 33.3511L29.5117 34.7102ZM37.9583 22.2922C37.9583 18.4131 36.2293 15.5174 33.5367 14.4639C30.8417 13.4081 27.5633 14.3472 24.7773 17.3281L26.056 18.5239C28.52 15.8896 31.0738 15.3774 32.8997 16.0926C34.729 16.8089 36.2083 18.9042 36.2083 22.2922H37.9583ZM21.3205 34.7114C22.8022 35.9154 23.8323 36.7986 25.4167 36.7986V35.0486C24.5732 35.0486 24.0482 34.6705 22.423 33.3522L21.3205 34.7114ZM28.4103 33.3511C26.7852 34.6694 26.2602 35.0486 25.4167 35.0486V36.7986C27.001 36.7986 28.0312 35.9154 29.5128 34.7114L28.4103 33.3511Z" fill="white"/>
<path d="M33.0007 21.9237H30.6673M30.6673 21.9237H28.334M30.6673 21.9237V19.5903M30.6673 21.9237V24.257" stroke="white" stroke-width="1.5" stroke-linecap="round"/>
</svg>
