<svg width="50" height="51" viewBox="0 0 50 51" fill="none" xmlns="http://www.w3.org/2000/svg">
<rect x="48.25" y="50.2466" width="48" height="48" rx="24" transform="rotate(-178 48.25 50.2466)" fill="black"/>
<rect x="47.7678" y="49.7294" width="47" height="47" rx="23.5" transform="rotate(-178 47.7678 49.7294)" stroke="white" stroke-opacity="0.07"/>
<g clip-path="url(#clip0_2122_164180)">
<path d="M26.4254 20.1177V17.5663C26.4254 17.1874 26.2748 16.824 26.0069 16.5561C25.739 16.2882 25.3757 16.1377 24.9968 16.1377H17.2411C16.8622 16.1377 16.4988 16.2882 16.2309 16.5561C15.963 16.824 15.8125 17.1874 15.8125 17.5663V25.322C15.8125 25.7009 15.963 26.0642 16.2309 26.3321C16.4988 26.6 16.8622 26.7506 17.2411 26.7506H19.7925M25.1996 24.0963H32.9554C32.9554 24.0963 34.3839 24.0963 34.3839 25.5248V33.2806C34.3839 33.2806 34.3839 34.7091 32.9554 34.7091H25.1996C25.1996 34.7091 23.7711 34.7091 23.7711 33.2806V25.5248C23.7711 25.5248 23.7711 24.0963 25.1996 24.0963Z" stroke="white" stroke-width="1.42857" stroke-linecap="round" stroke-linejoin="round"/>
<path d="M19.7009 20.4308C19.6062 20.4308 19.5153 20.3932 19.4484 20.3262C19.3814 20.2593 19.3438 20.1684 19.3438 20.0737C19.3438 19.979 19.3814 19.8881 19.4484 19.8212C19.5153 19.7542 19.6062 19.7166 19.7009 19.7166M27.4623 31.3751C27.3676 31.3751 27.2768 31.3375 27.2098 31.2705C27.1428 31.2035 27.1052 31.1127 27.1052 31.018C27.1052 30.9233 27.1428 30.8324 27.2098 30.7654C27.2768 30.6985 27.3676 30.6608 27.4623 30.6608C27.557 30.6608 27.6479 30.6985 27.7149 30.7654C27.7818 30.8324 27.8195 30.9233 27.8195 31.018C27.8195 31.1127 27.7818 31.2035 27.7149 31.2705C27.6479 31.3375 27.557 31.3751 27.4623 31.3751Z" stroke="white" stroke-width="1.42857" stroke-linecap="round" stroke-linejoin="round"/>
<path d="M19.6992 20.4308C19.7939 20.4308 19.8848 20.3932 19.9518 20.3262C20.0187 20.2593 20.0564 20.1684 20.0564 20.0737C20.0564 19.979 20.0187 19.8881 19.9518 19.8212C19.8848 19.7542 19.7939 19.7166 19.6992 19.7166M30.6978 28.4308C30.6031 28.4308 30.5122 28.3932 30.4453 28.3262C30.3783 28.2593 30.3406 28.1684 30.3406 28.0737C30.3406 27.979 30.3783 27.8881 30.4453 27.8212C30.5122 27.7542 30.6031 27.7166 30.6978 27.7166" stroke="white" stroke-width="1.42857" stroke-linecap="round" stroke-linejoin="round"/>
<path d="M30.6953 28.4306C30.79 28.4306 30.8809 28.393 30.9479 28.326C31.0148 28.259 31.0525 28.1682 31.0525 28.0735C31.0525 27.9787 31.0148 27.8879 30.9479 27.8209C30.8809 27.7539 30.79 27.7163 30.6953 27.7163" stroke="white" stroke-width="1.42857" stroke-linecap="round" stroke-linejoin="round"/>
</g>
<defs>
<clipPath id="clip0_2122_164180">
<rect width="20" height="20" fill="white" transform="translate(15.1016 15.4236)"/>
</clipPath>
</defs>
</svg>
