<svg width="52" height="52" viewBox="0 0 52 52" fill="none" xmlns="http://www.w3.org/2000/svg">
<rect x="51.5176" y="48.2002" width="48" height="48" rx="24" transform="rotate(176 51.5176 48.2002)" fill="black"/>
<rect x="50.9839" y="47.7363" width="47" height="47" rx="23.5" transform="rotate(176 50.9839 47.7363)" stroke="white" stroke-opacity="0.07"/>
<path d="M21.9023 25.6829L21.9023 21.4329C21.9023 21.0162 22.0483 20.6622 22.3403 20.3709C22.6323 20.0795 22.9863 19.9335 23.4023 19.9329C23.8183 19.9322 24.1727 20.0782 24.4653 20.3709C24.758 20.6635 24.9037 21.0175 24.9023 21.4329L24.9023 25.6829C24.9023 26.0995 24.7567 26.4539 24.4653 26.7459C24.174 27.0379 23.8197 27.1835 23.4023 27.1829C22.985 27.1822 22.631 27.0365 22.3403 26.7459C22.0497 26.4552 21.9037 26.1009 21.9023 25.6829ZM26.9023 25.4579L26.9023 17.4329C26.9023 17.0162 27.0483 16.6622 27.3403 16.3709C27.6323 16.0795 27.9863 15.9335 28.4023 15.9329C28.8183 15.9322 29.1727 16.0782 29.4653 16.3709C29.758 16.6635 29.9037 17.0175 29.9023 17.4329L29.9023 25.4579C29.9023 25.9579 29.7483 26.3329 29.4403 26.5829C29.1323 26.8329 28.7863 26.9579 28.4023 26.9579C28.0183 26.9579 27.6727 26.8329 27.3653 26.5829C27.058 26.3329 26.9037 25.9579 26.9023 25.4579ZM16.9023 28.9079L16.9023 25.4329C16.9023 25.0162 17.0483 24.6622 17.3403 24.3709C17.6323 24.0795 17.9863 23.9335 18.4023 23.9329C18.8183 23.9322 19.1727 24.0782 19.4653 24.3709C19.758 24.6635 19.9037 25.0175 19.9023 25.4329L19.9023 28.9079C19.9023 29.4079 19.7483 29.7829 19.4403 30.0329C19.1323 30.2829 18.7863 30.4079 18.4023 30.4079C18.0183 30.4079 17.6727 30.2829 17.3653 30.0329C17.058 29.7829 16.9037 29.4079 16.9023 28.9079ZM19.3023 34.9829C18.869 34.9829 18.5647 34.7789 18.3893 34.3709C18.214 33.9629 18.285 33.6002 18.6023 33.2829L22.7023 29.1829C22.8857 28.9995 23.1067 28.8995 23.3653 28.8829C23.624 28.8662 23.853 28.9495 24.0523 29.1329L26.9023 31.5829L32.5023 25.9829L31.9023 25.9829C31.619 25.9829 31.3817 25.8869 31.1903 25.6949C30.999 25.5029 30.903 25.2655 30.9023 24.9829C30.9017 24.7002 30.9977 24.4629 31.1903 24.2709C31.383 24.0789 31.6203 23.9829 31.9023 23.9829L34.9023 23.9829C35.1857 23.9829 35.4233 24.0789 35.6153 24.2709C35.8073 24.4629 35.903 24.7002 35.9023 24.9829L35.9023 27.9829C35.9023 28.2662 35.8063 28.5039 35.6143 28.6959C35.4223 28.8879 35.185 28.9835 34.9023 28.9829C34.6197 28.9822 34.3823 28.8862 34.1903 28.6949C33.9983 28.5035 33.9023 28.2662 33.9023 27.9829L33.9023 27.3829L27.6523 33.6329C27.469 33.8162 27.248 33.9162 26.9893 33.9329C26.7307 33.9495 26.5017 33.8662 26.3023 33.6829L23.4523 31.2329L20.0023 34.6829C19.919 34.7662 19.815 34.8372 19.6903 34.8959C19.5657 34.9545 19.4363 34.9835 19.3023 34.9829Z" fill="white"/>
</svg>
