<svg width="427" height="382" viewBox="0 0 427 382" fill="none" xmlns="http://www.w3.org/2000/svg">
<g opacity="0.2">
<path d="M110.673 -194L185.278 -129.611H222.581L277.757 -194L327.494 -163.745L402.099 -183.915L394.328 -72.2039H444.064L458.83 -0.0570984L424.636 79.8474L493.801 109.327L521 313.355H374.122L354.694 363.004H247.449L197.712 328.094L83.4737 380.071L46.1713 342.834V245.862L8.86879 193.886L46.1713 109.327V24.7676L-15.9995 -0.0570984V-129.611L110.673 -194Z" stroke="black" stroke-opacity="0.5" stroke-width="3"/>
<path d="M224.432 69.2097L237.924 62.3193H255.72L268.136 75.3529L271.364 91.624L278.73 94.7787L281.627 116.612H265.984L247.194 118.189L235.027 123.751L231.054 119.767V109.389V85.7299L224.432 83.0734V69.2097Z" stroke="black" stroke-opacity="0.5" stroke-width="3"/>
<path d="M119.943 -174.283L189.328 -115.112H225.13L276.54 -174.047L322.928 -145.618L391.919 -163.611L384.869 -59.8668L431.347 -59.6241L445.088 7.81261L413.636 82.4103L476.878 109.622L501.384 297.955L365.081 298.016L346.425 343.907L246.494 344.335L200.43 311.957L94.8264 359.782L60.3934 325.011V235.099L25.9603 185.301L60.1387 107.144L59.884 28.9876L2.49561 5.53925V-114.582L119.943 -174.283Z" stroke="black" stroke-opacity="0.5" stroke-width="3"/>
<path d="M129.212 -154.566L193.377 -100.613H227.679L275.322 -154.093L318.362 -127.49L381.737 -143.306L375.41 -47.5293L418.628 -47.0439L431.345 15.6828L402.634 84.9738L459.955 109.918L481.767 282.557L356.04 282.678L338.155 324.811L245.538 325.666L203.147 295.821L106.178 339.494L74.6145 307.188V224.337L43.0509 176.717L74.1051 104.962L73.5958 33.208L20.9897 11.1361V-99.5529L129.212 -154.566Z" stroke="black" stroke-opacity="0.5" stroke-width="3"/>
<path d="M138.482 -134.849L197.427 -86.1141H230.228L274.105 -134.14L313.796 -109.363L371.557 -123.001L365.951 -35.1922L405.91 -34.4642L417.603 23.5525L391.634 87.5367L443.033 110.213L462.151 267.158L346.999 267.34L329.886 305.714L244.583 306.997L205.865 279.684L117.531 319.206L88.8366 289.365V213.574L60.1424 168.132L88.0726 102.78L87.3085 37.428L39.4849 16.7324V-84.524L138.482 -134.849Z" stroke="black" stroke-opacity="0.5" stroke-width="3"/>
<path d="M147.752 -115.133L201.478 -71.6158H232.778L272.887 -114.188L309.23 -91.2367L361.377 -102.697L356.493 -22.8556L393.193 -21.885L403.861 31.4218L380.634 90.0992L426.11 110.508L442.534 251.758L337.959 252.001L321.618 286.616L243.627 288.327L208.583 263.546L128.884 298.917L103.059 271.541V202.81L77.234 159.547L102.04 100.597L101.021 41.6475L57.98 22.3283V-69.4957L147.752 -115.133Z" stroke="black" stroke-opacity="0.5" stroke-width="3"/>
<path d="M157.021 -95.415L205.527 -57.1161H235.327L271.669 -94.2337L304.664 -73.1087L351.195 -82.392L347.034 -10.5176L380.474 -9.30428L390.118 39.2924L369.633 92.6631L409.187 110.804L422.917 236.36L328.917 236.663L313.348 267.52L242.671 269.659L211.3 247.41L140.235 278.629L117.28 253.719V192.048L94.3245 150.963L116.006 98.4157L114.733 45.8684L76.4741 27.9256V-54.4659L157.021 -95.415Z" stroke="black" stroke-opacity="0.5" stroke-width="3"/>
<path d="M166.291 -75.6987L209.577 -42.6178H237.876L270.452 -74.2811L300.098 -54.9821L341.015 -62.088L337.575 1.81898L367.757 3.27495L376.376 47.1616L358.632 95.2256L392.265 111.099L403.301 220.96L319.876 221.324L305.079 248.423L241.716 250.99L214.018 231.273L151.588 258.34L131.502 235.895V181.285L111.416 142.378L129.974 96.2328L128.446 50.0879L94.9692 33.5215V-39.4376L166.291 -75.6987Z" stroke="black" stroke-opacity="0.5" stroke-width="3"/>
<path d="M175.56 -55.9819L213.626 -28.119H240.425L269.233 -54.328L295.531 -36.8551L330.834 -41.7836L328.116 14.156L355.038 15.8547L362.633 55.0314L347.631 97.7885L375.341 111.394L383.683 205.561L310.835 205.986L296.809 229.326L240.76 232.321L216.735 215.136L162.94 238.052L145.723 218.072V170.522L128.507 133.793L143.94 94.0504L142.158 54.3079L113.463 39.1178V-24.4088L175.56 -55.9819Z" stroke="black" stroke-opacity="0.5" stroke-width="3"/>
<path d="M184.83 -36.2651L217.676 -13.6202H242.974L268.016 -34.3749L290.966 -18.728L320.653 -21.4792L318.658 26.4931L342.32 28.4344L348.891 62.9011L336.631 100.351L358.419 111.69L364.067 190.162L301.794 190.647L288.54 210.229L239.805 213.651L219.453 198.998L174.292 217.763L159.945 200.249V159.759L145.598 125.208L157.908 91.868L155.87 58.5279L131.958 44.7141V-9.38001L184.83 -36.2651Z" stroke="black" stroke-opacity="0.5" stroke-width="3"/>
<path d="M194.1 -16.5479L221.726 0.879045H245.524L266.799 -14.4214L286.4 -0.600493L310.473 -1.17434L309.199 38.8306L329.603 41.0146L335.149 70.7713L325.63 102.915L341.497 111.985L344.451 174.763L292.753 175.309L280.272 191.132L238.85 194.983L222.171 182.862L185.645 197.475L174.167 182.426V148.996L162.69 116.624L171.875 89.6861L169.583 62.7483L150.454 50.311V5.64928L194.1 -16.5479Z" stroke="black" stroke-opacity="0.5" stroke-width="3"/>
<path d="M203.369 3.16895L225.775 15.3778H248.072L265.581 5.53171L281.834 17.5266L300.292 19.1301L299.74 51.1677L316.884 53.5943L321.406 78.641L314.629 105.478L324.573 112.281L324.833 159.364L283.712 159.971L272.002 172.035L237.893 176.314L224.888 166.725L196.997 177.187L188.388 164.603V138.233L179.78 108.039L185.842 87.5037L183.295 66.9683L168.948 55.9073V20.6781L203.369 3.16895Z" stroke="black" stroke-opacity="0.5" stroke-width="3"/>
<path d="M212.639 22.8857L229.825 29.8766H250.622L264.363 25.4848L277.268 35.6536L290.111 39.4345L290.281 63.5048L304.167 66.174L307.664 86.5107L303.629 108.041L307.651 112.576L305.217 143.965L274.671 144.632L263.733 152.938L236.938 157.644L227.606 150.588L208.349 156.898L202.611 146.779V127.47L196.872 99.4543L199.809 85.3213L197.008 71.1883L187.443 61.5037V35.7069L212.639 22.8857Z" stroke="black" stroke-opacity="0.5" stroke-width="3"/>
<path d="M221.909 42.603L233.875 44.3759H253.171L263.146 45.4383L272.702 53.7811L279.931 59.7394L280.823 75.8423L291.449 78.7542L293.922 94.3809L292.629 110.604L290.729 112.872L285.601 128.566L265.631 129.294L255.464 133.842L235.983 138.976L230.323 134.451L219.702 136.61L216.833 128.957V116.708L213.963 90.87L213.777 83.1394L210.72 75.4087L205.938 67.1005V50.7362L221.909 42.603Z" stroke="black" stroke-opacity="0.5" stroke-width="3"/>
</g>
</svg>
