<svg width="428" height="363" viewBox="0 0 428 363" fill="none" xmlns="http://www.w3.org/2000/svg">
<g opacity="0.2">
<path d="M147.364 -115.964C134.141 -150.369 68.7211 -167.358 79.5167 -98.855C81.2868 -87.6227 81.4649 -68.2818 79.5167 -44.7399C77.7321 -23.1742 42.7952 -11.374 32.0708 16.4913C15.2518 60.1922 78.137 90.6522 68.1297 113.625C55.0227 143.714 14.8895 156.768 -7.30927 173.23C-28.2071 188.727 -41.5183 213.592 -46.6293 239.156C-55.596 284.005 -39.3237 331.005 5.50113 333.343C27.9402 334.514 57.5344 324.492 94.6993 297.406C111.316 285.296 125.968 275.316 138.99 267.246C172.507 246.475 163.496 295.606 203.35 297.406C226.059 298.432 249.778 256.018 267.732 278.642C280.499 294.729 295.15 314.248 316.072 334.316C352.816 369.558 398.755 374.747 405.253 324.449C408.32 300.706 402.598 264.598 382.971 213.45C370.411 180.719 401.653 181.873 405.253 139.929C408.853 97.9846 379.417 78.6413 400.725 61.2814L401.152 60.9336C417.394 47.7032 434.716 33.5924 444.176 6.48958C452.325 -16.8568 451.547 -39.9798 444.176 -57.7475C436.288 -76.7629 420.85 -89.6444 400.725 -90.1014C380.532 -90.5599 355.621 -78.5097 328.883 -47.5962C311.254 -27.2144 299.315 -74.6397 267.732 -69.7917C236.15 -64.9437 231.76 -19.1843 212.84 -32.4563C179.974 -55.5109 162.851 -75.6692 147.364 -115.964Z" stroke="black" stroke-opacity="0.5" stroke-width="3"/>
<path d="M211.158 71.7082C209.146 66.4265 199.767 67.8128 199.292 73.5369C198.752 80.0544 202.046 88.5475 201.666 95.0804C200.93 107.694 196.474 111.285 187.601 117.933C184.421 120.312 182.395 124.129 181.617 128.054C180.253 134.939 182.729 142.154 189.551 142.513C192.966 142.693 197.47 141.154 203.126 136.996C205.654 135.137 207.884 133.605 209.866 132.366C218.493 126.541 226.522 131.105 229.459 134.115C231.402 136.585 233.631 139.582 236.815 142.662C242.407 148.073 250.875 147.364 250.387 141.148C249.698 132.366 234.705 99.5867 250.387 93.871C257.672 91.2159 257.433 85.2017 256.311 82.4741C255.11 79.5549 252.761 77.5774 249.698 77.5072C246.625 77.4368 241.534 82.4741 238.765 84.0325C228.541 89.7854 219.419 92.7592 211.158 71.7082Z" stroke="black" stroke-opacity="0.5" stroke-width="3"/>
<path d="M90.4551 -83.8674C80.8739 -146.229 140.657 -130.684 152.78 -99.1431C167.623 -60.5831 184.032 -42.5111 214.865 -22.0547C232.206 -10.0498 236.379 -51.8314 265.298 -56.3726C294.217 -60.9138 305.265 -17.8775 321.445 -36.418C346.052 -64.5373 368.932 -75.3224 387.414 -74.6418C405.776 -74.103 419.854 -62.186 426.966 -44.689C433.608 -28.3273 434.156 -7.09397 426.41 14.2668C416.301 39.6573 401.702 55.4613 386.875 68.3832C367.509 84.4581 394.111 102.213 390.585 140.4C387.059 178.586 358.313 177.431 369.487 206.966C387.055 253.223 392.059 285.804 389.091 307.184C383.045 352.809 340.997 347.918 307.251 315.783C287.9 297.453 274.191 279.723 262.183 265.349C245.666 244.877 223.882 283.605 202.99 282.84C166.47 281.389 174.438 236.818 143.736 255.795C131.682 263.216 118.17 272.327 102.896 283.337C68.4602 307.948 41.3079 316.415 21.0153 314.729C-19.7344 312.424 -34.4764 269.488 -26.2268 228.526C-21.4853 205.11 -9.25536 182.348 9.90366 168.141C30.9088 152.564 67.8303 140.363 79.823 111.85C88.9457 90.6538 31.6617 62.6018 46.9005 22.5031C56.594 -3.18795 88.3195 -14.2626 89.9679 -34.1775C91.7621 -55.8546 91.8241 -73.6118 90.4551 -83.8674Z" stroke="black" stroke-opacity="0.5" stroke-width="3"/>
<path d="M101.884 -68.2482C93.5313 -124.264 147.59 -110.214 158.595 -81.6417C172.772 -44.9463 188.444 -29.0192 217.201 -11.227C232.937 -0.528587 236.887 -38.195 263.099 -42.4143C289.311 -46.6336 299.453 -8.12699 314.16 -24.7655C336.6 -49.9985 357.415 -59.4834 374.16 -58.5836C390.733 -57.965 403.429 -47.0518 409.756 -31.1311C415.659 -16.2294 415.976 3.04423 408.644 22.3491C397.983 45.7054 386.35 63.136 373.083 75.604C355.688 90.3405 379.416 106.449 375.969 140.753C372.522 175.057 346.314 173.903 356.085 200.146C371.569 241.362 375.847 270.31 372.983 289.255C367.399 330.06 329.302 325.482 298.603 296.559C280.852 280.029 268.105 264.145 256.872 251.532C241.817 233.279 222 268.193 202.955 267.689C169.823 266.593 176.736 226.727 148.895 243.848C137.826 250.597 125.475 258.809 111.565 268.682C79.908 290.737 55.2373 297.623 37.1208 295.428C0.505996 293.165 -12.6841 254.434 -5.16361 217.494C-0.798618 196.303 10.3322 175.718 27.7244 162.849C47.5055 148.209 81.1614 136.902 92.0222 110.059C100.247 90.7105 48.648 65.1592 62.2843 28.7949C70.9325 5.36286 99.4004 -4.94923 100.91 -23.1475C102.548 -42.8882 102.85 -59.003 101.884 -68.2482Z" stroke="black" stroke-opacity="0.5" stroke-width="3"/>
<path d="M112.819 -53.2597C105.682 -103.134 154.1 -90.5283 164.004 -64.8206C177.537 -29.8603 192.497 -16.0194 219.221 -0.825195C233.377 8.60605 237.11 -25.0824 260.657 -28.9948C284.203 -32.9072 293.454 1.21037 306.711 -13.5869C327.019 -36.0257 345.801 -44.2455 360.834 -43.1237C375.642 -42.4233 386.978 -32.4747 392.528 -18.0726C397.701 -4.57684 397.787 12.8069 390.859 30.126C379.628 51.5323 370.946 70.6462 359.217 82.704C343.766 96.1552 364.657 110.675 361.284 141.222C357.91 171.768 334.199 170.612 342.583 193.66C356.007 229.985 359.565 255.406 356.801 271.988C351.668 308.121 317.466 303.84 289.766 278.024C273.587 263.232 261.781 249.137 251.306 238.237C237.69 222.136 219.809 253.363 202.582 253.12C172.787 252.374 178.656 217.067 153.631 232.394C143.531 238.495 132.321 245.837 119.754 254.611C90.8272 274.191 68.6 279.522 52.6319 276.811C20.0956 274.582 8.43704 239.915 15.2401 206.863C19.2354 187.821 29.2842 169.338 44.9366 157.759C63.5244 144.004 93.9668 133.55 103.712 108.284C111.052 90.7119 65.0586 67.5687 77.1132 34.8068C84.7296 13.5491 109.983 3.96276 111.357 -12.5846C112.84 -30.4603 113.383 -44.9913 112.819 -53.2597Z" stroke="black" stroke-opacity="0.5" stroke-width="3"/>
<path d="M124.243 -38.2721C118.335 -82.0028 161.026 -70.8418 169.811 -47.9991C182.677 -14.7709 196.897 -3.01733 221.543 9.57695C234.093 17.7404 237.603 -11.9689 258.442 -15.5747C279.28 -19.1804 287.624 10.5466 299.408 -2.4088C317.547 -22.0525 334.263 -29.0064 347.557 -27.6621C360.576 -26.8796 370.529 -17.8956 375.293 -5.01212C379.728 7.07749 379.583 22.5712 373.069 37.9042C361.289 57.3607 355.572 78.164 345.403 89.8129C331.924 101.979 349.941 114.911 346.647 141.698C343.353 168.486 322.181 167.328 329.162 187.178C340.501 218.61 343.333 240.504 340.674 254.72C336.002 286.179 305.754 282.195 281.103 259.487C266.525 246.435 255.682 234.129 245.984 224.944C233.83 210.996 217.917 238.535 202.538 238.552C176.133 238.157 180.946 207.41 158.783 220.944C149.67 226.396 139.62 232.869 128.419 240.542C102.274 257.646 82.5293 261.42 68.7379 258.193C40.3379 255.998 30.2318 225.396 36.3053 196.232C39.9238 179.338 48.8729 162.959 62.7576 152.67C80.1195 139.799 107.294 130.198 115.907 106.506C122.349 90.7115 82.0427 69.9766 92.4942 40.8177C99.0652 21.7344 121.06 12.8733 122.295 -2.02305C123.622 -18.0338 124.404 -30.9806 124.243 -38.2721Z" stroke="black" stroke-opacity="0.5" stroke-width="3"/>
<path d="M135.662 -22.5786C130.982 -60.0681 167.944 -50.3767 175.611 -30.4502C187.807 0.970547 201.286 10.6107 223.85 20.5773C234.795 27.4549 238.08 1.79093 256.21 -1.49997C274.34 -4.79087 281.777 20.4792 292.086 9.39464C308.056 -7.41005 322.706 -13.0827 334.261 -11.5191C345.489 -10.6563 354.061 -2.65702 358.039 8.67886C361.734 19.3352 361.359 32.9041 355.262 46.2167C342.936 63.6797 340.18 86.1241 331.571 97.3377C320.063 108.191 335.206 119.505 331.992 142.474C328.778 165.443 310.147 164.286 315.726 180.895C324.981 207.364 327.088 225.681 324.533 237.5C320.324 264.216 294.031 260.538 272.429 240.989C259.453 229.704 249.573 219.215 240.653 211.765C229.964 200.001 216.019 223.79 202.488 224.069C179.474 224.024 183.233 197.907 163.932 209.616C155.806 214.408 146.918 219.997 137.082 226.552C113.72 241.142 96.4596 243.352 84.8448 239.616C60.5813 237.459 52.0275 210.99 57.3711 185.78C60.6126 171.073 68.4615 156.834 80.578 147.858C96.7116 135.9 120.618 127.174 128.098 105.11C133.641 91.1278 99.0227 72.8477 107.871 47.3571C113.397 30.491 132.133 22.3752 133.229 9.16317C134.399 -4.9466 135.421 -16.2803 135.662 -22.5786Z" stroke="black" stroke-opacity="0.5" stroke-width="3"/>
<path d="M146.585 -7.59076C143.124 -38.9336 174.435 -30.6874 180.999 -13.627C192.551 16.0647 205.317 23.6158 225.846 30.9801C235.208 36.5891 238.277 14.906 253.736 11.9217C269.195 8.93736 275.739 29.8143 284.596 20.5726C298.43 6.56449 311.043 2.15866 320.884 3.94552C330.344 4.89062 337.552 11.9253 340.752 21.7421C343.717 30.992 343.11 42.6703 337.416 53.9959C324.518 69.5092 324.719 93.6499 317.651 104.456C308.092 114.025 320.393 123.75 317.252 142.958C314.111 162.166 297.982 161.006 302.17 174.415C309.36 195.989 310.747 210.775 308.291 220.228C304.534 242.267 282.142 238.886 263.545 222.446C252.144 212.901 243.207 204.203 235.046 198.468C225.798 188.859 213.792 208.959 202.083 209.498C182.411 209.804 185.124 188.251 168.645 198.166C161.489 202.309 153.743 207.028 145.253 212.481C124.626 224.594 109.813 225.246 100.351 220.991C80.1733 218.867 73.154 196.466 77.779 175.146C80.6501 162.588 87.4152 150.453 97.7887 142.768C112.728 131.694 133.415 123.821 139.778 103.328C144.434 91.1241 115.432 75.2528 122.696 53.3664C127.187 38.6751 142.703 31.2843 143.663 19.7235C144.678 7.47919 145.941 -2.2699 146.585 -7.59076Z" stroke="black" stroke-opacity="0.5" stroke-width="3"/>
<path d="M157.991 7.39597C155.757 -17.7954 181.334 -10.9953 186.778 3.19779C197.655 31.1665 209.673 36.6258 228.112 41.3837C235.866 45.7229 238.71 28.0231 251.457 25.3451C264.205 22.6672 269.839 39.147 277.221 31.7496C288.881 20.5404 299.425 17.4032 307.525 19.4144C315.193 20.4424 321.018 26.5125 323.432 34.8098C325.658 42.6529 324.821 52.4397 319.546 61.7773C306.112 75.3413 309.267 101.192 303.76 111.593C296.173 119.876 305.599 128.012 302.541 143.456C299.482 158.901 285.897 157.738 288.683 167.945C293.791 184.618 294.452 195.869 292.103 202.952C288.809 220.311 270.377 217.225 254.833 203.897C245.037 196.094 237.068 189.187 229.688 185.171C221.905 177.718 211.871 194.126 202.013 194.927C185.736 195.585 187.396 178.6 173.782 186.718C167.615 190.213 161.033 194.061 153.911 198.413C136.073 208.046 123.747 207.136 116.462 202.359C100.424 200.268 94.9577 181.936 98.8517 164.509C101.345 154.102 107.008 144.072 115.611 137.679C129.316 127.486 146.729 120.465 151.958 101.542C155.715 91.1155 132.405 77.6537 138.065 59.373C141.511 46.857 153.767 40.1904 154.587 30.2809C155.445 19.9026 156.946 11.7388 157.991 7.39597Z" stroke="black" stroke-opacity="0.5" stroke-width="3"/>
<path d="M169.076 22.3815C168.059 3.34973 188.041 8.70238 192.394 20.0256C202.659 46.2804 214 49.6436 230.454 51.7884C236.642 54.8555 239.277 41.1437 249.382 38.7717C259.487 36.3996 264.243 48.4757 270.189 42.9252C279.741 34.5187 288.273 32.6528 294.675 34.8904C300.592 36.0022 305.066 41.1075 306.706 47.8844C308.205 54.3199 307.133 62.214 302.246 69.5616C288.193 81.1768 294.33 108.757 290.354 118.758C284.7 125.756 291.3 132.3 288.305 143.976C285.31 155.652 274.196 154.486 275.593 161.484C278.642 173.248 278.581 180.958 276.324 185.667C273.475 198.338 258.902 195.548 246.327 185.336C238.082 179.275 231.035 174.163 224.393 171.869C218.034 166.576 209.916 179.288 201.856 180.353C188.885 181.364 189.498 168.954 178.677 175.274L178.376 175.438C173.254 178.234 167.898 181.159 162.216 184.344C147.068 191.495 137.162 189.016 132.017 183.714C120.033 181.654 116.091 167.396 119.275 153.866C121.404 145.611 125.997 137.688 132.876 132.588C145.425 123.274 159.66 117.105 163.783 99.7465C166.661 91.0983 148.919 80.0472 153.005 65.375C155.423 55.0351 164.483 49.0917 165.168 40.834C165.875 32.3226 167.623 25.7452 169.076 22.3815Z" stroke="black" stroke-opacity="0.5" stroke-width="3"/>
<path d="M180.454 38.0938C180.663 25.3052 194.893 29.1867 198.121 37.5899C207.698 62.012 218.277 63.2647 232.621 62.788C237.195 64.5699 239.602 54.9064 246.986 52.851C254.37 50.7956 258.211 58.4152 262.675 54.7358C270.045 49.1689 276.499 48.5823 281.154 51.0358C285.274 52.2262 288.36 56.3441 289.214 61.5704C289.973 66.5698 288.673 72.5361 284.211 77.8612C269.643 87.4757 278.72 116.658 276.307 126.214C272.631 131.895 276.353 136.82 273.444 144.676C270.534 152.532 261.975 151.368 261.972 155.126C262.937 161.93 262.154 166.066 260.006 168.38C257.623 176.309 247.023 173.827 237.514 166.775C230.883 162.484 224.811 159.188 218.959 158.627C214.071 155.516 207.933 164.477 201.733 165.799C192.169 167.16 191.73 159.378 183.784 163.873C179.566 166.057 175.281 168.149 170.861 170.279C158.519 174.915 151.11 170.88 148.145 165.077C140.309 163.058 137.923 152.936 140.373 143.363C142.122 137.297 145.608 131.516 150.711 127.731C162.009 119.339 172.956 114.049 175.941 98.3335C177.917 91.5022 165.883 82.9109 168.362 71.9123C169.733 63.7946 175.525 58.601 176.071 52.0319C176.619 45.4254 178.603 40.4635 180.454 38.0938Z" stroke="black" stroke-opacity="0.5" stroke-width="3"/>
<path d="M192 53.1007C193.43 46.5103 201.953 48.933 204.067 54.4422C212.97 77.0867 222.803 76.238 235.066 73.1468C238.04 73.6508 240.222 68.0038 244.907 66.2598C249.592 64.5159 252.528 67.708 255.523 65.8867C260.73 63.1394 265.124 63.8269 268.047 66.5007C270.383 67.772 272.093 70.9137 272.165 74.6049C272.189 78.1826 270.661 82.2391 266.616 85.5586C251.517 93.198 263.531 124.038 262.671 133.168C260.958 137.549 261.82 140.868 258.993 144.932C256.166 148.996 250.139 147.832 248.742 148.368C247.634 150.241 246.13 150.822 244.088 150.754C242.166 153.969 235.508 151.79 229.038 147.874C224.005 145.338 218.896 143.848 213.822 145.011C210.394 144.072 206.216 149.309 201.86 150.892C195.675 152.603 194.188 149.421 189.094 152.104C185.861 153.633 182.734 154.847 179.676 155.867C170.111 158.006 165.177 152.411 164.378 146.096C160.661 144.115 159.82 138.096 161.543 132.448C162.916 128.553 165.305 124.895 168.646 122.414C178.714 114.923 186.401 110.498 188.259 96.3895C189.34 91.3556 182.97 85.1992 183.854 77.8407C184.184 71.9219 186.731 67.4654 187.139 62.5665C187.531 57.8455 189.75 54.4843 192 53.1007Z" stroke="black" stroke-opacity="0.5" stroke-width="3"/>
</g>
</svg>
