<svg width="427" height="369" viewBox="0 0 427 369" fill="none" xmlns="http://www.w3.org/2000/svg">
<g opacity="0.2">
<path d="M5.04205 109.265C-25.1347 -0.0860662 86.6512 -11.2167 167.323 21.8016C214.392 38.7825 245.303 -14.0267 303.612 7.04874C361.92 28.1242 292.02 94.512 381.24 128.584C470.459 162.656 426.903 315.102 348.924 316.858C270.945 318.615 292.371 344.256 214.392 402.917C136.413 461.577 5.04222 380.085 37.7092 294.026C70.3762 207.968 37.7088 227.639 5.04205 109.265Z" stroke="black" stroke-opacity="0.5" stroke-width="3"/>
<path d="M172.872 194.366C169.39 183.951 185.699 167.149 198.812 174.32C210.821 180.886 223.049 176.458 231.128 179.385C252.397 187.092 244.573 191.171 254.081 200.324C265.65 211.462 271.171 240.627 244.573 240.627C222.698 240.627 229.243 251.251 212.862 255.959C196.482 260.667 177.905 252.653 177.905 231.556C177.905 223.633 178.671 211.713 172.872 194.366Z" stroke="black" stroke-opacity="0.5" stroke-width="3"/>
<path d="M20.2967 116.47C-7.45317 16.1133 95.6529 4.46716 170.183 35.1356C214.065 51.1697 243.277 2.75876 297.02 22.1844C351.961 42.0445 287.704 102.768 369.677 134.575C451.838 166.562 412.743 307.8 339.435 309.397C266.556 310.993 286.63 335.27 214.25 389.025C141.871 442.781 20.7544 367.969 50.4517 287.816C80.1489 208.861 50.521 225.66 20.2967 116.47Z" stroke="black" stroke-opacity="0.5" stroke-width="3"/>
<path d="M35.5525 123.676C10.2294 32.3131 104.656 20.1513 173.045 48.47C213.739 63.5573 241.252 19.5446 290.429 37.3204C342.003 55.9652 283.389 111.024 358.116 140.565C433.217 170.468 398.584 300.499 329.947 301.936C262.168 303.373 280.889 326.284 214.11 375.135C147.33 423.985 36.4677 355.853 63.1952 281.606C89.9227 209.754 63.3342 223.681 35.5525 123.676Z" stroke="black" stroke-opacity="0.5" stroke-width="3"/>
<path d="M50.8073 130.881C27.9111 48.5132 113.658 35.8358 175.905 61.8047C213.411 75.9452 239.227 36.3307 283.837 52.4567C332.044 69.8862 279.074 119.281 346.554 146.557C414.596 174.374 384.424 293.198 320.458 294.475C257.78 295.752 275.148 317.299 213.968 361.244C152.789 405.19 52.1801 343.738 75.9379 275.396C99.6957 210.648 76.1466 221.703 50.8073 130.881Z" stroke="black" stroke-opacity="0.5" stroke-width="3"/>
<path d="M66.0631 138.088C45.5936 64.7138 122.66 51.5209 178.766 75.14C213.085 88.3337 237.202 53.1175 277.246 67.5936C322.085 83.8077 274.759 127.538 334.992 152.548C395.975 178.281 370.265 285.897 310.97 287.015C253.392 288.132 269.407 308.314 213.828 347.355C158.248 386.396 67.8933 331.623 88.6814 269.187C109.469 211.542 88.9598 219.725 66.0631 138.088Z" stroke="black" stroke-opacity="0.5" stroke-width="3"/>
<path d="M81.3185 145.66C63.2758 81.28 131.663 67.5715 181.627 88.8408C212.759 101.088 235.177 70.2698 270.654 83.0961C312.127 98.0948 270.443 136.161 323.43 158.906C377.354 182.553 356.106 278.962 301.482 279.92C249.004 280.878 263.667 299.694 213.687 333.83C163.707 367.967 83.6063 319.874 101.425 263.343C119.243 212.801 101.773 218.112 81.3185 145.66Z" stroke="black" stroke-opacity="0.5" stroke-width="3"/>
<path d="M96.5748 153.663C80.959 98.2774 140.666 84.0533 184.488 102.973C212.433 114.273 233.153 87.8533 264.064 99.0298C302.169 112.813 266.129 145.215 311.87 165.694C358.735 187.257 341.948 272.458 291.994 273.257C244.617 274.055 257.927 291.506 213.547 320.737C169.167 349.969 99.3202 308.556 114.169 257.931C129.017 214.492 114.587 216.931 96.5748 153.663Z" stroke="black" stroke-opacity="0.5" stroke-width="3"/>
<path d="M111.831 161.691C98.6418 115.299 149.669 100.559 187.35 117.129C212.107 127.483 231.129 105.461 257.474 114.988C292.211 127.556 261.815 154.293 300.308 172.507C340.114 191.985 327.789 265.979 282.507 266.618C240.23 267.256 252.187 283.342 213.407 307.669C174.626 331.995 115.034 297.262 126.913 252.543C138.792 216.207 127.4 215.775 111.831 161.691Z" stroke="black" stroke-opacity="0.5" stroke-width="3"/>
<path d="M127.088 169.753C116.326 132.355 158.673 117.1 190.212 131.32C211.782 140.727 229.106 123.103 250.884 130.98C282.255 142.333 257.501 163.405 288.748 179.354C321.495 196.747 313.631 259.534 273.02 260.013C235.844 260.492 246.448 275.212 213.267 294.634C180.087 314.056 130.748 286.003 139.658 247.189C148.567 217.957 140.215 214.652 127.088 169.753Z" stroke="black" stroke-opacity="0.5" stroke-width="3"/>
<path d="M142.345 177.866C134.01 149.462 167.678 133.691 193.075 145.562C211.458 154.022 227.083 140.797 244.295 147.024C272.298 157.161 253.188 172.569 277.189 186.253C302.876 201.56 299.474 253.14 263.534 253.459C231.458 253.779 240.709 267.134 213.129 281.651C185.548 296.168 146.463 274.795 152.403 241.886C158.342 219.757 153.03 213.581 142.345 177.866Z" stroke="black" stroke-opacity="0.5" stroke-width="3"/>
<path d="M157.606 186.056C151.698 166.647 176.686 150.36 195.941 159.881C211.137 167.394 225.063 158.567 237.709 163.144C262.345 172.066 248.878 181.81 265.632 193.228C284.261 206.451 285.32 246.823 254.051 246.983C227.075 247.143 234.973 259.133 212.993 268.745C191.012 278.358 162.182 263.664 165.151 236.661C168.121 221.635 165.848 212.587 157.606 186.056Z" stroke="black" stroke-opacity="0.5" stroke-width="3"/>
</g>
</svg>
