<svg width="49" height="49" viewBox="0 0 49 49" fill="none" xmlns="http://www.w3.org/2000/svg">
<rect y="0.837646" width="48" height="48" rx="24" transform="rotate(-1 0 0.837646)" fill="#4BED7B"/>
<rect x="0.50865" y="1.32884" width="47" height="47" rx="23.5" transform="rotate(-1 0.50865 1.32884)" stroke="white" stroke-opacity="0.07"/>
<path d="M31.916 34.915C33.5729 34.915 34.916 33.5719 34.916 31.915C34.916 30.2582 33.5729 28.915 31.916 28.915C30.2592 28.915 28.916 30.2582 28.916 31.915C28.916 33.5719 30.2592 34.915 31.916 34.915Z" fill="black"/>
<path d="M19.916 22.165L21.416 22.165L21.416 23.665L19.916 23.665L19.916 22.165ZM19.916 25.915L21.416 25.915L21.416 27.415L19.916 27.415L19.916 25.915ZM19.916 29.665L21.416 29.665L21.416 31.165L19.916 31.165L19.916 29.665ZM22.916 22.165L28.916 22.165L28.916 23.665L22.916 23.665L22.916 22.165ZM22.916 25.915L28.916 25.915L28.916 27.415L22.916 27.415L22.916 25.915ZM22.916 29.665L25.916 29.665L25.916 31.165L22.916 31.165L22.916 29.665Z" fill="black"/>
<path d="M17.666 33.415L17.666 17.665L19.916 17.665L19.916 19.915L28.916 19.915L28.916 17.665L31.166 17.665L31.166 25.915L32.666 25.915L32.666 17.665C32.666 17.2672 32.508 16.8857 32.2267 16.6044C31.9454 16.3231 31.5638 16.165 31.166 16.165L28.916 16.165L28.916 15.415C28.916 15.0172 28.758 14.6357 28.4767 14.3544C28.1954 14.0731 27.8138 13.915 27.416 13.915L21.416 13.915C21.0182 13.915 20.6367 14.0731 20.3554 14.3544C20.0741 14.6357 19.916 15.0172 19.916 15.415L19.916 16.165L17.666 16.165C17.2682 16.165 16.8867 16.3231 16.6054 16.6044C16.3241 16.8857 16.166 17.2672 16.166 17.665L16.166 33.415C16.166 33.8129 16.3241 34.1944 16.6054 34.4757C16.8867 34.757 17.2682 34.915 17.666 34.915L25.916 34.915L25.916 33.415L17.666 33.415ZM21.416 15.415L27.416 15.415L27.416 18.415L21.416 18.415L21.416 15.415Z" fill="black"/>
</svg>
