<svg width="49" height="49" viewBox="0 0 49 49" fill="none" xmlns="http://www.w3.org/2000/svg">
<rect y="0.837646" width="48" height="48" rx="24" transform="rotate(-1 0 0.837646)" fill="#4BED7B"/>
<rect x="0.50865" y="1.32884" width="47" height="47" rx="23.5" transform="rotate(-1 0.50865 1.32884)" stroke="white" stroke-opacity="0.07"/>
<path d="M29.666 19.315L27.716 17.365L26.666 18.415L29.666 21.415L34.916 16.165L33.866 15.115L29.666 19.315ZM21.416 16.465L20.366 15.415L18.416 17.365L16.466 15.415L15.416 16.465L17.366 18.415L15.416 20.365L16.466 21.415L18.416 19.465L20.366 21.415L21.416 20.365L19.466 18.415L21.416 16.465ZM21.416 28.465L20.366 27.415L18.416 29.365L16.466 27.415L15.416 28.465L17.366 30.415L15.416 32.365L16.466 33.415L18.416 31.465L20.366 33.415L21.416 32.365L19.466 30.415L21.416 28.465Z" fill="black"/>
<path d="M25.166 23.665L25.166 13.915L23.666 13.915L23.666 23.665L13.916 23.665L13.916 25.165L23.666 25.165L23.666 34.915L25.166 34.915L25.166 25.165L34.916 25.165L34.916 23.665L25.166 23.665Z" fill="black"/>
</svg>
