<svg width="49" height="49" viewBox="0 0 49 49" fill="none" xmlns="http://www.w3.org/2000/svg">
<rect y="0.837646" width="48" height="48" rx="24" transform="rotate(-1 0 0.837646)" fill="#4BED7B"/>
<rect x="0.50865" y="1.32884" width="47" height="47" rx="23.5" transform="rotate(-1 0.50865 1.32884)" stroke="white" stroke-opacity="0.07"/>
<path d="M25.4992 23.3318L26.5826 23.3318C26.8895 23.3318 27.147 23.4358 27.355 23.6438C27.563 23.8518 27.6666 24.1089 27.6659 24.4151C27.6652 24.7213 27.5612 24.9788 27.3539 25.1875C27.1466 25.3963 26.8895 25.4999 26.5826 25.4985L24.4159 25.4985C24.1089 25.4985 23.8518 25.3945 23.6446 25.1865C23.4373 24.9785 23.3333 24.7213 23.3326 24.4151L23.3326 22.2485C23.3326 21.9415 23.4366 21.6844 23.6446 21.4771C23.8526 21.2698 24.1097 21.1658 24.4159 21.1651C24.7221 21.1644 24.9796 21.2684 25.1883 21.4771C25.397 21.6858 25.5007 21.943 25.4992 22.2485L25.4992 23.3318ZM33.0826 23.3318L33.0826 22.2485C33.0826 21.9415 33.1866 21.6844 33.3946 21.4771C33.6026 21.2698 33.8597 21.1658 34.1659 21.1651C34.4721 21.1644 34.7296 21.2684 34.9383 21.4771C35.147 21.6858 35.2507 21.943 35.2492 22.2485L35.2492 24.4151C35.2492 24.7221 35.1452 24.9795 34.9372 25.1875C34.7292 25.3955 34.4721 25.4992 34.1659 25.4985L31.9992 25.4985C31.6923 25.4985 31.4352 25.3945 31.2279 25.1865C31.0206 24.9785 30.9166 24.7213 30.9159 24.4151C30.9152 24.1089 31.0192 23.8518 31.2279 23.6438C31.4366 23.4358 31.6937 23.3318 31.9992 23.3318L33.0826 23.3318ZM25.4992 15.7485L25.4992 16.8318C25.4992 17.1387 25.3952 17.3962 25.1872 17.6042C24.9792 17.8122 24.7221 17.9158 24.4159 17.9151C24.1097 17.9144 23.8526 17.8104 23.6446 17.6031C23.4366 17.3958 23.3326 17.1387 23.3326 16.8318L23.3326 14.6651C23.3326 14.3582 23.4366 14.1011 23.6446 13.8938C23.8526 13.6865 24.1097 13.5825 24.4159 13.5818L26.5826 13.5818C26.8895 13.5818 27.147 13.6858 27.355 13.8938C27.563 14.1018 27.6666 14.3589 27.6659 14.6651C27.6652 14.9713 27.5612 15.2288 27.3539 15.4375C27.1466 15.6463 26.8895 15.7499 26.5826 15.7485L25.4992 15.7485ZM33.0826 15.7485L31.9992 15.7485C31.6923 15.7485 31.4352 15.6445 31.2279 15.4365C31.0206 15.2285 30.9166 14.9713 30.9159 14.6651C30.9152 14.3589 31.0192 14.1018 31.2279 13.8938C31.4366 13.6858 31.6937 13.5818 31.9992 13.5818L34.1659 13.5818C34.4728 13.5818 34.7303 13.6858 34.9383 13.8938C35.1463 14.1018 35.2499 14.3589 35.2492 14.6651L35.2492 16.8318C35.2492 17.1387 35.1452 17.3962 34.9372 17.6042C34.7292 17.8122 34.4721 17.9158 34.1659 17.9151C33.8597 17.9144 33.6026 17.8104 33.3946 17.6031C33.1866 17.3958 33.0826 17.1387 33.0826 16.8318L33.0826 15.7485ZM21.1659 29.1818L15.8576 34.4901C15.6589 34.6887 15.4062 34.788 15.0992 34.788C14.7923 34.788 14.5395 34.6887 14.3409 34.4901C14.1423 34.2915 14.043 34.0387 14.043 33.7318C14.043 33.4248 14.1423 33.1721 14.3409 32.9735L19.6492 27.6651L15.7492 27.6651C15.4423 27.6651 15.1852 27.5611 14.9779 27.3531C14.7706 27.1451 14.6666 26.888 14.6659 26.5818C14.6652 26.2756 14.7692 26.0185 14.9779 25.8105C15.1866 25.6025 15.4437 25.4985 15.7492 25.4985L22.2492 25.4985C22.5562 25.4985 22.8136 25.6025 23.0216 25.8105C23.2296 26.0185 23.3333 26.2756 23.3326 26.5818L23.3326 33.0818C23.3326 33.3887 23.2286 33.6462 23.0206 33.8542C22.8126 34.0622 22.5554 34.1658 22.2492 34.1651C21.943 34.1644 21.6859 34.0604 21.4779 33.8531C21.2699 33.6458 21.1659 33.3887 21.1659 33.0818L21.1659 29.1818Z" fill="black"/>
</svg>
