<svg width="24" height="24" viewBox="0 0 24 24" fill="none" xmlns="http://www.w3.org/2000/svg">
<path d="M12 24C18.6274 24 24 18.6274 24 12C24 5.37258 18.6274 0 12 0C5.37258 0 0 5.37258 0 12C0 18.6274 5.37258 24 12 24Z" fill="black"/>
<path d="M24 12C24 15.1826 22.7357 18.2348 20.4853 20.4853C18.2348 22.7357 15.1826 24 12 24C8.8174 24 5.76516 22.7357 3.51472 20.4853C1.26428 18.2348 0 15.1826 0 12H24Z" fill="#FFCE00"/>
<path d="M0 12C0.00247098 13.3634 0.238415 14.7163 0.6976 16H23.3024C24.2325 13.4144 24.2325 10.5856 23.3024 8H0.6976C0.238415 9.28373 0.00247098 10.6366 0 12Z" fill="#DD0000"/>
</svg>
