<svg width="24" height="25" viewBox="0 0 24 25" fill="none" xmlns="http://www.w3.org/2000/svg">
<g clip-path="url(#clip0_2239_994)">
<path d="M12 24.5C18.6274 24.5 24 19.1274 24 12.5C24 5.87258 18.6274 0.5 12 0.5C5.37258 0.5 0 5.87258 0 12.5C0 19.1274 5.37258 24.5 12 24.5Z" fill="#012169"/>
<path d="M21.2464 4.85281L12 10.4008L2.7536 4.85281C1.98456 5.78276 1.36045 6.82358 0.902405 7.94001L8.50241 12.5L0.902405 17.06C1.3601 18.1767 1.98395 19.2178 2.7528 20.148L12 14.5992L21.2472 20.1472C22.0161 19.217 22.6399 18.1759 23.0976 17.0592L15.4976 12.4992L23.0976 7.93921C22.6395 6.82306 22.0154 5.78252 21.2464 4.85281Z" fill="white"/>
<path d="M2.39043 19.6656L13.1656 13.2L22.2792 18.668C22.4859 18.3244 22.6752 17.9706 22.8464 17.608L13.1664 11.8L22.2792 6.33281C22.0718 5.98828 21.8486 5.65548 21.6096 5.33441L10.8336 11.8L1.72003 6.33281C1.51469 6.67521 1.32589 7.02828 1.15363 7.39201L10.8336 13.2L1.72003 18.668C1.92669 19.0115 2.15044 19.3445 2.39043 19.6656Z" fill="#C8102E"/>
<path d="M15 0.893604C13.0344 0.368799 10.9656 0.368799 9.00001 0.893604V9.50001H0.393604C-0.131201 11.4656 -0.131201 13.5344 0.393604 15.5H9.00001V24.1064C10.9656 24.6312 13.0344 24.6312 15 24.1064V15.5H23.6064C24.1312 13.5344 24.1312 11.4656 23.6064 9.50001H15V0.893604Z" fill="white"/>
<path d="M13.8 0.6496C13.2046 0.554681 12.6029 0.504673 12 0.5C11.3971 0.504673 10.7954 0.554681 10.2 0.6496V10.7H0.1496C0.0546811 11.2954 0.00467342 11.8971 0 12.5C0.00467342 13.1029 0.0546811 13.7046 0.1496 14.3H10.2V24.3504C10.7954 24.4453 11.3971 24.4953 12 24.5C12.6029 24.4953 13.2046 24.4453 13.8 24.3504V14.3H23.8504C23.9453 13.7046 23.9953 13.1029 24 12.5C23.9953 11.8971 23.9453 11.2954 23.8504 10.7H13.8V0.6496Z" fill="#C8102E"/>
</g>
<defs>
<clipPath id="clip0_2239_994">
<rect width="24" height="24" fill="white" transform="translate(0 0.5)"/>
</clipPath>
</defs>
</svg>
