<svg width="24" height="24" viewBox="0 0 24 24" fill="none" xmlns="http://www.w3.org/2000/svg">
<g clip-path="url(#clip0_2239_1006)">
<path d="M12 23.96C18.6274 23.96 24 18.5874 24 11.96C24 5.3326 18.6274 -0.039978 12 -0.039978C5.37258 -0.039978 0 5.3326 0 11.96C0 18.5874 5.37258 23.96 12 23.96Z" fill="#ED1C24"/>
<path d="M12 -0.039978C5.36 -0.039978 0 5.32002 0 11.96C0 18.6 5.36 23.96 12 23.96V-0.039978Z" fill="#009245"/>
<path d="M12 -0.039978C10.64 -0.039978 9.28 0.200022 8 0.680022V23.32C10.56 24.28 13.44 24.28 16 23.32V0.680022C14.72 0.200022 13.36 -0.039978 12 -0.039978Z" fill="#F0F0F0"/>
</g>
<defs>
<clipPath id="clip0_2239_1006">
<rect width="24" height="24" fill="white"/>
</clipPath>
</defs>
</svg>
