<svg width="36" height="36" viewBox="0 0 36 36" fill="none" xmlns="http://www.w3.org/2000/svg">
<rect width="36" height="36" rx="18" fill="black"/>
<path fill-rule="evenodd" clip-rule="evenodd" d="M26.6875 12.605L18.7963 19.14C18.572 19.3258 18.29 19.4275 17.9987 19.4275C17.7075 19.4275 17.4255 19.3258 17.2013 19.14L9.31375 12.605C9.27143 12.7324 9.2499 12.8658 9.25 13V23C9.25 23.3315 9.3817 23.6495 9.61612 23.8839C9.85054 24.1183 10.1685 24.25 10.5 24.25H25.5C25.8315 24.25 26.1495 24.1183 26.3839 23.8839C26.6183 23.6495 26.75 23.3315 26.75 23V13C26.7505 12.8658 26.7294 12.7325 26.6875 12.605ZM10.5 10.5H25.5C26.163 10.5 26.7989 10.7634 27.2678 11.2322C27.7366 11.7011 28 12.337 28 13V23C28 23.663 27.7366 24.2989 27.2678 24.7678C26.7989 25.2366 26.163 25.5 25.5 25.5H10.5C9.83696 25.5 9.20107 25.2366 8.73223 24.7678C8.26339 24.2989 8 23.663 8 23V13C8 12.337 8.26339 11.7011 8.73223 11.2322C9.20107 10.7634 9.83696 10.5 10.5 10.5ZM10.2375 11.75L17.2075 17.5038C17.4307 17.6881 17.711 17.7893 18.0006 17.79C18.2901 17.7907 18.5709 17.6908 18.795 17.5075L25.835 11.75H10.2375Z" fill="white"/>
</svg>
