<svg width="36" height="36" viewBox="0 0 36 36" fill="none" xmlns="http://www.w3.org/2000/svg">
<rect width="36" height="36" rx="18" fill="black"/>
<path d="M21.3488 21.2992L21.7697 20.8584L20.7923 19.8231L20.3732 20.2639L21.3488 21.2992ZM23.181 20.6735L24.9448 21.6845L25.6048 20.4021L23.8418 19.3921L23.181 20.6735ZM25.2836 23.6927L23.9729 25.0676L24.9485 26.1019L26.2592 24.728L25.2836 23.6927ZM23.1736 25.5093C21.8353 25.6417 18.374 25.5239 14.6249 21.5949L13.6483 22.6292C17.739 26.9173 21.6331 27.1274 23.3028 26.963L23.1736 25.5093ZM14.6249 21.5949C11.052 17.8489 10.4594 14.6993 10.3856 13.3322L9.00293 13.415C9.09523 15.1352 9.82901 18.6263 13.6483 22.6292L14.6249 21.5949ZM15.894 15.5818L16.1589 15.3035L15.1842 14.2692L14.9193 14.5465L15.894 15.5818ZM16.3693 11.7667L15.2063 10.1282L14.0978 11.0039L15.2608 12.6414L16.3693 11.7667ZM11.2919 9.77107L9.84285 11.289L10.8194 12.3242L12.2675 10.8063L11.2919 9.77107ZM15.4066 15.0642C14.9175 14.5465 14.9175 14.5465 14.9175 14.5485H14.9156L14.9128 14.5524C14.869 14.599 14.8297 14.6502 14.7956 14.7051C14.7458 14.783 14.6913 14.8852 14.6452 15.0146C14.5328 15.3486 14.5048 15.7077 14.5639 16.0566C14.6876 16.8983 15.2377 18.0104 16.6462 19.4874L17.6227 18.4522C16.3038 17.0705 15.99 16.2298 15.9318 15.8329C15.9041 15.6441 15.9327 15.5507 15.941 15.5293C15.9466 15.5163 15.9466 15.5144 15.941 15.5234C15.9328 15.5369 15.9236 15.5496 15.9134 15.5614L15.9041 15.5711L15.8949 15.5799L15.4066 15.0642ZM16.6462 19.4874C18.0556 20.9644 19.1161 21.5405 19.9154 21.6689C20.3243 21.7351 20.6538 21.6825 20.904 21.5842C21.0441 21.5302 21.175 21.4527 21.2916 21.3546L21.3378 21.3108L21.3442 21.305L21.347 21.3021L21.3479 21.3001C21.3479 21.3001 21.3488 21.2992 20.8606 20.7815C20.3714 20.2639 20.3742 20.2629 20.3742 20.2629L20.376 20.261L20.3779 20.259L20.3834 20.2542L20.3926 20.2444L20.4277 20.2152C20.4363 20.2094 20.4342 20.21 20.4212 20.2172C20.3982 20.2259 20.3077 20.2561 20.1259 20.2269C19.7438 20.1646 18.9408 19.8338 17.6227 18.4522L16.6462 19.4874ZM15.2063 10.1272C14.2649 8.80391 12.4152 8.59375 11.2919 9.77107L12.2675 10.8063C12.7586 10.2916 13.6299 10.3451 14.0978 11.0039L15.2063 10.1272ZM10.3865 13.3332C10.368 12.9966 10.5148 12.6443 10.8194 12.3252L9.84193 11.2899C9.34628 11.8095 8.95586 12.5451 9.00293 13.415L10.3865 13.3332ZM23.9729 25.0676C23.72 25.3342 23.4468 25.484 23.1745 25.5103L23.3028 26.963C23.9812 26.8958 24.5359 26.5358 24.9494 26.1028L23.9729 25.0676ZM16.1589 15.3035C17.068 14.351 17.1354 12.8457 16.3702 11.7677L15.2617 12.6424C15.6337 13.1668 15.5783 13.8547 15.1833 14.2702L16.1589 15.3035ZM24.9457 21.6854C25.6998 22.1174 25.817 23.1352 25.2845 23.6937L26.261 24.728C27.4978 23.431 27.1166 21.268 25.6057 20.403L24.9457 21.6854ZM21.7697 20.8594C22.1242 20.4877 22.6946 20.3962 23.1819 20.6745L23.8428 19.3931C22.8422 18.819 21.6017 18.9776 20.7932 19.8241L21.7697 20.8594Z" fill="white"/>
</svg>
