<svg width="36" height="36" viewBox="0 0 36 36" fill="none" xmlns="http://www.w3.org/2000/svg">
<rect width="36" height="36" rx="18" fill="black"/>
<g clip-path="url(#clip0_2128_168949)">
<path d="M17.7695 8.76953C15.3826 8.76953 13.0934 9.71774 11.4056 11.4056C9.71774 13.0934 8.76953 15.3826 8.76953 17.7695C8.76953 20.1565 9.71774 22.4457 11.4056 24.1335C13.0934 25.8213 15.3826 26.7695 17.7695 26.7695C20.1565 26.7695 22.4457 25.8213 24.1335 24.1335C25.8213 22.4457 26.7695 20.1565 26.7695 17.7695C26.7695 15.3826 25.8213 13.0934 24.1335 11.4056C22.4457 9.71774 20.1565 8.76953 17.7695 8.76953ZM9.87953 18.4495L12.3895 18.4495C12.4295 19.3595 12.5565 20.2635 12.7695 21.1495L10.6095 21.1495C10.2075 20.3001 9.96034 19.3858 9.87953 18.4495ZM18.4495 13.0495L18.4495 9.95953C19.4132 10.3258 20.2051 11.0392 20.6695 11.9595C20.8749 12.3069 21.0549 12.6669 21.2095 13.0395L18.4495 13.0495ZM21.6695 14.3995C21.9015 15.2825 22.0395 16.1875 22.0795 17.0995L18.4495 17.0995L18.4495 14.3995L21.6695 14.3995ZM17.0895 9.95953L17.0895 13.0495L14.3295 13.0495C14.4837 12.6772 14.6642 12.3163 14.8695 11.9695C15.332 11.0454 16.1241 10.3282 17.0895 9.95953ZM17.0895 14.3995L17.0895 17.0995L13.4695 17.0995C13.5095 16.1875 13.6475 15.2825 13.8795 14.3995L17.0895 14.3995ZM12.3895 17.0895L9.87953 17.0895C9.96034 16.1533 10.2075 15.2389 10.6095 14.3895L12.7695 14.3895C12.5553 15.275 12.428 16.1793 12.3895 17.0895ZM13.4695 18.4495L17.0895 18.4495L17.0895 21.1495L13.8795 21.1495C13.6484 20.2664 13.511 19.3614 13.4695 18.4495ZM17.0995 22.4495L17.0995 25.5395C16.1358 25.1733 15.344 24.4599 14.8795 23.5395C14.6742 23.1928 14.4937 22.8319 14.3395 22.4595L17.0995 22.4495ZM18.4495 25.5395L18.4495 22.4995L21.2095 22.4995C21.0554 22.8719 20.8749 23.2328 20.6695 23.5795C20.2051 24.4999 19.4132 25.2133 18.4495 25.5795L18.4495 25.5395ZM18.4495 21.0995L18.4495 18.3995L22.0695 18.3995C22.028 19.3114 21.8906 20.2164 21.6595 21.0995L18.4495 21.0995ZM23.1595 18.3995L25.6695 18.3995C25.5887 19.3358 25.3415 20.2501 24.9395 21.0995L22.7695 21.0995C22.9795 20.2295 23.1065 19.3425 23.1495 18.4495L23.1595 18.3995ZM23.1595 17.0495C23.1145 16.1558 22.9839 15.2684 22.7695 14.3995L24.9295 14.3995C25.3325 15.2495 25.5795 16.1635 25.6595 17.0995L23.1595 17.0495ZM24.1595 13.0495L22.3695 13.0495C22.046 12.1397 21.5765 11.2886 20.9795 10.5295C22.2239 11.0881 23.3048 11.9556 24.1195 13.0495L24.1595 13.0495ZM14.5595 10.5295C13.9626 11.2886 13.4931 12.1397 13.1695 13.0495L11.4195 13.0495C12.2343 11.9556 13.3151 11.0881 14.5595 10.5295ZM11.4095 22.5295L13.1695 22.5295C13.4931 23.4394 13.9626 24.2905 14.5595 25.0495C13.3117 24.4825 12.2305 23.6045 11.4195 22.4995L11.4095 22.5295ZM20.9695 25.0495C21.5665 24.2905 22.036 23.4394 22.3595 22.5295L24.1195 22.5295C23.2998 23.6088 22.2194 24.4622 20.9795 25.0095L20.9695 25.0495Z" fill="white"/>
</g>
<defs>
<clipPath id="clip0_2128_168949">
<rect width="20" height="20" fill="white" transform="translate(8 8)"/>
</clipPath>
</defs>
</svg>
