<svg width="49" height="49" viewBox="0 0 49 49" fill="none" xmlns="http://www.w3.org/2000/svg">
<rect y="0.837769" width="48" height="48" rx="24" transform="rotate(-1 0 0.837769)" fill="#4BED7B"/>
<rect x="0.50865" y="1.32897" width="47" height="47" rx="23.5" transform="rotate(-1 0.50865 1.32897)" stroke="white" stroke-opacity="0.07"/>
<path d="M16.9903 16.9903C17.1296 16.851 17.295 16.7405 17.4771 16.6651C17.6591 16.5897 17.8542 16.5509 18.0513 16.5509C18.2483 16.5509 18.4435 16.5897 18.6255 16.6651C18.8075 16.7405 18.973 16.851 19.1123 16.9903C19.2516 17.1297 19.3621 17.2951 19.4376 17.4771C19.513 17.6592 19.5518 17.8543 19.5518 18.0513C19.5518 18.2484 19.513 18.4435 19.4376 18.6255C19.3621 18.8076 19.2516 18.973 19.1123 19.1123C18.4145 19.8077 17.8612 20.6343 17.4841 21.5444C17.107 22.4545 16.9137 23.4302 16.9153 24.4153C16.9137 25.4005 17.107 26.3762 17.4841 27.2863C17.8612 28.1964 18.4145 29.0229 19.1123 29.7183C19.3937 29.9997 19.5518 30.3814 19.5518 30.7793C19.5518 31.1773 19.3937 31.5589 19.1123 31.8403C18.973 31.9797 18.8075 32.0902 18.6255 32.1656C18.4435 32.241 18.2483 32.2798 18.0513 32.2798C17.6533 32.2798 17.2717 32.1217 16.9903 31.8403C16.014 30.8662 15.2397 29.7088 14.712 28.4346C14.1843 27.1604 13.9136 25.7945 13.9153 24.4153C13.9153 21.5153 15.0923 18.8893 16.9903 16.9903ZM29.7183 16.9903C29.8576 16.8509 30.023 16.7404 30.205 16.6649C30.3871 16.5895 30.5822 16.5507 30.7793 16.5507C30.9764 16.5507 31.1715 16.5895 31.3535 16.6649C31.5356 16.7404 31.701 16.8509 31.8403 16.9903C32.8166 17.9644 33.5909 19.1218 34.1186 20.3961C34.6463 21.6703 34.917 23.0362 34.9153 24.4153C34.9153 27.3153 33.7383 29.9413 31.8403 31.8403C31.5589 32.1217 31.1772 32.2798 30.7793 32.2798C30.3813 32.2798 29.9997 32.1217 29.7183 31.8403C29.4369 31.5589 29.2788 31.1773 29.2788 30.7793C29.2788 30.3814 29.4369 29.9997 29.7183 29.7183C30.4161 29.0229 30.9694 28.1964 31.3465 27.2863C31.7235 26.3762 31.9169 25.4005 31.9153 24.4153C31.9169 23.4302 31.7235 22.4545 31.3465 21.5444C30.9694 20.6343 30.4161 19.8077 29.7183 19.1123C29.5789 18.973 29.4683 18.8076 29.3929 18.6256C29.3174 18.4435 29.2786 18.2484 29.2786 18.0513C29.2786 17.8543 29.3174 17.6591 29.3929 17.4771C29.4683 17.295 29.5789 17.1296 29.7183 16.9903ZM21.9403 19.8193C22.2215 20.1006 22.3795 20.4821 22.3795 20.8798C22.3795 21.2776 22.2215 21.659 21.9403 21.9403C21.6144 22.2647 21.356 22.6504 21.1801 23.0753C21.0042 23.5001 20.9142 23.9555 20.9153 24.4153C20.9153 25.3273 21.2623 26.1563 21.8353 26.7803L21.9833 26.9323C22.1258 27.069 22.2399 27.2325 22.319 27.4134C22.3982 27.5943 22.4408 27.7891 22.4446 27.9865C22.4483 28.1839 22.413 28.3801 22.3407 28.5639C22.2684 28.7476 22.1606 28.9153 22.0233 29.0572C21.8861 29.1992 21.7222 29.3127 21.541 29.3912C21.3598 29.4697 21.1649 29.5116 20.9675 29.5146C20.77 29.5175 20.574 29.4815 20.3905 29.4086C20.207 29.3356 20.0397 29.2271 19.8983 29.0893C19.2711 28.4832 18.7722 27.757 18.4316 26.954C18.0909 26.151 17.9153 25.2876 17.9153 24.4153C17.9153 22.6213 18.6453 20.9933 19.8193 19.8193C20.1006 19.5381 20.482 19.3802 20.8798 19.3802C21.2775 19.3802 21.659 19.5381 21.9403 19.8193ZM29.0543 19.8623C30.2489 21.0764 30.9174 22.7121 30.9153 24.4153C30.9153 26.2093 30.1853 27.8373 29.0113 29.0113C28.8729 29.1546 28.7074 29.2689 28.5244 29.3475C28.3414 29.4261 28.1446 29.4675 27.9454 29.4692C27.7462 29.4709 27.5487 29.433 27.3644 29.3576C27.18 29.2821 27.0125 29.1708 26.8717 29.0299C26.7309 28.8891 26.6195 28.7216 26.5441 28.5373C26.4686 28.3529 26.4307 28.1554 26.4324 27.9562C26.4341 27.7571 26.4755 27.5602 26.5541 27.3772C26.6328 27.1942 26.747 27.0287 26.8903 26.8903C27.2162 26.566 27.4746 26.1802 27.6505 25.7554C27.8264 25.3306 27.9164 24.8751 27.9153 24.4153C27.9153 23.4603 27.5353 22.5963 26.9133 21.9633C26.7693 21.8241 26.6546 21.6575 26.576 21.4733C26.4974 21.289 26.4565 21.0909 26.4557 20.8906C26.4549 20.6903 26.4943 20.4919 26.5714 20.3071C26.6485 20.1222 26.7619 19.9547 26.9049 19.8144C27.0478 19.6741 27.2174 19.5638 27.4036 19.4901C27.5898 19.4163 27.7889 19.3807 27.9892 19.3851C28.1894 19.3896 28.3868 19.4341 28.5695 19.5161C28.7523 19.598 28.9178 19.7158 29.0543 19.8623ZM24.4153 22.4153C24.9457 22.4153 25.4544 22.6261 25.8295 23.0011C26.2046 23.3762 26.4153 23.8849 26.4153 24.4153C26.4153 24.9458 26.2046 25.4545 25.8295 25.8296C25.4544 26.2046 24.9457 26.4153 24.4153 26.4153C23.8849 26.4153 23.3762 26.2046 23.0011 25.8296C22.626 25.4545 22.4153 24.9458 22.4153 24.4153C22.4153 23.8849 22.626 23.3762 23.0011 23.0011C23.3762 22.6261 23.8849 22.4153 24.4153 22.4153Z" fill="black"/>
</svg>
