<svg width="49" height="49" viewBox="0 0 49 49" fill="none" xmlns="http://www.w3.org/2000/svg">
<rect y="0.837769" width="48" height="48" rx="24" transform="rotate(-1 0 0.837769)" fill="#4BED7B"/>
<rect x="0.50865" y="1.32897" width="47" height="47" rx="23.5" transform="rotate(-1 0.50865 1.32897)" stroke="white" stroke-opacity="0.07"/>
<path d="M24.4153 28.4153C23.8653 28.4153 23.3946 28.2196 23.0033 27.8283C22.6119 27.4369 22.4159 26.966 22.4153 26.4153C22.4146 25.8646 22.6106 25.394 23.0033 25.0033C23.396 24.6126 23.8666 24.4166 24.4153 24.4153C24.964 24.4139 25.4349 24.61 25.8283 25.0033C26.2216 25.3966 26.4173 25.8673 26.4153 26.4153C26.4133 26.9633 26.2176 27.4343 25.8283 27.8283C25.4389 28.2223 24.9679 28.4179 24.4153 28.4153ZM19.7903 19.4153L29.0403 19.4153L30.3153 16.8653C30.4819 16.5319 30.4693 16.2069 30.2773 15.8903C30.0853 15.5736 29.7979 15.4153 29.4153 15.4153L19.4153 15.4153C19.0319 15.4153 18.7446 15.5736 18.5533 15.8903C18.3619 16.2069 18.3493 16.5319 18.5153 16.8653L19.7903 19.4153ZM20.8153 33.4153L28.0153 33.4153C29.5153 33.4153 30.7903 32.8946 31.8403 31.8533C32.8903 30.8119 33.4153 29.5326 33.4153 28.0153C33.4153 27.382 33.3069 26.7653 33.0903 26.1653C32.8736 25.5653 32.5653 25.0236 32.1653 24.5403L29.5653 21.4153L19.2653 21.4153L16.6653 24.5403C16.2653 25.0236 15.9569 25.5653 15.7403 26.1653C15.5236 26.7653 15.4153 27.382 15.4153 28.0153C15.4153 29.5319 15.9363 30.8113 16.9783 31.8533C18.0203 32.8953 19.2993 33.416 20.8153 33.4153Z" fill="black"/>
</svg>
