<svg width="49" height="49" viewBox="0 0 49 49" fill="none" xmlns="http://www.w3.org/2000/svg">
<rect y="0.837769" width="48" height="48" rx="24" transform="rotate(-1 0 0.837769)" fill="#4BED7B"/>
<rect x="0.50865" y="1.32897" width="47" height="47" rx="23.5" transform="rotate(-1 0.50865 1.32897)" stroke="white" stroke-opacity="0.07"/>
<g clip-path="url(#clip0_2014_133043)">
<path d="M24.5425 18.0103L20.9125 20.9503C20.3088 21.4378 20.1925 22.3153 20.65 22.9416C21.1338 23.6091 22.075 23.7403 22.7238 23.2341L26.4475 20.3391C26.71 20.1366 27.085 20.1816 27.2913 20.4441C27.4975 20.7066 27.4488 21.0816 27.1863 21.2878L26.4025 21.8953L31.615 26.6953L31.615 19.6153L31.5888 19.6153L31.4425 19.5216L28.72 17.7778C28.1463 17.4103 27.475 17.2153 26.7925 17.2153C25.975 17.2153 25.18 17.4966 24.5425 18.0103ZM25.3975 22.6753L23.4588 24.1828C22.2775 25.1053 20.5638 24.8653 19.6788 23.6503C18.8463 22.5066 19.0563 20.9091 20.155 20.0203L23.275 17.4966C22.84 17.3128 22.3713 17.2191 21.895 17.2191C21.19 17.2153 20.5038 17.4253 19.915 17.8153L17.215 19.6153L17.215 28.0153L18.2725 28.0153L21.7 31.1428C22.435 31.8141 23.5713 31.7616 24.2425 31.0266C24.4488 30.7978 24.5875 30.5316 24.6588 30.2541L25.2963 30.8391C26.0275 31.5103 27.1675 31.4616 27.8388 30.7303C28.0075 30.5466 28.1313 30.3328 28.21 30.1116C28.9375 30.5991 29.9275 30.4978 30.5388 29.8303C31.21 29.0991 31.1613 27.9591 30.43 27.2878L25.3975 22.6753ZM13.015 19.6153C12.685 19.6153 12.415 19.8853 12.415 20.2153L12.415 28.0153C12.415 28.6791 12.9513 29.2153 13.615 29.2153L14.815 29.2153C15.4788 29.2153 16.015 28.6791 16.015 28.0153L16.015 19.6153L13.015 19.6153ZM14.215 26.8153C14.3742 26.8153 14.5268 26.8785 14.6393 26.9911C14.7518 27.1036 14.815 27.2562 14.815 27.4153C14.815 27.5745 14.7518 27.7271 14.6393 27.8396C14.5268 27.9521 14.3742 28.0153 14.215 28.0153C14.0559 28.0153 13.9033 27.9521 13.7908 27.8396C13.6783 27.7271 13.615 27.5745 13.615 27.4153C13.615 27.2562 13.6783 27.1036 13.7908 26.9911C13.9033 26.8785 14.0559 26.8153 14.215 26.8153ZM32.815 19.6153L32.815 28.0153C32.815 28.6791 33.3513 29.2153 34.015 29.2153L35.215 29.2153C35.8788 29.2153 36.415 28.6791 36.415 28.0153L36.415 20.2153C36.415 19.8853 36.145 19.6153 35.815 19.6153L32.815 19.6153ZM34.015 27.4153C34.015 27.2562 34.0783 27.1036 34.1908 26.9911C34.3033 26.8785 34.4559 26.8153 34.615 26.8153C34.7742 26.8153 34.9268 26.8785 35.0393 26.9911C35.1518 27.1036 35.215 27.2562 35.215 27.4153C35.215 27.5745 35.1518 27.7271 35.0393 27.8396C34.9268 27.9521 34.7742 28.0153 34.615 28.0153C34.4559 28.0153 34.3033 27.9521 34.1908 27.8396C34.0783 27.7271 34.015 27.5745 34.015 27.4153Z" fill="black"/>
</g>
<defs>
<clipPath id="clip0_2014_133043">
<rect width="24" height="19.2" fill="white" transform="translate(12.415 14.8152)"/>
</clipPath>
</defs>
</svg>
