<svg width="48" height="48" viewBox="0 0 48 48" fill="none" xmlns="http://www.w3.org/2000/svg">
<rect width="48" height="48" rx="24" fill="white"/>
<rect x="0.5" y="0.5" width="47" height="47" rx="23.5" stroke="white" stroke-opacity="0.07"/>
<path fill-rule="evenodd" clip-rule="evenodd" d="M34.425 17.526L24.9555 25.368C24.6864 25.5909 24.3479 25.7129 23.9985 25.7129C23.6491 25.7129 23.3106 25.5909 23.0415 25.368L13.5765 17.526C13.5257 17.6789 13.4999 17.8389 13.5 18V30C13.5 30.3978 13.658 30.7794 13.9393 31.0607C14.2206 31.342 14.6022 31.5 15 31.5H33C33.3978 31.5 33.7794 31.342 34.0607 31.0607C34.342 30.7794 34.5 30.3978 34.5 30V18C34.5006 17.839 34.4753 17.679 34.425 17.526ZM15 15H33C33.7956 15 34.5587 15.3161 35.1213 15.8787C35.6839 16.4413 36 17.2044 36 18V30C36 30.7956 35.6839 31.5587 35.1213 32.1213C34.5587 32.6839 33.7956 33 33 33H15C14.2044 33 13.4413 32.6839 12.8787 32.1213C12.3161 31.5587 12 30.7956 12 30V18C12 17.2044 12.3161 16.4413 12.8787 15.8787C13.4413 15.3161 14.2044 15 15 15ZM14.685 16.5L23.049 23.4045C23.3169 23.6258 23.6533 23.7472 24.0007 23.748C24.3481 23.7488 24.6851 23.629 24.954 23.409L33.402 16.5H14.685Z" fill="black"/>
</svg>
