<svg width="50" height="49" viewBox="0 0 50 49" fill="none" xmlns="http://www.w3.org/2000/svg">
<rect x="0.835938" y="0.837769" width="48" height="48" rx="24" transform="rotate(-1 0.835938 0.837769)" fill="black"/>
<rect x="1.34459" y="1.32897" width="47" height="47" rx="23.5" transform="rotate(-1 1.34459 1.32897)" stroke="white" stroke-opacity="0.07"/>
<path d="M31.0853 12.7487L27.5853 12.7487C26.0382 12.7487 24.5545 13.3632 23.4605 14.4572C22.3665 15.5512 21.752 17.0349 21.752 18.582L21.752 22.082L18.252 22.082L18.252 26.7487L21.752 26.7487L21.752 36.082L26.4186 36.082L26.4186 26.7487L29.9186 26.7487L31.0853 22.082L26.4186 22.082L26.4186 18.582C26.4186 18.2726 26.5415 17.9758 26.7603 17.757C26.9791 17.5382 27.2759 17.4153 27.5853 17.4153L31.0853 17.4153L31.0853 12.7487Z" stroke="white" stroke-width="1.5" stroke-linecap="round" stroke-linejoin="round"/>
</svg>
