<svg width="50" height="49" viewBox="0 0 50 49" fill="none" xmlns="http://www.w3.org/2000/svg">
<rect x="0.501953" y="0.837769" width="48" height="48" rx="24" transform="rotate(-1 0.501953 0.837769)" fill="black"/>
<rect x="1.0106" y="1.32897" width="47" height="47" rx="23.5" transform="rotate(-1 1.0106 1.32897)" stroke="white" stroke-opacity="0.07"/>
<path d="M24.9186 29.082C26.1563 29.082 27.3433 28.5903 28.2185 27.7152C29.0936 26.84 29.5853 25.653 29.5853 24.4153C29.5853 23.1776 29.0936 21.9907 28.2185 21.1155C27.3433 20.2403 26.1563 19.7487 24.9186 19.7487C23.6809 19.7487 22.494 20.2403 21.6188 21.1155C20.7436 21.9907 20.252 23.1776 20.252 24.4153C20.252 25.653 20.7436 26.84 21.6188 27.7152C22.494 28.5903 23.6809 29.082 24.9186 29.082Z" stroke="white" stroke-width="1.5" stroke-linecap="round" stroke-linejoin="round"/>
<path d="M14.418 29.0819L14.418 19.7486C14.418 18.2015 15.0326 16.7178 16.1265 15.6238C17.2205 14.5299 18.7042 13.9153 20.2513 13.9153L29.5846 13.9153C31.1317 13.9153 32.6155 14.5299 33.7094 15.6238C34.8034 16.7178 35.418 18.2015 35.418 19.7486L35.418 29.0819C35.418 30.629 34.8034 32.1128 33.7094 33.2067C32.6155 34.3007 31.1317 34.9153 29.5846 34.9153L20.2513 34.9153C18.7042 34.9153 17.2205 34.3007 16.1265 33.2067C15.0326 32.1128 14.418 30.629 14.418 29.0819Z" stroke="white" stroke-width="1.5"/>
<path d="M31.334 18.0103L31.3457 17.9974" stroke="white" stroke-width="1.5" stroke-linecap="round" stroke-linejoin="round"/>
</svg>
