<svg width="49" height="48" viewBox="0 0 49 48" fill="none" xmlns="http://www.w3.org/2000/svg">
<rect x="0.666016" width="48" height="48" rx="24" fill="white"/>
<rect x="1.16602" y="0.5" width="47" height="47" rx="23.5" stroke="white" stroke-opacity="0.07"/>
<path d="M31.416 21.75C31.416 19.9598 30.7049 18.2429 29.439 16.977C28.1731 15.7112 26.4562 15 24.666 15C22.8758 15 21.1589 15.7112 19.893 16.977C18.6272 18.2429 17.916 19.9598 17.916 21.75C17.916 24.519 20.1315 28.128 24.666 32.451C29.2005 28.128 31.416 24.519 31.416 21.75ZM24.666 34.5C19.1655 29.5005 16.416 25.2495 16.416 21.75C16.416 19.562 17.2852 17.4635 18.8324 15.9164C20.3796 14.3692 22.478 13.5 24.666 13.5C26.8541 13.5 28.9525 14.3692 30.4996 15.9164C32.0468 17.4635 32.916 19.562 32.916 21.75C32.916 25.2495 30.1665 29.5005 24.666 34.5Z" fill="black"/>
<path d="M24.666 24C25.2628 24 25.835 23.7629 26.257 23.341C26.679 22.919 26.916 22.3467 26.916 21.75C26.916 21.1533 26.679 20.581 26.257 20.159C25.835 19.7371 25.2628 19.5 24.666 19.5C24.0693 19.5 23.497 19.7371 23.075 20.159C22.6531 20.581 22.416 21.1533 22.416 21.75C22.416 22.3467 22.6531 22.919 23.075 23.341C23.497 23.7629 24.0693 24 24.666 24ZM24.666 25.5C23.6715 25.5 22.7176 25.1049 22.0144 24.4017C21.3111 23.6984 20.916 22.7446 20.916 21.75C20.916 20.7554 21.3111 19.8016 22.0144 19.0983C22.7176 18.3951 23.6715 18 24.666 18C25.6606 18 26.6144 18.3951 27.3177 19.0983C28.0209 19.8016 28.416 20.7554 28.416 21.75C28.416 22.7446 28.0209 23.6984 27.3177 24.4017C26.6144 25.1049 25.6606 25.5 24.666 25.5Z" fill="black"/>
</svg>
