<svg width="48" height="48" viewBox="0 0 48 48" fill="none" xmlns="http://www.w3.org/2000/svg">
<rect width="48" height="48" rx="24" fill="white"/>
<rect x="0.5" y="0.5" width="47" height="47" rx="23.5" stroke="white" stroke-opacity="0.07"/>
<path d="M27.4001 28.2062L27.9321 27.6777L26.6965 26.4364L26.1669 26.9649L27.4001 28.2062ZM29.7159 27.456L31.9454 28.6682L32.7796 27.1305L30.5512 25.9195L29.7159 27.456ZM32.3736 31.0762L30.7169 32.7247L31.9501 33.9649L33.6067 32.3175L32.3736 31.0762ZM29.7066 33.2544C28.0149 33.413 23.6399 33.2719 18.9009 28.5609L17.6666 29.801C22.8372 34.9425 27.7594 35.1945 29.8699 34.9974L29.7066 33.2544ZM18.9009 28.5609C14.3847 24.0692 13.6357 20.2927 13.5424 18.6535L11.7947 18.7527C11.9114 20.8154 12.8389 25.0014 17.6666 29.801L18.9009 28.5609ZM20.5051 21.3509L20.8399 21.0172L19.6079 19.777L19.2731 20.1095L20.5051 21.3509ZM21.1059 16.7764L19.6359 14.8117L18.2347 15.8617L19.7047 17.8252L21.1059 16.7764ZM14.6881 14.3835L12.8564 16.2035L14.0907 17.4449L15.9212 15.6249L14.6881 14.3835ZM19.8891 20.7302C19.2707 20.1095 19.2707 20.1095 19.2707 20.1119H19.2684L19.2649 20.1165C19.2094 20.1724 19.1598 20.2338 19.1167 20.2997C19.0537 20.393 18.9849 20.5155 18.9266 20.6707C18.7845 21.0712 18.7492 21.5018 18.8239 21.9202C18.9802 22.9294 19.6756 24.2629 21.4559 26.0339L22.6902 24.7925C21.0231 23.1359 20.6264 22.1279 20.5529 21.6519C20.5179 21.4255 20.5541 21.3135 20.5646 21.2879C20.5716 21.2723 20.5716 21.27 20.5646 21.2809C20.5542 21.297 20.5424 21.3122 20.5296 21.3264L20.5179 21.338L20.5062 21.3485L19.8891 20.7302ZM21.4559 26.0339C23.2374 27.8049 24.5779 28.4955 25.5882 28.6495C26.1051 28.7289 26.5216 28.6659 26.8377 28.548C27.0148 28.4833 27.1803 28.3903 27.3277 28.2727L27.3861 28.2202L27.3942 28.2132L27.3977 28.2097L27.3989 28.2074C27.3989 28.2074 27.4001 28.2062 26.7829 27.5855C26.1646 26.9649 26.1681 26.9637 26.1681 26.9637L26.1704 26.9614L26.1727 26.959L26.1797 26.9532L26.1914 26.9415L26.2357 26.9065C26.2466 26.8995 26.2439 26.9003 26.2276 26.9089C26.1984 26.9194 26.0841 26.9555 25.8542 26.9205C25.3712 26.8459 24.3562 26.4492 22.6902 24.7925L21.4559 26.0339ZM19.6359 14.8105C18.4459 13.2239 16.1079 12.9719 14.6881 14.3835L15.9212 15.6249C16.5419 15.0077 17.6432 15.0719 18.2347 15.8617L19.6359 14.8105ZM13.5436 18.6547C13.5202 18.251 13.7057 17.8287 14.0907 17.446L12.8552 16.2047C12.2287 16.8277 11.7352 17.7097 11.7947 18.7527L13.5436 18.6547ZM30.7169 32.7247C30.3972 33.0444 30.0519 33.224 29.7077 33.2555L29.8699 34.9974C30.7274 34.9169 31.4286 34.4852 31.9512 33.966L30.7169 32.7247ZM20.8399 21.0172C21.9891 19.875 22.0742 18.0702 21.1071 16.7775L19.7059 17.8264C20.1761 18.4552 20.1061 19.28 19.6067 19.7782L20.8399 21.0172ZM31.9466 28.6694C32.8997 29.1874 33.0479 30.4077 32.3747 31.0774L33.6091 32.3175C35.1724 30.7624 34.6905 28.1689 32.7807 27.1317L31.9466 28.6694ZM27.9321 27.6789C28.3801 27.2332 29.1011 27.1235 29.7171 27.4572L30.5524 25.9207C29.2877 25.2324 27.7197 25.4225 26.6977 26.4375L27.9321 27.6789Z" fill="black"/>
</svg>
