<svg width="49" height="49" viewBox="0 0 49 49" fill="none" xmlns="http://www.w3.org/2000/svg">
<rect x="0.169922" y="0.837708" width="48" height="48" rx="24" transform="rotate(-1 0.169922 0.837708)" fill="black"/>
<rect x="0.678572" y="1.32891" width="47" height="47" rx="23.5" transform="rotate(-1 0.678572 1.32891)" stroke="white" stroke-opacity="0.07"/>
<path d="M25.8471 22.9126L20.2635 15.0842C20.1987 14.9933 20.1132 14.9191 20.0139 14.868C19.9147 14.8168 19.8046 14.7902 19.693 14.7902L16.746 14.7902C16.6175 14.7904 16.4916 14.8259 16.382 14.8928C16.2724 14.9598 16.1833 15.0556 16.1245 15.1698C16.0657 15.284 16.0395 15.4122 16.0487 15.5403C16.0579 15.6685 16.1021 15.7916 16.1766 15.8962L23.3248 25.9179M25.8471 22.9126L32.9953 32.9342C33.0698 33.0389 33.1141 33.162 33.1233 33.2901C33.1325 33.4182 33.1063 33.5464 33.0475 33.6606C32.9887 33.7748 32.8996 33.8706 32.79 33.9376C32.6804 34.0046 32.5544 34.0401 32.426 34.0402L29.479 34.0402C29.3673 34.0403 29.2573 34.0136 29.158 33.9625C29.0588 33.9113 28.9732 33.8372 28.9085 33.7462L23.3248 25.9179M25.8471 22.9126L32.6628 14.7902M23.3248 25.9179L16.5091 34.0402" stroke="white" stroke-width="1.5" stroke-linecap="round" stroke-linejoin="round"/>
</svg>
