<svg width="427" height="500" viewBox="0 0 427 500" fill="none" xmlns="http://www.w3.org/2000/svg">
<g opacity="0.9">
<path opacity="0.0344828" d="M161.235 351.727C129.194 296.787 105.348 244.05 92.6928 203.204C86.3644 182.778 82.8398 165.343 82.4806 152.102C82.3011 145.481 82.913 139.926 84.35 135.576C85.7861 131.228 88.039 128.104 91.1294 126.302C94.22 124.499 98.0483 124.077 102.539 124.968C107.033 125.859 112.17 128.061 117.844 131.478C129.193 138.31 142.632 149.963 157.294 165.529C186.613 196.656 220.771 243.379 252.812 298.319C284.854 353.259 308.7 405.996 321.356 446.843C327.684 467.268 331.208 484.702 331.567 497.944C331.747 504.565 331.134 510.12 329.697 514.47C328.261 518.818 326.009 521.943 322.918 523.745C319.828 525.547 315.999 525.969 311.508 525.078C307.014 524.187 301.878 521.984 296.204 518.568C284.855 511.735 271.417 500.083 256.755 484.518C227.435 453.39 193.276 406.667 161.235 351.727Z" stroke="#01010D" stroke-opacity="0.5" stroke-width="0.67049"/>
<path opacity="0.0689655" d="M159.705 345.904C132.574 288.38 113.416 233.766 104.368 191.972C99.8443 171.072 97.8527 153.397 98.649 140.174C99.0471 133.564 100.141 128.083 101.952 123.875C103.762 119.669 106.278 116.753 109.513 115.226C112.749 113.7 116.6 113.614 120.997 114.893C125.396 116.172 130.321 118.813 135.676 122.711C146.385 130.507 158.758 143.286 172.007 160.071C198.502 193.635 228.458 243.157 255.589 300.681C282.72 358.204 301.88 412.819 310.927 454.613C315.451 475.512 317.442 493.187 316.646 506.41C316.248 513.021 315.153 518.502 313.342 522.71C311.533 526.916 309.017 529.833 305.781 531.359C302.545 532.885 298.694 532.972 294.298 531.693C289.898 530.413 284.974 527.771 279.619 523.873C268.91 516.077 256.537 503.299 243.288 486.514C216.793 452.95 186.836 403.428 159.705 345.904Z" stroke="#01010D" stroke-opacity="0.5" stroke-width="0.67049"/>
<path opacity="0.103448" d="M158.537 339.907C136.523 280.238 122.197 224.161 116.827 181.738C114.142 160.524 113.698 142.742 115.644 129.639C116.617 123.088 118.184 117.723 120.355 113.689C122.524 109.656 125.285 106.971 128.641 105.733C131.998 104.494 135.841 104.743 140.11 106.4C144.38 108.058 149.057 111.119 154.052 115.469C164.041 124.169 175.253 137.978 186.989 155.853C210.458 191.599 235.984 243.543 257.998 303.213C280.012 362.882 294.339 418.959 299.709 461.382C302.394 482.596 302.837 500.378 300.892 513.48C299.919 520.032 298.351 525.396 296.18 529.431C294.011 533.463 291.25 536.149 287.893 537.388C284.537 538.626 280.693 538.376 276.425 536.719C272.154 535.061 267.478 532 262.484 527.65C252.494 518.951 241.283 505.142 229.547 487.267C206.078 451.521 180.551 399.576 158.537 339.907Z" stroke="#01010D" stroke-opacity="0.5" stroke-width="0.67049"/>
<path opacity="0.137931" d="M157.749 333.772C141.019 272.411 131.635 215.3 129.983 172.57C129.157 151.202 130.265 133.449 133.345 120.566C134.885 114.124 136.914 108.917 139.428 105.087C141.94 101.259 144.925 98.8247 148.377 97.8835C151.828 96.9424 155.636 97.5252 159.743 99.5479C163.853 101.572 168.245 105.029 172.842 109.797C182.035 119.334 192 134.068 202.134 152.898C222.398 190.554 243.299 244.525 260.029 305.886C276.759 367.247 286.144 424.359 287.796 467.089C288.622 488.456 287.514 506.209 284.434 519.092C282.894 525.534 280.864 530.741 278.35 534.571C275.838 538.399 272.853 540.834 269.402 541.776C265.95 542.717 262.142 542.133 258.035 540.11C253.925 538.086 249.534 534.629 244.937 529.86C235.744 520.323 225.779 505.59 215.646 486.76C195.381 449.105 174.479 395.133 157.749 333.772Z" stroke="#01010D" stroke-opacity="0.5" stroke-width="0.67049"/>
<path opacity="0.172414" d="M157.351 327.53C146.033 264.945 141.663 207.233 143.741 164.521C144.78 143.163 147.431 125.574 151.622 113.008C153.718 106.725 156.193 101.715 159.031 98.1183C161.868 94.5242 165.053 92.3592 168.574 91.7224C172.094 91.0857 175.836 91.9982 179.752 94.3712C183.67 96.7458 187.744 100.572 191.907 105.723C200.234 116.025 208.877 131.571 217.331 151.213C234.237 190.491 250.355 246.079 261.673 308.664C272.991 371.25 277.362 428.963 275.284 471.674C274.245 493.032 271.594 510.62 267.402 523.186C265.307 529.469 262.831 534.48 259.993 538.076C257.156 541.671 253.971 543.837 250.45 544.473C246.93 545.11 243.188 544.197 239.272 541.824C235.354 539.449 231.281 535.622 227.117 530.471C218.791 520.169 210.147 504.624 201.694 484.982C184.788 445.704 168.669 390.116 157.351 327.53Z" stroke="#01010D" stroke-opacity="0.5" stroke-width="0.67049"/>
<path opacity="0.206897" d="M157.348 321.217C151.528 257.884 152.204 200.01 157.996 157.642C160.893 136.456 165.067 119.165 170.338 107.013C172.973 100.936 175.875 96.1602 179.016 92.8248C182.155 89.4915 185.517 87.6124 189.08 87.2849C192.642 86.9575 196.291 88.1926 199.984 90.8978C203.681 93.6049 207.406 97.7717 211.104 103.266C218.502 114.255 225.757 130.495 232.467 150.799C245.884 191.401 257.096 248.182 262.917 311.516C268.737 374.849 268.062 432.724 262.269 475.091C259.372 496.278 255.198 513.568 249.928 525.72C247.293 531.797 244.389 536.573 241.248 539.908C238.11 543.241 234.748 545.122 231.185 545.449C227.622 545.776 223.974 544.54 220.28 541.835C216.584 539.128 212.86 534.961 209.161 529.467C201.764 518.478 194.509 502.239 187.799 481.935C174.381 441.333 163.168 384.551 157.348 321.217Z" stroke="#01010D" stroke-opacity="0.5" stroke-width="0.67049"/>
<path opacity="0.241379" d="M157.748 314.866C157.469 251.267 163.187 193.672 172.65 151.971C177.383 131.117 183.048 114.256 189.357 102.609C192.512 96.7853 195.82 92.2805 199.239 89.2316C202.657 86.1846 206.17 84.6056 209.747 84.5898C213.325 84.5742 216.852 86.1225 220.296 89.1394C223.742 92.1584 227.09 96.6339 230.295 102.43C236.707 114.021 242.519 130.832 247.434 151.643C257.262 193.26 263.482 250.803 263.76 314.403C264.039 378.003 258.322 435.598 248.859 477.299C244.127 498.153 238.461 515.013 232.152 526.66C228.997 532.484 225.688 536.988 222.269 540.037C218.851 543.084 215.338 544.664 211.761 544.68C208.183 544.696 204.656 543.147 201.212 540.13C197.766 537.111 194.419 532.635 191.214 526.839C184.802 515.248 178.99 498.438 174.075 477.627C164.247 436.01 158.026 378.467 157.748 314.866Z" stroke="#01010D" stroke-opacity="0.5" stroke-width="0.67049"/>
<path opacity="0.275862" d="M158.55 308.516C163.816 245.134 174.532 188.257 187.593 147.539C194.125 127.177 201.238 110.874 208.539 99.8211C212.19 94.2946 215.877 90.0952 219.549 87.3559C223.219 84.6183 226.857 83.3516 230.422 83.6477C233.987 83.9439 237.366 85.7937 240.534 89.0993C243.704 92.4071 246.649 97.1574 249.337 103.211C254.714 115.317 259.039 132.57 262.121 153.731C268.284 196.046 269.466 253.911 264.2 317.293C258.934 380.676 248.22 437.554 235.158 478.272C228.626 498.633 221.513 514.936 214.212 525.988C210.562 531.515 206.873 535.714 203.201 538.454C199.531 541.191 195.894 542.459 192.328 542.163C188.763 541.866 185.385 540.016 182.217 536.71C179.047 533.402 176.103 528.652 173.414 522.599C168.038 510.493 163.712 493.24 160.63 472.08C154.467 429.765 153.284 371.898 158.55 308.516Z" stroke="#01010D" stroke-opacity="0.5" stroke-width="0.67049"/>
<path opacity="0.310345" d="M159.756 302.198C170.525 239.516 186.157 183.79 202.718 144.365C211 124.65 219.507 109.029 227.743 98.6544C231.861 93.4671 235.901 89.6051 239.798 87.1962C243.692 84.7889 247.426 83.844 250.952 84.4497C254.478 85.0556 257.683 87.1928 260.55 90.7619C263.42 94.3334 265.94 99.3223 268.09 105.587C272.391 118.115 275.196 135.68 276.422 157.029C278.874 199.72 275.008 257.468 264.238 320.15C253.468 382.833 237.837 438.56 221.276 477.985C212.995 497.699 204.488 513.32 196.252 523.694C192.133 528.882 188.093 532.744 184.196 535.152C180.301 537.56 176.567 538.506 173.041 537.9C169.515 537.294 166.311 535.156 163.443 531.587C160.574 528.015 158.055 523.026 155.904 516.762C151.603 504.233 148.798 486.669 147.572 465.321C145.12 422.63 148.986 364.881 159.756 302.198Z" stroke="#01010D" stroke-opacity="0.5" stroke-width="0.67049"/>
<path opacity="0.344828" d="M161.358 295.947C177.55 234.442 197.979 180.29 217.913 142.459C227.881 123.541 237.717 108.72 246.827 99.1032C251.381 94.2946 255.742 90.7993 259.834 88.7393C263.924 86.6806 267.726 86.0647 271.186 86.9754C274.645 87.8863 277.651 90.2947 280.197 94.1001C282.744 97.9081 284.82 103.098 286.416 109.526C289.609 122.382 290.872 140.124 290.233 161.498C288.955 204.241 280.07 261.432 263.878 322.937C247.686 384.442 227.258 438.595 207.324 476.427C197.355 495.344 187.52 510.164 178.41 519.781C173.856 524.59 169.494 528.085 165.402 530.145C161.312 532.204 157.51 532.821 154.05 531.91C150.59 530.999 147.585 528.59 145.039 524.784C142.492 520.976 140.417 515.787 138.821 509.359C135.628 496.503 134.365 478.761 135.004 457.387C136.282 414.645 145.166 357.452 161.358 295.947Z" stroke="#01010D" stroke-opacity="0.5" stroke-width="0.67049"/>
<path opacity="0.37931" d="M163.35 289.799C184.841 229.939 209.912 177.774 233.068 141.824C244.647 123.847 255.737 109.94 265.65 101.153C270.606 96.7599 275.255 93.658 279.511 91.9625C283.765 90.2681 287.606 89.9858 290.973 91.1947C294.34 92.4036 297.125 95.0648 299.329 99.0776C301.535 103.093 303.15 108.444 304.18 114.987C306.241 128.072 305.953 145.857 303.453 167.094C298.454 209.562 284.619 265.762 263.128 325.622C241.637 385.481 216.567 437.648 193.411 473.598C181.832 491.575 170.742 505.481 160.829 514.268C155.873 518.661 151.223 521.763 146.967 523.458C142.714 525.152 138.872 525.436 135.505 524.227C132.138 523.018 129.354 520.356 127.149 516.343C124.943 512.327 123.329 506.977 122.299 500.434C120.239 487.349 120.526 469.565 123.026 448.328C128.025 405.859 141.859 349.659 163.35 289.799Z" stroke="#01010D" stroke-opacity="0.5" stroke-width="0.67049"/>
<path opacity="0.413793" d="M165.724 283.788C192.351 226.029 221.873 176.247 248.073 142.452C261.175 125.552 273.435 112.665 284.076 104.776C289.397 100.831 294.298 98.1461 298.686 96.828C303.071 95.5107 306.922 95.5644 310.171 97.0621C313.42 98.5599 315.962 101.454 317.808 105.643C319.656 109.836 320.798 115.307 321.254 121.915C322.166 135.129 320.33 152.822 315.988 173.76C307.307 215.631 288.627 270.411 262 328.17C235.374 385.929 205.852 435.712 179.652 469.507C166.55 486.406 154.29 499.293 143.649 507.182C138.329 511.127 133.427 513.811 129.039 515.13C124.654 516.447 120.802 516.394 117.553 514.896C114.304 513.399 111.763 510.504 109.916 506.314C108.069 502.122 106.927 496.651 106.471 490.043C105.559 476.829 107.396 459.137 111.737 438.199C120.418 396.327 139.098 341.546 165.724 283.788Z" stroke="#01010D" stroke-opacity="0.5" stroke-width="0.67049"/>
<path opacity="0.448276" d="M168.463 277.945C200.021 222.727 233.77 175.707 262.816 144.324C277.341 128.631 290.678 116.861 301.966 109.929C307.61 106.463 312.727 104.216 317.213 103.285C321.696 102.355 325.528 102.744 328.634 104.519C331.74 106.295 334.02 109.399 335.494 113.734C336.969 118.071 337.631 123.621 337.509 130.243C337.266 143.487 333.894 160.952 327.744 181.433C315.447 222.388 292.063 275.331 260.504 330.55C228.945 385.768 195.197 432.789 166.151 464.172C151.626 479.865 138.289 491.634 127.002 498.566C121.357 502.032 116.24 504.279 111.754 505.209C107.271 506.139 103.439 505.751 100.332 503.976C97.2262 502.201 94.9465 499.096 93.4725 494.761C91.9975 490.423 91.3369 484.874 91.4585 478.252C91.7018 465.008 95.0732 447.543 101.223 427.063C113.52 386.108 136.903 333.163 168.463 277.945Z" stroke="#01010D" stroke-opacity="0.5" stroke-width="0.67049"/>
<path opacity="0.482759" d="M171.551 272.304C207.803 220.046 245.521 176.147 277.192 147.415C293.029 133.048 307.341 122.485 319.19 116.563C325.115 113.603 330.408 111.81 334.958 111.273C339.505 110.738 343.288 111.459 346.228 113.498C349.168 115.538 351.169 118.829 352.259 123.275C353.351 127.725 353.526 133.311 352.827 139.898C351.431 153.07 346.55 170.175 338.639 190.041C322.819 229.769 294.909 280.473 258.658 332.73C222.406 384.988 184.688 428.889 153.017 457.621C137.18 471.988 122.869 482.55 111.02 488.472C105.095 491.433 99.8011 493.225 95.2511 493.761C90.7039 494.297 86.92 493.576 83.9804 491.537C81.0408 489.498 79.0404 486.206 77.9498 481.759C76.8585 477.31 76.684 471.724 77.3824 465.137C78.779 451.965 83.6597 434.861 91.5706 414.995C107.391 375.267 135.3 324.562 171.551 272.304Z" stroke="#01010D" stroke-opacity="0.5" stroke-width="0.67049"/>
<path opacity="0.517241" d="M174.972 266.891C215.64 217.992 257.041 177.547 291.096 151.685C308.125 138.752 323.303 129.477 335.623 124.611C341.783 122.178 347.212 120.853 351.792 120.715C356.368 120.578 360.074 121.626 362.825 123.914C365.576 126.202 367.282 129.655 367.981 134.18C368.681 138.707 368.368 144.288 367.099 150.788C364.559 163.789 358.206 180.403 348.593 199.504C329.371 237.702 297.149 285.78 256.481 334.68C215.813 383.579 174.412 424.025 140.357 449.887C123.328 462.82 108.151 472.094 95.8307 476.961C89.6705 479.394 84.2405 480.718 79.6611 480.856C75.0846 480.993 71.3779 479.946 68.6271 477.658C65.8765 475.37 64.1706 471.917 63.4717 467.392C62.7723 462.864 63.0854 457.284 64.3551 450.784C66.8945 437.783 73.2473 421.169 82.8596 402.068C102.082 363.87 134.304 315.791 174.972 266.891Z" stroke="#01010D" stroke-opacity="0.5" stroke-width="0.67049"/>
<path opacity="0.551724" d="M178.703 261.738C223.478 216.569 268.247 179.887 304.426 157.091C322.517 145.691 338.446 137.775 351.143 134C357.492 132.113 363.016 131.267 367.59 131.529C372.161 131.791 375.762 133.158 378.303 135.677C380.843 138.196 382.242 141.784 382.544 146.353C382.846 150.924 382.049 156.456 380.217 162.821C376.555 175.551 368.777 191.548 357.537 209.739C335.059 246.116 298.769 291.203 253.993 336.372C209.218 381.541 164.45 418.225 128.271 441.021C110.179 452.42 94.2513 460.336 81.554 464.11C75.2052 465.997 69.6805 466.843 65.1065 466.581C60.5354 466.319 56.9342 464.952 54.3933 462.434C51.8525 459.915 50.4541 456.326 50.1522 451.757C49.8501 447.186 50.6483 441.654 52.4798 435.289C56.1426 422.559 63.9192 406.563 75.1597 388.372C97.638 351.995 133.928 306.907 178.703 261.738Z" stroke="#01010D" stroke-opacity="0.5" stroke-width="0.67049"/>
<path opacity="0.586207" d="M182.719 256.867C231.261 215.773 279.056 183.132 317.084 163.576C336.1 153.797 352.658 147.298 365.636 144.645C372.125 143.319 377.702 142.957 382.236 143.616C386.767 144.276 390.234 145.952 392.546 148.682C394.858 151.413 395.938 155.11 395.841 159.687C395.744 164.268 394.467 169.709 392.088 175.89C387.329 188.253 378.188 203.511 365.404 220.653C339.841 254.932 299.76 296.685 251.218 337.779C202.676 378.874 154.881 411.516 116.853 431.072C97.8371 440.851 81.2797 447.349 68.3018 450.002C61.8127 451.329 56.2353 451.69 51.7015 451.03C47.1707 450.371 43.7022 448.696 41.3905 445.965C39.0789 443.234 37.9987 439.537 38.0961 434.96C38.1936 430.379 39.4709 424.938 41.8501 418.757C46.6084 406.395 55.7497 391.137 68.5328 373.995C94.096 339.716 134.177 297.962 182.719 256.867Z" stroke="#01010D" stroke-opacity="0.5" stroke-width="0.67049"/>
<path opacity="0.62069" d="M186.998 252.305C238.936 215.598 289.394 187.247 328.982 171.08C348.779 162.995 365.84 157.964 379 156.452C385.58 155.697 391.167 155.822 395.626 156.874C400.082 157.926 403.39 159.898 405.455 162.82C407.52 165.741 408.275 169.518 407.779 174.07C407.282 178.624 405.536 183.934 402.627 189.884C396.81 201.785 386.373 216.188 372.144 232.151C343.691 264.072 300.123 302.172 248.184 338.88C196.246 375.587 145.788 403.94 106.2 420.107C86.4035 428.191 69.3428 433.222 56.1831 434.733C49.603 435.489 44.0154 435.363 39.5564 434.311C35.1002 433.259 31.791 431.288 29.7261 428.366C27.6612 425.444 26.9074 421.667 27.4034 417.115C27.8997 412.561 29.6463 407.252 32.5552 401.302C38.3729 389.401 48.8091 374.998 63.0376 359.036C91.4913 327.114 135.059 289.013 186.998 252.305Z" stroke="#01010D" stroke-opacity="0.5" stroke-width="0.67049"/>
<path opacity="0.655172" d="M191.509 248.072C246.449 216.031 299.186 192.185 340.032 179.53C360.458 173.201 377.893 169.677 391.134 169.318C397.755 169.138 403.31 169.75 407.661 171.187C412.008 172.623 415.132 174.876 416.934 177.966C418.737 181.057 419.159 184.885 418.269 189.376C417.377 193.87 415.175 199.007 411.759 204.681C404.926 216.03 393.273 229.469 377.708 244.13C346.58 273.45 299.857 307.608 244.917 339.649C189.977 371.69 137.24 395.537 96.3937 408.193C75.9682 414.521 58.5341 418.045 45.2926 418.404C38.6717 418.584 33.1163 417.971 28.766 416.534C24.4185 415.098 21.2937 412.846 19.4912 409.755C17.6889 406.665 17.2672 402.836 18.158 398.345C19.0494 393.851 21.252 388.715 24.6684 383.04C31.5012 371.692 43.153 358.254 58.7186 343.592C89.8461 314.272 136.569 280.113 191.509 248.072Z" stroke="#01010D" stroke-opacity="0.5" stroke-width="0.67049"/>
<path opacity="0.689655" d="M196.222 244.187C253.745 217.057 308.36 197.898 350.153 188.851C371.053 184.327 388.729 182.335 401.951 183.131C408.562 183.53 414.042 184.624 418.25 186.434C422.456 188.244 425.373 190.76 426.899 193.996C428.425 197.232 428.512 201.083 427.233 205.479C425.953 209.878 423.312 214.803 419.415 220.158C411.619 230.868 398.839 243.24 382.055 256.489C348.491 282.985 298.968 312.941 241.445 340.071C183.921 367.202 129.306 386.362 87.5125 395.409C66.6132 399.933 48.9382 401.924 35.7159 401.128C29.1045 400.73 23.6237 399.635 19.4151 397.825C15.2093 396.015 12.2927 393.499 10.7665 390.263C9.24039 387.027 9.15394 383.176 10.4328 378.78C11.7125 374.381 14.3544 369.456 18.2523 364.101C26.0481 353.392 38.8269 341.02 55.6111 327.771C89.1755 301.275 138.698 271.318 196.222 244.187Z" stroke="#01010D" stroke-opacity="0.5" stroke-width="0.67049"/>
<path opacity="0.724138" d="M201.109 240.668C260.778 218.654 316.855 204.329 359.278 198.958C380.492 196.273 398.274 195.83 411.377 197.775C417.928 198.748 423.292 200.315 427.327 202.486C431.359 204.655 434.044 207.416 435.283 210.773C436.521 214.129 436.272 217.973 434.615 222.241C432.957 226.512 429.896 231.188 425.547 236.183C416.847 246.172 403.038 257.384 385.163 269.12C349.417 292.589 297.472 318.115 237.803 340.129C178.134 362.143 122.057 376.47 79.6335 381.84C58.4194 384.525 40.6381 384.969 27.5355 383.023C20.9839 382.05 15.6194 380.482 11.5847 378.311C7.5526 376.142 4.86635 373.381 3.62798 370.025C2.38972 366.668 2.63922 362.824 4.29637 358.556C5.9546 354.285 9.01564 349.61 13.3655 344.615C22.065 334.626 35.8734 323.414 53.7485 311.678C89.4944 288.209 141.439 262.682 201.109 240.668Z" stroke="#01010D" stroke-opacity="0.5" stroke-width="0.67049"/>
<path opacity="0.758621" d="M206.135 237.527C267.496 220.797 324.608 211.414 367.337 209.761C388.705 208.935 406.458 210.043 419.341 213.123C425.783 214.663 430.99 216.692 434.82 219.206C438.648 221.719 441.083 224.703 442.024 228.155C442.965 231.607 442.382 235.414 440.359 239.521C438.335 243.632 434.878 248.024 430.11 252.62C420.573 261.813 405.839 271.778 387.009 281.912C349.354 302.176 295.382 323.078 234.021 339.807C172.66 356.537 115.548 365.922 72.8182 367.574C51.4508 368.401 33.6986 367.292 20.8154 364.212C14.3735 362.672 9.16609 360.642 5.33593 358.128C1.50825 355.616 -0.927178 352.632 -1.86828 349.18C-2.80929 345.728 -2.22572 341.921 -0.202883 337.813C1.82126 333.703 5.27817 329.312 10.0468 324.715C19.5838 315.522 34.3168 305.557 53.1467 295.424C90.8021 275.159 144.774 254.257 206.135 237.527Z" stroke="#01010D" stroke-opacity="0.5" stroke-width="0.67049"/>
<path opacity="0.793103" d="M211.265 234.775C273.851 223.457 331.563 219.087 374.274 221.165C395.632 222.204 413.221 224.855 425.787 229.047C432.07 231.142 437.081 233.617 440.677 236.456C444.271 239.292 446.436 242.477 447.073 245.998C447.71 249.519 446.797 253.261 444.424 257.176C442.05 261.094 438.223 265.168 433.072 269.332C422.77 277.658 407.224 286.302 387.582 294.756C348.304 311.661 292.716 327.779 230.131 339.097C167.545 350.415 109.832 354.787 67.1212 352.709C45.7631 351.669 28.175 349.018 15.6093 344.827C9.32621 342.731 4.31548 340.255 0.718997 337.417C-2.87515 334.58 -5.04121 331.395 -5.67789 327.875C-6.31448 324.354 -5.40129 320.612 -3.02816 316.696C-0.653496 312.778 3.17297 308.705 8.32403 304.542C18.626 296.215 34.1715 287.572 53.8129 279.118C93.0911 262.213 148.68 246.094 211.265 234.775Z" stroke="#01010D" stroke-opacity="0.5" stroke-width="0.67049"/>
<path opacity="0.827586" d="M216.469 232.42C279.803 226.6 337.676 227.276 380.044 233.069C401.231 235.965 418.521 240.139 430.674 245.41C436.75 248.045 441.526 250.948 444.862 254.088C448.195 257.227 450.074 260.589 450.402 264.152C450.729 267.715 449.494 271.363 446.789 275.057C444.082 278.753 439.915 282.478 434.42 286.177C423.432 293.574 407.192 300.829 386.888 307.539C346.286 320.957 289.505 332.169 226.171 337.989C162.837 343.809 104.963 343.134 62.5952 337.342C41.4089 334.445 24.1189 330.271 11.9662 325C5.88974 322.365 1.11386 319.462 -2.22157 316.321C-5.55483 313.182 -7.43503 309.82 -7.76245 306.257C-8.08978 302.695 -6.85392 299.046 -4.14855 295.352C-1.44144 291.656 2.72545 287.932 8.21979 284.233C19.2082 276.836 35.4479 269.581 55.7514 262.871C96.3535 249.453 153.135 238.241 216.469 232.42Z" stroke="#01010D" stroke-opacity="0.5" stroke-width="0.67049"/>
<path opacity="0.862069" d="M221.709 230.467C285.309 230.189 342.904 235.906 384.605 245.37C405.459 250.102 422.32 255.767 433.967 262.077C439.79 265.232 444.295 268.539 447.344 271.959C450.391 275.376 451.97 278.889 451.986 282.467C452.001 286.044 450.453 289.571 447.436 293.015C444.417 296.461 439.942 299.809 434.146 303.015C422.554 309.426 405.744 315.239 384.932 320.153C343.315 329.981 285.773 336.202 222.173 336.48C158.573 336.758 100.978 331.042 59.2763 321.578C38.4231 316.846 21.5626 311.181 9.9156 304.871C4.0919 301.716 -0.41277 298.408 -3.46176 294.988C-6.50876 291.571 -8.08881 288.058 -8.10447 284.48C-8.12004 280.903 -6.57091 277.376 -3.55391 273.932C-0.534961 270.486 3.94066 267.139 9.73645 263.933C21.3278 257.522 38.138 251.709 58.949 246.795C100.566 236.967 158.109 230.745 221.709 230.467Z" stroke="#01010D" stroke-opacity="0.5" stroke-width="0.67049"/>
<path opacity="0.896552" d="M226.952 228.918C290.334 234.184 347.211 244.9 387.929 257.961C408.291 264.493 424.594 271.606 435.647 278.907C441.173 282.557 445.373 286.245 448.112 289.917C450.849 293.587 452.116 297.225 451.82 300.79C451.524 304.355 449.674 307.734 446.368 310.902C443.061 314.072 438.31 317.016 432.257 319.705C420.151 325.082 402.898 329.407 381.737 332.489C339.422 338.652 281.556 339.834 218.174 334.568C154.792 329.302 97.9141 318.588 57.1961 305.526C36.8347 298.994 20.5321 291.881 9.47934 284.58C3.95277 280.93 -0.246409 277.241 -2.98576 273.569C-5.7233 269.899 -6.99118 266.262 -6.69496 262.696C-6.39865 259.131 -4.54805 255.752 -1.24236 252.585C2.06545 249.415 6.81573 246.471 12.8689 243.782C24.9749 238.406 42.2277 234.08 63.3879 230.998C105.703 224.835 163.569 223.652 226.952 228.918Z" stroke="#01010D" stroke-opacity="0.5" stroke-width="0.67049"/>
<path opacity="0.931035" d="M232.161 227.769C294.843 238.539 350.57 254.171 389.994 270.732C409.709 279.014 425.33 287.521 435.705 295.757C440.892 299.875 444.754 303.915 447.163 307.812C449.57 311.706 450.515 315.44 449.909 318.966C449.304 322.492 447.166 325.697 443.597 328.564C440.026 331.434 435.037 333.954 428.772 336.104C416.244 340.405 398.679 343.21 377.33 344.436C334.639 346.888 276.891 343.022 214.209 332.252C151.527 321.482 95.799 305.851 56.3743 289.29C36.6597 281.009 21.0391 272.502 10.6647 264.266C5.47731 260.147 1.61557 256.107 -0.79329 252.21C-3.20055 248.315 -4.1466 244.581 -3.54075 241.055C-2.93482 237.529 -0.79683 234.325 2.77238 231.457C6.34387 228.588 11.3327 226.069 17.5971 223.918C30.1256 219.617 47.6898 216.812 69.0381 215.586C111.729 213.134 169.479 217 232.161 227.769Z" stroke="#01010D" stroke-opacity="0.5" stroke-width="0.67049"/>
<path opacity="0.965517" d="M237.301 227.02C298.806 243.213 352.958 263.642 390.789 283.576C409.707 293.544 424.527 303.38 434.145 312.489C438.953 317.044 442.448 321.405 444.508 325.497C446.567 329.586 447.183 333.388 446.272 336.848C445.362 340.308 442.953 343.314 439.148 345.86C435.34 348.407 430.15 350.482 423.722 352.079C410.866 355.272 393.124 356.535 371.75 355.896C329.007 354.618 271.816 345.733 210.311 329.541C148.806 313.349 94.6525 292.92 56.8213 272.986C37.9034 263.018 23.0837 253.182 13.4666 244.073C8.65789 239.518 5.16298 235.157 3.10295 231.065C1.04428 226.975 0.42728 223.173 1.33814 219.713C2.24907 216.253 4.65818 213.248 8.46375 210.702C12.2718 208.154 17.4611 206.08 23.8891 204.484C36.7449 201.291 54.4866 200.027 75.8605 200.666C118.603 201.945 175.796 210.828 237.301 227.02Z" stroke="#01010D" stroke-opacity="0.5" stroke-width="0.67049"/>
<path d="M242.339 226.66C302.198 248.151 354.364 273.222 390.314 296.377C408.291 307.957 422.198 319.047 430.984 328.96C435.378 333.916 438.48 338.565 440.175 342.821C441.87 347.074 442.152 350.916 440.943 354.283C439.734 357.65 437.073 360.435 433.06 362.639C429.045 364.845 423.694 366.46 417.151 367.49C404.066 369.55 386.281 369.263 365.044 366.763C322.575 361.764 266.376 347.929 206.516 326.438C146.656 304.947 94.4898 279.877 58.5398 256.721C40.5628 245.142 26.6567 234.052 17.8701 224.139C13.4767 219.183 10.3752 214.533 8.67966 210.277C6.98527 206.024 6.70199 202.182 7.91093 198.815C9.11994 195.448 11.7818 192.663 15.7948 190.459C19.8103 188.253 25.1607 186.639 31.7034 185.609C44.7885 183.549 62.5729 183.836 83.8098 186.336C126.278 191.334 182.479 205.169 242.339 226.66Z" stroke="#01010D" stroke-opacity="0.5" stroke-width="0.67049"/>
</g>
</svg>
