<svg width="428" height="330" viewBox="0 0 428 330" fill="none" xmlns="http://www.w3.org/2000/svg">
<g opacity="0.45">
<path opacity="0.0526316" d="M-27.5583 222.597C-15.4892 238.654 23.0853 265.524 80.8295 244.546C153.01 218.323 180.926 148.813 245.348 112.771C292.896 86.1694 420.66 46.239 494.127 90.3626" stroke="#01010D" stroke-opacity="0.5" stroke-width="3"/>
<path opacity="0.105263" d="M-39.4633 188.935C-29.1386 206.166 6.41589 236.92 66.0366 222.093C140.563 203.558 175.592 137.347 243.428 108.237C293.496 86.7512 424.734 60.3945 493.186 111.956" stroke="#01010D" stroke-opacity="0.5" stroke-width="3"/>
<path opacity="0.157895" d="M-48.4568 154.819C-39.9898 173.035 -7.84477 207.337 52.9992 198.823C129.054 188.18 170.812 125.994 241.32 104.133C293.36 87.999 426.634 75.5048 489.321 133.939" stroke="#01010D" stroke-opacity="0.5" stroke-width="3"/>
<path opacity="0.210526" d="M-54.5071 120.556C-47.9905 139.556 -19.6072 177.031 41.7935 174.923C118.544 172.289 166.574 114.807 238.98 100.437C292.422 89.8307 426.272 91.3359 482.508 156.002" stroke="#01010D" stroke-opacity="0.5" stroke-width="3"/>
<path opacity="0.263158" d="M-57.6167 86.4532C-53.1219 106.031 -28.8113 146.267 32.4734 150.589C109.079 155.992 162.854 103.846 236.366 97.1228C290.623 92.1607 423.583 107.649 472.751 177.839" stroke="#01010D" stroke-opacity="0.5" stroke-width="3"/>
<path opacity="0.315789" d="M-57.8175 52.8185C-55.3938 72.7589 -35.4221 115.316 25.075 126.02C100.696 139.401 159.628 93.1613 233.439 94.1592C287.918 94.8957 418.53 124.197 460.092 199.142" stroke="#01010D" stroke-opacity="0.5" stroke-width="3"/>
<path opacity="0.368421" d="M-55.1733 19.9526C-54.8473 40.0371 -39.4334 84.4485 19.6134 101.418C93.4219 122.63 156.864 82.8036 230.167 91.5115C284.27 97.9385 411.104 140.732 444.604 219.611" stroke="#01010D" stroke-opacity="0.5" stroke-width="3"/>
<path opacity="0.421053" d="M-49.7819 -11.8507C-51.557 8.15784 -40.8698 53.9371 16.0797 76.9856C87.2667 105.796 154.524 72.8198 226.515 89.1423C279.65 101.189 401.316 157.006 426.388 238.955" stroke="#01010D" stroke-opacity="0.5" stroke-width="3"/>
<path opacity="0.473684" d="M-41.7676 -42.3105C-45.6245 -22.5971 -39.7811 24.0485 14.4473 52.9236C82.2327 89.0174 152.568 63.252 222.459 87.0102C274.044 104.545 389.209 172.774 405.577 256.895" stroke="#01010D" stroke-opacity="0.5" stroke-width="3"/>
<path opacity="0.526316" d="M-31.2868 -71.1598C-37.1831 -51.9576 -36.2475 -4.95668 14.6655 29.4286C78.3068 72.4102 150.95 54.138 217.975 85.0716C267.444 107.903 374.846 187.796 382.332 273.166" stroke="#01010D" stroke-opacity="0.5" stroke-width="3"/>
<path opacity="0.578947" d="M-18.5204 -98.1505C-26.3916 -79.6698 -30.3741 -32.8286 16.6658 6.6902C75.4657 56.0887 149.621 45.5099 213.045 83.28C259.857 111.157 358.32 201.839 356.841 287.524" stroke="#01010D" stroke-opacity="0.5" stroke-width="3"/>
<path opacity="0.631579" d="M-3.67564 -123.052C-13.4355 -105.495 -22.2924 -59.3271 20.359 -15.1078C73.6732 40.1664 148.528 37.3969 207.657 81.5897C251.298 114.207 339.743 214.684 329.315 299.746" stroke="#01010D" stroke-opacity="0.5" stroke-width="3"/>
<path opacity="0.684211" d="M13.018 -145.66C1.47641 -129.22 -12.1579 -84.23 25.6377 -35.7946C72.8821 24.7495 147.617 29.8197 201.802 79.9511C241.795 116.952 319.252 226.123 299.99 309.629" stroke="#01010D" stroke-opacity="0.5" stroke-width="3"/>
<path opacity="0.736842" d="M31.3105 -165.794C18.1137 -150.65 -0.148614 -107.332 32.377 -55.2113C73.034 9.93963 146.829 22.7939 195.477 78.3145C231.383 119.293 297.005 235.963 269.12 316.998" stroke="#01010D" stroke-opacity="0.5" stroke-width="3"/>
<path opacity="0.789474" d="M50.9345 -183.299C36.227 -169.617 13.5368 -128.445 40.4361 -73.2104C74.0603 -4.16655 146.107 16.331 188.686 76.6326C220.112 121.14 273.178 244.03 236.976 321.706" stroke="#01010D" stroke-opacity="0.5" stroke-width="3"/>
<path opacity="0.842105" d="M71.6079 -198.051C55.5509 -185.982 28.6814 -147.407 49.6597 -89.6629C75.8826 -17.4827 145.393 10.4335 181.434 74.8555C208.036 122.404 247.966 250.168 203.843 323.634" stroke="#01010D" stroke-opacity="0.5" stroke-width="3"/>
<path opacity="0.894737" d="M93.0372 -209.955C75.8066 -199.631 45.0521 -164.076 59.8796 -104.456C78.414 -29.9297 144.625 5.09936 173.736 72.9358C195.221 123.004 221.578 254.242 170.017 322.694" stroke="#01010D" stroke-opacity="0.5" stroke-width="3"/>
<path opacity="0.947368" d="M114.921 -218.949C96.7055 -210.482 62.4031 -178.337 70.9173 -117.493C81.5601 -41.4379 143.747 0.320147 165.607 70.8279C181.741 122.868 194.236 256.142 135.802 318.829" stroke="#01010D" stroke-opacity="0.5" stroke-width="3"/>
<path d="M136.952 -225C117.951 -218.483 80.4764 -190.1 82.5841 -128.699C85.2186 -51.9486 142.7 -3.91894 157.07 68.4875C167.677 121.929 166.171 255.779 101.505 312.015" stroke="#01010D" stroke-opacity="0.5" stroke-width="3"/>
</g>
</svg>
