<svg width="427" height="530" viewBox="0 0 427 530" fill="none" xmlns="http://www.w3.org/2000/svg">
<g opacity="0.3">
<path opacity="0.0344828" d="M21.166 134.215C-0.963112 125.306 2.23526 93.1583 25.4184 88.6075L25.9703 88.5045L135.577 69.3203C149.129 66.9482 158.422 54.4118 156.838 40.821L156.753 40.173L141.129 -69.9983C137.78 -93.6169 167.22 -106.92 182.752 -89.1185L183.117 -88.6923L254.535 -3.36215C263.365 7.18828 278.869 8.9686 289.846 0.80088L290.365 0.403732L377.965 -68.213C396.744 -82.923 422.986 -64.0787 415.335 -41.726L415.148 -41.1978L376.958 63.3174C372.237 76.2399 378.447 90.5558 391.009 95.9787L391.612 96.2306L494.836 137.784C516.965 146.693 513.766 178.842 490.582 183.392L490.032 183.494L380.424 202.679C366.872 205.052 357.58 217.587 359.164 231.178L359.248 231.826L374.873 341.997C378.222 365.616 348.781 378.92 333.249 361.118L332.885 360.691L261.466 275.361C252.636 264.811 237.133 263.031 226.156 271.199L225.636 271.595L138.037 340.212C119.258 354.922 93.0163 336.078 100.667 313.726L100.854 313.197L139.042 208.681C143.764 195.759 137.554 181.443 124.992 176.02L124.389 175.769L21.166 134.215Z" stroke="#01010D" stroke-opacity="0.5" stroke-width="2"/>
<path opacity="0.0689655" d="M25.4692 122.437C3.83657 112.383 8.71298 80.4462 32.1027 77.115L32.659 77.042L140.403 63.9495C154.06 62.2899 163.997 50.2579 163.126 36.603L163.075 35.9514L153.48 -72.16C151.371 -95.9216 181.468 -107.667 196.048 -89.0764L196.389 -88.6318L261.599 -1.86832C269.866 9.12994 285.254 11.7187 296.644 4.13608L297.183 3.7676L386.012 -58.5984C405.536 -72.3056 430.756 -52.1136 421.946 -30.1919L421.731 -29.6732L379.197 70.1817C373.805 82.8395 379.258 97.461 391.52 103.534L392.109 103.816L490.534 149.562C512.166 159.617 507.289 191.553 483.899 194.884L483.344 194.957L375.6 208.05C361.942 209.709 352.005 221.742 352.877 235.397L352.926 236.049L362.522 344.16C364.63 367.922 334.535 379.666 319.955 361.076L319.613 360.631L254.403 273.868C246.137 262.869 230.748 260.281 219.359 267.863L218.82 268.232L129.989 330.598C110.466 344.305 85.246 324.113 94.0562 302.191L94.2707 301.673L136.805 201.818C142.196 189.161 136.744 174.538 124.483 168.466L123.894 168.183L25.4692 122.437Z" stroke="#01010D" stroke-opacity="0.5" stroke-width="2"/>
<path opacity="0.103448" d="M30.3441 111.104C9.26742 99.9314 15.8087 68.2939 39.3405 66.1914L39.9001 66.1466L145.451 58.8993C159.177 57.9567 169.73 46.4605 169.574 32.7785L169.558 32.1252L165.733 -73.6045C164.871 -97.444 195.54 -107.598 209.127 -88.2691L209.445 -87.8072L268.496 -0.0215082C276.176 11.3943 291.408 14.7846 303.179 7.80877L303.736 7.469L393.389 -48.7086C413.604 -61.3753 437.732 -39.8911 427.787 -18.4605L427.545 -17.9547L381.047 77.0785C375 89.4369 379.679 104.324 391.606 111.031L392.18 111.343L485.657 160.895C506.734 172.068 500.192 203.707 476.66 205.809L476.101 205.853L370.551 213.1C356.825 214.043 346.272 225.539 346.428 239.221L346.444 239.874L350.268 345.604C351.131 369.443 320.461 379.597 306.875 360.269L306.556 359.807L247.504 272.021C239.825 260.605 224.594 257.215 212.823 264.191L212.264 264.53L122.612 320.709C102.398 333.375 78.2698 311.891 88.2149 290.461L88.4564 289.954L134.955 194.921C141.001 182.563 136.322 167.676 124.395 160.97L123.822 160.656L30.3441 111.104Z" stroke="#01010D" stroke-opacity="0.5" stroke-width="2"/>
<path opacity="0.137931" d="M35.7583 100.241C15.2952 87.9807 23.4831 56.7288 47.0929 55.8608L47.6538 55.8464L150.703 54.1773C164.459 53.9543 175.598 43.0259 176.159 29.3545L176.178 28.7015L177.847 -74.3475C178.234 -98.1991 209.392 -106.733 221.949 -86.7209L222.242 -86.2429L275.212 2.16568C282.284 13.9676 297.318 18.1507 309.438 11.8004L310.012 11.4902L400.09 -38.5889C420.939 -50.18 443.91 -27.4626 432.857 -6.58198L432.589 -6.08949L382.511 83.9882C375.825 96.0131 379.72 111.124 391.279 118.445L391.835 118.789L480.243 171.758C500.707 184.019 492.518 215.271 468.908 216.138L468.348 216.153L365.299 217.823C351.543 218.046 340.403 228.974 339.842 242.645L339.824 243.298L338.154 346.347C337.768 370.199 306.608 378.734 294.052 358.72L293.759 358.243L240.789 269.835C233.718 258.033 218.684 253.849 206.564 260.199L205.989 260.51L115.912 310.588C95.0622 322.18 72.0911 299.462 83.1447 278.582L83.4122 278.089L133.491 188.011C140.176 175.987 136.282 160.875 124.723 153.554L124.166 153.212L35.7583 100.241Z" stroke="#01010D" stroke-opacity="0.5" stroke-width="2"/>
<path opacity="0.172414" d="M41.6746 89.8751C21.8812 76.5604 31.6936 45.78 55.3163 46.1487L55.8776 46.1627L156.136 49.7897C169.886 50.2871 181.582 39.9576 182.857 26.3344L182.911 25.6833L189.783 -74.4062C191.417 -98.205 222.98 -105.097 234.472 -84.4556L234.74 -83.9619L281.728 4.67889C288.172 16.8347 302.967 21.7986 315.402 16.0916L315.992 15.812L406.109 -28.2806C427.537 -38.7648 449.287 -14.8771 437.157 5.39639L436.864 5.87513L383.592 90.8887C376.287 102.547 379.385 117.841 390.545 125.758L391.083 126.128L474.327 182.125C494.12 195.44 484.307 226.221 460.684 225.852L460.124 225.837L359.864 222.21C346.115 221.713 334.418 232.043 333.143 245.666L333.09 246.318L326.218 346.407C324.583 370.206 293.02 377.098 281.528 356.455L281.261 355.963L234.272 267.322C227.828 255.166 213.035 250.202 200.599 255.908L200.008 256.189L109.892 300.282C88.4641 310.766 66.7138 286.877 78.8445 266.604L79.1377 266.125L132.409 181.112C139.714 169.454 136.616 154.158 125.455 146.242L124.918 145.871L41.6746 89.8751Z" stroke="#01010D" stroke-opacity="0.5" stroke-width="2"/>
<path opacity="0.206897" d="M48.0573 80.0253C28.9878 65.693 40.3977 35.4682 63.9688 37.0729L64.5282 37.1171L161.734 45.7442C175.438 46.9605 187.659 37.2568 189.646 23.7187L189.732 23.0718L201.504 -73.8042C204.381 -97.4848 236.262 -102.716 246.658 -81.4997L246.899 -80.994L288.031 7.50316C293.83 19.9794 308.344 25.7111 321.061 20.6626L321.665 20.4142L411.447 -17.8299C433.394 -27.1784 453.865 -2.18414 440.689 17.4268L440.372 17.8886L384.297 97.7583C376.392 109.018 378.685 124.454 389.415 132.943L389.933 133.342L467.944 191.974C487.014 206.307 475.603 236.531 452.032 234.926L451.473 234.882L354.268 226.255C340.564 225.039 328.342 234.743 326.356 248.281L326.268 248.928L314.497 345.803C311.62 369.484 279.739 374.715 269.344 353.499L269.102 352.993L227.971 264.497C222.172 252.021 207.657 246.289 194.94 251.338L194.336 251.586L104.554 289.829C82.6065 299.177 62.1358 274.183 75.3116 254.572L75.629 254.11L131.703 174.242C139.609 162.981 137.316 147.546 126.585 139.057L126.068 138.657L48.0573 80.0253Z" stroke="#01010D" stroke-opacity="0.5" stroke-width="2"/>
<path opacity="0.241379" d="M54.8669 70.7144C36.5737 55.4037 49.5498 25.8176 73.0046 28.6535L73.5613 28.7261L167.472 42.0452C181.094 43.977 193.806 34.926 196.499 21.5107L196.619 20.8683L212.972 -72.5618C217.084 -96.0595 249.196 -99.6149 258.467 -77.8844L258.682 -77.3655L294.103 10.6221C299.241 23.385 313.435 29.8689 326.399 25.4931L327.016 25.2757L416.106 -7.27699C438.512 -15.4638 457.646 10.5673 443.462 29.4618L443.121 29.9072L384.632 104.577C376.148 115.408 377.63 130.942 387.902 139.982L388.397 140.408L461.134 201.285C479.427 216.595 466.45 246.182 442.995 243.346L442.439 243.273L348.528 229.955C334.907 228.023 322.195 237.073 319.502 250.488L319.382 251.131L303.028 344.561C298.915 368.059 266.805 371.614 257.533 349.883L257.318 349.365L221.897 261.376C216.759 248.614 202.565 242.131 189.601 246.507L188.984 246.723L99.895 279.276C77.4888 287.463 58.3545 261.432 72.5383 242.537L72.8786 242.092L131.369 167.422C139.853 156.591 138.371 141.057 128.099 132.017L127.603 131.592L54.8669 70.7144Z" stroke="#01010D" stroke-opacity="0.5" stroke-width="2"/>
<path opacity="0.275862" d="M62.0671 61.9589C44.6002 45.7117 59.1069 16.8452 82.3812 20.9049L82.9329 21.0074L173.332 38.6974C186.834 41.3395 200.002 32.9657 203.393 19.7097L203.547 19.075L224.156 -70.7039C229.493 -93.9542 261.745 -95.8238 269.866 -73.6377L270.054 -73.1091L299.934 14.0234C304.397 27.0377 318.232 34.2557 331.408 30.5642L332.035 30.3794L420.089 3.33775C442.893 -3.66536 460.639 23.3316 445.486 41.4579L445.122 41.884L384.602 111.327C375.563 121.699 376.23 137.29 386.015 146.855L386.488 147.306L453.934 210.042C471.401 226.289 456.894 255.156 433.619 251.096L433.069 250.994L342.669 233.304C329.167 230.662 315.998 239.035 312.608 252.292L312.454 252.926L291.846 342.705C286.509 365.955 254.255 367.825 246.134 345.639L245.948 345.11L216.068 257.978C211.605 244.963 197.769 237.746 184.593 241.438L183.967 241.622L95.9117 268.664C73.108 275.667 55.3626 248.67 70.5153 230.544L70.8797 230.117L131.399 160.674C140.438 150.302 139.771 134.711 129.986 125.146L129.513 124.696L62.0671 61.9589Z" stroke="#01010D" stroke-opacity="0.5" stroke-width="2"/>
<path opacity="0.310345" d="M69.6166 53.7724C53.024 36.6334 69.0216 8.5658 92.0514 13.8379L92.5975 13.9682L179.291 35.6991C192.636 39.0442 206.225 31.3722 210.305 18.312L210.492 17.6863L235.02 -68.259C241.566 -91.198 273.872 -91.3776 280.822 -68.7973L280.981 -68.2596L305.509 17.6855C309.284 30.9156 322.723 38.8471 336.074 35.8501L336.709 35.6992L423.404 13.9684C446.543 8.16888 462.851 36.0567 446.77 53.365L446.385 53.7728L384.218 117.987C374.648 127.871 374.498 143.476 383.769 153.539L384.218 154.014L446.385 218.228C462.978 235.367 446.979 263.435 423.949 258.162L423.404 258.032L336.71 236.3C323.364 232.955 309.775 240.628 305.695 253.688L305.509 254.315L280.981 340.26C274.435 363.199 242.128 363.378 235.179 340.797L235.02 340.26L210.492 254.314C206.716 241.084 193.278 233.153 179.927 236.15L179.291 236.3L92.5971 258.032C69.4579 263.832 53.1493 235.943 69.2305 218.634L69.6163 218.228L131.783 154.014C141.353 144.129 141.502 128.525 132.231 118.461L131.783 117.986L69.6166 53.7724Z" stroke="#01010D" stroke-opacity="0.5" stroke-width="2"/>
<path opacity="0.344828" d="M77.4774 46.1675C61.8045 28.1835 79.2491 0.991465 101.972 7.4618L102.51 7.62137L185.331 33.0561C198.483 37.0951 212.455 30.1442 217.212 17.3151L217.432 16.6995L245.536 -65.2546C253.274 -87.8197 285.546 -86.3077 291.303 -63.3938L291.434 -62.849L310.818 21.5942C313.896 35.0038 326.902 43.6279 340.391 41.3336L341.033 41.2161L426.059 24.5778C449.471 19.9966 464.297 48.7007 447.332 65.1437L446.926 65.5295L383.488 124.538C373.414 133.908 372.448 149.483 381.179 160.018L381.602 160.516L438.525 225.832C454.198 243.816 436.752 271.008 414.03 264.537L413.493 264.378L330.671 238.943C317.519 234.904 303.548 241.856 298.79 254.685L298.57 255.3L270.466 337.254C262.728 359.819 230.456 358.308 224.698 335.394L224.567 334.849L205.184 250.405C202.106 236.996 189.1 228.372 175.611 230.666L174.969 230.784L89.9415 247.422C66.5308 252.003 51.7044 223.299 68.6688 206.856L69.0759 206.47L132.514 147.462C142.588 138.091 143.554 122.516 134.822 111.981L134.399 111.484L77.4774 46.1675Z" stroke="#01010D" stroke-opacity="0.5" stroke-width="2"/>
<path opacity="0.37931" d="M85.6083 39.1551C70.8981 20.3757 89.7419 -5.86599 112.095 1.78447L112.624 1.97118L191.429 30.7669C204.352 35.4888 218.668 29.2784 224.091 16.7161L224.342 16.1128L255.675 -61.7199C264.584 -83.8486 296.732 -80.6496 301.282 -57.4663L301.385 -56.9149L315.85 25.7307C318.222 39.283 330.759 48.5757 344.349 46.9907L344.997 46.9071L428.068 35.1258C451.687 31.7762 464.991 61.2168 447.189 76.7495L446.763 77.1134L382.421 130.964C371.871 139.794 370.092 155.298 378.26 166.275L378.656 166.795L430.395 232.845C445.105 251.625 426.26 277.867 403.907 270.216L403.379 270.029L324.573 241.234C311.65 236.512 297.334 242.722 291.911 255.285L291.66 255.887L260.327 333.72C251.419 355.849 219.271 352.65 214.721 329.467L214.618 328.915L200.151 246.27C197.779 232.718 185.244 223.425 171.653 225.009L171.005 225.093L87.9339 236.874C64.3152 240.223 51.0117 210.783 68.8143 195.251L69.2396 194.886L133.581 141.036C144.131 132.205 145.911 116.702 137.743 105.725L137.346 105.206L85.6083 39.1551Z" stroke="#01010D" stroke-opacity="0.5" stroke-width="2"/>
<path opacity="0.413793" d="M93.9688 32.7404C80.2616 13.2168 100.453 -12.0029 122.375 -3.19285L122.893 -2.97792L197.566 28.8293C210.224 34.2207 224.844 28.7684 230.917 16.5073L231.2 15.9186L265.41 -57.685C275.464 -79.3175 307.401 -74.4411 310.732 -51.0517L310.805 -50.4949L320.596 30.0775C322.255 43.7352 334.288 53.6715 347.943 52.7999L348.594 52.7502L429.441 45.5748C453.203 43.4659 464.948 73.5616 446.358 88.1414L445.913 88.4833L381.03 137.248C370.032 145.515 367.443 160.903 375.025 172.293L375.394 172.832L422.032 239.26C435.739 258.784 415.547 284.003 393.625 275.193L393.108 274.978L318.435 243.171C305.777 237.779 291.155 243.232 285.082 255.493L284.8 256.083L250.59 329.686C240.536 351.318 208.599 346.441 205.268 323.052L205.195 322.496L195.404 241.924C193.745 228.266 181.713 218.329 168.058 219.201L167.406 219.251L86.5588 226.426C62.7972 228.535 51.0523 198.439 69.643 183.859L70.0876 183.518L134.97 134.753C145.968 126.487 148.557 111.098 140.975 99.7083L140.606 99.1686L93.9688 32.7404Z" stroke="#01010D" stroke-opacity="0.5" stroke-width="2"/>
<path opacity="0.448276" d="M102.521 26.9293C89.8544 6.71508 111.338 -17.4132 132.768 -7.46807L133.275 -7.22631L203.722 27.2418C216.08 33.2886 230.967 28.609 237.673 16.6821L237.987 16.109L274.719 -53.185C285.892 -74.2614 317.529 -67.7199 319.632 -44.1881L319.676 -43.629L325.048 34.6148C325.991 48.3407 337.487 58.8929 351.169 58.7373L351.822 58.7218L430.199 55.8859C454.038 55.0234 464.192 85.6935 444.863 99.2802L444.402 99.5983L379.327 143.373C367.912 151.052 364.521 166.284 371.497 178.055L371.837 178.613L413.481 245.071C426.148 265.286 404.663 289.414 383.232 279.469L382.726 279.228L312.279 244.758C299.921 238.711 285.034 243.391 278.328 255.318L278.015 255.891L241.283 325.186C230.11 346.262 198.471 339.721 196.369 316.189L196.326 315.629L190.952 237.386C190.01 223.66 178.514 213.108 164.833 213.263L164.179 213.279L85.8026 216.114C61.9633 216.976 51.8094 186.307 71.1371 172.72L71.5996 172.402L136.674 128.628C148.09 120.949 151.48 105.716 144.504 93.945L144.165 93.3868L102.521 26.9293Z" stroke="#01010D" stroke-opacity="0.5" stroke-width="2"/>
<path opacity="0.482759" d="M111.224 21.7221C99.633 0.872644 122.35 -22.0983 143.231 -11.0451L143.724 -10.7771L209.877 26.0014C221.902 32.6866 237.014 28.7924 244.335 17.233L244.678 16.6764L283.58 -48.2517C295.84 -68.7149 327.093 -60.5265 327.961 -36.9166L327.975 -36.3566L329.201 39.3252C329.424 53.0815 340.352 64.2212 354.024 64.7818L354.677 64.7997L430.357 66.0254C454.209 66.4118 462.744 97.5711 442.731 110.128L442.252 110.421L377.324 149.323C365.522 156.394 361.339 171.428 367.689 183.548L367.999 184.123L404.779 250.278C416.37 271.127 393.652 294.098 372.772 283.044L372.279 282.777L306.124 245.999C294.099 239.314 278.988 243.208 271.667 254.768L271.325 255.323L232.422 320.252C220.161 340.715 188.91 332.526 188.042 308.917L188.027 308.356L186.801 232.675C186.578 218.919 175.65 207.779 161.979 207.219L161.326 207.2L85.6448 205.974C61.7931 205.587 53.2584 174.428 73.2712 161.872L73.749 161.579L138.678 122.676C150.48 115.605 154.663 100.571 148.313 88.4512L148.002 87.8767L111.224 21.7221Z" stroke="#01010D" stroke-opacity="0.5" stroke-width="2"/>
<path opacity="0.517241" d="M120.037 17.1206C109.553 -4.30697 133.441 -26.0574 153.715 -13.9267L154.194 -13.634L216.013 25.103C227.671 32.4083 242.965 29.3108 250.882 18.1507L251.253 17.6128L291.972 -42.9201C305.287 -62.7134 336.068 -52.9002 335.698 -29.2771L335.684 -28.7164L333.047 44.1887C332.549 57.9379 342.879 69.6346 356.502 70.9101L357.154 70.9622L429.936 75.9604C453.735 77.5945 460.627 109.158 439.984 120.65L439.492 120.917L375.034 155.086C362.878 161.53 357.914 176.325 363.622 188.76L363.902 189.35L395.965 254.88C406.449 276.308 382.56 298.059 362.286 285.927L361.808 285.635L299.989 246.898C288.331 239.592 273.036 242.69 265.12 253.851L264.748 254.388L224.03 314.92C210.715 334.713 179.935 324.901 180.303 301.278L180.317 300.718L182.955 227.811C183.452 214.062 173.122 202.367 159.499 201.091L158.848 201.038L86.0659 196.041C62.267 194.407 55.375 162.843 76.0173 151.351L76.5099 151.083L140.967 116.915C153.123 110.471 158.087 95.6767 152.38 83.2409L152.1 82.6502L120.037 17.1206Z" stroke="#01010D" stroke-opacity="0.5" stroke-width="2"/>
<path opacity="0.551724" d="M128.923 13.1194C119.575 -8.82753 144.569 -29.2986 164.18 -16.1234L164.642 -15.8054L222.109 24.5412C233.37 32.4467 248.805 30.1529 257.294 19.4219L257.694 18.9049L299.88 -37.2247C314.212 -56.2942 344.437 -44.8844 342.833 -21.3134L342.789 -20.7541L336.582 49.1874C335.365 62.8916 345.068 75.1121 358.606 77.099L359.254 77.1859L428.958 85.6557C452.638 88.5335 457.869 120.414 436.654 130.81L436.147 131.052L372.473 160.646C359.997 166.445 354.264 180.959 359.313 193.677L359.562 194.281L387.079 258.881C396.427 280.828 371.433 301.298 351.822 288.122L351.36 287.805L293.893 247.458C282.633 239.553 267.197 241.846 258.708 252.577L258.309 253.095L216.122 309.225C201.789 328.294 171.564 316.884 173.169 293.312L173.213 292.754L179.421 222.812C180.637 209.108 170.933 196.887 157.395 194.9L156.748 194.814L87.0443 186.344C63.3634 183.466 58.1324 151.586 79.3484 141.19L79.8542 140.949L143.529 111.354C156.005 105.555 161.737 91.0406 156.689 78.3232L156.441 77.7188L128.923 13.1194Z" stroke="#01010D" stroke-opacity="0.5" stroke-width="2"/>
<path opacity="0.586207" d="M137.844 9.71455C129.657 -12.6915 155.687 -31.8258 174.582 -17.6424L175.027 -17.3006L228.149 24.3105C238.98 32.7943 254.515 31.3114 263.554 21.0396L263.98 20.5443L307.289 -31.2024C322.6 -49.4956 352.186 -36.5192 349.35 -13.0643L349.277 -12.5081L339.802 54.3022C337.87 67.9243 346.921 80.6362 360.337 83.3285L360.978 83.449L427.447 95.084C450.945 99.197 454.5 131.307 432.769 140.578L432.252 140.793L369.654 165.993C356.891 171.131 350.408 185.325 354.784 198.289L355 198.906L378.159 262.287C386.346 284.693 360.315 303.827 341.42 289.643L340.976 289.302L287.853 247.691C277.022 239.207 261.488 240.689 252.449 250.96L252.024 251.456L208.713 303.204C193.402 321.496 163.816 308.52 166.652 285.065L166.725 284.509L176.201 217.698C178.133 204.076 169.082 191.365 155.667 188.672L155.025 188.551L88.5554 176.917C65.0578 172.804 61.5027 140.693 83.2332 131.422L83.7518 131.207L146.349 106.008C159.112 100.87 165.595 86.6756 161.22 73.7116L161.003 73.0955L137.844 9.71455Z" stroke="#01010D" stroke-opacity="0.5" stroke-width="2"/>
<path opacity="0.62069" d="M146.76 6.89723C139.756 -15.9066 166.753 -33.6525 184.879 -18.4995L185.306 -18.1349L234.114 24.4003C244.486 33.4395 260.076 32.7727 269.641 22.9882L270.091 22.515L314.187 -24.8899C330.434 -42.3563 359.301 -27.8489 355.24 -4.57454L355.138 -4.02374L342.705 59.5139C340.063 73.0159 348.436 86.1833 361.692 89.5742L362.327 89.7289L425.428 104.213C448.678 109.55 450.548 141.803 428.362 149.924L427.834 150.111L366.592 171.113C353.578 175.576 346.36 189.411 350.052 202.587L350.236 203.213L369.243 265.103C376.246 287.907 349.249 305.652 331.123 290.499L330.697 290.135L281.888 247.599C271.516 238.56 255.925 239.227 246.36 249.012L245.909 249.485L201.815 296.889C185.568 314.356 156.702 299.85 160.761 276.575L160.864 276.023L173.297 212.487C175.939 198.984 167.565 185.816 154.31 182.425L153.675 182.271L90.5737 167.786C67.3232 162.449 65.4533 130.196 87.6398 122.075L88.1681 121.888L149.409 100.887C162.423 96.4243 169.641 82.589 165.949 69.4134L165.765 68.7863L146.76 6.89723Z" stroke="#01010D" stroke-opacity="0.5" stroke-width="2"/>
<path opacity="0.655172" d="M155.635 4.65856C149.835 -18.4805 177.723 -34.789 195.031 -18.7083L195.438 -18.3219L239.987 24.8057C249.872 34.3755 265.476 34.5253 275.54 25.2544L276.014 24.8059L320.563 -18.3227C337.702 -34.9153 365.77 -18.917 360.498 4.1129L360.366 4.65808L345.291 64.8025C341.946 78.1479 349.618 91.7363 362.679 95.8162L363.304 96.0031L422.929 113.02C445.868 119.566 446.047 151.872 423.467 158.821L422.929 158.981L363.305 175.996C350.075 179.772 342.143 193.211 345.139 206.562L345.291 207.197L360.366 267.342C366.166 290.481 338.278 306.789 320.97 290.708L320.563 290.323L276.015 247.194C266.13 237.624 250.526 237.475 240.462 246.746L239.987 247.194L195.438 290.323C178.299 306.915 150.232 290.917 155.504 267.887L155.635 267.342L170.71 207.197C174.055 193.852 166.383 180.263 153.323 176.183L152.696 175.997L93.0727 158.981C70.1334 152.435 69.9542 120.128 92.5351 113.179L93.072 113.019L152.697 96.0032C165.927 92.2275 173.858 78.7888 170.862 65.4381L170.711 64.8023L155.635 4.65856Z" stroke="#01010D" stroke-opacity="0.5" stroke-width="2"/>
<path opacity="0.689655" d="M164.434 2.97834C159.853 -20.4326 188.558 -35.2598 205.001 -18.2951L205.387 -17.8879L245.753 25.5085C255.123 35.5823 270.698 36.5485 281.233 27.8172L281.731 27.3937L326.412 -11.5454C344.396 -27.218 371.588 -9.77331 365.117 12.9491L364.959 13.4871L347.559 70.1435C343.52 83.2953 350.471 97.2659 363.3 102.024L363.915 102.244L419.978 121.469C442.543 129.208 441.031 161.479 418.118 167.237L417.573 167.368L359.808 180.628C346.398 183.706 337.774 196.711 340.068 210.2L340.185 210.843L351.567 269.007C356.148 292.418 327.444 307.245 311.001 290.28L310.615 289.874L270.249 246.477C260.879 236.403 245.304 235.437 234.769 244.168L234.271 244.592L189.59 283.531C171.606 299.204 144.413 281.758 150.884 259.036L151.044 258.498L168.443 201.842C172.482 188.69 165.531 174.719 152.702 169.961L152.087 169.742L96.0243 150.516C73.4592 142.778 74.9705 110.507 97.8837 104.749L98.4295 104.618L156.195 91.3576C169.604 88.2794 178.228 75.2742 175.934 61.7852L175.816 61.1427L164.434 2.97834Z" stroke="#01010D" stroke-opacity="0.5" stroke-width="2"/>
<path opacity="0.724138" d="M173.124 1.85675C169.774 -21.7619 199.214 -35.0659 214.747 -17.2641L215.111 -16.8373L251.394 26.5134C260.225 37.0638 275.728 38.8428 286.705 30.675L287.225 30.2791L331.727 -4.58071C350.507 -19.2908 376.749 -0.447063 369.098 21.9055L368.912 22.4344L349.509 75.5317C344.788 88.4542 350.998 102.77 363.561 108.193L364.163 108.444L416.605 129.555C438.734 138.463 435.535 170.611 412.352 175.162L411.8 175.265L356.116 185.012C342.564 187.384 333.271 199.92 334.856 213.511L334.939 214.159L342.877 270.129C346.226 293.748 316.786 307.052 301.254 289.249L300.89 288.823L264.607 245.473C255.776 234.922 240.273 233.142 229.296 241.31L228.776 241.707L184.273 276.566C165.494 291.276 139.252 272.432 146.903 250.079L147.09 249.55L166.491 196.454C171.213 183.531 165.003 169.215 152.44 163.792L151.838 163.541L99.3969 142.43C77.2677 133.522 80.4664 101.373 103.65 96.8226L104.201 96.7205L159.885 86.9743C173.437 84.6023 182.73 72.0661 181.145 58.4755L181.062 57.8274L173.124 1.85675Z" stroke="#01010D" stroke-opacity="0.5" stroke-width="2"/>
<path opacity="0.758621" d="M181.669 1.27093C179.56 -22.4907 209.657 -34.2362 224.237 -15.6457L224.579 -15.2004L256.898 27.801C265.164 38.7993 280.553 41.3884 291.943 33.8058L292.482 33.4371L336.508 2.52713C356.032 -11.1799 381.252 9.01233 372.441 30.9341L372.227 31.4516L351.146 80.943C345.755 93.6005 351.207 108.221 363.468 114.294L364.057 114.577L412.839 137.25C434.472 147.304 429.595 179.241 406.205 182.572L405.649 182.645L352.248 189.134C338.591 190.794 328.654 202.827 329.526 216.482L329.576 217.133L334.332 270.716C336.44 294.477 306.344 306.222 291.764 287.631L291.422 287.187L259.103 244.185C250.837 233.186 235.448 230.598 224.058 238.18L223.519 238.549L179.493 269.458C159.969 283.166 134.75 262.974 143.559 241.053L143.774 240.534L164.855 191.044C170.247 178.386 164.794 163.765 152.533 157.692L151.944 157.409L103.162 134.736C81.5294 124.682 86.4062 92.7451 109.796 89.4138L110.352 89.3404L163.752 82.8516C177.41 81.192 187.347 69.1597 186.475 55.5045L186.426 54.8529L181.669 1.27093Z" stroke="#01010D" stroke-opacity="0.5" stroke-width="2"/>
<path opacity="0.793103" d="M190.041 1.20059C189.179 -22.6388 219.848 -32.7926 233.435 -13.4647L233.753 -13.0021L262.25 29.3608C269.929 40.7766 285.162 44.1674 296.933 37.1915L297.491 36.8511L340.754 9.74108C360.969 -2.92556 385.098 18.5589 375.152 39.9894L374.911 40.495L352.472 86.3563C346.425 98.7145 351.104 113.601 363.031 120.308L363.605 120.62L408.715 144.534C429.792 155.706 423.25 187.344 399.718 189.447L399.158 189.491L348.223 192.988C334.497 193.93 323.945 205.427 324.1 219.108L324.115 219.762L325.961 270.785C326.823 294.624 296.153 304.778 282.567 285.45L282.249 284.988L253.752 242.624C246.073 231.209 230.841 227.818 219.07 234.794L218.512 235.133L175.248 262.244C155.033 274.91 130.906 253.427 140.851 231.996L141.092 231.49L163.531 185.628C169.578 173.27 164.898 158.383 152.971 151.677L152.398 151.364L107.288 127.451C86.2111 116.278 92.7527 84.6409 116.285 82.5389L116.844 82.4941L167.78 78.9966C181.506 78.054 192.059 66.5582 191.903 52.8762L191.887 52.2232L190.041 1.20059Z" stroke="#01010D" stroke-opacity="0.5" stroke-width="2"/>
<path opacity="0.827586" d="M198.206 1.62797C198.593 -22.2239 229.753 -30.759 242.309 -10.7464L242.602 -10.2679L267.436 31.1809C274.507 42.9829 289.541 47.1661 301.661 40.8161L302.236 40.5053L344.468 17.027C365.317 5.43559 388.288 28.1527 377.234 49.0334L376.967 49.5266L353.489 91.758C346.804 103.783 350.698 118.893 362.257 126.215L362.814 126.558L404.262 151.392C424.725 163.653 416.537 194.905 392.927 195.773L392.366 195.787L344.053 196.569C330.297 196.792 319.158 207.721 318.597 221.392L318.578 222.046L317.796 270.358C317.409 294.21 286.25 302.744 273.694 282.731L273.4 282.254L248.566 240.805C241.495 229.003 226.461 224.82 214.341 231.17L213.766 231.48L171.534 254.959C150.685 266.55 127.714 243.832 138.768 222.952L139.035 222.459L162.514 180.228C169.199 168.203 165.305 153.092 153.745 145.771L153.19 145.428L111.74 120.594C91.2772 108.333 99.4657 77.0813 123.076 76.2134L123.636 76.1987L171.949 75.4158C185.705 75.193 196.844 64.2649 197.405 50.5937L197.424 49.9405L198.206 1.62797Z" stroke="#01010D" stroke-opacity="0.5" stroke-width="2"/>
<path opacity="0.862069" d="M206.138 2.53004C207.772 -21.2689 239.335 -28.1613 250.827 -7.51901L251.095 -7.02578L272.444 33.2475C278.888 45.403 293.682 50.3667 306.117 44.6599L306.708 44.3806L347.652 24.347C369.08 13.8632 390.83 37.7511 378.699 58.0245L378.406 58.503L354.203 97.1283C346.898 108.787 349.996 124.081 361.156 131.997L361.693 132.368L399.515 157.81C419.308 171.125 409.495 201.905 385.872 201.536L385.312 201.522L339.759 199.875C326.01 199.377 314.314 209.707 313.038 223.33L312.986 223.982L309.863 269.457C308.228 293.255 276.665 300.147 265.174 279.505L264.906 279.012L243.558 238.739C237.114 226.583 222.319 221.619 209.883 227.326L209.293 227.606L168.349 247.638C146.922 258.123 125.171 234.235 137.302 213.961L137.596 213.482L161.799 174.857C169.104 163.199 166.006 147.904 154.845 139.988L154.308 139.617L116.487 114.176C96.6939 100.861 106.506 70.0808 130.129 70.4493L130.69 70.4638L176.242 72.1121C189.991 72.6095 201.687 62.2793 202.963 48.6562L203.016 48.005L206.138 2.53004Z" stroke="#01010D" stroke-opacity="0.5" stroke-width="2"/>
<path opacity="0.896552" d="M213.809 3.88323C216.687 -19.7976 248.568 -25.029 258.964 -3.81336L259.205 -3.3068L277.264 35.5459C283.062 48.0224 297.577 53.7544 310.294 48.7058L310.899 48.4578L350.316 31.6669C372.263 22.3184 392.734 47.3129 379.558 66.9239L379.24 67.3856L354.622 102.452C346.716 113.712 349.01 129.146 359.741 137.636L360.258 138.035L394.507 163.777C413.576 178.109 402.167 208.334 378.596 206.729L378.036 206.685L335.36 202.898C321.655 201.682 309.435 211.385 307.448 224.923L307.36 225.571L302.193 268.103C299.315 291.784 267.435 297.014 257.039 275.798L256.797 275.293L238.738 236.439C232.94 223.963 218.426 218.231 205.709 223.279L205.104 223.528L165.686 240.318C143.739 249.667 123.269 224.673 136.444 205.062L136.762 204.6L161.38 169.535C169.286 158.274 166.993 142.839 156.262 134.349L155.744 133.951L121.495 108.208C102.426 93.876 113.836 63.651 137.407 65.2558L137.966 65.2998L180.643 69.0882C194.348 70.3043 206.569 60.6 208.555 47.062L208.641 46.4145L213.809 3.88323Z" stroke="#01010D" stroke-opacity="0.5" stroke-width="2"/>
<path opacity="0.931035" d="M221.195 5.66301C225.308 -17.8347 257.418 -21.3901 266.69 0.340284L266.904 0.858784L281.882 38.0644C287.02 50.8272 301.215 57.3108 314.179 52.9349L314.795 52.7179L352.467 38.9528C374.873 30.7661 394.007 56.7976 379.824 75.692L379.482 76.1364L354.75 107.711C346.266 118.542 347.748 134.076 358.02 143.116L358.516 143.541L389.273 169.283C407.566 184.594 394.589 214.181 371.134 211.344L370.579 211.271L330.868 205.639C317.246 203.707 304.534 212.758 301.842 226.174L301.721 226.816L294.806 266.323C290.693 289.821 258.582 293.376 249.311 271.645L249.097 271.128L234.119 233.921C228.98 221.158 214.786 214.675 201.822 219.051L201.205 219.267L163.534 233.032C141.129 241.219 121.994 215.189 136.177 196.294L136.518 195.849L161.251 164.274C169.735 153.443 168.253 137.909 157.981 128.869L157.485 128.444L126.728 102.702C108.436 87.3911 121.412 57.8059 144.867 60.6419L145.423 60.714L185.133 66.346C198.755 68.2779 211.468 59.2272 214.16 45.8117L214.28 45.1696L221.195 5.66301Z" stroke="#01010D" stroke-opacity="0.5" stroke-width="2"/>
<path opacity="0.965517" d="M228.272 7.84344C233.609 -15.4069 265.863 -17.2771 273.984 4.90896L274.171 5.43798L286.294 40.7875C290.756 53.8016 304.591 61.0192 317.767 57.328L318.394 57.1436L354.118 46.173C376.921 39.1699 394.667 66.1663 379.515 84.2926L379.151 84.7194L354.597 112.893C345.558 123.265 346.226 138.855 356.01 148.419L356.483 148.871L383.847 174.323C401.313 190.57 386.806 219.436 363.532 215.377L362.98 215.275L326.305 208.098C312.803 205.456 299.635 213.829 296.244 227.085L296.09 227.719L287.729 264.143C282.392 287.394 250.14 289.263 242.018 267.077L241.83 266.549L229.709 231.198C225.246 218.184 211.41 210.967 198.235 214.659L197.608 214.842L161.884 225.814C139.08 232.817 121.334 205.82 136.488 187.693L136.852 187.267L161.404 159.094C170.443 148.722 169.776 133.131 159.992 123.567L159.518 123.116L132.156 97.6639C114.689 81.4166 129.196 52.5497 152.47 56.6098L153.021 56.712L189.696 63.8884C203.198 66.5305 216.367 58.1573 219.758 44.9014L219.912 44.2664L228.272 7.84344Z" stroke="#01010D" stroke-opacity="0.5" stroke-width="2"/>
<path d="M235.02 10.396C241.567 -12.5431 273.873 -12.7226 280.822 9.85791L280.981 10.396L290.486 43.6997C294.262 56.9297 307.701 64.8608 321.051 61.8638L321.687 61.7134L355.281 53.2925C378.42 47.4925 394.728 75.3806 378.647 92.689L378.261 93.0962L354.171 117.979C344.602 127.864 344.453 143.468 353.723 153.532L354.171 154.006L378.261 178.889C394.854 196.028 378.856 224.096 355.826 218.824L355.281 218.693L321.687 210.273C308.342 206.928 294.753 214.6 290.673 227.661L290.486 228.287L280.981 261.59C274.434 284.529 242.128 284.708 235.179 262.127L235.02 261.59L225.515 228.287C221.739 215.057 208.301 207.125 194.951 210.122L194.315 210.273L160.72 218.693C137.581 224.493 121.273 196.605 137.354 179.296L137.74 178.889L161.83 154.006C171.399 144.121 171.549 128.517 162.278 118.454L161.83 117.979L137.74 93.0962C121.147 75.9571 137.145 47.8894 160.175 53.1616L160.72 53.2925L194.315 61.7134C207.66 65.0584 221.249 57.3859 225.329 44.3257L225.515 43.6997L235.02 10.396Z" stroke="#01010D" stroke-opacity="0.5" stroke-width="2"/>
</g>
</svg>
