<svg width="109" height="47" viewBox="0 0 109 47" fill="none" xmlns="http://www.w3.org/2000/svg">
<path d="M5.45 0.399999V31.2H22.9V36H0.1V0.399999H5.45ZM46.2359 32.9C43.8693 35.3667 40.7859 36.6 36.9859 36.6C33.1859 36.6 30.1026 35.3667 27.7359 32.9C25.3693 30.4333 24.1859 27.1667 24.1859 23.1C24.1859 19 25.3693 15.7167 27.7359 13.25C30.0693 10.8167 33.1526 9.6 36.9859 9.6C40.8193 9.6 43.9026 10.8167 46.2359 13.25C48.5693 15.6833 49.7359 18.9667 49.7359 23.1C49.7359 27.2 48.5693 30.4667 46.2359 32.9ZM31.4359 29.85C32.8026 31.4833 34.6526 32.3 36.9859 32.3C39.3193 32.3 41.1526 31.4833 42.4859 29.85C43.8526 28.2167 44.5359 25.9667 44.5359 23.1C44.5359 20.2333 43.8526 17.9833 42.4859 16.35C41.1526 14.7167 39.3193 13.9 36.9859 13.9C34.6526 13.9 32.8026 14.7167 31.4359 16.35C30.0693 17.9833 29.3859 20.2333 29.3859 23.1C29.3859 25.9667 30.0693 28.2167 31.4359 29.85ZM73.2957 13.85V10.2H78.0957V35.05C78.0957 38.5833 77.029 41.35 74.8957 43.35C72.7624 45.3833 69.729 46.4 65.7957 46.4C62.429 46.4 59.7457 45.6333 57.7457 44.1C55.779 42.5667 54.6624 40.4667 54.3957 37.8H59.3957C59.7957 40.8333 61.9457 42.35 65.8457 42.35C70.679 42.35 73.0957 39.95 73.0957 35.15V32.3C71.129 34.9667 68.3624 36.3 64.7957 36.3C61.1957 36.3 58.329 35.0833 56.1957 32.65C54.029 30.1833 52.9457 26.95 52.9457 22.95C52.9457 18.95 54.029 15.7167 56.1957 13.25C58.329 10.8167 61.179 9.6 64.7457 9.6C68.5124 9.6 71.3624 11.0167 73.2957 13.85ZM65.6957 32C68.029 32 69.8624 31.2 71.1957 29.6C72.5624 27.9667 73.2457 25.75 73.2457 22.95C73.2457 20.15 72.5624 17.95 71.1957 16.35C69.8624 14.7167 68.029 13.9 65.6957 13.9C63.3957 13.9 61.5624 14.7167 60.1957 16.35C58.829 17.9833 58.1457 20.1833 58.1457 22.95C58.1457 25.75 58.829 27.9667 60.1957 29.6C61.5624 31.2 63.3957 32 65.6957 32ZM104.586 32.9C102.219 35.3667 99.1355 36.6 95.3355 36.6C91.5355 36.6 88.4522 35.3667 86.0855 32.9C83.7189 30.4333 82.5355 27.1667 82.5355 23.1C82.5355 19 83.7189 15.7167 86.0855 13.25C88.4189 10.8167 91.5022 9.6 95.3355 9.6C99.1689 9.6 102.252 10.8167 104.586 13.25C106.919 15.6833 108.086 18.9667 108.086 23.1C108.086 27.2 106.919 30.4667 104.586 32.9ZM89.7855 29.85C91.1522 31.4833 93.0022 32.3 95.3355 32.3C97.6689 32.3 99.5022 31.4833 100.836 29.85C102.202 28.2167 102.886 25.9667 102.886 23.1C102.886 20.2333 102.202 17.9833 100.836 16.35C99.5022 14.7167 97.6689 13.9 95.3355 13.9C93.0022 13.9 91.1522 14.7167 89.7855 16.35C88.4189 17.9833 87.7355 20.2333 87.7355 23.1C87.7355 25.9667 88.4189 28.2167 89.7855 29.85Z" fill="white"/>
</svg>
