<svg width="136" height="48" viewBox="0 0 136 48" fill="none" xmlns="http://www.w3.org/2000/svg">
<path d="M48.86 17.26V29.08H55.64V31.5H46.16V17.26H48.86ZM66.685 26.34C66.685 27.9667 66.205 29.2733 65.245 30.26C64.285 31.2467 63.0183 31.74 61.445 31.74C59.8717 31.74 58.605 31.2467 57.645 30.26C56.6717 29.2867 56.185 27.98 56.185 26.34C56.185 24.7 56.6717 23.3933 57.645 22.42C58.605 21.4333 59.8717 20.94 61.445 20.94C63.0183 20.94 64.285 21.4267 65.245 22.4C66.205 23.3733 66.685 24.6867 66.685 26.34ZM59.465 28.8C59.945 29.3733 60.605 29.66 61.445 29.66C62.285 29.66 62.9383 29.3733 63.405 28.8C63.885 28.2133 64.125 27.3933 64.125 26.34C64.125 25.2867 63.885 24.4733 63.405 23.9C62.9383 23.3133 62.285 23.02 61.445 23.02C60.605 23.02 59.945 23.3067 59.465 23.88C58.9983 24.4533 58.765 25.2733 58.765 26.34C58.765 27.4067 58.9983 28.2267 59.465 28.8ZM75.7061 22.6V21.18H78.1461V31.16C78.1461 32.56 77.6994 33.66 76.8061 34.46C75.9261 35.26 74.6728 35.66 73.0461 35.66C71.6061 35.66 70.4728 35.34 69.6461 34.7C68.8328 34.06 68.3861 33.18 68.3061 32.06H70.7861C70.9061 33.1667 71.6728 33.72 73.0861 33.72C73.9128 33.72 74.5394 33.5067 74.9661 33.08C75.4061 32.6533 75.6261 32.0333 75.6261 31.22V29.92C74.8794 30.9467 73.8261 31.46 72.4661 31.46C71.0661 31.46 69.9394 30.9733 69.0861 30C68.2328 29.0533 67.8061 27.7867 67.8061 26.2C67.8061 24.6 68.2328 23.3267 69.0861 22.38C69.9261 21.42 71.0461 20.94 72.4461 20.94C73.8994 20.94 74.9861 21.4933 75.7061 22.6ZM73.0261 29.38C73.8661 29.38 74.5194 29.1 74.9861 28.54C75.4528 27.98 75.6861 27.2 75.6861 26.2C75.6861 25.2 75.4528 24.42 74.9861 23.86C74.5194 23.3 73.8661 23.02 73.0261 23.02C72.2128 23.02 71.5661 23.3067 71.0861 23.88C70.6194 24.44 70.3861 25.22 70.3861 26.22C70.3861 27.2067 70.6194 27.98 71.0861 28.54C71.5661 29.1 72.2128 29.38 73.0261 29.38ZM90.2202 26.34C90.2202 27.9667 89.7402 29.2733 88.7802 30.26C87.8202 31.2467 86.5535 31.74 84.9802 31.74C83.4068 31.74 82.1402 31.2467 81.1802 30.26C80.2068 29.2867 79.7202 27.98 79.7202 26.34C79.7202 24.7 80.2068 23.3933 81.1802 22.42C82.1402 21.4333 83.4068 20.94 84.9802 20.94C86.5535 20.94 87.8202 21.4267 88.7802 22.4C89.7402 23.3733 90.2202 24.6867 90.2202 26.34ZM83.0002 28.8C83.4802 29.3733 84.1402 29.66 84.9802 29.66C85.8202 29.66 86.4735 29.3733 86.9402 28.8C87.4202 28.2133 87.6602 27.3933 87.6602 26.34C87.6602 25.2867 87.4202 24.4733 86.9402 23.9C86.4735 23.3133 85.8202 23.02 84.9802 23.02C84.1402 23.02 83.4802 23.3067 83.0002 23.88C82.5335 24.4533 82.3002 25.2733 82.3002 26.34C82.3002 27.4067 82.5335 28.2267 83.0002 28.8Z" fill="white"/>
</svg>
