<svg width="172" height="28" viewBox="0 0 172 28" fill="none" xmlns="http://www.w3.org/2000/svg">
<path d="M33.8469 3.95686H49.1659V6.49131H42.9429V22.7491H40.07V6.49131H33.8469V3.95686Z" fill="white"/>
<path d="M57.5117 8.81189C59.0072 8.81189 60.1755 9.23506 61.0164 10.0768C61.8619 10.905 62.2801 12.0835 62.2801 13.6123V22.7445H59.6436V13.9809C59.6436 12.0789 58.6845 11.1325 56.7707 11.1325C55.8934 11.1325 55.1025 11.4647 54.3979 12.1335C53.6933 12.8206 53.3433 13.7943 53.3433 15.0638V22.7445H50.7068V3.9523H53.3433V11.0005C54.3797 9.53992 55.7707 8.81189 57.5071 8.81189H57.5117Z" fill="white"/>
<path d="M77.5446 16.0467V16.8111H67.2895C67.4122 18.1489 67.8077 19.159 68.4759 19.8461C69.1441 20.515 70.0487 20.8471 71.1897 20.8471C72.9125 20.8471 74.0353 20.0918 74.5626 18.5766H77.2264C76.8582 19.9644 76.1354 21.0655 75.0626 21.8755C74.008 22.6672 72.6989 23.0631 71.1352 23.0631C69.1851 23.0631 67.6123 22.4124 66.4167 21.111C65.2212 19.8097 64.6257 18.0852 64.6257 15.9375C64.6257 13.7898 65.2212 12.0653 66.4167 10.7639C67.6123 9.46258 69.1669 8.8119 71.0851 8.8119C73.0034 8.8119 74.6717 9.48988 75.8308 10.8458C76.9718 12.2018 77.5446 13.9354 77.5446 16.0467ZM71.0851 11.0324C70.0487 11.0324 69.1941 11.3509 68.5259 11.9834C67.8759 12.6159 67.4713 13.5304 67.3122 14.7271H74.8263C74.7035 13.6169 74.308 12.7296 73.6398 12.0607C72.9898 11.3737 72.1352 11.0324 71.0806 11.0324H71.0851Z" fill="white"/>
<path d="M93.4362 23.1723C90.8179 23.1723 88.6905 22.285 87.0541 20.5059C85.3994 18.7449 84.5767 16.3606 84.5767 13.353C84.5767 10.3453 85.3949 7.97922 87.0268 6.2001C88.6632 4.42098 90.7952 3.53369 93.4317 3.53369C95.5045 3.53369 97.291 4.08881 98.7819 5.19451C100.277 6.3184 101.232 7.98377 101.655 10.1815H98.8092C98.4592 8.80735 97.8092 7.77901 96.8591 7.09193C95.9273 6.38665 94.7863 6.03629 93.4317 6.03629C91.6225 6.03629 90.1815 6.69607 89.1087 8.01562C88.0359 9.31697 87.4996 11.0961 87.4996 13.3484C87.4996 15.6008 88.0359 17.3844 89.1087 18.704C90.1815 20.0053 91.6225 20.656 93.4317 20.656C94.7863 20.656 96 20.242 97.0682 19.4138C98.1047 18.5857 98.7274 17.3799 98.9411 15.7964H101.764C101.537 18.1352 100.632 19.9507 99.0502 21.2339C97.4864 22.517 95.6136 23.1586 93.4362 23.1586V23.1723Z" fill="white"/>
<path d="M106.619 22.7491H103.982V3.95686H106.619V22.7491Z" fill="white"/>
<path d="M112.233 7.20568H109.542V4.38002H112.233V7.20568ZM112.206 22.7491H109.569V9.13041H112.206V22.7491Z" fill="white"/>
<path d="M121.006 23.0631C119.074 23.0631 117.51 22.4124 116.315 21.111C115.119 19.8097 114.524 18.0852 114.524 15.9375C114.524 13.7898 115.119 12.0425 116.315 10.7366C117.492 9.45348 119.056 8.8119 121.006 8.8119C122.674 8.8119 124.047 9.27148 125.12 10.1861C126.211 11.1006 126.861 12.3337 127.07 13.8808H124.379C124.202 12.9844 123.806 12.2973 123.193 11.8241C122.593 11.3509 121.865 11.1097 121.006 11.1097C119.865 11.1097 118.951 11.5329 118.265 12.3747C117.597 13.2028 117.265 14.3904 117.265 15.9375C117.265 17.4846 117.601 18.6812 118.265 19.5276C118.951 20.3557 119.865 20.7698 121.006 20.7698C121.883 20.7698 122.633 20.5241 123.247 20.0327C123.861 19.5412 124.247 18.8269 124.406 17.8941H127.097C126.888 19.4775 126.229 20.7334 125.12 21.6662C124.011 22.599 122.643 23.0631 121.006 23.0631Z" fill="white"/>
<path d="M141.393 22.7491H138.361L134.038 15.8601L131.77 18.0761V22.7491H129.161V3.95686H131.77V15.0411L137.757 9.13042H141.052L135.911 14.1447L141.393 22.7491Z" fill="white"/>
<path d="M147.353 23.0904C143.575 23.0904 141.589 21.5342 141.393 18.4173H144.03C144.134 19.3683 144.443 20.0372 144.953 20.424C145.462 20.8107 146.271 21.0064 147.38 21.0064C149.385 21.0064 150.385 20.3739 150.385 19.1044C150.385 18.5584 150.176 18.1352 149.753 17.8395C149.33 17.5392 148.575 17.2934 147.485 17.1023L146.089 16.8384C143.207 16.3106 141.766 14.9547 141.766 12.7751C141.766 11.5602 142.234 10.6001 143.162 9.8994C144.093 9.17592 145.375 8.81645 147.012 8.81645C150.757 8.81645 152.671 10.3362 152.758 13.3803H150.198C150.144 12.4657 149.862 11.8241 149.353 11.4556C148.844 11.0688 148.062 10.8731 147.007 10.8731C146.162 10.8731 145.512 11.0324 145.057 11.3464C144.598 11.6649 144.371 12.1108 144.371 12.6932C144.371 13.221 144.571 13.6351 144.975 13.9354C145.38 14.2175 146.021 14.445 146.898 14.6225L148.321 14.8591C149.989 15.1776 151.194 15.6508 151.935 16.2833C152.671 16.9158 153.044 17.7985 153.044 18.9224C153.044 20.242 152.544 21.2703 151.539 22.012C150.539 22.7355 149.139 23.0949 147.348 23.0949L147.353 23.0904Z" fill="white"/>
<path d="M157.649 22.7491H155.012V3.95686H157.649V22.7491Z" fill="white"/>
<path d="M167.54 13.8035L169.122 9.13042H171.918L166.381 24.4645C165.922 25.7659 165.317 26.6805 164.563 27.2083C163.808 27.7361 162.735 28 161.344 28C160.872 28 160.413 27.9727 159.972 27.9227V25.7841H161.29C162.467 25.7841 163.258 25.2381 163.663 24.146C163.699 24.0414 163.749 23.873 163.822 23.6455C163.908 23.418 163.981 23.2405 164.031 23.1177L158.994 9.13042H161.867L163.449 13.8035C164.295 16.4062 164.972 18.5811 165.481 20.3239C166.167 18.0897 166.854 15.9147 167.536 13.8035H167.54Z" fill="white"/>
<path d="M22.769 3.925C24.7418 5.89978 26.0555 8.49337 26.4737 11.269C25.3964 12.1881 23.9599 12.7933 22.5462 12.9708C18.3778 13.4849 14.3594 10.5501 13.7321 6.36844C13.6821 6.04083 13.7049 4.89874 13.4912 4.80318C12.8776 4.53017 13.0412 5.2673 13.0048 5.58581C12.8321 7.11012 12.4457 8.42512 11.5502 9.68552C10.0274 11.8378 7.54999 13.0481 4.9044 13.0527C4.76803 13.0845 4.76803 13.4713 4.84985 13.585C4.93168 13.6988 6.26811 13.7534 6.58631 13.8125C10.2547 14.4496 12.5912 17.53 13.0003 21.1019C13.0366 21.4204 12.873 22.1576 13.4867 21.8846C13.7049 21.789 13.6776 20.6424 13.7276 20.3193C14.6231 14.4177 21.8507 11.6057 26.4692 15.4188C25.1691 23.9731 16.0095 29.1239 7.99546 25.6066C0.322336 22.2395 -2.41416 12.6613 2.38155 5.71777C7.11361 -1.13026 16.8777 -1.95384 22.7599 3.9341L22.769 3.925Z" fill="#4BED7B"/>
</svg>
