<svg width="45" height="19" viewBox="0 0 45 19" fill="none" xmlns="http://www.w3.org/2000/svg">
<path d="M2.86 0.26V12.08H9.64V14.5H0.16V0.26H2.86ZM20.685 9.34C20.685 10.9667 20.205 12.2733 19.245 13.26C18.285 14.2467 17.0183 14.74 15.445 14.74C13.8717 14.74 12.605 14.2467 11.645 13.26C10.6717 12.2867 10.185 10.98 10.185 9.34C10.185 7.7 10.6717 6.39333 11.645 5.42C12.605 4.43333 13.8717 3.94 15.445 3.94C17.0183 3.94 18.285 4.42667 19.245 5.4C20.205 6.37333 20.685 7.68667 20.685 9.34ZM13.465 11.8C13.945 12.3733 14.605 12.66 15.445 12.66C16.285 12.66 16.9383 12.3733 17.405 11.8C17.885 11.2133 18.125 10.3933 18.125 9.34C18.125 8.28667 17.885 7.47333 17.405 6.9C16.9383 6.31333 16.285 6.02 15.445 6.02C14.605 6.02 13.945 6.30667 13.465 6.88C12.9983 7.45333 12.765 8.27333 12.765 9.34C12.765 10.4067 12.9983 11.2267 13.465 11.8ZM29.7061 5.6V4.18H32.1461V14.16C32.1461 15.56 31.6994 16.66 30.8061 17.46C29.9261 18.26 28.6728 18.66 27.0461 18.66C25.6061 18.66 24.4728 18.34 23.6461 17.7C22.8328 17.06 22.3861 16.18 22.3061 15.06H24.7861C24.9061 16.1667 25.6728 16.72 27.0861 16.72C27.9128 16.72 28.5394 16.5067 28.9661 16.08C29.4061 15.6533 29.6261 15.0333 29.6261 14.22V12.92C28.8794 13.9467 27.8261 14.46 26.4661 14.46C25.0661 14.46 23.9394 13.9733 23.0861 13C22.2328 12.0533 21.8061 10.7867 21.8061 9.2C21.8061 7.6 22.2328 6.32667 23.0861 5.38C23.9261 4.42 25.0461 3.94 26.4461 3.94C27.8994 3.94 28.9861 4.49333 29.7061 5.6ZM27.0261 12.38C27.8661 12.38 28.5194 12.1 28.9861 11.54C29.4528 10.98 29.6861 10.2 29.6861 9.2C29.6861 8.2 29.4528 7.42 28.9861 6.86C28.5194 6.3 27.8661 6.02 27.0261 6.02C26.2128 6.02 25.5661 6.30667 25.0861 6.88C24.6194 7.44 24.3861 8.22 24.3861 9.22C24.3861 10.2067 24.6194 10.98 25.0861 11.54C25.5661 12.1 26.2128 12.38 27.0261 12.38ZM44.2202 9.34C44.2202 10.9667 43.7402 12.2733 42.7802 13.26C41.8202 14.2467 40.5535 14.74 38.9802 14.74C37.4068 14.74 36.1402 14.2467 35.1802 13.26C34.2068 12.2867 33.7202 10.98 33.7202 9.34C33.7202 7.7 34.2068 6.39333 35.1802 5.42C36.1402 4.43333 37.4068 3.94 38.9802 3.94C40.5535 3.94 41.8202 4.42667 42.7802 5.4C43.7402 6.37333 44.2202 7.68667 44.2202 9.34ZM37.0002 11.8C37.4802 12.3733 38.1402 12.66 38.9802 12.66C39.8202 12.66 40.4735 12.3733 40.9402 11.8C41.4202 11.2133 41.6602 10.3933 41.6602 9.34C41.6602 8.28667 41.4202 7.47333 40.9402 6.9C40.4735 6.31333 39.8202 6.02 38.9802 6.02C38.1402 6.02 37.4802 6.30667 37.0002 6.88C36.5335 7.45333 36.3002 8.27333 36.3002 9.34C36.3002 10.4067 36.5335 11.2267 37.0002 11.8Z" fill="white"/>
</svg>
