<svg width="49" height="49" viewBox="0 0 49 49" fill="none" xmlns="http://www.w3.org/2000/svg">
<rect y="0.837646" width="48" height="48" rx="24" transform="rotate(-1 0 0.837646)" fill="black"/>
<rect x="0.50865" y="1.32884" width="47" height="47" rx="23.5" transform="rotate(-1 0.50865 1.32884)" stroke="white" stroke-opacity="0.07"/>
<path d="M24.518 30.2476C24.1875 30.2534 23.9087 30.1462 23.6816 29.9262C23.4545 29.7061 23.3377 29.4312 23.3312 29.1015C23.3247 28.7718 23.4318 28.493 23.6526 28.2651C23.8735 28.0372 24.1484 27.9204 24.4773 27.9146C24.8063 27.9089 25.0855 28.016 25.3149 28.2361C25.5443 28.4561 25.6607 28.731 25.6642 29.0608C25.6676 29.3905 25.5604 29.6697 25.3427 29.8983C25.125 30.1269 24.8501 30.2434 24.518 30.2476ZM24.4366 25.5816C24.1061 25.5874 23.8273 25.4803 23.6002 25.2602C23.3731 25.0401 23.2563 24.7652 23.2497 24.4355L23.1683 19.7696C23.1625 19.4391 23.2697 19.1603 23.4897 18.9332C23.7098 18.7061 23.9847 18.5892 24.3144 18.5827C24.6441 18.5762 24.9233 18.6833 25.152 18.9041C25.3807 19.125 25.4971 19.3999 25.5013 19.7288L25.5827 24.3948C25.5885 24.7253 25.4813 25.0045 25.2613 25.2324C25.0412 25.4602 24.7663 25.5767 24.4366 25.5816ZM16.2508 24.5577C16.2691 25.6075 16.4952 26.5713 16.929 27.449C17.3629 28.3266 17.9446 29.0796 18.6744 29.7078L18.6449 28.0164C18.6391 27.6859 18.7462 27.4071 18.9663 27.18C19.1864 26.9529 19.4613 26.8361 19.791 26.8296C20.1207 26.8231 20.3999 26.9302 20.6286 27.151C20.8572 27.3718 20.9737 27.6467 20.9778 27.9757L21.0593 32.6417C21.0651 32.9722 20.9579 33.2514 20.7379 33.4792C20.5178 33.7071 20.2429 33.8235 19.9132 33.8285L15.2472 33.91C14.9167 33.9157 14.6379 33.8086 14.4108 33.5885C14.1837 33.3684 14.0669 33.0935 14.0604 32.7638C14.0538 32.4341 14.161 32.1553 14.3818 31.9274C14.6026 31.6995 14.8775 31.5827 15.2065 31.577L17.2187 31.5419C16.2122 30.7037 15.4166 29.6869 14.8317 28.4914C14.2469 27.2959 13.9423 25.9982 13.9178 24.5984C13.8859 22.7709 14.3334 21.1101 15.2602 19.6159C16.1871 18.1217 17.4117 16.9724 18.934 16.1679C19.2034 16.0076 19.4902 15.9929 19.7943 16.1237C20.0984 16.2546 20.3014 16.4747 20.4033 16.784C20.5051 17.0934 20.4956 17.395 20.3747 17.6888C20.2538 17.9827 20.0587 18.2097 19.7892 18.37C18.711 18.9917 17.8461 19.8481 17.1946 20.9392C16.5431 22.0303 16.2285 23.2364 16.2508 24.5577ZM32.5923 24.885C32.574 23.8352 32.3483 22.8714 31.9153 21.9937C31.4822 21.1161 30.9001 20.3635 30.1688 19.7361L30.1983 21.4275C30.2041 21.758 30.0969 22.0372 29.8769 22.265C29.6568 22.4929 29.3819 22.6093 29.0522 22.6143C28.7224 22.6193 28.4436 22.5121 28.2158 22.2929C27.9879 22.0736 27.8711 21.7987 27.8653 21.4682L27.7839 16.8022C27.7781 16.4717 27.8853 16.1929 28.1053 15.9658C28.3254 15.7387 28.6003 15.6215 28.93 15.6142L33.5959 15.5328C33.9264 15.527 34.2056 15.6341 34.4335 15.8542C34.6614 16.0743 34.7778 16.3492 34.7828 16.6789C34.7878 17.0086 34.6806 17.2878 34.4614 17.5165C34.2421 17.7451 33.9672 17.8615 33.6367 17.8657L31.6245 17.9009C32.6309 18.739 33.4266 19.7558 34.0114 20.9513C34.5963 22.1469 34.9009 23.4445 34.9253 24.8443C34.9572 26.6718 34.5098 28.3377 33.5832 29.842C32.6565 31.3463 31.432 32.5003 29.9097 33.304C29.6402 33.4643 29.3538 33.4743 29.0503 33.3341C28.7468 33.194 28.5433 32.9688 28.4399 32.6587C28.3365 32.3486 28.346 32.047 28.4684 31.7539C28.5909 31.4608 28.7861 31.2338 29.054 31.0727C30.1322 30.451 30.9974 29.595 31.6497 28.5047C32.302 27.4144 32.6162 26.2078 32.5923 24.885Z" fill="white"/>
</svg>
