<svg width="50" height="49" viewBox="0 0 50 49" fill="none" xmlns="http://www.w3.org/2000/svg">
<rect x="0.666016" y="0.837646" width="48" height="48" rx="24" transform="rotate(-1 0.666016 0.837646)" fill="black"/>
<rect x="1.17467" y="1.32884" width="47" height="47" rx="23.5" transform="rotate(-1 1.17467 1.32884)" stroke="white" stroke-opacity="0.07"/>
<path d="M29.7749 17.551C29.7728 17.4307 29.6727 17.334 29.5524 17.3361L19.054 17.5193C18.9337 17.5214 18.837 17.6216 18.8391 17.7419L18.862 19.0542C18.8641 19.1745 18.9642 19.2712 19.0845 19.2691L29.5829 19.0858C29.7032 19.0837 29.7999 18.9836 29.7978 18.8633L29.7749 17.551ZM29.6211 21.273L19.1227 21.4562C19.0024 21.4583 18.9057 21.5585 18.9078 21.6788L18.9307 22.9911C18.9328 23.1114 19.0329 23.2081 19.1532 23.206L29.6516 23.0227C29.7719 23.0206 29.8686 22.9205 29.8665 22.8002L29.8436 21.4879C29.8415 21.3676 29.7414 21.2709 29.6211 21.273ZM24.2219 25.3053L19.1914 25.3931C19.0711 25.3952 18.9744 25.4954 18.9765 25.6157L18.9994 26.928C19.0015 27.0483 19.1017 27.145 19.222 27.1429L24.2524 27.0551C24.3727 27.053 24.4694 26.9528 24.4673 26.8325L24.4444 25.5202C24.4423 25.3999 24.3422 25.3032 24.2219 25.3053ZM23.0566 33.7488L16.9325 33.8557L16.5966 14.6087L31.9067 14.3414L32.0709 23.7462C32.073 23.8665 32.1731 23.9632 32.2934 23.9611L33.8244 23.9344C33.9447 23.9323 34.0414 23.8322 34.0393 23.7119L33.8561 13.2135C33.8476 12.7296 33.4499 12.3454 32.966 12.3539L15.4686 12.6593C14.9847 12.6677 14.6006 13.0655 14.609 13.5494L14.9832 34.9837C14.9916 35.4676 15.3894 35.8517 15.8733 35.8433L23.0909 35.7173C23.2112 35.7152 23.3079 35.615 23.3058 35.4947L23.2791 33.9637C23.277 33.8434 23.1769 33.7467 23.0566 33.7488ZM32.7758 31.5445C33.5561 30.8116 34.0356 29.764 34.0154 28.6076C33.9775 26.4341 32.1833 24.7014 30.0098 24.7394C27.8363 24.7773 26.1037 26.5715 26.1416 28.745C26.1618 29.9015 26.6775 30.9317 27.4829 31.6369C25.9401 32.5526 24.8971 34.2172 24.8482 36.116C24.8449 36.2391 24.9478 36.3412 25.0708 36.3391L26.3859 36.3161C26.5007 36.3141 26.5948 36.2222 26.601 36.1045C26.6746 34.2108 28.2257 32.6741 30.1477 32.6405C32.0697 32.607 33.6735 34.0886 33.8132 35.9786C33.8206 36.0934 33.9179 36.1846 34.0355 36.1826L35.3505 36.1596C35.4763 36.1574 35.5729 36.0518 35.5653 35.9289C35.4528 34.0302 34.3497 32.4058 32.7758 31.5445ZM30.0403 26.4891C31.2487 26.468 32.2446 27.4297 32.2657 28.6381C32.2868 29.8465 31.3251 30.8424 30.1167 30.8634C28.9083 30.8845 27.9124 29.9229 27.8913 28.7145C27.8702 27.5061 28.8319 26.5102 30.0403 26.4891Z" fill="white"/>
</svg>
