<svg width="50" height="49" viewBox="0 0 50 49" fill="none" xmlns="http://www.w3.org/2000/svg">
<rect x="0.333984" y="0.837646" width="48" height="48" rx="24" transform="rotate(-1 0.333984 0.837646)" fill="black"/>
<rect x="0.842634" y="1.32884" width="47" height="47" rx="23.5" transform="rotate(-1 0.842634 1.32884)" stroke="white" stroke-opacity="0.07"/>
<path d="M33.7134 36.5106C35.6461 36.4769 37.1855 34.8828 37.1518 32.9501C37.1181 31.0174 35.524 29.4779 33.5913 29.5117C31.6586 29.5454 30.1191 31.1395 30.1529 33.0722C30.1866 35.0049 31.7807 36.5443 33.7134 36.5106Z" fill="white"/>
<path d="M19.4551 21.8821L21.2048 21.8515L21.2354 23.6013L19.4856 23.6318L19.4551 21.8821ZM19.5314 26.2564L21.2812 26.2259L21.3117 27.9756L19.562 28.0061L19.5314 26.2564ZM19.6078 30.6307L21.3575 30.6002L21.3881 32.3499L19.6383 32.3805L19.6078 30.6307ZM22.9545 21.821L29.9535 21.6988L29.984 23.4486L22.9851 23.5707L22.9545 21.821ZM23.0309 26.1953L30.0298 26.0732L30.0604 27.8229L23.0614 27.9451L23.0309 26.1953ZM23.1073 30.5697L26.6067 30.5086L26.6373 32.2583L23.1378 32.3194L23.1073 30.5697Z" fill="white"/>
<path d="M17.0589 35.051L16.7382 16.6788L19.3628 16.6329L19.4086 19.2575L29.907 19.0743L29.8612 16.4497L32.4858 16.4039L32.6538 26.0274L34.4035 25.9969L34.2355 16.3733C34.2274 15.9093 34.0353 15.4674 33.7015 15.145C33.3676 14.8226 32.9193 14.646 32.4553 14.6541L29.8307 14.7L29.8154 13.8251C29.8073 13.361 29.6152 12.9192 29.2813 12.5968C28.9474 12.2744 28.4992 12.0978 28.0351 12.1059L21.0362 12.2281C20.5721 12.2362 20.1303 12.4283 19.8079 12.7621C19.4855 13.096 19.3089 13.5443 19.317 14.0083L19.3323 14.8832L16.7077 14.929C16.2436 14.9371 15.8018 15.1292 15.4794 15.4631C15.1569 15.797 14.9804 16.2452 14.9885 16.7093L15.3092 35.0815C15.3173 35.5456 15.5094 35.9874 15.8432 36.3098C16.1771 36.6322 16.6254 36.8088 17.0894 36.8007L26.713 36.6327L26.6824 34.883L17.0589 35.051ZM21.0667 13.9778L28.0657 13.8556L28.1267 17.3551L21.1278 17.4773L21.0667 13.9778Z" fill="white"/>
</svg>
