<svg width="745" height="720" viewBox="0 0 745 720" fill="none" xmlns="http://www.w3.org/2000/svg">
<g opacity="0.8">
<mask id="mask0_2058_18824" style="mask-type:alpha" maskUnits="userSpaceOnUse" x="-87" y="-36" width="827" height="842">
<path d="M26.2119 -14.0446V27.5443L-11.0771 48.3558L-48.3652 27.5443V-14.0446L-11.0771 -34.8561L26.2119 -14.0446Z" stroke="#FF0000" stroke-width="1.13185"/>
<path d="M101.229 -14.0447V27.5442L63.9404 48.3557L26.6523 27.5442V-14.0447L63.9404 -34.8562L101.229 -14.0447Z" stroke="#FF0000" stroke-width="1.13185"/>
<path d="M176.246 -14.0447V27.5442L138.957 48.3557L101.669 27.5442V-14.0447L138.957 -34.8562L176.246 -14.0447Z" stroke="#FF0000" stroke-width="1.13185"/>
<path d="M251.263 -14.0447V27.5442L213.974 48.3557L176.686 27.5442V-14.0447L213.974 -34.8562L251.263 -14.0447Z" stroke="#FF0000" stroke-width="1.13185"/>
<path d="M326.28 -14.0447V27.5442L288.991 48.3557L251.703 27.5442V-14.0447L288.991 -34.8562L326.28 -14.0447Z" stroke="#FF0000" stroke-width="1.13185"/>
<path d="M401.297 -14.0447V27.5442L364.008 48.3557L326.72 27.5442V-14.0447L364.008 -34.8562L401.297 -14.0447Z" stroke="#FF0000" stroke-width="1.13185"/>
<path d="M476.313 -14.0447V27.5442L439.024 48.3557L401.736 27.5442V-14.0447L439.024 -34.8562L476.313 -14.0447Z" stroke="#FF0000" stroke-width="1.13185"/>
<path d="M551.331 -14.0447V27.5442L514.042 48.3557L476.754 27.5442V-14.0447L514.042 -34.8562L551.331 -14.0447Z" stroke="#FF0000" stroke-width="1.13185"/>
<path d="M626.347 -14.0447V27.5442L589.058 48.3557L551.77 27.5442V-14.0447L589.058 -34.8562L626.347 -14.0447Z" stroke="#FF0000" stroke-width="1.13185"/>
<path d="M701.364 -14.0447V27.5442L664.075 48.3557L626.787 27.5442V-14.0447L664.075 -34.8562L701.364 -14.0447Z" stroke="#FF0000" stroke-width="1.13185"/>
<path d="M26.2119 406.523V448.111L-11.0771 468.923L-48.3652 448.111V406.523L-11.0771 385.711L26.2119 406.523Z" stroke="#FF0000" stroke-width="1.13185"/>
<path d="M101.229 406.523V448.111L63.9404 468.923L26.6523 448.111V406.523L63.9404 385.711L101.229 406.523Z" stroke="#FF0000" stroke-width="1.13185"/>
<path d="M176.246 406.523V448.111L138.957 468.923L101.669 448.111V406.523L138.957 385.711L176.246 406.523Z" stroke="#FF0000" stroke-width="1.13185"/>
<path d="M251.263 406.523V448.111L213.974 468.923L176.686 448.111V406.523L213.974 385.711L251.263 406.523Z" stroke="#FF0000" stroke-width="1.13185"/>
<path d="M326.28 406.523V448.111L288.991 468.923L251.703 448.111V406.523L288.991 385.711L326.28 406.523Z" stroke="#FF0000" stroke-width="1.13185"/>
<path d="M401.297 406.523V448.111L364.008 468.923L326.72 448.111V406.523L364.008 385.711L401.297 406.523Z" stroke="#FF0000" stroke-width="1.13185"/>
<path d="M476.313 406.523V448.111L439.024 468.923L401.736 448.111V406.523L439.024 385.711L476.313 406.523Z" stroke="#FF0000" stroke-width="1.13185"/>
<path d="M551.331 406.523V448.111L514.042 468.923L476.754 448.111V406.523L514.042 385.711L551.331 406.523Z" stroke="#FF0000" stroke-width="1.13185"/>
<path d="M626.347 406.523V448.111L589.058 468.923L551.77 448.111V406.523L589.058 385.711L626.347 406.523Z" stroke="#FF0000" stroke-width="1.13185"/>
<path d="M701.364 406.523V448.111L664.075 468.923L626.787 448.111V406.523L664.075 385.711L701.364 406.523Z" stroke="#FF0000" stroke-width="1.13185"/>
<path d="M26.2119 196.239V237.828L-11.0771 258.639L-48.3652 237.828V196.239L-11.0771 175.427L26.2119 196.239Z" stroke="#FF0000" stroke-width="1.13185"/>
<path d="M101.229 196.239V237.828L63.9404 258.64L26.6523 237.828V196.239L63.9404 175.428L101.229 196.239Z" stroke="#FF0000" stroke-width="1.13185"/>
<path d="M176.246 196.239V237.828L138.957 258.64L101.669 237.828V196.239L138.957 175.428L176.246 196.239Z" stroke="#FF0000" stroke-width="1.13185"/>
<path d="M251.263 196.239V237.828L213.974 258.64L176.686 237.828V196.239L213.974 175.428L251.263 196.239Z" stroke="#FF0000" stroke-width="1.13185"/>
<path d="M326.28 196.239V237.828L288.991 258.64L251.703 237.828V196.239L288.991 175.428L326.28 196.239Z" stroke="#FF0000" stroke-width="1.13185"/>
<path d="M401.297 196.239V237.828L364.008 258.64L326.72 237.828V196.239L364.008 175.428L401.297 196.239Z" stroke="#FF0000" stroke-width="1.13185"/>
<path d="M476.313 196.239V237.828L439.024 258.64L401.736 237.828V196.239L439.024 175.428L476.313 196.239Z" stroke="#FF0000" stroke-width="1.13185"/>
<path d="M551.331 196.239V237.828L514.042 258.64L476.754 237.828V196.239L514.042 175.428L551.331 196.239Z" stroke="#FF0000" stroke-width="1.13185"/>
<path d="M626.347 196.239V237.828L589.058 258.64L551.77 237.828V196.239L589.058 175.428L626.347 196.239Z" stroke="#FF0000" stroke-width="1.13185"/>
<path d="M701.364 196.239V237.828L664.075 258.64L626.787 237.828V196.239L664.075 175.428L701.364 196.239Z" stroke="#FF0000" stroke-width="1.13185"/>
<path d="M26.2119 616.806V658.395L-11.0771 679.207L-48.3652 658.395V616.806L-11.0771 595.995L26.2119 616.806Z" stroke="#FF0000" stroke-width="1.13185"/>
<path d="M101.229 616.806V658.395L63.9404 679.207L26.6523 658.395V616.806L63.9404 595.995L101.229 616.806Z" stroke="#FF0000" stroke-width="1.13185"/>
<path d="M176.246 616.806V658.395L138.957 679.207L101.669 658.395V616.806L138.957 595.995L176.246 616.806Z" stroke="#FF0000" stroke-width="1.13185"/>
<path d="M251.263 616.806V658.395L213.974 679.207L176.686 658.395V616.806L213.974 595.995L251.263 616.806Z" stroke="#FF0000" stroke-width="1.13185"/>
<path d="M326.28 616.806V658.395L288.991 679.207L251.703 658.395V616.806L288.991 595.995L326.28 616.806Z" stroke="#FF0000" stroke-width="1.13185"/>
<path d="M401.297 616.806V658.395L364.008 679.207L326.72 658.395V616.806L364.008 595.995L401.297 616.806Z" stroke="#FF0000" stroke-width="1.13185"/>
<path d="M476.313 616.806V658.395L439.024 679.207L401.736 658.395V616.806L439.024 595.995L476.313 616.806Z" stroke="#FF0000" stroke-width="1.13185"/>
<path d="M551.331 616.806V658.395L514.042 679.207L476.754 658.395V616.806L514.042 595.995L551.331 616.806Z" stroke="#FF0000" stroke-width="1.13185"/>
<path d="M626.347 616.806V658.395L589.058 679.207L551.77 658.395V616.806L589.058 595.995L626.347 616.806Z" stroke="#FF0000" stroke-width="1.13185"/>
<path d="M701.364 616.806V658.395L664.075 679.207L626.787 658.395V616.806L664.075 595.995L701.364 616.806Z" stroke="#FF0000" stroke-width="1.13185"/>
<path d="M64.0156 91.0972V132.686L26.7266 153.498L-10.5615 132.686V91.0972L26.7266 70.2857L64.0156 91.0972Z" stroke="#FF0000" stroke-width="1.13185"/>
<path d="M139.032 91.0972V132.686L101.743 153.498L64.4551 132.686V91.0972L101.743 70.2857L139.032 91.0972Z" stroke="#FF0000" stroke-width="1.13185"/>
<path d="M214.05 91.0972V132.686L176.761 153.498L139.473 132.686V91.0972L176.761 70.2857L214.05 91.0972Z" stroke="#FF0000" stroke-width="1.13185"/>
<path d="M289.066 91.0972V132.686L251.777 153.498L214.489 132.686V91.0972L251.777 70.2857L289.066 91.0972Z" stroke="#FF0000" stroke-width="1.13185"/>
<path d="M364.084 91.0972V132.686L326.795 153.498L289.507 132.686V91.0972L326.795 70.2857L364.084 91.0972Z" stroke="#FF0000" stroke-width="1.13185"/>
<path d="M439.101 91.0972V132.686L401.812 153.498L364.523 132.686V91.0972L401.812 70.2857L439.101 91.0972Z" stroke="#FF0000" stroke-width="1.13185"/>
<path d="M514.117 91.0972V132.686L476.828 153.498L439.54 132.686V91.0972L476.828 70.2857L514.117 91.0972Z" stroke="#FF0000" stroke-width="1.13185"/>
<path d="M589.134 91.0972V132.686L551.845 153.498L514.557 132.686V91.0972L551.845 70.2857L589.134 91.0972Z" stroke="#FF0000" stroke-width="1.13185"/>
<path d="M664.151 91.0972V132.686L626.862 153.498L589.574 132.686V91.0972L626.862 70.2857L664.151 91.0972Z" stroke="#FF0000" stroke-width="1.13185"/>
<path d="M64.0156 511.665V553.254L26.7266 574.065L-10.5615 553.254V511.665L26.7266 490.853L64.0156 511.665Z" stroke="#FF0000" stroke-width="1.13185"/>
<path d="M139.032 511.665V553.254L101.743 574.065L64.4551 553.254V511.665L101.743 490.853L139.032 511.665Z" stroke="#FF0000" stroke-width="1.13185"/>
<path d="M214.05 511.665V553.254L176.761 574.065L139.473 553.254V511.665L176.761 490.853L214.05 511.665Z" stroke="#FF0000" stroke-width="1.13185"/>
<path d="M289.066 511.665V553.254L251.777 574.065L214.489 553.254V511.665L251.777 490.853L289.066 511.665Z" stroke="#FF0000" stroke-width="1.13185"/>
<path d="M364.084 511.665V553.254L326.795 574.065L289.507 553.254V511.665L326.795 490.853L364.084 511.665Z" stroke="#FF0000" stroke-width="1.13185"/>
<path d="M439.101 511.665V553.254L401.812 574.065L364.523 553.254V511.665L401.812 490.853L439.101 511.665Z" stroke="#FF0000" stroke-width="1.13185"/>
<path d="M514.117 511.665V553.254L476.828 574.065L439.54 553.254V511.665L476.828 490.853L514.117 511.665Z" stroke="#FF0000" stroke-width="1.13185"/>
<path d="M589.134 511.665V553.254L551.845 574.065L514.557 553.254V511.665L551.845 490.853L589.134 511.665Z" stroke="#FF0000" stroke-width="1.13185"/>
<path d="M664.151 511.665V553.254L626.862 574.065L589.574 553.254V511.665L626.862 490.853L664.151 511.665Z" stroke="#FF0000" stroke-width="1.13185"/>
<path d="M64.0156 301.381V342.97L26.7266 363.781L-10.5615 342.97V301.381L26.7266 280.569L64.0156 301.381Z" stroke="#FF0000" stroke-width="1.13185"/>
<path d="M139.032 301.381V342.97L101.743 363.781L64.4551 342.97V301.381L101.743 280.569L139.032 301.381Z" stroke="#FF0000" stroke-width="1.13185"/>
<path d="M214.05 301.381V342.97L176.761 363.781L139.473 342.97V301.381L176.761 280.569L214.05 301.381Z" stroke="#FF0000" stroke-width="1.13185"/>
<path d="M289.066 301.381V342.97L251.777 363.781L214.489 342.97V301.381L251.777 280.569L289.066 301.381Z" stroke="#FF0000" stroke-width="1.13185"/>
<path d="M364.084 301.381V342.97L326.795 363.781L289.507 342.97V301.381L326.795 280.569L364.084 301.381Z" stroke="#FF0000" stroke-width="1.13185"/>
<path d="M439.101 301.381V342.97L401.812 363.781L364.523 342.97V301.381L401.812 280.569L439.101 301.381Z" stroke="#FF0000" stroke-width="1.13185"/>
<path d="M514.117 301.381V342.97L476.828 363.781L439.54 342.97V301.381L476.828 280.569L514.117 301.381Z" stroke="#FF0000" stroke-width="1.13185"/>
<path d="M589.134 301.381V342.97L551.845 363.781L514.557 342.97V301.381L551.845 280.569L589.134 301.381Z" stroke="#FF0000" stroke-width="1.13185"/>
<path d="M664.151 301.381V342.97L626.862 363.781L589.574 342.97V301.381L626.862 280.569L664.151 301.381Z" stroke="#FF0000" stroke-width="1.13185"/>
<path d="M64.0156 721.948V763.537L26.7266 784.349L-10.5615 763.537V721.948L26.7266 701.137L64.0156 721.948Z" stroke="#FF0000" stroke-width="1.13185"/>
<path d="M139.032 721.948V763.537L101.743 784.349L64.4551 763.537V721.948L101.743 701.137L139.032 721.948Z" stroke="#FF0000" stroke-width="1.13185"/>
<path d="M214.05 721.948V763.537L176.761 784.349L139.473 763.537V721.948L176.761 701.137L214.05 721.948Z" stroke="#FF0000" stroke-width="1.13185"/>
<path d="M289.066 721.948V763.537L251.777 784.349L214.489 763.537V721.948L251.777 701.137L289.066 721.948Z" stroke="#FF0000" stroke-width="1.13185"/>
<path d="M364.084 721.948V763.537L326.795 784.349L289.507 763.537V721.948L326.795 701.137L364.084 721.948Z" stroke="#FF0000" stroke-width="1.13185"/>
<path d="M439.101 721.948V763.537L401.812 784.349L364.523 763.537V721.948L401.812 701.137L439.101 721.948Z" stroke="#FF0000" stroke-width="1.13185"/>
<path d="M514.117 721.948V763.537L476.828 784.349L439.54 763.537V721.948L476.828 701.137L514.117 721.948Z" stroke="#FF0000" stroke-width="1.13185"/>
<path d="M589.134 721.948V763.537L551.845 784.349L514.557 763.537V721.948L551.845 701.137L589.134 721.948Z" stroke="#FF0000" stroke-width="1.13185"/>
<path d="M664.151 721.948V763.537L626.862 784.349L589.574 763.537V721.948L626.862 701.137L664.151 721.948Z" stroke="#FF0000" stroke-width="1.13185"/>
<path d="M63.4248 6.62932V48.2182L26.1357 69.0297L-11.1523 48.2182V6.62932L26.1357 -14.1822L63.4248 6.62932Z" stroke="#FF0000" stroke-width="1.13185"/>
<path d="M138.441 6.62946V48.2183L101.152 69.0298L63.8643 48.2183V6.62946L101.152 -14.1821L138.441 6.62946Z" stroke="#FF0000" stroke-width="1.13185"/>
<path d="M213.459 6.62946V48.2183L176.17 69.0298L138.882 48.2183V6.62946L176.17 -14.1821L213.459 6.62946Z" stroke="#FF0000" stroke-width="1.13185"/>
<path d="M288.476 6.62946V48.2183L251.187 69.0298L213.898 48.2183V6.62946L251.187 -14.1821L288.476 6.62946Z" stroke="#FF0000" stroke-width="1.13185"/>
<path d="M363.492 6.62946V48.2183L326.203 69.0298L288.915 48.2183V6.62946L326.203 -14.1821L363.492 6.62946Z" stroke="#FF0000" stroke-width="1.13185"/>
<path d="M438.51 6.62946V48.2183L401.221 69.0298L363.933 48.2183V6.62946L401.221 -14.1821L438.51 6.62946Z" stroke="#FF0000" stroke-width="1.13185"/>
<path d="M513.527 6.62946V48.2183L476.238 69.0298L438.95 48.2183V6.62946L476.238 -14.1821L513.527 6.62946Z" stroke="#FF0000" stroke-width="1.13185"/>
<path d="M588.544 6.62946V48.2183L551.255 69.0298L513.967 48.2183V6.62946L551.255 -14.1821L588.544 6.62946Z" stroke="#FF0000" stroke-width="1.13185"/>
<path d="M663.56 6.62946V48.2183L626.271 69.0298L588.982 48.2183V6.62946L626.271 -14.1821L663.56 6.62946Z" stroke="#FF0000" stroke-width="1.13185"/>
<path d="M738.577 6.62946V48.2183L701.288 69.0298L664 48.2183V6.62946L701.288 -14.1821L738.577 6.62946Z" stroke="#FF0000" stroke-width="1.13185"/>
<path d="M63.4248 427.197V468.786L26.1357 489.597L-11.1523 468.786V427.197L26.1357 406.385L63.4248 427.197Z" stroke="#FF0000" stroke-width="1.13185"/>
<path d="M138.441 427.197V468.786L101.152 489.597L63.8643 468.786V427.197L101.152 406.385L138.441 427.197Z" stroke="#FF0000" stroke-width="1.13185"/>
<path d="M213.459 427.197V468.786L176.17 489.597L138.882 468.786V427.197L176.17 406.385L213.459 427.197Z" stroke="#FF0000" stroke-width="1.13185"/>
<path d="M288.476 427.197V468.786L251.187 489.597L213.898 468.786V427.197L251.187 406.385L288.476 427.197Z" stroke="#FF0000" stroke-width="1.13185"/>
<path d="M363.492 427.197V468.786L326.203 489.597L288.915 468.786V427.197L326.203 406.385L363.492 427.197Z" stroke="#FF0000" stroke-width="1.13185"/>
<path d="M438.51 427.197V468.786L401.221 489.597L363.933 468.786V427.197L401.221 406.385L438.51 427.197Z" stroke="#FF0000" stroke-width="1.13185"/>
<path d="M513.527 427.197V468.786L476.238 489.597L438.95 468.786V427.197L476.238 406.385L513.527 427.197Z" stroke="#FF0000" stroke-width="1.13185"/>
<path d="M588.544 427.197V468.786L551.255 489.597L513.967 468.786V427.197L551.255 406.385L588.544 427.197Z" stroke="#FF0000" stroke-width="1.13185"/>
<path d="M663.56 427.197V468.786L626.271 489.597L588.982 468.786V427.197L626.271 406.385L663.56 427.197Z" stroke="#FF0000" stroke-width="1.13185"/>
<path d="M738.577 427.197V468.786L701.288 489.597L664 468.786V427.197L701.288 406.385L738.577 427.197Z" stroke="#FF0000" stroke-width="1.13185"/>
<path d="M63.4248 216.913V258.502L26.1357 279.313L-11.1523 258.502V216.913L26.1357 196.101L63.4248 216.913Z" stroke="#FF0000" stroke-width="1.13185"/>
<path d="M138.441 216.913V258.502L101.152 279.313L63.8643 258.502V216.913L101.152 196.101L138.441 216.913Z" stroke="#FF0000" stroke-width="1.13185"/>
<path d="M213.459 216.913V258.502L176.17 279.313L138.882 258.502V216.913L176.17 196.101L213.459 216.913Z" stroke="#FF0000" stroke-width="1.13185"/>
<path d="M288.476 216.913V258.502L251.187 279.313L213.898 258.502V216.913L251.187 196.101L288.476 216.913Z" stroke="#FF0000" stroke-width="1.13185"/>
<path d="M363.492 216.913V258.502L326.203 279.313L288.915 258.502V216.913L326.203 196.101L363.492 216.913Z" stroke="#FF0000" stroke-width="1.13185"/>
<path d="M438.51 216.913V258.502L401.221 279.313L363.933 258.502V216.913L401.221 196.101L438.51 216.913Z" stroke="#FF0000" stroke-width="1.13185"/>
<path d="M513.527 216.913V258.502L476.238 279.313L438.95 258.502V216.913L476.238 196.101L513.527 216.913Z" stroke="#FF0000" stroke-width="1.13185"/>
<path d="M588.544 216.913V258.502L551.255 279.313L513.967 258.502V216.913L551.255 196.101L588.544 216.913Z" stroke="#FF0000" stroke-width="1.13185"/>
<path d="M663.56 216.913V258.502L626.271 279.313L588.982 258.502V216.913L626.271 196.101L663.56 216.913Z" stroke="#FF0000" stroke-width="1.13185"/>
<path d="M738.577 216.913V258.502L701.288 279.313L664 258.502V216.913L701.288 196.101L738.577 216.913Z" stroke="#FF0000" stroke-width="1.13185"/>
<path d="M63.4248 637.48V679.069L26.1357 699.881L-11.1523 679.069V637.48L26.1357 616.669L63.4248 637.48Z" stroke="#FF0000" stroke-width="1.13185"/>
<path d="M138.441 637.48V679.069L101.152 699.881L63.8643 679.069V637.48L101.152 616.669L138.441 637.48Z" stroke="#FF0000" stroke-width="1.13185"/>
<path d="M213.459 637.48V679.069L176.17 699.881L138.882 679.069V637.48L176.17 616.669L213.459 637.48Z" stroke="#FF0000" stroke-width="1.13185"/>
<path d="M288.476 637.48V679.069L251.187 699.881L213.898 679.069V637.48L251.187 616.669L288.476 637.48Z" stroke="#FF0000" stroke-width="1.13185"/>
<path d="M363.492 637.48V679.069L326.203 699.881L288.915 679.069V637.48L326.203 616.669L363.492 637.48Z" stroke="#FF0000" stroke-width="1.13185"/>
<path d="M438.51 637.48V679.069L401.221 699.881L363.933 679.069V637.48L401.221 616.669L438.51 637.48Z" stroke="#FF0000" stroke-width="1.13185"/>
<path d="M513.527 637.48V679.069L476.238 699.881L438.95 679.069V637.48L476.238 616.669L513.527 637.48Z" stroke="#FF0000" stroke-width="1.13185"/>
<path d="M588.544 637.48V679.069L551.255 699.881L513.967 679.069V637.48L551.255 616.669L588.544 637.48Z" stroke="#FF0000" stroke-width="1.13185"/>
<path d="M663.56 637.48V679.069L626.271 699.881L588.982 679.069V637.48L626.271 616.669L663.56 637.48Z" stroke="#FF0000" stroke-width="1.13185"/>
<path d="M738.577 637.48V679.069L701.288 699.881L664 679.069V637.48L701.288 616.669L738.577 637.48Z" stroke="#FF0000" stroke-width="1.13185"/>
<path d="M26.2119 111.771V153.36L-11.0771 174.172L-48.3652 153.36V111.771L-11.0771 90.9597L26.2119 111.771Z" stroke="#FF0000" stroke-width="1.13185"/>
<path d="M101.229 111.771V153.36L63.9404 174.172L26.6523 153.36V111.771L63.9404 90.9597L101.229 111.771Z" stroke="#FF0000" stroke-width="1.13185"/>
<path d="M176.246 111.771V153.36L138.957 174.172L101.669 153.36V111.771L138.957 90.9597L176.246 111.771Z" stroke="#FF0000" stroke-width="1.13185"/>
<path d="M251.263 111.771V153.36L213.974 174.172L176.686 153.36V111.771L213.974 90.9597L251.263 111.771Z" stroke="#FF0000" stroke-width="1.13185"/>
<path d="M326.28 111.771V153.36L288.991 174.172L251.703 153.36V111.771L288.991 90.9597L326.28 111.771Z" stroke="#FF0000" stroke-width="1.13185"/>
<path d="M401.297 111.771V153.36L364.008 174.172L326.72 153.36V111.771L364.008 90.9597L401.297 111.771Z" stroke="#FF0000" stroke-width="1.13185"/>
<path d="M476.313 111.771V153.36L439.024 174.172L401.736 153.36V111.771L439.024 90.9597L476.313 111.771Z" stroke="#FF0000" stroke-width="1.13185"/>
<path d="M551.331 111.771V153.36L514.042 174.172L476.754 153.36V111.771L514.042 90.9597L551.331 111.771Z" stroke="#FF0000" stroke-width="1.13185"/>
<path d="M626.347 111.771V153.36L589.058 174.172L551.77 153.36V111.771L589.058 90.9597L626.347 111.771Z" stroke="#FF0000" stroke-width="1.13185"/>
<path d="M701.364 111.771V153.36L664.075 174.172L626.787 153.36V111.771L664.075 90.9597L701.364 111.771Z" stroke="#FF0000" stroke-width="1.13185"/>
<path d="M26.2119 532.338V573.927L-11.0771 594.739L-48.3652 573.927V532.338L-11.0771 511.527L26.2119 532.338Z" stroke="#FF0000" stroke-width="1.13185"/>
<path d="M101.229 532.338V573.927L63.9404 594.739L26.6523 573.927V532.338L63.9404 511.527L101.229 532.338Z" stroke="#FF0000" stroke-width="1.13185"/>
<path d="M176.246 532.338V573.927L138.957 594.739L101.669 573.927V532.338L138.957 511.527L176.246 532.338Z" stroke="#FF0000" stroke-width="1.13185"/>
<path d="M251.263 532.338V573.927L213.974 594.739L176.686 573.927V532.338L213.974 511.527L251.263 532.338Z" stroke="#FF0000" stroke-width="1.13185"/>
<path d="M326.28 532.338V573.927L288.991 594.739L251.703 573.927V532.338L288.991 511.527L326.28 532.338Z" stroke="#FF0000" stroke-width="1.13185"/>
<path d="M401.297 532.338V573.927L364.008 594.739L326.72 573.927V532.338L364.008 511.527L401.297 532.338Z" stroke="#FF0000" stroke-width="1.13185"/>
<path d="M476.313 532.338V573.927L439.024 594.739L401.736 573.927V532.338L439.024 511.527L476.313 532.338Z" stroke="#FF0000" stroke-width="1.13185"/>
<path d="M551.331 532.338V573.927L514.042 594.739L476.754 573.927V532.338L514.042 511.527L551.331 532.338Z" stroke="#FF0000" stroke-width="1.13185"/>
<path d="M626.347 532.338V573.927L589.058 594.739L551.77 573.927V532.338L589.058 511.527L626.347 532.338Z" stroke="#FF0000" stroke-width="1.13185"/>
<path d="M701.364 532.338V573.927L664.075 594.739L626.787 573.927V532.338L664.075 511.527L701.364 532.338Z" stroke="#FF0000" stroke-width="1.13185"/>
<path d="M26.2119 322.055V363.644L-11.0771 384.455L-48.3652 363.644V322.055L-11.0771 301.243L26.2119 322.055Z" stroke="#FF0000" stroke-width="1.13185"/>
<path d="M101.229 322.055V363.644L63.9404 384.455L26.6523 363.644V322.055L63.9404 301.243L101.229 322.055Z" stroke="#FF0000" stroke-width="1.13185"/>
<path d="M176.246 322.055V363.644L138.957 384.455L101.669 363.644V322.055L138.957 301.243L176.246 322.055Z" stroke="#FF0000" stroke-width="1.13185"/>
<path d="M251.263 322.055V363.644L213.974 384.455L176.686 363.644V322.055L213.974 301.243L251.263 322.055Z" stroke="#FF0000" stroke-width="1.13185"/>
<path d="M326.28 322.055V363.644L288.991 384.455L251.703 363.644V322.055L288.991 301.243L326.28 322.055Z" stroke="#FF0000" stroke-width="1.13185"/>
<path d="M401.297 322.055V363.644L364.008 384.455L326.72 363.644V322.055L364.008 301.243L401.297 322.055Z" stroke="#FF0000" stroke-width="1.13185"/>
<path d="M476.313 322.055V363.644L439.024 384.455L401.736 363.644V322.055L439.024 301.243L476.313 322.055Z" stroke="#FF0000" stroke-width="1.13185"/>
<path d="M551.331 322.055V363.644L514.042 384.455L476.754 363.644V322.055L514.042 301.243L551.331 322.055Z" stroke="#FF0000" stroke-width="1.13185"/>
<path d="M626.347 322.055V363.644L589.058 384.455L551.77 363.644V322.055L589.058 301.243L626.347 322.055Z" stroke="#FF0000" stroke-width="1.13185"/>
<path d="M701.364 322.055V363.644L664.075 384.455L626.787 363.644V322.055L664.075 301.243L701.364 322.055Z" stroke="#FF0000" stroke-width="1.13185"/>
</mask>
<g mask="url(#mask0_2058_18824)">
<circle opacity="0.2" cx="329.613" cy="389.504" r="378.036" fill="url(#paint0_radial_2058_18824)"/>
</g>
</g>
<defs>
<radialGradient id="paint0_radial_2058_18824" cx="0" cy="0" r="1" gradientUnits="userSpaceOnUse" gradientTransform="translate(329.613 389.504) rotate(90) scale(378.036)">
<stop stop-color="#737373"/>
<stop offset="1" stop-color="#D9D9D9" stop-opacity="0"/>
</radialGradient>
</defs>
</svg>
