<svg width="48" height="48" viewBox="0 0 48 48" fill="none" xmlns="http://www.w3.org/2000/svg">
<rect width="48" height="48" rx="24" fill="#4BED7B"/>
<rect x="0.5" y="0.5" width="47" height="47" rx="23.5" stroke="white" stroke-opacity="0.07"/>
<g clip-path="url(#clip0_2058_19045)">
<g clip-path="url(#clip1_2058_19045)">
<g clip-path="url(#clip2_2058_19045)">
<path fill-rule="evenodd" clip-rule="evenodd" d="M31.688 12.6499C31.6514 12.5025 31.5764 12.3675 31.4705 12.2587C31.3646 12.1498 31.2318 12.071 31.0854 12.0304C30.9391 11.9898 30.7847 11.9887 30.6378 12.0274C30.491 12.0661 30.357 12.143 30.2497 12.2505L26.8212 15.679C26.7166 15.7838 26.641 15.9139 26.6016 16.0566C26.5622 16.1993 26.5605 16.3498 26.5966 16.4933L27.2137 18.9688L27.1897 18.9928L23.0909 23.0916C22.8638 23.3353 22.7401 23.6577 22.746 23.9908C22.7519 24.3239 22.8868 24.6417 23.1224 24.8772C23.3579 25.1128 23.6757 25.2477 24.0088 25.2536C24.3419 25.2595 24.6643 25.1359 24.908 24.9088L29.0103 20.8116L29.0343 20.7859L31.508 21.4048C31.6516 21.4408 31.802 21.4391 31.9447 21.3997C32.0874 21.3604 32.2175 21.2847 32.3223 21.1802L35.7509 17.7516C35.8587 17.6443 35.9361 17.5103 35.975 17.3632C36.014 17.2161 36.013 17.0614 35.9724 16.9148C35.9317 16.7682 35.8528 16.635 35.7436 16.529C35.6345 16.423 35.4992 16.348 35.3514 16.3116L32.4217 15.5813L31.688 12.6499ZM24.5429 13.3013C24.5664 13.6414 24.454 13.9769 24.2302 14.2341C24.0065 14.4912 23.6898 14.649 23.3497 14.6728C21.5586 14.7969 19.8408 15.4326 18.4004 16.5043C16.96 17.5761 15.8575 19.0388 15.224 20.7187C14.5905 22.3986 14.4526 24.2251 14.8266 25.981C15.2007 27.737 16.071 29.3487 17.3341 30.6246C18.5972 31.9005 20.2001 32.787 21.9522 33.1787C23.7043 33.5704 25.5321 33.4509 27.2183 32.8343C28.9045 32.2177 30.3782 31.1301 31.4644 29.7005C32.5506 28.271 33.2036 26.5596 33.3457 24.7699C33.3728 24.4298 33.5338 24.1144 33.7934 23.8931C34.053 23.6717 34.3899 23.5626 34.73 23.5896C35.0701 23.6167 35.3855 23.7777 35.6068 24.0373C35.8282 24.2969 35.9373 24.6338 35.9103 24.9739C35.7289 27.2543 34.8967 29.4346 33.5125 31.256C32.1284 33.0773 30.2505 34.463 28.102 35.2485C25.9535 36.0339 23.6247 36.1861 21.3923 35.687C19.1598 35.1879 17.1175 34.0584 15.5081 32.4327C13.8987 30.807 12.7898 28.7535 12.3131 26.5162C11.8364 24.2788 12.012 21.9517 12.819 19.8111C13.626 17.6706 15.0305 15.8068 16.8656 14.441C18.7007 13.0752 20.8894 12.265 23.1714 12.1065C23.5115 12.0829 23.847 12.1954 24.1042 12.4191C24.3613 12.6429 24.5191 12.9613 24.5429 13.3013ZM23.3909 18.9568C23.4525 19.114 23.4825 19.2818 23.4792 19.4507C23.4759 19.6195 23.4394 19.7861 23.3718 19.9408C23.3041 20.0956 23.2066 20.2355 23.0849 20.3525C22.9632 20.4696 22.8196 20.5615 22.6623 20.623C22.1001 20.8436 21.6017 21.2007 21.2122 21.6622C20.8226 22.1237 20.5543 22.675 20.4313 23.2663C20.3083 23.8576 20.3346 24.4702 20.5078 25.0487C20.681 25.6272 20.9957 26.1535 21.4233 26.5799C21.851 27.0063 22.3782 27.3194 22.9572 27.491C23.5363 27.6625 24.1489 27.687 24.7398 27.5623C25.3307 27.4376 25.8812 27.1676 26.3416 26.7768C26.802 26.3859 27.1577 25.8865 27.3766 25.3236C27.4378 25.1662 27.5294 25.0225 27.6462 24.9005C27.763 24.7786 27.9027 24.6808 28.0573 24.6129C28.2118 24.5449 28.3783 24.508 28.5471 24.5044C28.7159 24.5007 28.8838 24.5304 29.0412 24.5916C29.1985 24.6528 29.3423 24.7445 29.4642 24.8613C29.5862 24.9781 29.6839 25.1177 29.7519 25.2723C29.8199 25.4269 29.8567 25.5933 29.8604 25.7621C29.864 25.9309 29.8344 26.0988 29.7732 26.2562C29.3993 27.2174 28.7917 28.0702 28.0055 28.7376C27.2192 29.405 26.279 29.8659 25.2699 30.0787C24.2607 30.2914 23.2145 30.2493 22.2257 29.9562C21.2369 29.6631 20.3367 29.1281 19.6066 28.3997C18.8765 27.6713 18.3395 26.7724 18.044 25.7843C17.7485 24.7962 17.704 23.7501 17.9144 22.7404C18.1248 21.7308 18.5835 20.7895 19.249 20.0017C19.9146 19.2139 20.766 18.6043 21.7263 18.2282C22.0437 18.1043 22.3972 18.1115 22.7093 18.2481C23.0214 18.3847 23.2666 18.6396 23.3909 18.9568Z" fill="black"/>
</g>
</g>
</g>
<defs>
<clipPath id="clip0_2058_19045">
<rect width="24" height="24" fill="white" transform="translate(12 12)"/>
</clipPath>
<clipPath id="clip1_2058_19045">
<rect width="24" height="24" fill="white" transform="translate(12 12)"/>
</clipPath>
<clipPath id="clip2_2058_19045">
<rect width="24" height="24" fill="white" transform="translate(12 12)"/>
</clipPath>
</defs>
</svg>
