<svg width="49" height="49" viewBox="0 0 49 49" fill="none" xmlns="http://www.w3.org/2000/svg">
<rect y="0.837769" width="48" height="48" rx="24" transform="rotate(-1 0 0.837769)" fill="black"/>
<rect x="0.50865" y="1.32897" width="47" height="47" rx="23.5" transform="rotate(-1 0.50865 1.32897)" stroke="white" stroke-opacity="0.07"/>
<path d="M24.4154 20.0819C23.2237 20.0819 22.2036 20.5062 21.3549 21.3548C20.5063 22.2034 20.082 23.2236 20.082 24.4152C20.082 25.2277 20.2853 25.977 20.6919 26.6632C21.0986 27.3493 21.6626 27.8819 22.3841 28.2611C22.673 28.4055 22.8763 28.6175 22.994 28.897C23.1118 29.1765 23.1071 29.461 22.9799 29.7507C22.8536 30.0034 22.664 30.193 22.4112 30.3194C22.1584 30.4458 21.9056 30.4458 21.6529 30.3194C20.5154 29.7777 19.6083 28.9743 18.9315 27.909C18.2548 26.8437 17.9161 25.6791 17.9154 24.4152C17.9154 22.6097 18.5473 21.075 19.8112 19.8111C21.0751 18.5472 22.6098 17.9152 24.4154 17.9152C25.6973 17.9152 26.8756 18.254 27.9503 18.9314C29.0249 19.6089 29.8237 20.534 30.3466 21.7069C30.4549 21.9597 30.4506 22.2125 30.3336 22.4652C30.2166 22.718 30.0314 22.8986 29.7779 23.0069C29.489 23.1333 29.2001 23.1333 28.9112 23.0069C28.6223 22.8805 28.4056 22.6729 28.2612 22.384C27.882 21.6618 27.3494 21.0977 26.6633 20.6918C25.9772 20.2859 25.2279 20.0826 24.4154 20.0819ZM24.4154 15.7486C21.9959 15.7486 19.9466 16.5882 18.2674 18.2673C16.5883 19.9465 15.7487 21.9958 15.7487 24.4152C15.7487 26.6902 16.498 28.6402 17.9966 30.2652C19.4952 31.8902 21.373 32.8111 23.6299 33.0277C23.9369 33.0639 24.203 33.1993 24.4284 33.434C24.6537 33.6687 24.7577 33.9395 24.7404 34.2465C24.723 34.5534 24.61 34.8062 24.4013 35.0048C24.1926 35.2034 23.9354 35.2937 23.6299 35.2757C22.2216 35.1854 20.9079 34.8333 19.6888 34.2194C18.4697 33.6055 17.4044 32.8064 16.4929 31.822C15.5815 30.8376 14.8683 29.7091 14.3534 28.4366C13.8384 27.164 13.5813 25.8236 13.582 24.4152C13.582 22.9166 13.8666 21.5083 14.4357 20.1902C15.0048 18.8722 15.7765 17.7257 16.7508 16.7507C17.7251 15.7757 18.8716 15.004 20.1904 14.4356C21.5091 13.8672 22.9175 13.5826 24.4154 13.5819C27.2501 13.5819 29.7194 14.5479 31.8232 16.4798C33.927 18.4118 35.0779 20.7951 35.2758 23.6298C35.3119 23.9187 35.2263 24.1672 35.019 24.3752C34.8118 24.5832 34.5543 24.6958 34.2466 24.7132C33.9389 24.7305 33.6638 24.6312 33.4211 24.4152C33.1784 24.1993 33.0383 23.9375 33.0008 23.6298C32.7299 21.4632 31.7867 19.6081 30.1711 18.0647C28.5555 16.5214 26.6369 15.7493 24.4154 15.7486ZM32.5945 34.7069L29.0195 31.159L28.207 33.6236C28.1168 33.8764 27.9452 33.9984 27.6924 33.9897C27.4397 33.9811 27.2681 33.85 27.1779 33.5965L24.7133 25.3902C24.6411 25.1916 24.6862 25.0111 24.8487 24.8486C25.0112 24.6861 25.1918 24.6409 25.3904 24.7132L33.5966 27.1777C33.8494 27.268 33.9805 27.4395 33.9899 27.6923C33.9993 27.9451 33.8772 28.1166 33.6237 28.2069L31.1591 29.0194L34.7341 32.5944C35.0411 32.9014 35.1945 33.2534 35.1945 33.6507C35.1945 34.0479 35.0411 34.4 34.7341 34.7069C34.4272 35.0139 34.0708 35.1673 33.6649 35.1673C33.259 35.1673 32.9022 35.0139 32.5945 34.7069Z" fill="white"/>
</svg>
