<svg width="49" height="49" viewBox="0 0 49 49" fill="none" xmlns="http://www.w3.org/2000/svg">
<rect y="0.837769" width="48" height="48" rx="24" transform="rotate(-1 0 0.837769)" fill="black"/>
<rect x="0.50865" y="1.32897" width="47" height="47" rx="23.5" transform="rotate(-1 0.50865 1.32897)" stroke="white" stroke-opacity="0.07"/>
<path d="M14.6317 24.7033L17.1584 24.7033C17.3386 24.7033 17.4889 24.7597 17.6094 24.8724C17.7298 24.9852 17.79 25.126 17.79 25.2948C17.79 25.4636 17.7298 25.6044 17.6094 25.7171C17.4889 25.8299 17.3386 25.8863 17.1584 25.8863L14.6317 25.8863C14.4523 25.8863 14.3019 25.8299 14.1807 25.7171C14.0594 25.6044 13.9992 25.4636 14 25.2948C14.0009 25.126 14.0611 24.9852 14.1807 24.8724C14.3003 24.7597 14.4506 24.7033 14.6317 24.7033ZM17.411 31.3188L19.1696 29.672C19.2934 29.5569 19.4387 29.4966 19.6055 29.491C19.7722 29.4855 19.9251 29.5459 20.0641 29.672C20.2039 29.803 20.2746 29.9438 20.2763 30.0944C20.278 30.245 20.2098 30.3858 20.0716 30.5167L18.3118 32.1635C18.1888 32.2787 18.0427 32.339 17.8734 32.3445C17.705 32.3493 17.5508 32.2866 17.411 32.1564C17.2763 32.0255 17.2081 31.8859 17.2064 31.7376C17.2047 31.5894 17.2729 31.4498 17.411 31.3188ZM19.1696 20.9175L17.411 19.2707C17.2881 19.1548 17.2236 19.0188 17.2177 18.8626C17.2127 18.7072 17.2771 18.5641 17.411 18.4331C17.5508 18.303 17.7012 18.2368 17.8621 18.2344C18.0229 18.232 18.1733 18.2959 18.3131 18.426L20.0716 20.074C20.1946 20.1892 20.259 20.326 20.2649 20.4845C20.2708 20.6431 20.2039 20.7874 20.0641 20.9175C19.9251 21.0437 19.776 21.108 19.6168 21.1104C19.4585 21.1119 19.3094 21.0477 19.1696 20.9175ZM32.2844 33.5903L27.2891 28.9125L26.6094 30.8918C26.5673 30.999 26.5004 31.0834 26.4086 31.1449C26.3176 31.2065 26.2165 31.2372 26.1054 31.2372C25.9942 31.2372 25.8978 31.2057 25.8161 31.1426C25.7318 31.0779 25.6687 30.9919 25.6266 30.8847L23.7379 25.0641C23.6957 24.9221 23.6928 24.7952 23.729 24.6832C23.7652 24.5712 23.836 24.4655 23.9413 24.3661C24.0465 24.2667 24.1594 24.2005 24.2798 24.1674C24.3994 24.1334 24.5355 24.1362 24.6879 24.1756L31.0627 25.9679C31.1773 26.0074 31.2674 26.0665 31.3331 26.1454C31.3988 26.2227 31.4316 26.313 31.4316 26.4163C31.4316 26.5196 31.4043 26.6103 31.3495 26.6884C31.2948 26.7665 31.2097 26.8253 31.0943 26.8647L28.9075 27.6065L33.6943 32.0878C33.8981 32.2787 34 32.5019 34 32.7574C34 33.013 33.8977 33.2358 33.693 33.4258L33.5187 33.5891C33.3469 33.75 33.1413 33.8304 32.9022 33.8304C32.663 33.8304 32.457 33.7512 32.2844 33.5903ZM24.2533 18.7881L24.2533 16.422C24.2533 16.254 24.3135 16.1132 24.434 15.9996C24.5544 15.8861 24.7047 15.8297 24.885 15.8305C25.0652 15.8312 25.2151 15.8876 25.3347 15.9996C25.456 16.1132 25.5166 16.254 25.5166 16.422L25.5166 18.7881C25.5166 18.9568 25.456 19.0976 25.3347 19.2104C25.2143 19.3232 25.0644 19.3796 24.885 19.3796C24.7047 19.3796 24.5544 19.3232 24.434 19.2104C24.3135 19.0976 24.2533 18.9568 24.2533 18.7881ZM29.6971 20.074L31.4632 18.4201C31.5811 18.3089 31.7251 18.2482 31.8953 18.2379C32.0654 18.2277 32.2195 18.288 32.3577 18.4189C32.4924 18.5451 32.5606 18.6836 32.5623 18.8342C32.5648 18.9856 32.4991 19.1264 32.3652 19.2565L30.5991 20.9175C30.4803 21.0327 30.3363 21.093 30.167 21.0985C29.9986 21.1041 29.8444 21.0437 29.7046 20.9175C29.5657 20.7874 29.4949 20.6466 29.4924 20.4952C29.4899 20.3438 29.5581 20.2034 29.6971 20.074Z" fill="white"/>
</svg>
