<svg width="49" height="49" viewBox="0 0 49 49" fill="none" xmlns="http://www.w3.org/2000/svg">
<rect y="0.837769" width="48" height="48" rx="24" transform="rotate(-1 0 0.837769)" fill="black"/>
<rect x="0.50865" y="1.32897" width="47" height="47" rx="23.5" transform="rotate(-1 0.50865 1.32897)" stroke="white" stroke-opacity="0.07"/>
<g clip-path="url(#clip0_2087_82696)">
<path fill-rule="evenodd" clip-rule="evenodd" d="M34.6711 18.1107L25.2016 25.9527C24.9325 26.1757 24.594 26.2977 24.2446 26.2977C23.8952 26.2977 23.5567 26.1757 23.2876 25.9527L13.8226 18.1107C13.7718 18.2636 13.746 18.4236 13.7461 18.5847V30.5847C13.7461 30.9825 13.9041 31.3641 14.1854 31.6454C14.4667 31.9267 14.8483 32.0847 15.2461 32.0847H33.2461C33.6439 32.0847 34.0254 31.9267 34.3068 31.6454C34.5881 31.3641 34.7461 30.9825 34.7461 30.5847V18.5847C34.7467 18.4237 34.7214 18.2637 34.6711 18.1107ZM15.2461 15.5847H33.2461C34.0417 15.5847 34.8048 15.9008 35.3674 16.4634C35.93 17.026 36.2461 17.7891 36.2461 18.5847V30.5847C36.2461 31.3804 35.93 32.1434 35.3674 32.706C34.8048 33.2686 34.0417 33.5847 33.2461 33.5847H15.2461C14.4504 33.5847 13.6874 33.2686 13.1248 32.706C12.5622 32.1434 12.2461 31.3804 12.2461 30.5847V18.5847C12.2461 17.7891 12.5622 17.026 13.1248 16.4634C13.6874 15.9008 14.4504 15.5847 15.2461 15.5847ZM14.9311 17.0847L23.2951 23.9892C23.563 24.2105 23.8994 24.3319 24.2468 24.3327C24.5942 24.3335 24.9312 24.2137 25.2001 23.9937L33.6481 17.0847H14.9311Z" fill="white"/>
</g>
<defs>
<clipPath id="clip0_2087_82696">
<rect width="29" height="24" fill="white" transform="translate(9.91602 12.4153)"/>
</clipPath>
</defs>
</svg>
