<svg width="49" height="49" viewBox="0 0 49 49" fill="none" xmlns="http://www.w3.org/2000/svg">
<rect y="0.837769" width="48" height="48" rx="24" transform="rotate(-1 0 0.837769)" fill="black"/>
<rect x="0.50865" y="1.32897" width="47" height="47" rx="23.5" transform="rotate(-1 0.50865 1.32897)" stroke="white" stroke-opacity="0.07"/>
<path d="M24.8748 34.6051C23.9917 35.7542 22.1542 35.1546 22.1192 33.7056L21.8403 22.2022C21.8334 21.9261 21.901 21.6533 22.0361 21.4123C22.1711 21.1714 22.3687 20.9714 22.6078 20.8332C22.847 20.6951 23.1189 20.6239 23.3951 20.6273C23.6713 20.6307 23.9414 20.7084 24.1772 20.8524L34.0005 26.8456C35.2372 27.6004 34.8382 29.4916 33.402 29.6817L28.7505 30.2966C28.3468 30.3502 27.9805 30.5614 27.7332 30.8834L24.8748 34.6051Z" stroke="white" stroke-width="1.5" stroke-linejoin="round"/>
<path d="M14.8457 20.6237L17.7624 20.6237M22.1374 16.538L22.1374 13.6213M18.3667 17.1412L16.304 15.0797M25.908 17.1412L27.9707 15.0797" stroke="white" stroke-width="1.5" stroke-linecap="round" stroke-linejoin="round"/>
</svg>
