<svg width="49" height="49" viewBox="0 0 49 49" fill="none" xmlns="http://www.w3.org/2000/svg">
<rect y="0.837769" width="48" height="48" rx="24" transform="rotate(-1 0 0.837769)" fill="white"/>
<rect x="0.50865" y="1.32897" width="47" height="47" rx="23.5" transform="rotate(-1 0.50865 1.32897)" stroke="white" stroke-opacity="0.07"/>
<g clip-path="url(#clip0_2087_82618)">
<path fill-rule="evenodd" clip-rule="evenodd" d="M22.916 25.1653C22.9162 24.5683 23.1535 23.9959 23.5758 23.574C23.7848 23.3651 24.033 23.1993 24.3061 23.0863C24.5792 22.9733 24.8719 22.9152 25.1675 22.9153C25.4631 22.9154 25.7557 22.9737 26.0288 23.0869C26.3018 23.2001 26.5499 23.366 26.7588 23.575C26.9677 23.7841 27.1335 24.0323 27.2465 24.3054C27.3595 24.5785 27.4176 24.8712 27.4175 25.1668C27.4173 25.7637 27.18 26.3361 26.7578 26.7581C26.3355 27.18 25.763 27.417 25.166 27.4168C24.5691 27.4166 23.9967 27.1793 23.5747 26.757C23.1528 26.3348 22.9158 25.7622 22.916 25.1653ZM25.166 24.4153C24.9671 24.4153 24.7763 24.4943 24.6357 24.635C24.495 24.7756 24.416 24.9664 24.416 25.1653C24.416 25.3642 24.495 25.555 24.6357 25.6956C24.7763 25.8363 24.9671 25.9153 25.166 25.9153C25.3649 25.9153 25.5557 25.8363 25.6963 25.6956C25.837 25.555 25.916 25.3642 25.916 25.1653C25.916 24.9664 25.837 24.7756 25.6963 24.635C25.5557 24.4943 25.3649 24.4153 25.166 24.4153Z" fill="black"/>
<path fill-rule="evenodd" clip-rule="evenodd" d="M19.916 32.6653L19.916 27.4153L16.166 27.4153C15.1715 27.4153 14.2176 27.0202 13.5144 26.3169C12.8111 25.6137 12.416 24.6598 12.416 23.6653L12.416 16.1653C12.416 15.1707 12.8111 14.2169 13.5144 13.5136C14.2176 12.8104 15.1715 12.4153 16.166 12.4153L26.666 12.4153C27.1585 12.4153 27.6461 12.5123 28.1011 12.7007C28.556 12.8892 28.9694 13.1654 29.3177 13.5136C29.6659 13.8619 29.9421 14.2752 30.1306 14.7302C30.319 15.1852 30.416 15.6728 30.416 16.1653L30.416 19.9153L32.666 19.9153C33.6606 19.9153 34.6144 20.3104 35.3177 21.0136C36.0209 21.7169 36.416 22.6707 36.416 23.6653L36.416 32.6653C36.416 33.6598 36.0209 34.6137 35.3177 35.3169C34.6144 36.0202 33.6606 36.4153 32.666 36.4153L23.666 36.4153C22.6715 36.4153 21.7176 36.0202 21.0144 35.3169C20.3111 34.6137 19.916 33.6598 19.916 32.6653ZM13.916 16.1653C13.916 15.5685 14.1531 14.9962 14.575 14.5743C14.997 14.1523 15.5693 13.9153 16.166 13.9153L16.916 13.9153L16.916 16.9153L13.916 16.9153L13.916 16.1653ZM13.916 18.4153L16.916 18.4153L16.916 21.4153L13.916 21.4153L13.916 18.4153ZM13.916 22.9153L16.916 22.9153L16.916 25.9153L16.166 25.9153C15.5693 25.9153 14.997 25.6782 14.575 25.2563C14.1531 24.8343 13.916 24.262 13.916 23.6653L13.916 22.9153ZM18.416 25.9153L18.416 13.9153L24.416 13.9153L24.416 19.9153L23.666 19.9153C22.6715 19.9153 21.7176 20.3104 21.0144 21.0136C20.3111 21.7169 19.916 22.6707 19.916 23.6653L19.916 25.9153L18.416 25.9153ZM28.916 19.9153L28.916 18.4153L25.916 18.4153L25.916 19.9153L28.916 19.9153ZM28.916 16.1653L28.916 16.9153L25.916 16.9153L25.916 13.9153L26.666 13.9153C27.2628 13.9153 27.835 14.1523 28.257 14.5743C28.679 14.9962 28.916 15.5685 28.916 16.1653ZM23.666 21.4153C23.0693 21.4153 22.497 21.6523 22.075 22.0743C21.6531 22.4962 21.416 23.0685 21.416 23.6653L21.416 32.6653C21.416 33.3988 21.767 34.0498 22.31 34.4653L30.635 26.1403C30.7757 25.9997 30.9664 25.9207 31.1653 25.9207C31.3641 25.9207 31.5549 25.9997 31.6955 26.1403L34.9205 29.3653L34.9205 23.6803C34.9205 23.0835 34.6835 22.5112 34.2615 22.0893C33.8396 21.6673 33.2673 21.4303 32.6705 21.4303L23.6705 21.4303L23.666 21.4153ZM34.916 31.4803L31.166 27.7303L23.981 34.9153L32.666 34.9153C33.2628 34.9153 33.835 34.6782 34.257 34.2563C34.679 33.8343 34.916 33.262 34.916 32.6653L34.916 31.4758L34.916 31.4803Z" fill="black"/>
</g>
<defs>
<clipPath id="clip0_2087_82618">
<rect width="24" height="24" fill="white" transform="translate(12.416 12.4153)"/>
</clipPath>
</defs>
</svg>
