<svg width="49" height="49" viewBox="0 0 49 49" fill="none" xmlns="http://www.w3.org/2000/svg">
<rect y="0.837769" width="48" height="48" rx="24" transform="rotate(-1 0 0.837769)" fill="white"/>
<rect x="0.50865" y="1.32897" width="47" height="47" rx="23.5" transform="rotate(-1 0.50865 1.32897)" stroke="white" stroke-opacity="0.07"/>
<path d="M24.116 12.4153C21.013 12.4153 18.037 13.648 15.8429 15.8421C13.6487 18.0363 12.416 21.0122 12.416 24.1153C12.416 27.2183 13.6487 30.1943 15.8429 32.3884C18.037 34.5826 21.013 35.8153 24.116 35.8153C27.219 35.8153 30.195 34.5826 32.3892 32.3884C34.5833 30.1943 35.816 27.2183 35.816 24.1153C35.816 21.0122 34.5833 18.0363 32.3892 15.8421C30.195 13.648 27.219 12.4153 24.116 12.4153ZM13.859 24.9993L17.122 24.9993C17.174 26.1823 17.3391 27.3575 17.616 28.5093L14.808 28.5093C14.2854 27.405 13.9641 26.2164 13.859 24.9993ZM25 17.9793L25 13.9623C26.2528 14.4384 27.2822 15.3658 27.886 16.5623C28.1529 17.0138 28.3869 17.4818 28.588 17.9663L25 17.9793ZM29.186 19.7343C29.4876 20.8822 29.667 22.0587 29.719 23.2443L25 23.2443L25 19.7343L29.186 19.7343ZM23.232 13.9623L23.232 17.9793L19.644 17.9793C19.8444 17.4952 20.079 17.026 20.346 16.5753C20.9472 15.3739 21.977 14.4415 23.232 13.9623ZM23.232 19.7343L23.232 23.2443L18.526 23.2443C18.578 22.0587 18.7574 20.8822 19.059 19.7343L23.232 19.7343ZM17.122 23.2313L13.859 23.2313C13.9641 22.0142 14.2854 20.8255 14.808 19.7213L17.616 19.7213C17.3375 20.8724 17.1721 22.048 17.122 23.2313ZM18.526 24.9993L23.232 24.9993L23.232 28.5093L19.059 28.5093C18.7586 27.3612 18.58 26.1848 18.526 24.9993ZM23.245 30.1993L23.245 34.2163C21.9922 33.7402 20.9628 32.8128 20.359 31.6163C20.092 31.1655 19.8574 30.6963 19.657 30.2123L23.245 30.1993ZM25 34.2163L25 30.2643L28.588 30.2643C28.3876 30.7483 28.153 31.2175 27.886 31.6683C27.2822 32.8648 26.2528 33.7922 25 34.2683L25 34.2163ZM25 28.4443L25 24.9343L29.706 24.9343C29.6521 26.1198 29.4734 27.2962 29.173 28.4443L25 28.4443ZM31.123 24.9343L34.386 24.9343C34.281 26.1514 33.9596 27.34 33.437 28.4443L30.616 28.4443C30.889 27.3133 31.0541 26.1602 31.11 24.9993L31.123 24.9343ZM31.123 23.1793C31.0645 22.0174 30.8947 20.8638 30.616 19.7343L33.424 19.7343C33.9479 20.8393 34.269 22.0275 34.373 23.2443L31.123 23.1793ZM32.423 17.9793L30.096 17.9793C29.6754 16.7965 29.0651 15.69 28.289 14.7033C29.9067 15.4294 31.3119 16.5571 32.371 17.9793L32.423 17.9793ZM19.943 14.7033C19.1669 15.69 18.5566 16.7965 18.136 17.9793L15.861 17.9793C16.9202 16.5571 18.3253 15.4294 19.943 14.7033ZM15.848 30.3033L18.136 30.3033C18.5566 31.4861 19.1669 32.5925 19.943 33.5793C18.3208 32.8422 16.9152 31.7007 15.861 30.2643L15.848 30.3033ZM28.276 33.5793C29.0521 32.5925 29.6624 31.4861 30.083 30.3033L32.371 30.3033C31.3054 31.7064 29.9008 32.8157 28.289 33.5273L28.276 33.5793Z" fill="black"/>
</svg>
