<svg width="49" height="49" viewBox="0 0 49 49" fill="none" xmlns="http://www.w3.org/2000/svg">
<rect y="0.837769" width="48" height="48" rx="24" transform="rotate(-1 0 0.837769)" fill="black"/>
<rect x="0.50865" y="1.32897" width="47" height="47" rx="23.5" transform="rotate(-1 0.50865 1.32897)" stroke="white" stroke-opacity="0.07"/>
<path d="M17.9156 13.2304C18.0626 13.0549 18.135 12.8286 18.1172 12.6003C18.0994 12.372 17.9927 12.1597 17.8201 12.0092C17.6476 11.8586 17.4228 11.7817 17.1942 11.7949C16.9656 11.8082 16.7512 11.9106 16.5972 12.0801L15.0899 13.8067C14.2352 14.7862 13.752 16.035 13.7249 17.3347L13.6584 20.5069C13.656 20.6218 13.6763 20.7361 13.7181 20.8431C13.7599 20.9502 13.8223 21.048 13.9019 21.1309C13.9815 21.2139 14.0766 21.2803 14.1818 21.3265C14.2871 21.3726 14.4004 21.3976 14.5153 21.4C14.6302 21.4024 14.7445 21.3821 14.8515 21.3403C14.9586 21.2985 15.0564 21.2361 15.1393 21.1565C15.2223 21.0769 15.2887 20.9818 15.3349 20.8765C15.381 20.7713 15.406 20.658 15.4084 20.5431L15.4737 17.3721C15.4924 16.4828 15.8232 15.6283 16.4082 14.9582L17.9156 13.2304Z" fill="white"/>
<path fill-rule="evenodd" clip-rule="evenodd" d="M17.6933 19.3987C17.7716 18.1505 18.3227 16.9791 19.2343 16.1229C20.146 15.2668 21.3496 14.7902 22.6003 14.7903L23.2501 14.7903L23.2501 13.9153C23.2501 13.6059 23.373 13.3092 23.5918 13.0904C23.8106 12.8716 24.1074 12.7487 24.4168 12.7487C24.7262 12.7487 25.0229 12.8716 25.2417 13.0904C25.4605 13.3092 25.5834 13.6059 25.5834 13.9153L25.5834 14.7903L26.2333 14.7903C27.4839 14.7902 28.6876 15.2668 29.5992 16.1229C30.5108 16.9791 31.0619 18.1505 31.1403 19.3987L31.3981 23.5217C31.4978 25.0934 32.0255 26.6079 32.9241 27.9013C33.11 28.1686 33.2236 28.4794 33.2539 28.8035C33.2841 29.1277 33.2299 29.4541 33.0966 29.7511C32.9633 30.0482 32.7554 30.3056 32.4932 30.4985C32.2309 30.6914 31.9232 30.8131 31.5999 30.8518L27.6251 31.3278L27.6251 32.582C27.6251 33.4329 27.2871 34.2489 26.6854 34.8506C26.0837 35.4523 25.2677 35.7903 24.4168 35.7903C23.5659 35.7903 22.7498 35.4523 22.1481 34.8506C21.5465 34.2489 21.2084 33.4329 21.2084 32.582L21.2084 31.3278L17.2336 30.8507C16.9105 30.8118 16.603 30.6901 16.3409 30.4973C16.0788 30.3045 15.871 30.0472 15.7378 29.7503C15.6045 29.4535 15.5503 29.1272 15.5803 28.8032C15.6104 28.4792 15.7238 28.1685 15.9094 27.9013C16.8081 26.6079 17.3358 25.0934 17.4354 23.5217L17.6933 19.3987ZM22.6003 16.5403C21.7948 16.5402 21.0195 16.8471 20.4323 17.3985C19.8452 17.9499 19.4902 18.7044 19.4398 19.5083L19.1831 23.6313C19.0631 25.5222 18.4281 27.3442 17.3468 28.9C17.3333 28.9193 17.3251 28.9418 17.3229 28.9652C17.3207 28.9887 17.3246 29.0123 17.3342 29.0338C17.3439 29.0553 17.3589 29.0739 17.3778 29.0879C17.3968 29.1018 17.4191 29.1107 17.4424 29.1135L21.8023 29.6373C23.5394 29.845 25.2941 29.845 27.0313 29.6373L31.3911 29.1135C31.4145 29.1107 31.4367 29.1018 31.4557 29.0879C31.4747 29.0739 31.4897 29.0553 31.4993 29.0338C31.5089 29.0123 31.5128 28.9887 31.5106 28.9652C31.5084 28.9418 31.5002 28.9193 31.4868 28.9C30.4058 27.3441 29.7712 25.5221 29.6516 23.6313L29.3938 19.5083C29.3433 18.7044 28.9884 17.9499 28.4012 17.3985C27.814 16.8471 27.0388 16.5402 26.2333 16.5403L22.6003 16.5403ZM24.4168 34.0403C23.6118 34.0403 22.9584 33.387 22.9584 32.582L22.9584 31.707L25.8751 31.707L25.8751 32.582C25.8751 33.387 25.2218 34.0403 24.4168 34.0403Z" fill="white"/>
<path d="M30.9988 11.9961C30.824 12.1487 30.717 12.3644 30.7012 12.5959C30.6855 12.8273 30.7623 13.0556 30.9148 13.2304L32.4221 14.9571C33.007 15.6277 33.3374 16.4825 33.3555 17.3721L33.422 20.5419C33.4268 20.774 33.5236 20.9947 33.691 21.1554C33.8585 21.3161 34.083 21.4037 34.3151 21.3989C34.5471 21.3941 34.7678 21.2973 34.9285 21.1298C35.0892 20.9623 35.1768 20.7378 35.172 20.5058L35.1055 17.3348C35.0784 16.0351 34.5952 14.7863 33.7405 13.8068L32.2331 12.0801C32.0806 11.9053 31.8648 11.7983 31.6334 11.7825C31.4019 11.7668 31.1736 11.8436 30.9988 11.9961Z" fill="white"/>
</svg>
