<svg width="49" height="49" viewBox="0 0 49 49" fill="none" xmlns="http://www.w3.org/2000/svg">
<rect y="0.837769" width="48" height="48" rx="24" transform="rotate(-1 0 0.837769)" fill="black"/>
<rect x="0.50865" y="1.32897" width="47" height="47" rx="23.5" transform="rotate(-1 0.50865 1.32897)" stroke="white" stroke-opacity="0.07"/>
<path d="M33.8162 29.9148L27.4067 16.169C27.0423 15.3877 26.3826 14.7832 25.5726 14.4885C24.7626 14.1937 23.8686 14.2327 23.0874 14.597C22.3062 14.9614 21.7017 15.6211 21.4069 16.4311C21.1121 17.2411 21.1512 18.1351 21.5155 18.9163L27.9256 32.6616C28.2898 33.4428 28.9495 34.0474 29.7595 34.3422C30.5694 34.637 31.4633 34.5981 32.2446 34.2338C33.0258 33.8696 33.6303 33.2099 33.9251 32.3999C34.22 31.59 34.1805 30.696 33.8162 29.9148Z" stroke="white" stroke-width="2"/>
<path d="M24.1101 25.7889L20.9046 32.6616C20.7242 33.0484 20.4694 33.396 20.1547 33.6843C19.84 33.9727 19.4716 34.1962 19.0705 34.3422C18.6694 34.4881 18.2435 34.5537 17.8171 34.535C17.3907 34.5164 16.9721 34.4139 16.5853 34.2335C15.8042 33.8692 15.1998 33.2096 14.905 32.3997C14.6102 31.5898 14.6492 30.696 15.0134 29.9148L21.3671 16.2903" stroke="white" stroke-width="2" stroke-linecap="round"/>
<path d="M16.5852 34.2335C18.212 34.9921 20.1456 34.2883 20.9042 32.6615C21.6628 31.0348 20.959 29.1011 19.3322 28.3425C17.7055 27.5839 15.7718 28.2877 15.0132 29.9145C14.2546 31.5412 14.9584 33.4749 16.5852 34.2335Z" stroke="white" stroke-width="2"/>
</svg>
