<svg width="49" height="49" viewBox="0 0 49 49" fill="none" xmlns="http://www.w3.org/2000/svg">
<rect y="0.837769" width="48" height="48" rx="24" transform="rotate(-1 0 0.837769)" fill="black"/>
<rect x="0.50865" y="1.32897" width="47" height="47" rx="23.5" transform="rotate(-1 0.50865 1.32897)" stroke="white" stroke-opacity="0.07"/>
<path d="M15.7493 15.7487C15.462 15.7487 15.1865 15.8628 14.9833 16.066C14.7802 16.2691 14.666 16.5447 14.666 16.832C14.666 17.1193 14.7802 17.3949 14.9833 17.598C15.1865 17.8012 15.462 17.9153 15.7493 17.9153L33.0827 17.9153C33.37 17.9153 33.6456 17.8012 33.8487 17.598C34.0519 17.3949 34.166 17.1193 34.166 16.832C34.166 16.5447 34.0519 16.2691 33.8487 16.066C33.6456 15.8628 33.37 15.7487 33.0827 15.7487L15.7493 15.7487ZM29.8327 20.082C30.0587 20.0821 30.279 20.1528 30.4627 20.2843C30.6465 20.4159 30.7845 20.6015 30.8575 20.8154L30.9984 21.2249C31.1587 21.6948 31.4245 22.1217 31.7755 22.4729C32.1265 22.8241 32.5533 23.0902 33.0231 23.2507L33.4326 23.3905C33.6462 23.4637 33.8316 23.6018 33.9629 23.7856C34.0942 23.9693 34.1648 24.1895 34.1648 24.4153C34.1648 24.6411 34.0942 24.8613 33.9629 25.0451C33.8316 25.2288 33.6462 25.367 33.4326 25.4402L33.0231 25.581C32.5532 25.7413 32.1263 26.0072 31.7751 26.3582C31.4239 26.7091 31.1578 27.1359 30.9973 27.6057L30.8575 28.0152C30.7843 28.2289 30.6462 28.4143 30.4624 28.5456C30.2787 28.6768 30.0585 28.7474 29.8327 28.7474C29.6069 28.7474 29.3867 28.6768 29.2029 28.5456C29.0192 28.4143 28.8811 28.2289 28.8079 28.0152L28.667 27.6057C28.5067 27.1358 28.2408 26.7089 27.8898 26.3577C27.5389 26.0066 27.1121 25.7405 26.6423 25.5799L26.2328 25.4402C26.0191 25.367 25.8337 25.2288 25.7025 25.0451C25.5712 24.8613 25.5006 24.6411 25.5006 24.4153C25.5006 24.1895 25.5712 23.9693 25.7025 23.7856C25.8337 23.6018 26.0191 23.4637 26.2328 23.3905L26.6423 23.2497C27.1122 23.0893 27.5391 22.8235 27.8903 22.4725C28.2414 22.1215 28.5075 21.6947 28.6681 21.2249L28.8079 20.8154C28.8808 20.6015 29.0189 20.4159 29.2026 20.2843C29.3864 20.1528 29.6067 20.0821 29.8327 20.082ZM29.8327 23.5443C29.5764 23.8668 29.2842 24.1591 28.9617 24.4153C29.2852 24.6717 29.5756 24.962 29.8327 25.2863C30.0891 24.962 30.3794 24.6717 30.7037 24.4153C30.3812 24.1591 30.089 23.8668 29.8327 23.5443ZM14.666 31.9987C14.666 31.7113 14.7802 31.4358 14.9833 31.2326C15.1865 31.0295 15.462 30.9153 15.7493 30.9153L16.8327 30.9153C17.12 30.9153 17.3955 31.0295 17.5987 31.2326C17.8019 31.4358 17.916 31.7113 17.916 31.9987C17.916 32.286 17.8019 32.5615 17.5987 32.7647C17.3955 32.9679 17.12 33.082 16.8327 33.082L15.7493 33.082C15.462 33.082 15.1865 32.9679 14.9833 32.7647C14.7802 32.5615 14.666 32.286 14.666 31.9987ZM26.5827 30.9153C26.2954 30.9153 26.0198 31.0295 25.8167 31.2326C25.6135 31.4358 25.4993 31.7113 25.4993 31.9987C25.4993 32.286 25.6135 32.5615 25.8167 32.7647C26.0198 32.9679 26.2954 33.082 26.5827 33.082L27.666 33.082C27.9533 33.082 28.2289 32.9679 28.432 32.7647C28.6352 32.5615 28.7493 32.286 28.7493 31.9987C28.7493 31.7113 28.6352 31.4358 28.432 31.2326C28.2289 31.0295 27.9533 30.9153 27.666 30.9153L26.5827 30.9153ZM20.0827 31.9987C20.0827 31.7113 20.1968 31.4358 20.4 31.2326C20.6031 31.0295 20.8787 30.9153 21.166 30.9153L22.2493 30.9153C22.5367 30.9153 22.8122 31.0295 23.0154 31.2326C23.2185 31.4358 23.3327 31.7113 23.3327 31.9987C23.3327 32.286 23.2185 32.5615 23.0154 32.7647C22.8122 32.9679 22.5367 33.082 22.2493 33.082L21.166 33.082C20.8787 33.082 20.6031 32.9679 20.4 32.7647C20.1968 32.5615 20.0827 32.286 20.0827 31.9987ZM31.9993 30.9153C31.712 30.9153 31.4365 31.0295 31.2333 31.2326C31.0302 31.4358 30.916 31.7113 30.916 31.9987C30.916 32.286 31.0302 32.5615 31.2333 32.7647C31.4365 32.9679 31.712 33.082 31.9993 33.082L33.0827 33.082C33.37 33.082 33.6456 32.9679 33.8487 32.7647C34.0519 32.5615 34.166 32.286 34.166 31.9987C34.166 31.7113 34.0519 31.4358 33.8487 31.2326C33.6456 31.0295 33.37 30.9153 33.0827 30.9153L31.9993 30.9153ZM14.666 24.4153C14.666 24.128 14.7802 23.8525 14.9833 23.6493C15.1865 23.4461 15.462 23.332 15.7493 23.332L22.2493 23.332C22.5367 23.332 22.8122 23.4461 23.0154 23.6493C23.2185 23.8525 23.3327 24.128 23.3327 24.4153C23.3327 24.7026 23.2185 24.9782 23.0154 25.1814C22.8122 25.3845 22.5367 25.4987 22.2493 25.4987L15.7493 25.4987C15.462 25.4987 15.1865 25.3845 14.9833 25.1814C14.7802 24.9782 14.666 24.7026 14.666 24.4153Z" fill="white"/>
</svg>
