<svg width="48" height="48" viewBox="0 0 48 48" fill="none" xmlns="http://www.w3.org/2000/svg">
<rect width="48" height="48" rx="24" fill="white" fill-opacity="0.1"/>
<rect x="0.5" y="0.5" width="47" height="47" rx="23.5" stroke="white" stroke-opacity="0.07"/>
<path d="M14.258 17.3127C14.0272 17.4441 13.8354 17.6344 13.7022 17.8642C13.569 18.094 13.4993 18.355 13.5 18.6205V32.5312C13.4992 32.7903 13.5655 33.0453 13.6925 33.2712C13.8196 33.4971 14.003 33.6863 14.2248 33.8202C14.4467 33.9541 14.6995 34.0283 14.9586 34.0354C15.2177 34.0426 15.4742 33.9825 15.7031 33.861C15.7233 33.8502 15.743 33.839 15.7622 33.8263L19.7063 31.2458C19.7586 31.2117 19.8016 31.165 19.8314 31.11C19.8611 31.055 19.8766 30.9934 19.8764 30.9308V14.1773C19.8766 14.1089 19.8581 14.0419 19.823 13.9833C19.7879 13.9247 19.7374 13.8769 19.677 13.8449C19.6167 13.8129 19.5487 13.798 19.4805 13.8018C19.4123 13.8056 19.3464 13.828 19.29 13.8665L14.258 17.3127ZM21.9544 13.8426C21.8978 13.8058 21.8324 13.785 21.7651 13.7823C21.6977 13.7796 21.6308 13.7951 21.5715 13.8272C21.5122 13.8593 21.4626 13.9068 21.4281 13.9647C21.3935 14.0226 21.3752 14.0887 21.375 14.1562V30.9168C21.3749 30.9793 21.3903 31.0409 21.4201 31.0959C21.4498 31.1509 21.4928 31.1976 21.5452 31.2318L26.0452 34.1577C26.1017 34.1946 26.1672 34.2156 26.2347 34.2183C26.3022 34.2211 26.3692 34.2055 26.4286 34.1734C26.488 34.1412 26.5376 34.0936 26.5722 34.0355C26.6067 33.9775 26.625 33.9112 26.625 33.8437V17.0938C26.6252 17.0312 26.6097 16.9695 26.5799 16.9144C26.55 16.8593 26.5069 16.8125 26.4544 16.7784L21.9544 13.8426ZM33.7749 14.1782C33.5538 14.0429 33.3011 13.9679 33.0421 13.9607C32.783 13.9534 32.5266 14.0142 32.2983 14.1369C32.2781 14.1473 32.2585 14.1589 32.2397 14.1716L28.2952 16.7498C28.2428 16.7839 28.1998 16.8306 28.1701 16.8856C28.1403 16.9407 28.1249 17.0022 28.125 17.0648V33.8207C28.1248 33.8891 28.1432 33.9562 28.1784 34.0149C28.2135 34.0735 28.2641 34.1215 28.3245 34.1535C28.3849 34.1855 28.453 34.2003 28.5213 34.1965C28.5895 34.1926 28.6555 34.1701 28.7119 34.1315L33.7308 30.688C33.9644 30.5577 34.1589 30.3673 34.2941 30.1365C34.4294 29.9058 34.5005 29.643 34.5 29.3755V15.5005C34.5031 15.2364 34.438 14.9759 34.3109 14.7442C34.1839 14.5126 33.9993 14.3176 33.7749 14.1782Z" fill="white"/>
</svg>
