<svg width="48" height="48" viewBox="0 0 48 48" fill="none" xmlns="http://www.w3.org/2000/svg">
<rect width="48" height="48" rx="24" fill="white" fill-opacity="0.1"/>
<rect x="0.5" y="0.5" width="47" height="47" rx="23.5" stroke="white" stroke-opacity="0.07"/>
<path d="M16.875 35.25H15.375C15.0766 35.25 14.7905 35.1315 14.5795 34.9205C14.3685 34.7095 14.25 34.4234 14.25 34.125V27.375C14.25 27.0766 14.3685 26.7905 14.5795 26.5795C14.7905 26.3685 15.0766 26.25 15.375 26.25H16.875C17.1734 26.25 17.4595 26.3685 17.6705 26.5795C17.8815 26.7905 18 27.0766 18 27.375V34.125C18 34.4234 17.8815 34.7095 17.6705 34.9205C17.4595 35.1315 17.1734 35.25 16.875 35.25ZM27.375 35.25H25.875C25.5766 35.25 25.2905 35.1315 25.0795 34.9205C24.8685 34.7095 24.75 34.4234 24.75 34.125V22.875C24.75 22.5766 24.8685 22.2905 25.0795 22.0795C25.2905 21.8685 25.5766 21.75 25.875 21.75H27.375C27.6734 21.75 27.9595 21.8685 28.1705 22.0795C28.3815 22.2905 28.5 22.5766 28.5 22.875V34.125C28.5 34.4234 28.3815 34.7095 28.1705 34.9205C27.9595 35.1315 27.6734 35.25 27.375 35.25ZM32.625 35.25H31.125C30.8266 35.25 30.5405 35.1315 30.3295 34.9205C30.1185 34.7095 30 34.4234 30 34.125V17.625C30 17.3266 30.1185 17.0405 30.3295 16.8295C30.5405 16.6185 30.8266 16.5 31.125 16.5H32.625C32.9234 16.5 33.2095 16.6185 33.4205 16.8295C33.6315 17.0405 33.75 17.3266 33.75 17.625V34.125C33.75 34.4234 33.6315 34.7095 33.4205 34.9205C33.2095 35.1315 32.9234 35.25 32.625 35.25ZM22.125 35.25H20.625C20.3266 35.25 20.0405 35.1315 19.8295 34.9205C19.6185 34.7095 19.5 34.4234 19.5 34.125V13.875C19.5 13.5766 19.6185 13.2905 19.8295 13.0795C20.0405 12.8685 20.3266 12.75 20.625 12.75H22.125C22.4234 12.75 22.7095 12.8685 22.9205 13.0795C23.1315 13.2905 23.25 13.5766 23.25 13.875V34.125C23.25 34.4234 23.1315 34.7095 22.9205 34.9205C22.7095 35.1315 22.4234 35.25 22.125 35.25Z" fill="white"/>
</svg>
