<svg width="48" height="48" viewBox="0 0 48 48" fill="none" xmlns="http://www.w3.org/2000/svg">
<rect width="48" height="48" rx="24" fill="white" fill-opacity="0.1"/>
<rect x="0.5" y="0.5" width="47" height="47" rx="23.5" stroke="white" stroke-opacity="0.07"/>
<g clip-path="url(#clip0_2014_132998)">
<path fill-rule="evenodd" clip-rule="evenodd" d="M31.6883 12.6499C31.6517 12.5025 31.5766 12.3675 31.4708 12.2587C31.3649 12.1498 31.232 12.071 31.0857 12.0304C30.9394 11.9898 30.7849 11.9887 30.6381 12.0274C30.4912 12.0661 30.3573 12.143 30.25 12.2505L26.8214 15.679C26.7168 15.7838 26.6412 15.9139 26.6018 16.0566C26.5625 16.1993 26.5608 16.3498 26.5968 16.4933L27.214 18.9688L27.19 18.9928L23.0911 23.0916C22.864 23.3353 22.7404 23.6577 22.7462 23.9908C22.7521 24.3239 22.8871 24.6417 23.1226 24.8772C23.3582 25.1128 23.676 25.2477 24.0091 25.2536C24.3422 25.2595 24.6645 25.1359 24.9083 24.9088L29.0105 20.8116L29.0345 20.7859L31.5083 21.4048C31.6518 21.4408 31.8023 21.4391 31.945 21.3997C32.0877 21.3604 32.2178 21.2847 32.3225 21.1802L35.7511 17.7516C35.859 17.6443 35.9363 17.5103 35.9753 17.3632C36.0142 17.2161 36.0133 17.0614 35.9726 16.9148C35.932 16.7682 35.853 16.635 35.7439 16.529C35.6348 16.423 35.4994 16.348 35.3517 16.3116L32.422 15.5813L31.6883 12.6499ZM24.5431 13.3013C24.5667 13.6414 24.4542 13.9769 24.2305 14.2341C24.0067 14.4912 23.69 14.649 23.35 14.6728C21.5589 14.7969 19.8411 15.4326 18.4007 16.5043C16.9602 17.5761 15.8578 19.0388 15.2243 20.7187C14.5908 22.3986 14.4528 24.2251 14.8269 25.981C15.2009 27.737 16.0712 29.3487 17.3343 30.6246C18.5975 31.9005 20.2003 32.787 21.9524 33.1787C23.7046 33.5704 25.5323 33.4509 27.2185 32.8343C28.9047 32.2177 30.3785 31.1301 31.4647 29.7005C32.5509 28.271 33.2038 26.5596 33.346 24.7699C33.373 24.4298 33.5341 24.1144 33.7937 23.8931C34.0533 23.6717 34.3902 23.5626 34.7303 23.5896C35.0703 23.6167 35.3857 23.7777 35.6071 24.0373C35.8284 24.2969 35.9376 24.6338 35.9105 24.9739C35.7291 27.2543 34.8969 29.4346 33.5128 31.256C32.1287 33.0773 30.2508 34.463 28.1023 35.2485C25.9538 36.0339 23.625 36.1861 21.3925 35.687C19.16 35.1879 17.1178 34.0584 15.5084 32.4327C13.8989 30.807 12.79 28.7535 12.3133 26.5162C11.8366 24.2788 12.0122 21.9517 12.8192 19.8111C13.6262 17.6706 15.0307 15.8068 16.8659 14.441C18.701 13.0752 20.8896 12.265 23.1717 12.1065C23.5117 12.0829 23.8472 12.1954 24.1044 12.4191C24.3616 12.6429 24.5194 12.9613 24.5431 13.3013ZM23.3911 18.9568C23.4527 19.114 23.4827 19.2818 23.4795 19.4507C23.4762 19.6195 23.4397 19.7861 23.372 19.9408C23.3044 20.0956 23.2069 20.2355 23.0851 20.3525C22.9634 20.4696 22.8198 20.5615 22.6625 20.623C22.1003 20.8436 21.6019 21.2007 21.2124 21.6622C20.8229 22.1237 20.5545 22.675 20.4315 23.2663C20.3085 23.8576 20.3349 24.4702 20.5081 25.0487C20.6813 25.6272 20.9959 26.1535 21.4236 26.5799C21.8512 27.0063 22.3784 27.3194 22.9575 27.491C23.5365 27.6625 24.1492 27.687 24.7401 27.5623C25.331 27.4376 25.8815 27.1676 26.3419 26.7768C26.8022 26.3859 27.1579 25.8865 27.3768 25.3236C27.4381 25.1662 27.5297 25.0225 27.6465 24.9005C27.7633 24.7786 27.9029 24.6808 28.0575 24.6129C28.2121 24.5449 28.3785 24.508 28.5473 24.5044C28.7162 24.5007 28.884 24.5304 29.0414 24.5916C29.1988 24.6528 29.3425 24.7445 29.4645 24.8613C29.5864 24.9781 29.6842 25.1177 29.7521 25.2723C29.8201 25.4269 29.857 25.5933 29.8606 25.7621C29.8643 25.9309 29.8346 26.0988 29.7734 26.2562C29.3995 27.2174 28.792 28.0702 28.0057 28.7376C27.2194 29.405 26.2792 29.8659 25.2701 30.0787C24.261 30.2914 23.2147 30.2493 22.2259 29.9562C21.2371 29.6631 20.337 29.1281 19.6069 28.3997C18.8768 27.6713 18.3397 26.7724 18.0442 25.7843C17.7488 24.7962 17.7042 23.7501 17.9146 22.7404C18.125 21.7308 18.5837 20.7895 19.2493 20.0017C19.9148 19.2139 20.7662 18.6043 21.7265 18.2282C22.0439 18.1043 22.3975 18.1115 22.7096 18.2481C23.0217 18.3847 23.2668 18.6396 23.3911 18.9568Z" fill="#F4F4F4"/>
</g>
<defs>
<clipPath id="clip0_2014_132998">
<rect width="24" height="24" fill="white" transform="translate(12 12)"/>
</clipPath>
</defs>
</svg>
