<svg width="1320" height="369" viewBox="0 0 1320 369" fill="none" xmlns="http://www.w3.org/2000/svg">
<g opacity="0.45">
<path opacity="0.0526316" d="M-28.8227 470.407C-4.17436 470.375 50.5977 452.277 72.4998 380.141C99.8775 289.972 52.1761 211.404 64.2031 121.625C73.0799 55.3618 127.908 -99.4705 225.301 -139.128" stroke="#01010D" stroke-opacity="0.5" stroke-width="3"/>
<path opacity="0.105263" d="M-70.6351 457.32C-46.1184 459.864 10.2454 447.591 39.5677 378.14C76.2206 291.326 36.9932 208.202 58.3387 120.173C74.0933 55.2002 144.806 -93.0527 245.811 -122.312" stroke="#01010D" stroke-opacity="0.5" stroke-width="3"/>
<path opacity="0.157895" d="M-110.75 441.041C-86.6342 446.134 -29.2962 439.819 7.12513 373.814C52.6517 291.307 22.328 204.538 52.7582 119.222C75.2179 56.2521 161.04 -83.7973 264.55 -102.339" stroke="#01010D" stroke-opacity="0.5" stroke-width="3"/>
<path opacity="0.210526" d="M-148.845 421.764C-125.394 429.35 -67.7096 429.063 -24.5884 367.226C29.3131 289.93 8.22536 200.467 47.4068 118.799C76.3256 58.5222 176.316 -71.7891 281.198 -79.4094" stroke="#01010D" stroke-opacity="0.5" stroke-width="3"/>
<path opacity="0.263158" d="M-184.617 399.717C-162.086 409.713 -104.688 415.457 -55.3397 358.467C6.34617 287.229 -5.27464 196.051 42.2288 118.926C77.2899 62.0021 190.354 -57.1435 295.457 -53.7589" stroke="#01010D" stroke-opacity="0.5" stroke-width="3"/>
<path opacity="0.315789" d="M-217.788 375.159C-196.426 387.456 -139.943 399.168 -84.9078 347.648C-16.1134 283.248 -18.1399 191.356 37.1651 119.619C77.9842 66.6713 202.883 -40.0032 307.057 -25.6509" stroke="#01010D" stroke-opacity="0.5" stroke-width="3"/>
<path opacity="0.368421" d="M-248.111 348.375C-228.152 362.837 -173.202 380.389 -113.083 334.904C-37.9337 278.048 -30.3437 186.447 32.1569 120.884C78.2869 72.4933 213.652 -20.5413 315.755 4.62144" stroke="#01010D" stroke-opacity="0.5" stroke-width="3"/>
<path opacity="0.421053" d="M-275.369 319.673C-257.03 336.142 -204.217 359.343 -139.672 320.391C-58.9918 271.701 -41.8685 181.395 27.1429 122.724C78.0785 79.4209 222.427 1.04546 321.34 36.743" stroke="#01010D" stroke-opacity="0.5" stroke-width="3"/>
<path opacity="0.473684" d="M-299.377 289.386C-282.86 307.682 -232.761 336.276 -164.499 304.284C-79.1705 264.295 -52.7014 176.273 22.0647 125.138C77.2477 87.3955 228.998 24.5379 323.638 70.3792" stroke="#01010D" stroke-opacity="0.5" stroke-width="3"/>
<path opacity="0.526316" d="M-319.989 257.863C-305.475 277.785 -258.639 311.459 -187.406 286.778C-98.3656 255.927 -62.8408 171.154 16.8608 128.114C75.6866 96.3466 233.176 49.6956 322.506 105.178" stroke="#01010D" stroke-opacity="0.5" stroke-width="3"/>
<path opacity="0.578947" d="M-337.093 225.464C-324.741 246.794 -281.682 285.179 -208.26 268.079C-116.482 246.704 -72.2908 166.109 11.4732 131.636C73.2973 106.192 234.8 76.2584 317.841 140.775" stroke="#01010D" stroke-opacity="0.5" stroke-width="3"/>
<path opacity="0.631579" d="M-350.617 192.561C-340.563 215.065 -301.751 257.74 -226.944 248.409C-133.435 236.744 -81.061 161.211 5.84758 135.682C69.9926 116.839 233.74 103.951 309.582 176.794" stroke="#01010D" stroke-opacity="0.5" stroke-width="3"/>
<path opacity="0.684211" d="M-360.528 159.532C-352.88 182.964 -318.743 229.463 -243.37 228.002C-149.153 226.175 -89.1712 156.53 -0.0701471 140.225C65.6931 128.191 229.89 132.49 297.703 212.862" stroke="#01010D" stroke-opacity="0.5" stroke-width="3"/>
<path opacity="0.736842" d="M-366.832 126.753C-361.676 150.856 -332.586 200.668 -257.473 207.094C-163.582 215.126 -96.6485 152.132 -6.33129 145.23C60.3296 140.136 223.178 161.575 282.218 248.595" stroke="#01010D" stroke-opacity="0.5" stroke-width="3"/>
<path opacity="0.789474" d="M-369.576 94.602C-366.968 119.112 -343.244 171.692 -269.214 185.934C-176.677 203.736 -103.526 148.084 -12.9816 150.661C53.8466 152.562 213.562 190.906 263.182 283.62" stroke="#01010D" stroke-opacity="0.5" stroke-width="3"/>
<path opacity="0.842105" d="M-368.846 63.4464C-368.814 88.0947 -350.715 142.867 -278.58 164.769C-188.411 192.146 -109.843 144.445 -20.064 156.472C46.1993 165.349 201.032 220.177 240.689 317.57" stroke="#01010D" stroke-opacity="0.5" stroke-width="3"/>
<path opacity="0.894737" d="M-364.762 33.6447C-367.306 58.1613 -355.033 114.525 -285.582 143.847C-198.768 180.5 -115.644 141.273 -27.6145 162.618C37.3579 178.373 185.611 249.086 214.871 350.09" stroke="#01010D" stroke-opacity="0.5" stroke-width="3"/>
<path opacity="0.947368" d="M-357.485 5.53905C-362.578 29.6554 -356.263 86.9934 -290.258 123.415C-207.751 168.941 -120.982 138.618 -35.6661 169.048C27.3036 191.507 167.353 277.329 185.894 380.839" stroke="#01010D" stroke-opacity="0.5" stroke-width="3"/>
<path d="M-347.212 -20.5451C-354.798 2.90674 -354.511 60.5907 -292.675 103.712C-215.379 157.613 -125.915 136.526 -44.2475 175.707C16.0296 204.626 146.341 304.617 153.961 409.498" stroke="#01010D" stroke-opacity="0.5" stroke-width="3"/>
</g>
<g opacity="0.45">
<path opacity="0.0526316" d="M1309.18 430.407C1333.83 430.375 1388.6 412.277 1410.5 340.141C1437.88 249.972 1390.18 171.404 1402.2 81.625C1411.08 15.3618 1465.91 -139.471 1563.3 -179.128" stroke="#01010D" stroke-opacity="0.5" stroke-width="3"/>
<path opacity="0.105263" d="M1267.36 417.32C1291.88 419.864 1348.24 407.591 1377.57 338.14C1414.22 251.326 1374.99 168.202 1396.34 80.1726C1412.09 15.2002 1482.81 -133.053 1583.81 -162.312" stroke="#01010D" stroke-opacity="0.5" stroke-width="3"/>
<path opacity="0.157895" d="M1227.25 401.041C1251.37 406.134 1308.7 399.819 1345.13 333.814C1390.65 251.307 1360.33 164.538 1390.76 79.2218C1413.22 16.2521 1499.04 -123.797 1602.55 -142.339" stroke="#01010D" stroke-opacity="0.5" stroke-width="3"/>
<path opacity="0.210526" d="M1189.15 381.764C1212.61 389.35 1270.29 389.063 1313.41 327.226C1367.31 249.93 1346.23 160.467 1385.41 78.7992C1414.33 18.5222 1514.32 -111.789 1619.2 -119.409" stroke="#01010D" stroke-opacity="0.5" stroke-width="3"/>
<path opacity="0.263158" d="M1153.38 359.717C1175.91 369.713 1233.31 375.457 1282.66 318.467C1344.35 247.229 1332.73 156.051 1380.23 78.9261C1415.29 22.0021 1528.35 -97.1435 1633.46 -93.7589" stroke="#01010D" stroke-opacity="0.5" stroke-width="3"/>
<path opacity="0.315789" d="M1120.21 335.159C1141.57 347.456 1198.06 359.168 1253.09 307.648C1321.89 243.248 1319.86 151.356 1375.17 79.6186C1415.98 26.6713 1540.88 -80.0032 1645.06 -65.6509" stroke="#01010D" stroke-opacity="0.5" stroke-width="3"/>
<path opacity="0.368421" d="M1089.89 308.375C1109.85 322.837 1164.8 340.389 1224.92 294.904C1300.07 238.048 1307.66 146.447 1370.16 80.8837C1416.29 32.4933 1551.65 -60.5413 1653.75 -35.3786" stroke="#01010D" stroke-opacity="0.5" stroke-width="3"/>
<path opacity="0.421053" d="M1062.63 279.673C1080.97 296.142 1133.78 319.343 1198.33 280.391C1279.01 231.701 1296.13 141.395 1365.14 82.7243C1416.08 39.4209 1560.43 -38.9545 1659.34 -3.25697" stroke="#01010D" stroke-opacity="0.5" stroke-width="3"/>
<path opacity="0.473684" d="M1038.62 249.387C1055.14 267.683 1105.24 296.276 1173.5 264.285C1258.83 224.295 1285.3 136.274 1360.06 85.138C1415.25 47.396 1567 -15.4616 1661.64 30.3797" stroke="#01010D" stroke-opacity="0.5" stroke-width="3"/>
<path opacity="0.526316" d="M1018.01 217.863C1032.53 237.785 1079.36 271.459 1150.59 246.778C1239.63 215.927 1275.16 131.154 1354.86 88.1137C1413.69 56.3466 1571.18 9.69562 1660.51 65.1783" stroke="#01010D" stroke-opacity="0.5" stroke-width="3"/>
<path opacity="0.578947" d="M1000.91 185.464C1013.26 206.794 1056.32 245.179 1129.74 228.079C1221.52 206.704 1265.71 126.109 1349.47 91.6358C1411.3 66.1917 1572.8 36.2584 1655.84 100.775" stroke="#01010D" stroke-opacity="0.5" stroke-width="3"/>
<path opacity="0.631579" d="M987.383 152.561C997.437 175.065 1036.25 217.74 1111.06 208.409C1204.57 196.744 1256.94 121.211 1343.85 95.6815C1407.99 76.8392 1571.74 63.9515 1647.58 136.794" stroke="#01010D" stroke-opacity="0.5" stroke-width="3"/>
<path opacity="0.684211" d="M977.472 119.531C985.12 142.963 1019.26 189.462 1094.63 188.001C1188.85 186.175 1248.83 116.529 1337.93 100.225C1403.69 88.1904 1567.89 92.4896 1635.7 172.861" stroke="#01010D" stroke-opacity="0.5" stroke-width="3"/>
<path opacity="0.736842" d="M971.167 86.7525C976.323 110.856 1005.41 160.668 1080.53 167.094C1174.42 175.126 1241.35 112.131 1331.67 105.23C1398.33 100.136 1561.18 121.574 1620.22 208.594" stroke="#01010D" stroke-opacity="0.5" stroke-width="3"/>
<path opacity="0.789474" d="M968.424 54.602C971.032 79.1119 994.756 131.692 1068.79 145.934C1161.32 163.736 1234.47 108.084 1325.02 110.661C1391.85 112.562 1551.56 150.906 1601.18 243.62" stroke="#01010D" stroke-opacity="0.5" stroke-width="3"/>
<path opacity="0.842105" d="M969.154 23.4464C969.186 48.0947 987.285 102.867 1059.42 124.769C1149.59 152.146 1228.16 104.445 1317.94 116.472C1384.2 125.349 1539.03 180.177 1578.69 277.57" stroke="#01010D" stroke-opacity="0.5" stroke-width="3"/>
<path opacity="0.894737" d="M973.238 -6.35577C970.694 18.1609 982.967 74.5247 1052.42 103.847C1139.23 140.5 1222.36 101.272 1310.39 122.618C1375.36 138.373 1523.61 209.085 1552.87 310.09" stroke="#01010D" stroke-opacity="0.5" stroke-width="3"/>
<path opacity="0.947368" d="M980.515 -34.4609C975.421 -10.3446 981.736 46.9934 1047.74 83.4147C1130.25 128.941 1217.02 98.6176 1302.33 129.048C1365.3 151.507 1505.35 237.329 1523.89 340.839" stroke="#01010D" stroke-opacity="0.5" stroke-width="3"/>
<path d="M990.788 -60.5456C983.201 -37.0937 983.488 20.5902 1045.32 63.7114C1122.62 117.613 1212.08 96.5252 1293.75 135.707C1354.03 164.625 1484.34 264.616 1491.96 369.497" stroke="#01010D" stroke-opacity="0.5" stroke-width="3"/>
</g>
</svg>
