<svg width="207" height="270" viewBox="0 0 207 270" fill="none" xmlns="http://www.w3.org/2000/svg">
<g opacity="0.45">
<path opacity="0.0526316" d="M208.517 215.942C219.382 215.928 243.524 207.951 253.177 176.155C265.245 136.412 244.219 101.781 249.52 62.2094C253.433 33.0025 277.6 -35.2429 320.528 -52.7226" stroke="#01010D" stroke-opacity="0.5" stroke-width="3"/>
<path opacity="0.105263" d="M190.088 210.173C200.894 211.295 225.737 205.885 238.662 175.273C254.817 137.008 237.527 100.37 246.935 61.5692C253.88 32.9313 285.047 -32.4141 329.567 -45.3109" stroke="#01010D" stroke-opacity="0.5" stroke-width="3"/>
<path opacity="0.157895" d="M172.406 202.998C183.036 205.243 208.309 202.459 224.362 173.366C244.429 137 231.063 98.7545 244.476 61.1498C254.376 33.3946 292.203 -28.3349 337.827 -36.5075" stroke="#01010D" stroke-opacity="0.5" stroke-width="3"/>
<path opacity="0.210526" d="M155.615 194.502C165.952 197.846 191.377 197.72 210.384 170.464C234.142 136.394 224.847 96.9614 242.117 60.9646C254.864 34.3963 298.937 -23.041 345.165 -26.3998" stroke="#01010D" stroke-opacity="0.5" stroke-width="3"/>
<path opacity="0.263158" d="M139.848 184.783C149.779 189.189 175.078 191.721 196.83 166.601C224.019 135.202 218.897 95.0134 239.835 61.019C255.289 35.9287 305.124 -16.5871 351.45 -15.0953" stroke="#01010D" stroke-opacity="0.5" stroke-width="3"/>
<path opacity="0.315789" d="M125.227 173.959C134.643 179.379 159.539 184.542 183.797 161.833C214.12 133.448 213.226 92.9442 237.603 61.3247C255.595 37.9871 310.647 -9.03175 356.563 -2.70569" stroke="#01010D" stroke-opacity="0.5" stroke-width="3"/>
<path opacity="0.368421" d="M111.862 162.153C120.659 168.527 144.879 176.264 171.378 156.216C204.502 131.155 207.847 90.7801 235.395 61.8818C255.728 40.5528 315.393 -0.454092 360.397 10.6369" stroke="#01010D" stroke-opacity="0.5" stroke-width="3"/>
<path opacity="0.421053" d="M99.8472 149.504C107.93 156.763 131.209 166.989 159.658 149.82C195.22 128.359 202.767 88.5553 233.185 62.695C255.636 43.6081 319.261 9.06259 362.859 24.797" stroke="#01010D" stroke-opacity="0.5" stroke-width="3"/>
<path opacity="0.473684" d="M89.265 136.154C96.5451 144.218 118.627 156.821 148.715 142.72C186.325 125.094 197.992 86.2967 230.947 63.7576C255.27 47.1221 322.157 19.4164 363.871 39.6218" stroke="#01010D" stroke-opacity="0.5" stroke-width="3"/>
<path opacity="0.526316" d="M80.1802 122.259C86.5774 131.04 107.221 145.882 138.618 135.004C177.865 121.405 193.523 84.0403 228.653 65.0693C254.582 51.0674 323.998 30.505 363.372 54.9601" stroke="#01010D" stroke-opacity="0.5" stroke-width="3"/>
<path opacity="0.578947" d="M72.6412 107.978C78.0856 117.38 97.0649 134.299 129.427 126.762C169.88 117.34 189.358 81.8165 226.279 66.6216C253.529 55.4066 324.715 42.2129 361.317 70.6497" stroke="#01010D" stroke-opacity="0.5" stroke-width="3"/>
<path opacity="0.631579" d="M66.6802 93.4761C71.112 103.395 88.2189 122.205 121.192 118.092C162.408 112.951 185.493 79.658 223.799 68.4055C252.072 60.1004 324.247 54.4199 357.676 86.5269" stroke="#01010D" stroke-opacity="0.5" stroke-width="3"/>
<path opacity="0.684211" d="M62.3118 78.9174C65.6825 89.2455 80.7294 109.741 113.952 109.097C155.479 108.292 181.918 77.5942 221.191 70.4076C250.177 65.1033 322.55 66.9982 352.44 102.424" stroke="#01010D" stroke-opacity="0.5" stroke-width="3"/>
<path opacity="0.736842" d="M59.5329 64.4694C61.8056 75.0933 74.6277 97.0491 107.735 99.8813C149.12 103.422 178.622 75.6557 218.431 72.6135C247.813 70.3682 319.592 79.8178 345.615 118.173" stroke="#01010D" stroke-opacity="0.5" stroke-width="3"/>
<path opacity="0.789474" d="M58.3234 50.2978C59.4731 61.101 69.93 84.2769 102.56 90.5543C143.348 98.401 175.591 73.871 215.5 75.0067C244.956 75.845 315.353 92.7457 337.224 133.611" stroke="#01010D" stroke-opacity="0.5" stroke-width="3"/>
<path opacity="0.842105" d="M58.6457 36.5658C58.6598 47.4301 66.6369 71.572 98.432 81.2257C138.176 93.293 172.806 72.2676 212.378 77.5688C241.585 81.4814 309.83 105.648 327.31 148.576" stroke="#01010D" stroke-opacity="0.5" stroke-width="3"/>
<path opacity="0.894737" d="M60.4457 23.4302C59.3241 34.2364 64.734 59.0799 95.3458 72.0043C133.611 88.1598 170.249 70.8695 209.05 80.278C237.688 87.2221 303.033 118.39 315.93 162.91" stroke="#01010D" stroke-opacity="0.5" stroke-width="3"/>
<path opacity="0.947368" d="M63.6529 11.0425C61.4079 21.6722 64.1913 46.9451 93.2845 62.9985C129.651 83.0653 167.896 69.6995 205.501 83.1122C233.256 93.0118 294.986 130.839 303.158 176.464" stroke="#01010D" stroke-opacity="0.5" stroke-width="3"/>
<path d="M68.1809 -0.454989C64.8371 9.88188 64.9635 35.3072 92.2193 54.3138C126.289 78.0719 165.722 68.7771 201.719 86.0471C228.287 98.7936 285.724 142.867 289.083 189.095" stroke="#01010D" stroke-opacity="0.5" stroke-width="3"/>
</g>
</svg>
