<svg width="161" height="176" viewBox="0 0 161 176" fill="none" xmlns="http://www.w3.org/2000/svg">
<g opacity="0.45">
<path opacity="0.0526316" d="M62.9971 -114.552C56.413 -105.91 48.0963 -81.8831 67.5018 -54.9099C91.7588 -21.1935 132.042 -16.8783 160.269 11.3569C181.103 32.1966 220.664 92.8302 208.494 137.554" stroke="#01010D" stroke-opacity="0.5" stroke-width="3"/>
<path opacity="0.105263" d="M78.7689 -125.698C71.3176 -117.792 60.5349 -94.7657 77.0146 -65.9119C97.6143 -29.8446 137.226 -21.3423 162.347 9.68879C180.889 32.5921 213.894 97.0287 197.116 140.236" stroke="#01010D" stroke-opacity="0.5" stroke-width="3"/>
<path opacity="0.157895" d="M95.2048 -135.39C86.9679 -128.306 73.8374 -106.533 87.2108 -76.1148C103.928 -38.0919 142.433 -25.4957 164.173 7.99137C180.219 32.7073 206.309 100.241 185.106 141.458" stroke="#01010D" stroke-opacity="0.5" stroke-width="3"/>
<path opacity="0.210526" d="M112.149 -143.575C103.216 -137.39 87.8819 -117.109 98.0025 -85.4598C110.653 -45.8978 147.631 -29.3457 165.752 6.23039C179.126 32.4882 198.014 102.379 172.619 141.153" stroke="#01010D" stroke-opacity="0.5" stroke-width="3"/>
<path opacity="0.263158" d="M129.444 -150.206C119.914 -144.989 102.544 -126.422 109.301 -93.8881C117.747 -53.2204 152.792 -32.8937 167.095 4.38162C177.651 31.8936 189.13 103.376 159.821 139.283" stroke="#01010D" stroke-opacity="0.5" stroke-width="3"/>
<path opacity="0.315789" d="M146.921 -155.254C136.898 -151.062 117.682 -134.412 121.001 -101.35C125.15 -60.0225 157.878 -36.144 168.207 2.42219C175.83 30.8869 179.773 103.177 146.872 135.825" stroke="#01010D" stroke-opacity="0.5" stroke-width="3"/>
<path opacity="0.368421" d="M164.418 -158.71C154.011 -155.588 133.16 -141.039 133.005 -107.811C132.811 -66.2755 162.865 -39.1067 169.105 0.327744C173.711 29.4333 170.076 101.74 133.943 130.769" stroke="#01010D" stroke-opacity="0.5" stroke-width="3"/>
<path opacity="0.421053" d="M181.761 -160.575C171.086 -158.559 148.828 -146.268 145.201 -113.239C140.666 -71.9513 167.715 -41.79 169.799 -1.91923C171.337 27.5084 160.165 99.039 121.194 124.132" stroke="#01010D" stroke-opacity="0.5" stroke-width="3"/>
<path opacity="0.473684" d="M198.795 -160.881C187.967 -159.991 164.546 -150.095 157.486 -117.625C148.661 -77.0379 172.409 -44.2144 170.314 -4.34421C168.768 25.083 150.179 95.0539 108.799 115.936" stroke="#01010D" stroke-opacity="0.5" stroke-width="3"/>
<path opacity="0.526316" d="M215.352 -159.666C204.49 -159.913 180.164 -152.519 169.748 -120.965C156.729 -81.5227 176.916 -46.3967 170.664 -6.96396C166.051 22.1404 140.25 89.785 96.9144 106.228" stroke="#01010D" stroke-opacity="0.5" stroke-width="3"/>
<path opacity="0.578947" d="M231.277 -156.987C220.501 -158.368 195.534 -153.557 181.877 -123.264C164.807 -85.3991 181.211 -48.3555 170.872 -9.79216C163.242 18.6705 130.512 83.2477 85.6945 95.0703" stroke="#01010D" stroke-opacity="0.5" stroke-width="3"/>
<path opacity="0.631579" d="M246.42 -152.919C235.847 -155.419 210.514 -153.244 193.766 -124.545C172.831 -88.6713 185.273 -50.1159 170.96 -12.8444C160.396 14.6647 121.095 75.4669 75.2879 82.5401" stroke="#01010D" stroke-opacity="0.5" stroke-width="3"/>
<path opacity="0.684211" d="M260.639 -147.551C250.386 -151.142 224.965 -151.627 205.308 -124.836C180.738 -91.3478 189.082 -51.703 170.951 -16.1319C157.57 10.1223 112.129 66.4833 65.8328 68.7297" stroke="#01010D" stroke-opacity="0.5" stroke-width="3"/>
<path opacity="0.736842" d="M273.808 -140.991C263.987 -145.634 238.755 -148.774 216.406 -124.184C188.47 -93.4471 192.624 -53.1473 170.875 -19.6662C154.822 5.04534 103.739 56.3477 57.4618 53.7425" stroke="#01010D" stroke-opacity="0.5" stroke-width="3"/>
<path opacity="0.789474" d="M285.804 -133.349C276.521 -138.993 251.756 -144.753 226.959 -122.634C195.963 -94.9859 195.882 -54.4726 170.752 -23.4483C152.204 -0.550055 96.0382 45.1316 50.287 37.7034" stroke="#01010D" stroke-opacity="0.5" stroke-width="3"/>
<path opacity="0.842105" d="M296.52 -124.756C287.878 -131.34 263.851 -139.657 236.878 -120.252C203.162 -95.9946 198.846 -55.7117 170.611 -27.4842C149.771 -6.65018 89.1378 32.9103 44.4137 20.7405" stroke="#01010D" stroke-opacity="0.5" stroke-width="3"/>
<path opacity="0.894737" d="M305.866 -115.35C297.96 -122.802 274.934 -133.584 246.08 -117.105C210.013 -96.5048 201.51 -56.8936 170.479 -31.7721C147.576 -13.2306 83.1393 19.7752 39.9322 2.99714" stroke="#01010D" stroke-opacity="0.5" stroke-width="3"/>
<path opacity="0.947368" d="M313.764 -105.283C306.68 -113.52 284.907 -126.651 254.489 -113.277C216.466 -96.5606 203.87 -58.0552 170.383 -36.3149C145.667 -20.269 78.133 5.82053 36.9165 -15.382" stroke="#01010D" stroke-opacity="0.5" stroke-width="3"/>
<path d="M320.151 -94.7048C313.967 -103.637 293.686 -118.972 262.036 -108.851C222.474 -96.2002 205.922 -59.2223 170.346 -41.1015C144.088 -27.727 74.1972 -8.83959 35.4227 -34.2343" stroke="#01010D" stroke-opacity="0.5" stroke-width="3"/>
</g>
</svg>
