<svg width="204" height="264" viewBox="0 0 204 264" fill="none" xmlns="http://www.w3.org/2000/svg">
<g opacity="0.45">
<path opacity="0.0526316" d="M276.135 -89.4757C266.108 -93.6569 240.758 -95.6184 219.578 -70.0151C193.102 -38.011 199.128 2.05167 178.961 36.509C164.076 61.9411 115.436 115.566 69.0882 115.118" stroke="#01010D" stroke-opacity="0.5" stroke-width="3"/>
<path opacity="0.105263" d="M290.909 -77.0401C281.374 -82.2466 256.368 -86.8471 232.628 -63.5981C202.952 -34.5367 204.757 5.93641 181.099 38.0969C163.637 61.8338 109.658 110.081 63.6109 104.79" stroke="#01010D" stroke-opacity="0.5" stroke-width="3"/>
<path opacity="0.157895" d="M304.449 -63.5937C295.51 -69.7683 271.122 -76.9576 245.082 -56.3174C212.531 -30.5172 210.096 9.92293 183.205 39.4343C163.358 61.2159 104.632 103.556 59.3896 93.4815" stroke="#01010D" stroke-opacity="0.5" stroke-width="3"/>
<path opacity="0.210526" d="M316.659 -49.2731C308.414 -56.3483 284.911 -66.0474 256.856 -48.2422C221.787 -25.9858 215.137 13.9782 185.309 40.517C163.294 60.1047 100.464 96.0744 56.5227 81.3259" stroke="#01010D" stroke-opacity="0.5" stroke-width="3"/>
<path opacity="0.263158" d="M327.452 -34.2219C319.992 -42.1201 297.632 -54.2228 267.869 -39.4478C230.666 -20.9791 219.876 18.071 187.437 41.3466C163.495 58.5257 97.2489 87.7308 55.09 68.47" stroke="#01010D" stroke-opacity="0.5" stroke-width="3"/>
<path opacity="0.315789" d="M336.761 -18.5924C330.168 -27.2271 309.195 -41.6008 278.051 -30.0178C239.121 -15.5391 224.308 22.1692 189.614 41.9265C164.007 56.5089 95.0714 78.6295 55.1568 55.0674" stroke="#01010D" stroke-opacity="0.5" stroke-width="3"/>
<path opacity="0.368421" d="M344.533 -2.54053C338.878 -11.8172 319.522 -28.3044 287.338 -20.0403C247.108 -9.71015 228.434 26.2432 191.865 42.2658C164.875 54.0917 94.0043 68.8853 56.7712 41.28" stroke="#01010D" stroke-opacity="0.5" stroke-width="3"/>
<path opacity="0.421053" d="M350.732 13.7656C346.078 3.94871 328.552 -14.4714 295.68 -9.61674C254.59 -3.54843 232.261 30.2561 194.217 42.3684C166.138 51.3082 94.1099 58.6128 59.9664 27.2668" stroke="#01010D" stroke-opacity="0.5" stroke-width="3"/>
<path opacity="0.473684" d="M355.34 30.1661C351.738 19.9165 336.233 -0.234643 303.034 1.15737C261.535 2.89738 235.795 34.1827 196.693 42.252C167.834 48.2078 95.4363 47.9433 64.7564 13.2001" stroke="#01010D" stroke-opacity="0.5" stroke-width="3"/>
<path opacity="0.526316" d="M358.356 46.492C355.845 35.922 342.531 14.2606 309.368 12.1747C267.915 9.56734 239.045 37.9907 199.315 41.9286C169.991 44.8351 98.0175 37.0045 71.1372 -0.755314" stroke="#01010D" stroke-opacity="0.5" stroke-width="3"/>
<path opacity="0.578947" d="M359.797 62.5749C358.405 51.8003 347.428 28.8659 314.665 23.325C273.711 16.3988 242.029 41.6488 202.104 41.4122C172.637 41.2375 101.877 25.9265 79.0907 -14.4362" stroke="#01010D" stroke-opacity="0.5" stroke-width="3"/>
<path opacity="0.631579" d="M359.698 78.2547C359.439 67.3936 350.92 43.4375 318.916 34.5022C278.91 23.3332 244.762 45.1331 205.081 40.7246C175.793 37.4707 107.021 14.8471 88.5789 -27.6762" stroke="#01010D" stroke-opacity="0.5" stroke-width="3"/>
<path opacity="0.684211" d="M358.106 93.3701C358.984 82.5414 353.016 57.8261 322.121 45.5944C283.502 30.3048 247.262 48.4159 208.259 39.8836C179.472 33.5862 113.442 3.89793 99.5454 -40.3202" stroke="#01010D" stroke-opacity="0.5" stroke-width="3"/>
<path opacity="0.736842" d="M355.093 107.771C357.098 97.0932 353.746 71.8894 324.299 56.4953C287.49 37.2527 249.555 51.4764 211.658 38.9141C183.687 29.6421 121.121 -6.78567 111.923 -52.2142" stroke="#01010D" stroke-opacity="0.5" stroke-width="3"/>
<path opacity="0.789474" d="M350.738 121.311C353.848 110.901 353.149 85.4851 325.472 67.0973C290.876 44.1124 251.662 54.293 215.286 37.8381C188.437 25.6932 130.022 -17.0749 125.623 -63.216" stroke="#01010D" stroke-opacity="0.5" stroke-width="3"/>
<path opacity="0.842105" d="M345.139 133.854C349.32 123.826 351.281 98.4765 325.678 77.2963C293.674 50.8211 253.611 56.847 219.154 36.6799C193.722 21.795 140.097 -26.8449 140.545 -73.193" stroke="#01010D" stroke-opacity="0.5" stroke-width="3"/>
<path opacity="0.894737" d="M338.407 145.278C343.614 135.742 348.214 110.736 324.965 86.9957C295.904 57.3202 255.431 59.1254 223.27 35.467C199.533 18.0053 151.286 -35.9735 156.577 -82.0209" stroke="#01010D" stroke-opacity="0.5" stroke-width="3"/>
<path opacity="0.947368" d="M330.666 155.466C336.841 146.527 344.03 122.139 323.39 96.0983C297.589 63.5476 257.149 61.1124 227.638 34.2218C205.856 14.3746 163.516 -44.3516 173.591 -89.5938" stroke="#01010D" stroke-opacity="0.5" stroke-width="3"/>
<path d="M322.051 164.325C329.127 156.08 338.826 132.577 321.021 104.522C298.764 69.4528 258.8 62.8038 232.261 32.9758C212.674 10.9605 176.704 -51.8698 191.452 -95.811" stroke="#01010D" stroke-opacity="0.5" stroke-width="3"/>
</g>
</svg>
