<svg width="249" height="249" viewBox="0 0 249 249" fill="none" xmlns="http://www.w3.org/2000/svg">
<g opacity="0.45">
<path opacity="0.0526316" d="M348.659 11.4704C345.308 1.13592 330.3 -19.3878 297.077 -18.8069C255.548 -18.0807 229.051 12.5668 189.765 19.6789C160.768 24.9282 88.3988 22.8961 58.5763 -12.5859" stroke="#01010D" stroke-opacity="0.5" stroke-width="3"/>
<path opacity="0.105263" d="M348.83 30.7798C346.578 20.1516 333.797 -1.8285 300.695 -4.72353C259.318 -8.34231 229.763 19.3676 189.948 22.3343C160.562 24.5238 88.8013 14.9381 62.8511 -23.4668" stroke="#01010D" stroke-opacity="0.5" stroke-width="3"/>
<path opacity="0.157895" d="M347.436 49.8137C346.307 39.0083 335.894 15.8127 303.276 9.47347C262.503 1.54938 230.214 26.0182 190.307 24.8068C160.853 23.9127 90.4873 6.87846 68.6936 -34.0286" stroke="#01010D" stroke-opacity="0.5" stroke-width="3"/>
<path opacity="0.210526" d="M344.509 68.3985C344.516 57.5343 336.585 33.3773 304.808 23.6632C265.087 11.5206 230.417 32.4802 190.855 27.1041C161.656 23.1361 93.4562 -1.16004 76.0578 -44.1211" stroke="#01010D" stroke-opacity="0.5" stroke-width="3"/>
<path opacity="0.263158" d="M340.105 86.392C341.247 75.5879 335.884 50.7342 305.297 37.7518C267.063 21.5238 230.391 38.7445 191.609 29.2625C162.984 22.264 97.6977 -9.02776 84.8853 -53.5721" stroke="#01010D" stroke-opacity="0.5" stroke-width="3"/>
<path opacity="0.315789" d="M334.296 103.633C336.561 93.0075 333.825 67.7294 304.763 51.6208C268.434 31.4851 230.164 44.7784 192.585 31.2944C164.848 21.3422 103.191 -16.6025 95.1047 -62.242" stroke="#01010D" stroke-opacity="0.5" stroke-width="3"/>
<path opacity="0.368421" d="M327.167 119.976C330.53 109.646 330.452 84.2201 303.232 65.1619C269.207 41.3392 229.757 50.5592 193.793 33.221C167.249 20.4241 109.895 -23.7577 106.624 -69.9924" stroke="#01010D" stroke-opacity="0.5" stroke-width="3"/>
<path opacity="0.421053" d="M318.821 135.298C323.245 125.375 325.825 100.081 300.747 78.282C269.399 51.0333 229.201 56.0791 195.246 35.0766C170.185 19.5752 117.764 -30.3596 119.344 -76.683" stroke="#01010D" stroke-opacity="0.5" stroke-width="3"/>
<path opacity="0.473684" d="M309.365 149.467C314.803 140.062 320.013 115.176 297.35 90.8747C269.022 60.4985 228.517 61.3149 196.944 36.8782C173.641 18.8421 126.726 -36.2986 133.139 -82.2031" stroke="#01010D" stroke-opacity="0.5" stroke-width="3"/>
<path opacity="0.526316" d="M298.934 162.381C305.325 153.596 313.108 129.39 293.109 102.854C268.112 69.6826 227.743 66.2606 198.897 38.6575C177.607 18.2844 136.713 -41.4582 147.889 -86.4409" stroke="#01010D" stroke-opacity="0.5" stroke-width="3"/>
<path opacity="0.578947" d="M287.657 173.945C294.932 165.875 305.202 142.616 288.087 114.134C266.693 78.5321 226.904 70.9092 201.101 40.4421C182.057 17.9551 147.632 -45.7348 163.449 -89.3028" stroke="#01010D" stroke-opacity="0.5" stroke-width="3"/>
<path opacity="0.631579" d="M275.689 184.073C283.767 176.808 296.412 154.75 282.368 124.635C264.814 86.992 226.039 75.2517 203.562 42.2544C186.973 17.8999 159.394 -49.0395 179.678 -90.7155" stroke="#01010D" stroke-opacity="0.5" stroke-width="3"/>
<path opacity="0.684211" d="M263.174 192.704C271.968 186.324 286.849 165.708 276.03 134.29C262.506 95.0183 225.171 79.2892 206.266 44.1232C192.314 18.168 171.883 -51.2873 196.413 -90.6147" stroke="#01010D" stroke-opacity="0.5" stroke-width="3"/>
<path opacity="0.736842" d="M250.281 199.786C259.693 194.36 276.648 175.412 269.172 143.036C259.827 102.565 224.341 83.0196 209.216 46.0702C198.053 18.7988 184.994 -52.4117 213.5 -88.9596" stroke="#01010D" stroke-opacity="0.5" stroke-width="3"/>
<path opacity="0.789474" d="M237.167 205.291C247.095 200.878 265.937 183.807 261.887 150.827C256.824 109.601 223.574 86.453 212.395 48.125C204.143 19.8361 198.6 -52.3493 230.77 -85.7173" stroke="#01010D" stroke-opacity="0.5" stroke-width="3"/>
<path opacity="0.842105" d="M223.998 209.204C234.332 205.853 254.856 190.845 254.275 157.621C253.549 116.092 222.902 89.5955 215.789 50.3089C210.54 21.3125 212.572 -51.057 248.054 -80.8795" stroke="#01010D" stroke-opacity="0.5" stroke-width="3"/>
<path opacity="0.894737" d="M210.947 211.525C221.575 209.272 243.555 196.492 246.45 163.39C250.069 122.012 222.359 92.4573 219.393 52.6425C217.203 23.2562 226.789 -48.5044 265.194 -74.4546" stroke="#01010D" stroke-opacity="0.5" stroke-width="3"/>
<path opacity="0.947368" d="M198.171 212.276C208.976 211.146 232.172 200.734 238.511 168.115C246.435 127.343 221.966 95.0534 223.178 55.1466C224.072 25.6924 241.106 -44.6731 282.013 -66.4668" stroke="#01010D" stroke-opacity="0.5" stroke-width="3"/>
<path d="M185.838 211.5C196.703 211.507 220.86 203.576 230.574 171.799C242.716 132.078 221.757 97.4075 227.133 57.8459C231.101 28.6466 255.397 -39.5529 298.358 -56.9512" stroke="#01010D" stroke-opacity="0.5" stroke-width="3"/>
</g>
</svg>
