<svg width="465" height="369" viewBox="0 0 465 369" fill="none" xmlns="http://www.w3.org/2000/svg">
<g opacity="0.45">
<path opacity="0.0526316" d="M-28.8227 470.407C-4.17436 470.375 50.5977 452.277 72.4998 380.141C99.8775 289.972 52.1761 211.404 64.2031 121.625C73.0799 55.3618 127.908 -99.4705 225.301 -139.128" stroke="#01010D" stroke-opacity="0.5" stroke-width="3"/>
<path opacity="0.105263" d="M-70.6356 457.32C-46.1189 459.864 10.2449 447.591 39.5672 378.14C76.2201 291.326 36.9927 208.202 58.3382 120.173C74.0928 55.2002 144.805 -93.0527 245.81 -122.312" stroke="#01010D" stroke-opacity="0.5" stroke-width="3"/>
<path opacity="0.157895" d="M-110.75 441.041C-86.6342 446.134 -29.2962 439.819 7.12513 373.814C52.6517 291.307 22.328 204.538 52.7582 119.222C75.2179 56.2521 161.04 -83.7973 264.55 -102.339" stroke="#01010D" stroke-opacity="0.5" stroke-width="3"/>
<path opacity="0.210526" d="M-148.845 421.764C-125.394 429.35 -67.7096 429.063 -24.5884 367.226C29.3131 289.93 8.22536 200.467 47.4068 118.799C76.3256 58.5222 176.316 -71.7891 281.198 -79.4094" stroke="#01010D" stroke-opacity="0.5" stroke-width="3"/>
<path opacity="0.263158" d="M-184.617 399.717C-162.087 409.713 -104.689 415.457 -55.3402 358.467C6.34568 287.229 -5.27513 196.051 42.2283 118.926C77.2894 62.0021 190.354 -57.1435 295.457 -53.7589" stroke="#01010D" stroke-opacity="0.5" stroke-width="3"/>
<path opacity="0.315789" d="M-217.788 375.159C-196.426 387.456 -139.943 399.168 -84.9078 347.648C-16.1134 283.248 -18.1399 191.356 37.1651 119.619C77.9842 66.6713 202.883 -40.0032 307.057 -25.6509" stroke="#01010D" stroke-opacity="0.5" stroke-width="3"/>
<path opacity="0.368421" d="M-248.112 348.375C-228.152 362.837 -173.203 380.389 -113.083 334.904C-37.9342 278.048 -30.3442 186.447 32.1564 120.884C78.2864 72.4933 213.652 -20.5413 315.754 4.62144" stroke="#01010D" stroke-opacity="0.5" stroke-width="3"/>
<path opacity="0.421053" d="M-275.37 319.673C-257.031 336.142 -204.217 359.343 -139.673 320.391C-58.9923 271.701 -41.8689 181.395 27.1424 122.724C78.078 79.4209 222.426 1.04546 321.34 36.743" stroke="#01010D" stroke-opacity="0.5" stroke-width="3"/>
<path opacity="0.473684" d="M-299.377 289.386C-282.86 307.682 -232.761 336.276 -164.499 304.284C-79.1705 264.295 -52.7014 176.273 22.0647 125.138C77.2477 87.3955 228.998 24.5379 323.638 70.3792" stroke="#01010D" stroke-opacity="0.5" stroke-width="3"/>
<path opacity="0.526316" d="M-319.989 257.863C-305.475 277.785 -258.639 311.459 -187.406 286.778C-98.3656 255.927 -62.8408 171.154 16.8608 128.114C75.6866 96.3466 233.176 49.6956 322.506 105.178" stroke="#01010D" stroke-opacity="0.5" stroke-width="3"/>
<path opacity="0.578947" d="M-337.093 225.464C-324.741 246.794 -281.682 285.179 -208.26 268.079C-116.482 246.704 -72.2908 166.109 11.4732 131.636C73.2973 106.192 234.8 76.2584 317.841 140.775" stroke="#01010D" stroke-opacity="0.5" stroke-width="3"/>
<path opacity="0.631579" d="M-350.617 192.561C-340.563 215.065 -301.751 257.74 -226.944 248.409C-133.435 236.744 -81.061 161.211 5.84758 135.682C69.9926 116.839 233.74 103.951 309.582 176.794" stroke="#01010D" stroke-opacity="0.5" stroke-width="3"/>
<path opacity="0.684211" d="M-360.528 159.531C-352.88 182.963 -318.743 229.462 -243.37 228.001C-149.153 226.175 -89.1712 156.529 -0.0701471 140.225C65.6931 128.19 229.89 132.49 297.703 212.861" stroke="#01010D" stroke-opacity="0.5" stroke-width="3"/>
<path opacity="0.736842" d="M-366.833 126.753C-361.677 150.856 -332.586 200.668 -257.474 207.094C-163.583 215.126 -96.649 152.131 -6.33178 145.23C60.3291 140.136 223.177 161.574 282.217 248.594" stroke="#01010D" stroke-opacity="0.5" stroke-width="3"/>
<path opacity="0.789474" d="M-369.576 94.602C-366.968 119.112 -343.244 171.692 -269.214 185.934C-176.677 203.736 -103.526 148.084 -12.9816 150.661C53.8466 152.562 213.562 190.906 263.182 283.62" stroke="#01010D" stroke-opacity="0.5" stroke-width="3"/>
<path opacity="0.842105" d="M-368.846 63.4464C-368.814 88.0947 -350.715 142.867 -278.58 164.769C-188.411 192.146 -109.843 144.445 -20.064 156.472C46.1993 165.349 201.032 220.177 240.689 317.57" stroke="#01010D" stroke-opacity="0.5" stroke-width="3"/>
<path opacity="0.894737" d="M-364.762 33.6442C-367.306 58.1609 -355.033 114.525 -285.582 143.847C-198.768 180.5 -115.644 141.272 -27.6145 162.618C37.3579 178.373 185.611 249.085 214.871 350.09" stroke="#01010D" stroke-opacity="0.5" stroke-width="3"/>
<path opacity="0.947368" d="M-357.485 5.53905C-362.579 29.6554 -356.264 86.9934 -290.258 123.415C-207.752 168.941 -120.983 138.618 -35.6666 169.048C27.3031 191.507 167.352 277.329 185.894 380.839" stroke="#01010D" stroke-opacity="0.5" stroke-width="3"/>
<path d="M-347.212 -20.5456C-354.799 2.90625 -354.512 60.5902 -292.675 103.711C-215.379 157.613 -125.916 136.525 -44.248 175.707C16.0291 204.625 146.34 304.616 153.961 409.497" stroke="#01010D" stroke-opacity="0.5" stroke-width="3"/>
</g>
</svg>
