<svg width="483" height="369" viewBox="0 0 483 369" fill="none" xmlns="http://www.w3.org/2000/svg">
<g opacity="0.45">
<path opacity="0.0526316" d="M472.177 430.407C496.826 430.375 551.598 412.277 573.5 340.141C600.877 249.972 553.176 171.404 565.203 81.625C574.08 15.3618 628.908 -139.471 726.301 -179.128" stroke="#01010D" stroke-opacity="0.5" stroke-width="3"/>
<path opacity="0.105263" d="M430.364 417.32C454.881 419.864 511.245 407.591 540.567 338.14C577.22 251.326 537.993 168.202 559.338 80.1726C575.093 15.2002 645.805 -133.053 746.81 -162.312" stroke="#01010D" stroke-opacity="0.5" stroke-width="3"/>
<path opacity="0.157895" d="M390.25 401.041C414.366 406.134 471.704 399.819 508.125 333.814C553.652 251.307 523.328 164.538 553.758 79.2218C576.218 16.2521 662.04 -123.797 765.55 -142.339" stroke="#01010D" stroke-opacity="0.5" stroke-width="3"/>
<path opacity="0.210526" d="M352.155 381.764C375.606 389.35 433.29 389.063 476.412 327.226C530.313 249.93 509.225 160.467 548.407 78.7992C577.326 18.5222 677.316 -111.789 782.198 -119.409" stroke="#01010D" stroke-opacity="0.5" stroke-width="3"/>
<path opacity="0.263158" d="M316.383 359.717C338.914 369.713 396.312 375.457 445.66 318.467C507.346 247.229 495.725 156.051 543.229 78.9261C578.29 22.0021 691.354 -97.1435 796.457 -93.7589" stroke="#01010D" stroke-opacity="0.5" stroke-width="3"/>
<path opacity="0.315789" d="M283.212 335.159C304.574 347.456 361.057 359.168 416.092 307.648C484.887 243.248 482.86 151.356 538.165 79.6186C578.984 26.6713 703.883 -80.0032 808.057 -65.6509" stroke="#01010D" stroke-opacity="0.5" stroke-width="3"/>
<path opacity="0.368421" d="M252.889 308.375C272.848 322.837 327.798 340.389 387.917 294.904C463.066 238.048 470.656 146.447 533.157 80.8837C579.287 32.4933 714.652 -60.5413 816.755 -35.3786" stroke="#01010D" stroke-opacity="0.5" stroke-width="3"/>
<path opacity="0.421053" d="M225.63 279.673C243.969 296.142 296.783 319.343 361.327 280.391C442.008 231.701 459.131 141.395 528.142 82.7243C579.078 39.4209 723.426 -38.9545 822.34 -3.25697" stroke="#01010D" stroke-opacity="0.5" stroke-width="3"/>
<path opacity="0.473684" d="M201.623 249.387C218.139 267.683 268.239 296.276 336.501 264.285C421.829 224.295 448.298 136.274 523.064 85.138C578.247 47.396 729.997 -15.4616 824.637 30.3797" stroke="#01010D" stroke-opacity="0.5" stroke-width="3"/>
<path opacity="0.526316" d="M181.011 217.863C195.525 237.785 242.361 271.459 313.594 246.778C402.634 215.927 438.159 131.154 517.861 88.1137C576.687 56.3466 734.176 9.69562 823.506 65.1783" stroke="#01010D" stroke-opacity="0.5" stroke-width="3"/>
<path opacity="0.578947" d="M163.907 185.464C176.259 206.794 219.318 245.179 292.74 228.079C384.518 206.704 428.709 126.109 512.473 91.6358C574.297 66.1917 735.8 36.2584 818.841 100.775" stroke="#01010D" stroke-opacity="0.5" stroke-width="3"/>
<path opacity="0.631579" d="M150.383 152.561C160.437 175.065 199.249 217.74 274.056 208.409C367.565 196.744 419.939 121.211 506.848 95.6815C570.993 76.8392 734.74 63.9515 810.582 136.794" stroke="#01010D" stroke-opacity="0.5" stroke-width="3"/>
<path opacity="0.684211" d="M140.472 119.531C148.12 142.963 182.257 189.462 257.63 188.001C351.847 186.175 411.829 116.529 500.93 100.225C566.693 88.1904 730.89 92.4896 798.703 172.861" stroke="#01010D" stroke-opacity="0.5" stroke-width="3"/>
<path opacity="0.736842" d="M134.167 86.7525C139.323 110.856 168.414 160.668 243.526 167.094C337.417 175.126 404.351 112.131 494.668 105.23C561.329 100.136 724.177 121.574 783.217 208.594" stroke="#01010D" stroke-opacity="0.5" stroke-width="3"/>
<path opacity="0.789474" d="M131.424 54.602C134.032 79.1119 157.756 131.692 231.786 145.934C324.323 163.736 397.474 108.084 488.018 110.661C554.847 112.562 714.562 150.906 764.182 243.62" stroke="#01010D" stroke-opacity="0.5" stroke-width="3"/>
<path opacity="0.842105" d="M132.154 23.4464C132.186 48.0947 150.285 102.867 222.42 124.769C312.589 152.146 391.157 104.445 480.936 116.472C547.199 125.349 702.032 180.177 741.689 277.57" stroke="#01010D" stroke-opacity="0.5" stroke-width="3"/>
<path opacity="0.894737" d="M136.238 -6.35577C133.694 18.1609 145.967 74.5247 215.418 103.847C302.232 140.5 385.356 101.272 473.385 122.618C538.358 138.373 686.611 209.085 715.871 310.09" stroke="#01010D" stroke-opacity="0.5" stroke-width="3"/>
<path opacity="0.947368" d="M143.515 -34.4609C138.421 -10.3446 144.736 46.9934 210.742 83.4147C293.248 128.941 380.017 98.6176 465.333 129.048C528.303 151.507 668.352 237.329 686.894 340.839" stroke="#01010D" stroke-opacity="0.5" stroke-width="3"/>
<path d="M153.788 -60.5456C146.201 -37.0937 146.488 20.5902 208.325 63.7114C285.621 117.613 375.084 96.5252 456.752 135.707C517.029 164.625 647.34 264.616 654.961 369.497" stroke="#01010D" stroke-opacity="0.5" stroke-width="3"/>
</g>
</svg>
