<svg width="844" height="534" viewBox="0 0 844 534" fill="none" xmlns="http://www.w3.org/2000/svg">
<g opacity="0.9">
<path opacity="0.0344828" d="M160.395 0.629971C87.8119 33.2967 19.0439 56.0544 -33.4586 66.4447C-59.7123 71.6404 -81.8805 73.7397 -98.4178 72.4481C-106.687 71.8022 -113.531 70.309 -118.768 67.9442C-124.003 65.5807 -127.614 62.3556 -129.463 58.2488C-131.311 54.142 -131.331 49.2994 -129.628 43.8136C-127.925 38.3252 -124.504 32.2131 -119.504 25.5956C-109.505 12.3607 -93.2331 -2.84017 -71.9346 -19.046C-29.3416 -51.4544 33.2946 -87.8365 105.877 -120.503C178.461 -153.17 247.229 -175.928 299.732 -186.318C325.986 -191.514 348.154 -193.613 364.691 -192.322C372.96 -191.676 379.803 -190.184 385.041 -187.819C390.276 -185.455 393.888 -182.229 395.736 -178.123C397.584 -174.016 397.603 -169.174 395.901 -163.688C394.198 -158.2 390.777 -152.087 385.777 -145.469C375.778 -132.234 359.506 -117.033 338.208 -100.828C295.615 -68.4192 232.978 -32.0368 160.395 0.629971Z" stroke="#01010D" stroke-opacity="0.5" stroke-width="0.67049"/>
<path opacity="0.0689655" d="M152.944 1.77102C77.7898 27.9875 7.29928 44.6654 -45.9091 50.4403C-72.5157 53.328 -94.7825 53.4873 -111.144 50.7592C-119.325 49.395 -126.013 47.3111 -131.025 44.4988C-136.033 41.688 -139.35 38.1604 -140.834 33.9082C-142.317 29.6559 -141.914 24.83 -139.74 19.5135C-137.565 14.1944 -133.625 8.40383 -128.067 2.24717C-116.952 -10.0659 -99.4176 -23.7907 -76.7877 -38.0785C-31.5321 -66.6515 34.0374 -97.4363 109.191 -123.653C184.345 -149.869 254.835 -166.547 308.043 -172.322C334.65 -175.209 356.917 -175.369 373.278 -172.641C381.46 -171.276 388.147 -169.193 393.158 -166.381C398.167 -163.57 401.484 -160.042 402.968 -155.79C404.451 -151.537 404.048 -146.712 401.874 -141.396C399.699 -136.077 395.759 -130.285 390.201 -124.129C379.086 -111.816 361.552 -98.0907 338.922 -83.8028C293.666 -55.23 228.097 -24.4454 152.944 1.77102Z" stroke="#01010D" stroke-opacity="0.5" stroke-width="0.67049"/>
<path opacity="0.103448" d="M145.317 2.44041C68.1646 22.0069 -3.51054 32.4775 -57.0196 33.593C-83.7767 34.1508 -105.973 32.3688 -122.034 28.2251C-130.066 26.1531 -136.546 23.4942 -141.293 20.2559C-146.038 17.0192 -149.035 13.216 -150.142 8.85069C-151.249 4.48524 -150.427 -0.287155 -147.798 -5.394C-145.168 -10.5033 -140.738 -15.9284 -134.665 -21.5772C-122.519 -32.8747 -103.855 -45.019 -80.0658 -57.2802C-32.4922 -81.8 35.5101 -106.753 112.663 -126.319C189.816 -145.886 261.491 -156.357 315.001 -157.472C341.758 -158.03 363.954 -156.248 380.015 -152.104C388.047 -150.032 394.527 -147.374 399.274 -144.136C404.019 -140.899 407.016 -137.095 408.123 -132.73C409.23 -128.365 408.408 -123.593 405.779 -118.486C403.149 -113.377 398.719 -107.951 392.646 -102.302C380.5 -91.0045 361.836 -78.8601 338.047 -66.599C290.473 -42.0791 222.47 -17.1262 145.317 2.44041Z" stroke="#01010D" stroke-opacity="0.5" stroke-width="0.67049"/>
<path opacity="0.137931" d="M137.571 2.6175C59.0068 15.3853 -13.3082 19.5691 -66.7108 16.0168C-93.4147 14.2404 -115.371 10.5307 -131.01 5.00283C-138.83 2.2388 -145.055 -0.974786 -149.502 -4.61455C-153.946 -8.25242 -156.6 -12.3024 -157.323 -16.7476C-158.045 -21.1929 -156.81 -25.8755 -153.746 -30.7338C-150.681 -35.5944 -145.794 -40.6127 -139.252 -45.7108C-126.168 -55.9066 -106.516 -66.3781 -81.7492 -76.5192C-32.2196 -96.7995 37.6987 -115.73 116.263 -128.498C194.828 -141.266 267.143 -145.45 320.546 -141.898C347.25 -140.121 369.206 -136.412 384.846 -130.884C392.666 -128.12 398.89 -124.907 403.337 -121.267C407.782 -117.629 410.435 -113.579 411.158 -109.133C411.88 -104.688 410.645 -100.006 407.582 -95.1481C404.516 -90.2875 399.63 -85.2683 393.087 -80.1702C380.003 -69.9743 360.352 -59.5028 335.585 -49.3617C286.055 -29.0814 216.136 -10.1503 137.571 2.6175Z" stroke="#01010D" stroke-opacity="0.5" stroke-width="0.67049"/>
<path opacity="0.172414" d="M129.742 2.29463C50.3641 8.16645 -22.0404 6.03172 -74.9302 -2.16149C-101.378 -6.25849 -122.927 -11.8677 -138.025 -18.7376C-145.574 -22.1727 -151.495 -25.9165 -155.608 -29.93C-159.718 -33.9414 -162.009 -38.2073 -162.341 -42.6985C-162.674 -47.1899 -161.036 -51.7471 -157.56 -56.3198C-154.082 -60.8947 -148.777 -65.468 -141.815 -69.9765C-127.892 -78.9932 -107.403 -87.7121 -81.8463 -95.656C-30.7377 -111.542 40.5646 -124.307 119.943 -130.179C199.321 -136.051 271.726 -133.917 324.616 -125.723C351.064 -121.626 372.613 -116.017 387.711 -109.147C395.261 -105.712 401.181 -101.969 405.294 -97.9558C409.405 -93.9443 411.695 -89.6777 412.028 -85.1863C412.36 -80.6951 410.722 -76.1386 407.246 -71.566C403.768 -66.991 398.463 -62.4168 391.502 -57.9083C377.579 -48.8916 357.089 -40.1727 331.532 -32.2288C280.424 -16.3424 209.121 -3.57724 129.742 2.29463Z" stroke="#01010D" stroke-opacity="0.5" stroke-width="0.67049"/>
<path opacity="0.206897" d="M121.879 1.47042C42.2911 0.40163 -29.6517 -8.03544 -81.6262 -20.8071C-107.616 -27.1936 -128.594 -34.6596 -143.036 -42.8192C-150.258 -46.8992 -155.829 -51.1448 -159.577 -55.5014C-163.322 -59.8559 -165.232 -64.3051 -165.172 -68.8082C-165.111 -73.3115 -163.082 -77.7086 -159.221 -81.961C-155.358 -86.2154 -149.675 -90.309 -142.347 -94.1935C-127.691 -101.962 -106.519 -108.862 -80.3674 -114.549C-28.0687 -125.92 44.0748 -132.422 123.663 -131.354C203.251 -130.285 275.194 -121.848 327.169 -109.076C353.159 -102.69 374.137 -95.2236 388.579 -87.0639C395.8 -82.984 401.372 -78.7393 405.119 -74.3826C408.865 -70.0281 410.775 -65.5781 410.715 -61.0749C410.654 -56.5718 408.625 -52.1754 404.764 -47.9231C400.901 -43.6686 395.218 -39.5742 387.889 -35.6896C373.233 -27.9207 352.062 -21.0207 325.91 -15.3344C273.611 -3.963 201.467 2.53918 121.879 1.47042Z" stroke="#01010D" stroke-opacity="0.5" stroke-width="0.67049"/>
<path opacity="0.241379" d="M114.02 0.140165C34.8284 -7.8611 -36.1053 -22.5363 -86.7689 -39.7892C-112.103 -48.4166 -132.351 -57.6825 -146.027 -67.0698C-152.865 -71.7636 -158.045 -76.4787 -161.399 -81.1454C-164.75 -85.8096 -166.266 -90.4085 -165.813 -94.8892C-165.36 -99.37 -162.956 -103.574 -158.739 -107.473C-154.52 -111.375 -148.501 -114.957 -140.862 -118.188C-125.585 -124.651 -103.893 -129.679 -77.3448 -133.064C-24.254 -139.834 48.1817 -140.024 127.374 -132.023C206.566 -124.022 277.5 -109.346 328.164 -92.0934C353.498 -83.4661 373.746 -74.2001 387.422 -64.8128C394.26 -60.119 399.441 -55.4049 402.794 -50.7382C406.146 -46.0738 407.661 -41.4743 407.208 -36.9935C406.755 -32.5128 404.351 -28.3099 400.134 -24.4104C395.915 -20.5088 389.896 -16.9253 382.257 -13.6942C366.98 -7.23215 345.288 -2.20364 318.74 1.18172C265.649 7.95176 193.213 8.14142 114.02 0.140165Z" stroke="#01010D" stroke-opacity="0.5" stroke-width="0.67049"/>
<path opacity="0.275862" d="M106.215 -1.69474C28.0213 -16.5676 -41.3634 -37.3692 -90.3306 -58.9722C-114.816 -69.7747 -134.18 -80.7701 -146.985 -91.3136C-153.388 -96.5855 -158.138 -101.734 -161.072 -106.675C-164.004 -111.614 -165.113 -116.327 -164.272 -120.752C-163.43 -125.176 -160.668 -129.154 -156.128 -132.671C-151.584 -136.19 -145.276 -139.235 -137.385 -141.788C-121.603 -146.894 -99.5548 -150.012 -72.8128 -151.071C-19.334 -153.188 52.8425 -147.064 131.036 -132.191C209.229 -117.318 278.615 -96.5165 327.582 -74.9135C352.068 -64.111 371.431 -53.1156 384.237 -42.572C390.64 -37.3001 395.39 -32.1525 398.324 -27.2113C401.256 -22.2725 402.365 -17.5584 401.523 -13.1341C400.681 -8.70989 397.92 -4.73262 393.379 -1.21541C388.836 2.30363 382.528 5.34892 374.636 7.90196C358.854 13.0079 336.806 16.1267 310.064 17.1853C256.585 19.3024 184.408 13.1781 106.215 -1.69474Z" stroke="#01010D" stroke-opacity="0.5" stroke-width="0.67049"/>
<path opacity="0.310345" d="M98.5033 -4.02521C21.9039 -25.6565 -45.4039 -52.4262 -92.3019 -78.2147C-115.753 -91.1102 -134.084 -103.751 -145.922 -115.371C-151.842 -121.181 -156.124 -126.724 -158.617 -131.902C-161.107 -137.077 -161.801 -141.869 -160.577 -146.203C-159.353 -150.538 -156.255 -154.26 -151.425 -157.368C-146.593 -160.478 -140.043 -162.961 -131.959 -164.816C-115.792 -168.527 -93.5564 -169.712 -66.8238 -168.436C-13.364 -165.884 58.0041 -153.493 134.604 -131.862C211.203 -110.23 278.512 -83.4604 325.41 -57.6719C348.861 -44.7764 367.192 -32.1352 379.03 -20.5157C384.949 -14.7058 389.233 -9.16373 391.725 -3.98562C394.216 1.18997 394.909 5.98271 393.685 10.3169C392.461 14.6508 389.363 18.3723 384.533 21.4804C379.701 24.59 373.151 27.074 365.067 28.9295C348.9 32.6405 326.664 33.8258 299.932 32.5497C246.472 29.9977 175.103 17.6061 98.5033 -4.02521Z" stroke="#01010D" stroke-opacity="0.5" stroke-width="0.67049"/>
<path opacity="0.344828" d="M90.9274 -6.84283C16.5047 -35.0679 -48.2138 -67.602 -92.6857 -97.3798C-114.924 -112.27 -132.084 -126.461 -142.864 -139.068C-148.254 -145.372 -152.038 -151.267 -154.069 -156.642C-156.099 -162.015 -156.373 -166.85 -154.776 -171.06C-153.179 -175.271 -149.768 -178.709 -144.685 -181.385C-139.6 -184.061 -132.859 -185.964 -124.645 -187.108C-108.215 -189.396 -85.9609 -188.639 -59.4413 -185.037C-6.40733 -177.836 63.6092 -159.271 138.032 -131.046C212.455 -102.821 277.174 -70.287 321.646 -40.5092C343.884 -25.6188 361.044 -11.4281 371.824 1.17897C377.214 7.48263 380.998 13.3769 383.03 18.7525C385.06 24.1255 385.333 28.9604 383.736 33.1714C382.139 37.3823 378.728 40.8195 373.646 43.4948C368.561 46.1715 361.82 48.0751 353.605 49.219C337.176 51.5068 314.921 50.7496 288.402 47.1485C235.367 39.9469 165.35 21.3822 90.9274 -6.84283Z" stroke="#01010D" stroke-opacity="0.5" stroke-width="0.67049"/>
<path opacity="0.37931" d="M83.529 -10.1326C11.8495 -44.7365 -49.7872 -82.7875 -91.4945 -116.328C-112.35 -133.1 -128.208 -148.732 -137.848 -162.231C-142.669 -168.98 -145.924 -175.183 -147.479 -180.715C-149.033 -186.244 -148.884 -191.084 -146.926 -195.14C-144.968 -199.195 -141.271 -202.323 -135.975 -204.545C-130.676 -206.768 -123.795 -208.076 -115.511 -208.5C-98.9453 -209.347 -76.8416 -206.653 -50.7368 -200.755C1.46775 -188.958 69.5999 -164.362 141.279 -129.758C212.959 -95.1541 274.596 -57.1029 316.304 -23.5623C337.16 -6.79047 353.017 8.84182 362.658 22.3405C367.478 29.0899 370.734 35.2916 372.289 40.8238C373.843 46.3533 373.694 51.1936 371.736 55.2494C369.778 59.305 366.081 62.4319 360.785 64.6541C355.485 66.8774 348.604 68.1862 340.321 68.6098C323.755 69.457 301.651 66.7631 275.546 60.8644C223.341 49.0679 155.209 24.4715 83.529 -10.1326Z" stroke="#01010D" stroke-opacity="0.5" stroke-width="0.67049"/>
<path opacity="0.413793" d="M76.3556 -13.8789C7.96475 -54.5985 -50.121 -97.8767 -88.7465 -134.925C-108.061 -153.45 -122.496 -170.405 -130.923 -184.693C-135.137 -191.837 -137.839 -198.299 -138.906 -203.946C-139.973 -209.59 -139.402 -214.398 -137.099 -218.268C-134.795 -222.137 -130.839 -224.931 -125.369 -226.683C-119.896 -228.436 -112.927 -229.139 -104.639 -228.839C-88.0617 -228.239 -66.2768 -223.629 -40.7855 -215.478C10.1922 -199.176 75.9214 -168.736 144.312 -128.016C212.703 -87.2964 270.79 -44.0179 309.415 -6.96994C328.73 11.5558 343.164 28.5107 351.592 42.7982C355.806 49.9421 358.508 56.4039 359.575 62.0506C360.642 67.6945 360.071 72.5034 357.767 76.3731C355.463 80.2426 351.508 83.0354 346.038 84.7875C340.565 86.5405 333.596 87.2446 325.307 86.9447C308.73 86.3448 286.945 81.7347 261.454 73.5832C210.476 57.2818 144.747 26.8407 76.3556 -13.8789Z" stroke="#01010D" stroke-opacity="0.5" stroke-width="0.67049"/>
<path opacity="0.448276" d="M69.4382 -18.0587C4.85653 -64.584 -49.2363 -112.76 -84.4858 -153.033C-102.112 -173.172 -115.014 -191.32 -122.164 -206.288C-125.74 -213.772 -127.868 -220.446 -128.439 -226.164C-129.01 -231.879 -128.022 -236.619 -125.39 -240.273C-122.758 -243.927 -118.573 -246.366 -112.972 -247.634C-107.367 -248.904 -100.363 -248.997 -92.1322 -247.976C-75.6707 -245.933 -54.3706 -239.442 -29.6867 -229.1C19.6763 -208.417 82.5023 -172.364 147.084 -125.839C211.666 -79.3133 265.759 -31.1369 301.009 9.13645C318.635 29.2751 331.537 47.4235 338.687 62.3911C342.262 69.8751 344.392 76.5479 344.963 82.2661C345.533 87.9815 344.545 92.7223 341.913 96.3765C339.28 100.03 335.097 102.468 329.495 103.737C323.89 105.006 316.886 105.1 308.655 104.079C292.194 102.036 270.893 95.5452 246.21 85.203C196.846 64.5206 134.02 28.4667 69.4382 -18.0587Z" stroke="#01010D" stroke-opacity="0.5" stroke-width="0.67049"/>
<path opacity="0.482759" d="M62.8181 -22.6468C2.53717 -74.6238 -47.151 -127.331 -78.7563 -170.523C-94.5605 -192.121 -105.832 -211.325 -111.65 -226.859C-114.559 -234.626 -116.098 -241.46 -116.169 -247.206C-116.239 -252.949 -114.842 -257.586 -111.901 -260.996C-108.96 -264.407 -104.58 -266.471 -98.8886 -267.247C-93.1947 -268.023 -86.2095 -267.505 -78.0989 -265.771C-61.878 -262.301 -41.2247 -253.978 -17.5361 -241.524C29.8365 -216.618 89.2811 -175.226 149.562 -123.249C209.843 -71.2724 259.532 -18.5648 291.137 24.6275C306.941 46.2258 318.213 65.4297 324.031 80.9635C326.94 88.7306 328.48 95.5636 328.55 101.31C328.62 107.053 327.223 111.69 324.282 115.101C321.341 118.511 316.961 120.575 311.27 121.351C305.576 122.127 298.59 121.61 290.48 119.875C274.259 116.406 253.606 108.083 229.917 95.6286C182.544 70.7226 123.099 29.3302 62.8181 -22.6468Z" stroke="#01010D" stroke-opacity="0.5" stroke-width="0.67049"/>
<path opacity="0.517241" d="M56.5251 -27.6193C1.00369 -84.6523 -43.9017 -141.489 -71.6223 -187.272C-85.4839 -210.165 -95.0386 -230.279 -99.4809 -246.26C-101.702 -254.252 -102.64 -261.193 -102.209 -266.924C-101.778 -272.651 -99.9829 -277.148 -96.756 -280.29C-93.529 -283.431 -88.9851 -285.106 -83.2479 -285.382C-77.508 -285.659 -70.5945 -284.535 -62.666 -282.1C-46.8092 -277.23 -26.9599 -267.138 -4.44688 -252.667C40.5747 -223.727 96.1856 -177.312 151.707 -120.279C207.229 -63.2458 252.135 -6.40809 279.855 39.3745C293.717 62.2679 303.272 82.3811 307.714 98.3629C309.935 106.354 310.873 113.295 310.443 119.026C310.012 124.753 308.216 129.251 304.989 132.392C301.762 135.533 297.218 137.207 291.482 137.484C285.742 137.761 278.827 136.637 270.899 134.202C255.042 129.332 235.193 119.241 212.68 104.77C167.658 75.8296 112.047 29.4137 56.5251 -27.6193Z" stroke="#01010D" stroke-opacity="0.5" stroke-width="0.67049"/>
<path opacity="0.551724" d="M50.5949 -32.9424C0.25543 -94.5973 -39.5254 -155.132 -63.1503 -203.156C-74.9638 -227.171 -82.7292 -248.04 -85.7617 -264.348C-87.278 -272.503 -87.607 -279.5 -86.6784 -285.171C-85.7502 -290.839 -83.5698 -295.162 -80.0814 -298.01C-76.5928 -300.859 -71.9203 -302.131 -66.1808 -301.906C-60.4386 -301.682 -53.6494 -299.959 -45.9633 -296.843C-30.5913 -290.609 -11.697 -278.826 9.46906 -262.448C51.7971 -229.694 103.151 -178.609 153.49 -116.954C203.83 -55.2986 243.611 5.23662 267.236 53.261C279.05 77.2755 286.815 98.1448 289.848 114.453C291.364 122.607 291.694 129.604 290.765 135.275C289.837 140.943 287.656 145.267 284.167 148.115C280.679 150.963 276.007 152.235 270.267 152.011C264.525 151.786 257.735 150.064 250.049 146.947C234.677 140.714 215.783 128.931 194.617 112.553C152.289 79.7988 100.934 28.7127 50.5949 -32.9424Z" stroke="#01010D" stroke-opacity="0.5" stroke-width="0.67049"/>
<path opacity="0.586207" d="M45.0562 -38.5875C0.281897 -104.395 -34.0716 -168.167 -53.421 -218.067C-63.0966 -243.02 -69.0135 -264.487 -70.6131 -280.997C-71.413 -289.253 -71.1309 -296.252 -69.7115 -301.82C-68.2929 -307.386 -65.7439 -311.503 -62.0206 -314.036C-58.297 -316.57 -53.5314 -317.43 -47.8334 -316.706C-42.1326 -315.982 -35.5194 -313.674 -28.1341 -309.899C-13.3639 -302.35 4.43158 -288.965 24.0896 -270.804C63.4019 -234.486 110.108 -179.119 154.882 -113.311C199.657 -47.5033 234.011 16.2687 253.36 66.1693C263.036 91.1221 268.953 112.589 270.552 129.099C271.352 137.355 271.071 144.353 269.651 149.922C268.233 155.488 265.683 159.605 261.96 162.138C258.236 164.672 253.471 165.531 247.773 164.807C242.072 164.083 235.458 161.776 228.073 158.001C213.303 150.452 195.507 137.067 175.849 118.906C136.537 82.5878 89.8306 27.2203 45.0562 -38.5875Z" stroke="#01010D" stroke-opacity="0.5" stroke-width="0.67049"/>
<path opacity="0.62069" d="M39.9372 -44.5162C1.0688 -113.976 -27.5959 -180.499 -42.5226 -231.896C-49.9866 -257.597 -54.01 -279.498 -54.1646 -296.085C-54.2418 -304.378 -53.3508 -311.326 -51.4516 -316.75C-49.5532 -322.171 -46.6552 -326.05 -42.7252 -328.249C-38.795 -330.448 -33.9725 -330.89 -28.3593 -329.672C-22.7433 -328.454 -16.3564 -325.578 -9.32822 -321.174C4.72784 -312.366 21.289 -297.481 39.2894 -277.676C75.2867 -238.07 116.989 -178.843 155.858 -109.383C194.726 -39.9237 223.391 26.5998 238.318 77.997C245.782 103.698 249.806 125.599 249.96 142.186C250.037 150.479 249.147 157.427 247.248 162.851C245.35 168.272 242.451 172.151 238.521 174.35C234.591 176.549 229.769 176.99 224.156 175.773C218.54 174.554 212.152 171.68 205.124 167.275C191.068 158.468 174.507 143.583 156.506 123.778C120.509 84.1712 78.8057 24.9436 39.9372 -44.5162Z" stroke="#01010D" stroke-opacity="0.5" stroke-width="0.67049"/>
<path opacity="0.655172" d="M35.2575 -50.694C2.59081 -123.277 -20.167 -192.045 -30.5573 -244.547C-35.7529 -270.801 -37.8523 -292.969 -36.5606 -309.507C-35.9147 -317.776 -34.4215 -324.619 -32.0568 -329.857C-29.6932 -335.092 -26.4681 -338.703 -22.3614 -340.552C-18.2545 -342.4 -13.4119 -342.419 -7.92612 -340.717C-2.4377 -339.014 3.67433 -335.593 10.2919 -330.593C23.5268 -320.594 38.7276 -304.322 54.9334 -283.023C87.3419 -240.43 123.724 -177.794 156.391 -105.211C189.057 -32.6283 211.816 36.1404 222.206 88.6429C227.402 114.897 229.501 137.065 228.209 153.602C227.563 161.871 226.071 168.714 223.706 173.952C221.343 179.187 218.117 182.799 214.01 184.647C209.903 186.495 205.061 186.514 199.576 184.812C194.087 183.109 187.974 179.688 181.357 174.689C168.122 164.689 152.921 148.417 136.715 127.119C104.307 84.5259 67.9243 21.889 35.2575 -50.694Z" stroke="#01010D" stroke-opacity="0.5" stroke-width="0.67049"/>
<path opacity="0.689655" d="M31.0388 -57.0737C4.82241 -132.228 -11.8555 -202.718 -17.6304 -255.926C-20.5181 -282.533 -20.6774 -304.8 -17.9493 -321.162C-16.5852 -329.343 -14.5012 -336.031 -11.6889 -341.042C-8.87814 -346.051 -5.35052 -349.368 -1.09834 -350.851C3.15401 -352.334 7.97987 -351.932 13.2964 -349.758C18.6155 -347.583 24.4061 -343.642 30.5627 -338.084C42.8758 -326.97 56.6006 -309.435 70.8884 -286.805C99.4613 -241.55 130.246 -175.98 156.463 -100.826C182.679 -25.6723 199.357 44.8175 205.131 98.0258C208.019 124.632 208.179 146.899 205.45 163.261C204.086 171.442 202.003 178.13 199.191 183.141C196.38 188.15 192.852 191.467 188.599 192.95C184.347 194.434 179.522 194.03 174.206 191.857C168.886 189.682 163.095 185.741 156.938 180.184C144.625 169.069 130.901 151.534 116.613 128.904C88.0398 83.6489 57.2553 18.0801 31.0388 -57.0737Z" stroke="#01010D" stroke-opacity="0.5" stroke-width="0.67049"/>
<path opacity="0.724138" d="M27.2977 -63.6251C7.73117 -140.778 -2.73943 -212.453 -3.85492 -265.962C-4.41271 -292.719 -2.63073 -314.915 1.51303 -330.977C3.58498 -339.008 6.24387 -345.489 9.4822 -350.236C12.7189 -354.981 16.5221 -357.977 20.8874 -359.085C25.2529 -360.192 30.0253 -359.37 35.1321 -356.741C40.2414 -354.111 45.6665 -349.68 51.3153 -343.607C62.6128 -331.461 74.7571 -312.797 87.0183 -289.008C111.538 -241.435 136.491 -173.432 156.057 -96.2797C175.624 -19.1268 186.095 52.549 187.21 106.058C187.768 132.815 185.986 155.011 181.842 171.073C179.77 179.104 177.112 185.584 173.874 190.332C170.637 195.077 166.833 198.074 162.468 199.181C158.103 200.288 153.331 199.466 148.224 196.837C143.115 194.207 137.689 189.776 132.04 183.703C120.743 171.558 108.598 152.893 96.3371 129.104C71.8172 81.5307 46.8643 13.5277 27.2977 -63.6251Z" stroke="#01010D" stroke-opacity="0.5" stroke-width="0.67049"/>
<path opacity="0.758621" d="M24.0449 -70.2995C11.2772 -148.864 7.09332 -221.179 10.6457 -274.582C12.4221 -301.286 16.1318 -323.242 21.6596 -338.881C24.4237 -346.701 27.6373 -352.925 31.277 -357.372C34.9149 -361.817 38.9649 -364.471 43.41 -365.193C47.8554 -365.916 52.538 -364.681 57.3963 -361.617C62.2569 -358.552 67.2752 -353.665 72.3732 -347.123C82.5691 -334.039 93.0406 -314.387 103.182 -289.62C123.462 -240.09 142.393 -170.172 155.161 -91.6076C167.929 -13.043 172.112 59.2726 168.56 112.675C166.784 139.379 163.074 161.335 157.546 176.975C154.782 184.795 151.569 191.019 147.93 195.466C144.292 199.911 140.241 202.565 135.796 203.287C131.351 204.009 126.669 202.775 121.81 199.711C116.95 196.645 111.931 191.759 106.833 185.217C96.6367 172.132 86.1652 152.481 76.0241 127.714C55.7438 78.1841 36.8127 8.26507 24.0449 -70.2995Z" stroke="#01010D" stroke-opacity="0.5" stroke-width="0.67049"/>
<path opacity="0.793103" d="M21.2949 -77.0531C15.4231 -156.431 17.5578 -228.836 25.751 -281.726C29.848 -308.173 35.4572 -329.722 42.3271 -344.821C45.7622 -352.37 49.506 -358.29 53.5195 -362.403C57.5309 -366.514 61.7968 -368.805 66.288 -369.137C70.7794 -369.469 75.3366 -367.831 79.9093 -364.355C84.4843 -360.878 89.0576 -355.573 93.566 -348.611C102.583 -334.688 111.302 -314.199 119.246 -288.642C135.132 -237.533 147.897 -166.231 153.769 -86.8526C159.641 -7.4742 157.506 64.9309 149.313 117.821C145.216 144.268 139.607 165.818 132.737 180.916C129.302 188.465 125.559 194.385 121.545 198.498C117.534 202.609 113.267 204.9 108.776 205.232C104.285 205.564 99.7281 203.926 95.1555 200.45C90.5805 196.973 86.0063 191.668 81.4978 184.706C72.4811 170.783 63.7622 150.294 55.8183 124.737C39.932 73.6282 27.1668 2.3253 21.2949 -77.0531Z" stroke="#01010D" stroke-opacity="0.5" stroke-width="0.67049"/>
<path opacity="0.827586" d="M19.044 -83.8451C20.1128 -163.433 28.5499 -235.376 41.3216 -287.35C47.708 -313.34 55.174 -334.319 63.3337 -348.761C67.4136 -355.982 71.6592 -361.553 76.0159 -365.301C80.3703 -369.046 84.8196 -370.956 89.3227 -370.896C93.826 -370.836 98.223 -368.807 102.475 -364.945C106.73 -361.082 110.823 -355.399 114.708 -348.071C122.477 -333.415 129.377 -312.243 135.063 -286.092C146.435 -233.793 152.937 -161.649 151.868 -82.0614C150.799 -2.47326 142.362 69.4703 129.59 121.445C123.204 147.435 115.738 168.413 107.578 182.855C103.498 190.076 99.2537 195.648 94.8971 199.395C90.5425 203.141 86.0925 205.051 81.5893 204.991C77.0862 204.93 72.6898 202.901 68.4375 199.04C64.1831 195.177 60.0886 189.493 56.204 182.165C48.4351 167.509 41.5352 146.338 35.8489 120.186C24.4774 67.8872 17.9753 -4.25691 19.044 -83.8451Z" stroke="#01010D" stroke-opacity="0.5" stroke-width="0.67049"/>
<path opacity="0.862069" d="M17.3061 -90.6317C25.3074 -169.824 39.9826 -240.757 57.2355 -291.421C65.8629 -316.755 75.1288 -337.003 84.5162 -350.679C89.2099 -357.517 93.925 -362.698 98.5917 -366.051C103.256 -369.403 107.855 -370.918 112.336 -370.465C116.816 -370.012 121.02 -367.608 124.92 -363.391C128.821 -359.172 132.404 -353.153 135.635 -345.514C142.097 -330.237 147.125 -308.545 150.511 -281.997C157.281 -228.906 157.47 -156.47 149.469 -77.2785C141.468 1.91365 126.793 72.8481 109.54 123.512C100.912 148.846 91.6464 169.094 82.259 182.77C77.5653 189.608 72.8512 194.788 68.1845 198.142C63.5201 201.494 58.9205 203.009 54.4397 202.556C49.959 202.103 45.7562 199.699 41.8566 195.482C37.955 191.263 34.3715 185.244 31.1404 177.605C24.6784 162.328 19.6499 140.636 16.2645 114.088C9.49449 60.9967 9.30484 -11.4396 17.3061 -90.6317Z" stroke="#01010D" stroke-opacity="0.5" stroke-width="0.67049"/>
<path opacity="0.896552" d="M16.0658 -97.3674C30.9386 -175.561 51.7402 -244.945 73.3432 -293.913C84.1457 -318.398 95.1411 -337.762 105.685 -350.567C110.957 -356.97 116.105 -361.72 121.046 -364.654C125.985 -367.586 130.698 -368.695 135.123 -367.854C139.547 -367.012 143.525 -364.25 147.042 -359.709C150.561 -355.166 153.606 -348.858 156.159 -340.967C161.265 -325.185 164.383 -303.137 165.442 -276.395C167.559 -222.916 161.435 -150.739 146.562 -72.5462C131.689 5.64729 110.887 75.0328 89.2845 124C78.482 148.486 67.4866 167.849 56.943 180.655C51.6711 187.058 46.5235 191.808 41.5823 194.742C36.6435 197.674 31.9294 198.783 27.5051 197.941C23.0809 197.1 19.1036 194.338 15.5864 189.797C12.0674 185.254 9.02208 178.946 6.46904 171.054C1.36312 155.272 -1.75566 133.224 -2.81432 106.482C-4.93142 53.0033 1.19289 -19.1739 16.0658 -97.3674Z" stroke="#01010D" stroke-opacity="0.5" stroke-width="0.67049"/>
<path opacity="0.931035" d="M15.3192 -104.007C36.9505 -180.606 63.7202 -247.914 89.5087 -294.812C102.404 -318.263 115.045 -336.594 126.665 -348.433C132.475 -354.352 138.018 -358.635 143.196 -361.127C148.371 -363.617 153.163 -364.311 157.497 -363.087C161.832 -361.863 165.554 -358.765 168.662 -353.935C171.772 -349.103 174.255 -342.553 176.11 -334.47C179.821 -318.302 181.006 -296.067 179.73 -269.334C177.178 -215.874 164.787 -144.506 143.156 -67.9066C121.524 8.69306 94.7544 76.0015 68.9659 122.9C56.0703 146.351 43.4292 164.682 31.8097 176.52C25.9998 182.439 20.4577 186.722 15.2796 189.215C10.104 191.705 5.31127 192.399 0.977121 191.175C-3.35686 189.951 -7.0783 186.853 -10.1864 182.023C-13.2961 177.191 -15.78 170.641 -17.6355 162.557C-21.3465 146.39 -22.5318 124.154 -21.2557 97.4215C-18.7038 43.9616 -6.31209 -27.4072 15.3192 -104.007Z" stroke="#01010D" stroke-opacity="0.5" stroke-width="0.67049"/>
<path opacity="0.965517" d="M15.0666 -110.51C43.2916 -184.932 75.8258 -249.651 105.604 -294.123C120.494 -316.361 134.685 -333.521 147.292 -344.301C153.595 -349.691 159.491 -353.475 164.866 -355.506C170.239 -357.536 175.073 -357.81 179.284 -356.213C183.495 -354.616 186.933 -351.205 189.608 -346.122C192.285 -341.037 194.188 -334.296 195.332 -326.082C197.62 -309.652 196.862 -287.398 193.261 -260.878C186.06 -207.844 167.495 -137.828 139.27 -63.4052C111.045 11.0177 78.5108 75.7369 48.733 120.209C33.8426 142.447 19.6519 159.607 7.04482 170.387C0.741158 175.777 -5.15313 179.561 -10.5287 181.592C-15.9017 183.623 -20.7367 183.896 -24.9476 182.299C-29.1585 180.702 -32.5957 177.291 -35.271 172.209C-37.9477 167.124 -39.8513 160.382 -40.9953 152.168C-43.283 135.738 -42.5259 113.484 -38.9248 86.9645C-31.7232 33.9304 -13.1585 -36.0868 15.0666 -110.51Z" stroke="#01010D" stroke-opacity="0.5" stroke-width="0.67049"/>
<path d="M15.2826 -116.834C49.8866 -188.513 87.9375 -250.15 121.478 -291.857C138.25 -312.713 153.882 -328.571 167.381 -338.211C174.13 -343.032 180.333 -346.287 185.865 -347.842C191.394 -349.396 196.234 -349.247 200.29 -347.289C204.345 -345.331 207.473 -341.634 209.695 -336.338C211.919 -331.039 213.227 -324.157 213.65 -315.874C214.497 -299.308 211.803 -277.204 205.905 -251.1C194.108 -198.895 169.512 -130.763 134.908 -59.0835C100.304 12.5962 62.2529 74.2335 28.7124 115.941C11.9405 136.797 -3.69176 152.654 -17.1904 162.295C-23.9399 167.115 -30.1415 170.371 -35.6737 171.926C-41.2032 173.48 -46.0435 173.331 -50.0993 171.373C-54.1549 169.415 -57.2819 165.718 -59.504 160.422C-61.7273 155.123 -63.0361 148.241 -63.4598 139.958C-64.3069 123.392 -61.613 101.288 -55.7143 75.1832C-43.9179 22.9786 -19.3214 -45.1542 15.2826 -116.834Z" stroke="#01010D" stroke-opacity="0.5" stroke-width="0.67049"/>
</g>
<g opacity="0.9">
<path opacity="0.0344828" d="M903.395 700.63C830.812 733.297 762.044 756.055 709.541 766.445C683.288 771.64 661.12 773.74 644.582 772.448C636.313 771.802 629.469 770.309 624.232 767.944C618.997 765.581 615.386 762.356 613.537 758.249C611.689 754.142 611.669 749.299 613.372 743.814C615.075 738.325 618.496 732.213 623.496 725.596C633.495 712.361 649.767 697.16 671.065 680.954C713.658 648.546 776.295 612.164 848.877 579.497C921.461 546.83 990.229 524.072 1042.73 513.682C1068.99 508.486 1091.15 506.387 1107.69 507.678C1115.96 508.324 1122.8 509.817 1128.04 512.181C1133.28 514.545 1136.89 517.771 1138.74 521.878C1140.58 525.984 1140.6 530.826 1138.9 536.312C1137.2 541.8 1133.78 547.913 1128.78 554.531C1118.78 567.766 1102.51 582.967 1081.21 599.172C1038.61 631.581 975.978 667.963 903.395 700.63Z" stroke="#01010D" stroke-opacity="0.5" stroke-width="0.67049"/>
<path opacity="0.0689655" d="M895.944 701.771C820.79 727.988 750.299 744.665 697.091 750.44C670.484 753.328 648.217 753.487 631.856 750.759C623.675 749.395 616.987 747.311 611.975 744.499C606.967 741.688 603.65 738.161 602.166 733.908C600.683 729.656 601.086 724.83 603.26 719.514C605.435 714.194 609.375 708.404 614.933 702.247C626.048 689.934 643.582 676.209 666.212 661.922C711.468 633.349 777.037 602.564 852.191 576.347C927.345 550.131 997.835 533.453 1051.04 527.678C1077.65 524.791 1099.92 524.631 1116.28 527.36C1124.46 528.724 1131.15 530.807 1136.16 533.619C1141.17 536.43 1144.48 539.958 1145.97 544.21C1147.45 548.463 1147.05 553.288 1144.87 558.604C1142.7 563.923 1138.76 569.715 1133.2 575.872C1122.09 588.185 1104.55 601.909 1081.92 616.197C1036.67 644.77 971.097 675.555 895.944 701.771Z" stroke="#01010D" stroke-opacity="0.5" stroke-width="0.67049"/>
<path opacity="0.103448" d="M888.317 702.441C811.165 722.007 739.489 732.478 685.98 733.593C659.223 734.151 637.027 732.369 620.966 728.225C612.934 726.153 606.454 723.494 601.707 720.256C596.962 717.019 593.965 713.216 592.858 708.851C591.751 704.485 592.573 699.713 595.202 694.606C597.832 689.497 602.262 684.072 608.335 678.423C620.481 667.125 639.145 654.981 662.934 642.72C710.508 618.2 778.51 593.247 855.663 573.681C932.816 554.114 1004.49 543.643 1058 542.528C1084.76 541.97 1106.95 543.752 1123.02 547.896C1131.05 549.968 1137.53 552.626 1142.27 555.864C1147.02 559.101 1150.02 562.905 1151.12 567.27C1152.23 571.636 1151.41 576.407 1148.78 581.514C1146.15 586.623 1141.72 592.049 1135.65 597.698C1123.5 608.996 1104.84 621.14 1081.05 633.401C1033.47 657.921 965.47 682.874 888.317 702.441Z" stroke="#01010D" stroke-opacity="0.5" stroke-width="0.67049"/>
<path opacity="0.137931" d="M880.571 702.618C802.007 715.385 729.692 719.569 676.289 716.017C649.585 714.241 627.629 710.531 611.99 705.003C604.17 702.239 597.945 699.025 593.498 695.386C589.054 691.748 586.4 687.698 585.677 683.253C584.955 678.807 586.19 674.125 589.254 669.266C592.319 664.406 597.206 659.387 603.748 654.289C616.832 644.093 636.484 633.622 661.251 623.481C710.78 603.201 780.699 584.27 859.263 571.502C937.828 558.734 1010.14 554.55 1063.55 558.102C1090.25 559.879 1112.21 563.588 1127.85 569.116C1135.67 571.88 1141.89 575.093 1146.34 578.733C1150.78 582.371 1153.44 586.421 1154.16 590.867C1154.88 595.312 1153.65 599.994 1150.58 604.852C1147.52 609.713 1142.63 614.732 1136.09 619.83C1123 630.026 1103.35 640.497 1078.58 650.638C1029.05 670.919 959.136 689.85 880.571 702.618Z" stroke="#01010D" stroke-opacity="0.5" stroke-width="0.67049"/>
<path opacity="0.275862" d="M849.215 698.305C771.021 683.432 701.637 662.631 652.669 641.028C628.184 630.225 608.82 619.23 596.015 608.686C589.612 603.415 584.862 598.266 581.928 593.325C578.996 588.386 577.887 583.673 578.728 579.249C579.57 574.824 582.332 570.846 586.872 567.329C591.416 563.81 597.724 560.765 605.615 558.212C621.397 553.107 643.445 549.988 670.187 548.929C723.666 546.812 795.843 552.936 874.036 567.809C952.229 582.682 1021.61 603.484 1070.58 625.087C1095.07 635.889 1114.43 646.885 1127.24 657.428C1133.64 662.7 1138.39 667.848 1141.32 672.789C1144.26 677.728 1145.36 682.442 1144.52 686.866C1143.68 691.29 1140.92 695.267 1136.38 698.785C1131.84 702.304 1125.53 705.349 1117.64 707.902C1101.85 713.008 1079.81 716.127 1053.06 717.185C999.585 719.303 927.408 713.178 849.215 698.305Z" stroke="#01010D" stroke-opacity="0.5" stroke-width="0.67049"/>
<path opacity="0.310345" d="M841.503 695.975C764.904 674.344 697.596 647.574 650.698 621.785C627.247 608.89 608.916 596.249 597.078 584.629C591.158 578.819 586.876 573.276 584.383 568.098C581.893 562.923 581.199 558.131 582.423 553.797C583.647 549.462 586.745 545.74 591.575 542.632C596.407 539.523 602.957 537.04 611.041 535.184C627.208 531.473 649.444 530.288 676.176 531.564C729.636 534.116 801.004 546.507 877.604 568.138C954.203 589.77 1021.51 616.54 1068.41 642.328C1091.86 655.224 1110.19 667.865 1122.03 679.484C1127.95 685.294 1132.23 690.836 1134.72 696.014C1137.22 701.19 1137.91 705.983 1136.69 710.317C1135.46 714.651 1132.36 718.372 1127.53 721.48C1122.7 724.59 1116.15 727.074 1108.07 728.93C1091.9 732.641 1069.66 733.826 1042.93 732.55C989.472 729.998 918.103 717.606 841.503 695.975Z" stroke="#01010D" stroke-opacity="0.5" stroke-width="0.67049"/>
<path opacity="0.344828" d="M833.927 693.157C759.505 664.932 694.786 632.398 650.314 602.62C628.076 587.73 610.916 573.539 600.136 560.932C594.746 554.628 590.962 548.733 588.931 543.358C586.901 537.985 586.627 533.151 588.224 528.94C589.821 524.729 593.232 521.291 598.315 518.615C603.4 515.939 610.141 514.036 618.355 512.892C634.785 510.604 657.039 511.361 683.559 514.963C736.593 522.164 806.609 540.729 881.032 568.954C955.455 597.179 1020.17 629.713 1064.65 659.491C1086.88 674.381 1104.04 688.572 1114.82 701.179C1120.21 707.483 1124 713.377 1126.03 718.753C1128.06 724.126 1128.33 728.961 1126.74 733.172C1125.14 737.382 1121.73 740.82 1116.65 743.495C1111.56 746.172 1104.82 748.075 1096.6 749.219C1080.18 751.507 1057.92 750.75 1031.4 747.149C978.367 739.947 908.35 721.382 833.927 693.157Z" stroke="#01010D" stroke-opacity="0.5" stroke-width="0.67049"/>
<path opacity="0.37931" d="M826.529 689.868C754.85 655.264 693.213 617.213 651.505 583.672C630.65 566.9 614.792 551.268 605.152 537.769C600.331 531.02 597.076 524.817 595.521 519.285C593.967 513.756 594.116 508.916 596.074 504.86C598.032 500.805 601.729 497.677 607.025 495.455C612.324 493.232 619.205 491.924 627.489 491.5C644.055 490.653 666.158 493.347 692.263 499.245C744.468 511.042 812.6 535.638 884.279 570.242C955.959 604.846 1017.6 642.897 1059.3 676.438C1080.16 693.21 1096.02 708.842 1105.66 722.341C1110.48 729.09 1113.73 735.292 1115.29 740.824C1116.84 746.353 1116.69 751.194 1114.74 755.249C1112.78 759.305 1109.08 762.432 1103.78 764.654C1098.49 766.877 1091.6 768.186 1083.32 768.61C1066.75 769.457 1044.65 766.763 1018.55 760.864C966.341 749.068 898.209 724.472 826.529 689.868Z" stroke="#01010D" stroke-opacity="0.5" stroke-width="0.67049"/>
<path opacity="0.413793" d="M819.356 686.121C750.965 645.402 692.879 602.123 654.254 565.076C634.939 546.55 620.504 529.595 612.077 515.307C607.863 508.163 605.161 501.701 604.094 496.054C603.027 490.41 603.598 485.602 605.901 481.733C608.205 477.863 612.161 475.069 617.631 473.317C623.104 471.564 630.073 470.861 638.361 471.161C654.938 471.761 676.723 476.371 702.215 484.522C753.192 500.824 818.921 531.265 887.312 571.984C955.703 612.704 1013.79 655.982 1052.42 693.03C1071.73 711.556 1086.16 728.511 1094.59 742.798C1098.81 749.942 1101.51 756.404 1102.58 762.051C1103.64 767.695 1103.07 772.503 1100.77 776.373C1098.46 780.243 1094.51 783.036 1089.04 784.788C1083.57 786.541 1076.6 787.245 1068.31 786.945C1051.73 786.345 1029.95 781.735 1004.45 773.583C953.476 757.282 887.747 726.841 819.356 686.121Z" stroke="#01010D" stroke-opacity="0.5" stroke-width="0.67049"/>
<path opacity="0.448276" d="M812.438 681.941C747.857 635.416 693.764 587.24 658.514 546.967C640.888 526.828 627.986 508.68 620.836 493.712C617.26 486.228 615.132 479.555 614.561 473.836C613.99 468.121 614.978 463.381 617.61 459.727C620.242 456.073 624.427 453.634 630.028 452.366C635.633 451.096 642.637 451.003 650.868 452.024C667.329 454.067 688.629 460.558 713.313 470.9C762.676 491.583 825.502 527.636 890.084 574.161C954.666 620.687 1008.76 668.863 1044.01 709.137C1061.64 729.275 1074.54 747.424 1081.69 762.391C1085.26 769.875 1087.39 776.548 1087.96 782.266C1088.53 787.982 1087.55 792.722 1084.91 796.377C1082.28 800.031 1078.1 802.468 1072.49 803.737C1066.89 805.006 1059.89 805.1 1051.66 804.079C1035.19 802.037 1013.89 795.545 989.21 785.203C939.846 764.521 877.02 728.467 812.438 681.941Z" stroke="#01010D" stroke-opacity="0.5" stroke-width="0.67049"/>
<path opacity="0.482759" d="M805.818 677.353C745.537 625.376 695.849 572.669 664.244 529.477C648.44 507.879 637.168 488.675 631.35 473.141C628.441 465.374 626.902 458.54 626.831 452.794C626.761 447.051 628.158 442.415 631.099 439.004C634.04 435.593 638.42 433.529 644.111 432.753C649.805 431.977 656.791 432.495 664.901 434.229C681.122 437.699 701.775 446.022 725.464 458.476C772.836 483.382 832.281 524.774 892.562 576.751C952.843 628.728 1002.53 681.435 1034.14 724.628C1049.94 746.226 1061.21 765.43 1067.03 780.964C1069.94 788.731 1071.48 795.564 1071.55 801.31C1071.62 807.053 1070.22 811.69 1067.28 815.101C1064.34 818.511 1059.96 820.575 1054.27 821.351C1048.58 822.127 1041.59 821.61 1033.48 819.875C1017.26 816.406 996.606 808.083 972.917 795.629C925.544 770.723 866.099 729.33 805.818 677.353Z" stroke="#01010D" stroke-opacity="0.5" stroke-width="0.67049"/>
<path opacity="0.517241" d="M799.525 672.381C744.004 615.348 699.098 558.511 671.378 512.728C657.516 489.835 647.961 469.721 643.519 453.74C641.298 445.749 640.36 438.807 640.791 433.076C641.222 427.349 643.017 422.852 646.244 419.711C649.471 416.569 654.015 414.895 659.752 414.618C665.492 414.341 672.405 415.465 680.334 417.9C696.191 422.77 716.04 432.862 738.553 447.333C783.575 476.273 839.186 522.688 894.707 579.721C950.229 636.754 995.135 693.592 1022.86 739.375C1036.72 762.268 1046.27 782.381 1050.71 798.363C1052.93 806.354 1053.87 813.295 1053.44 819.026C1053.01 824.753 1051.22 829.251 1047.99 832.392C1044.76 835.534 1040.22 837.207 1034.48 837.484C1028.74 837.761 1021.83 836.637 1013.9 834.202C998.042 829.332 978.193 819.241 955.68 804.77C910.658 775.83 855.047 729.414 799.525 672.381Z" stroke="#01010D" stroke-opacity="0.5" stroke-width="0.67049"/>
<path opacity="0.551724" d="M793.595 667.058C743.255 605.403 703.475 544.868 679.85 496.844C668.036 472.829 660.271 451.96 657.238 435.652C655.722 427.497 655.393 420.5 656.322 414.829C657.25 409.161 659.43 404.838 662.919 401.99C666.407 399.141 671.08 397.869 676.819 398.094C682.561 398.318 689.351 400.041 697.037 403.158C712.409 409.391 731.303 421.174 752.469 437.552C794.797 470.306 846.151 521.392 896.49 583.046C946.83 644.701 986.611 705.237 1010.24 753.261C1022.05 777.276 1029.82 798.145 1032.85 814.453C1034.36 822.607 1034.69 829.604 1033.77 835.275C1032.84 840.943 1030.66 845.267 1027.17 848.115C1023.68 850.963 1019.01 852.235 1013.27 852.011C1007.53 851.786 1000.74 850.064 993.049 846.947C977.677 840.714 958.783 828.931 937.617 812.553C895.289 779.799 843.934 728.713 793.595 667.058Z" stroke="#01010D" stroke-opacity="0.5" stroke-width="0.67049"/>
<path opacity="0.586207" d="M788.056 661.413C743.282 595.605 708.928 531.833 689.579 481.933C679.903 456.98 673.986 435.513 672.387 419.003C671.587 410.748 671.869 403.748 673.288 398.18C674.707 392.614 677.256 388.497 680.979 385.964C684.703 383.431 689.469 382.571 695.167 383.294C700.867 384.018 707.481 386.326 714.866 390.101C729.636 397.65 747.432 411.035 767.09 429.196C806.402 465.514 853.108 520.881 897.882 586.689C942.657 652.497 977.011 716.269 996.36 766.169C1006.04 791.122 1011.95 812.589 1013.55 829.099C1014.35 837.355 1014.07 844.353 1012.65 849.922C1011.23 855.488 1008.68 859.605 1004.96 862.138C1001.24 864.672 996.471 865.531 990.773 864.807C985.072 864.083 978.458 861.776 971.073 858.001C956.303 850.452 938.507 837.067 918.849 818.906C879.537 782.588 832.831 727.22 788.056 661.413Z" stroke="#01010D" stroke-opacity="0.5" stroke-width="0.67049"/>
<path opacity="0.62069" d="M782.937 655.484C744.069 586.024 715.404 519.501 700.477 468.104C693.013 442.403 688.99 420.502 688.835 403.915C688.758 395.622 689.649 388.674 691.548 383.25C693.447 377.829 696.345 373.95 700.275 371.751C704.205 369.552 709.027 369.11 714.641 370.328C720.257 371.546 726.644 374.422 733.672 378.826C747.728 387.634 764.289 402.519 782.289 422.324C818.287 461.93 859.989 521.157 898.858 590.617C937.726 660.076 966.391 726.6 981.318 777.997C988.782 803.698 992.806 825.599 992.96 842.186C993.037 850.48 992.147 857.427 990.248 862.851C988.35 868.272 985.451 872.151 981.521 874.35C977.591 876.549 972.769 876.99 967.156 875.773C961.54 874.555 955.152 871.68 948.124 867.276C934.068 858.468 917.507 843.583 899.506 823.778C863.509 784.171 821.806 724.944 782.937 655.484Z" stroke="#01010D" stroke-opacity="0.5" stroke-width="0.67049"/>
<path opacity="0.655172" d="M778.258 649.306C745.591 576.723 722.833 507.955 712.443 455.453C707.247 429.199 705.148 407.031 706.439 390.493C707.085 382.225 708.578 375.381 710.943 370.143C713.307 364.908 716.532 361.297 720.639 359.448C724.746 357.6 729.588 357.581 735.074 359.283C740.562 360.986 746.674 364.407 753.292 369.407C766.527 379.406 781.728 395.678 797.933 416.977C830.342 459.57 866.724 522.206 899.391 594.789C932.057 667.372 954.816 736.14 965.206 788.643C970.402 814.897 972.501 837.065 971.209 853.602C970.563 861.871 969.071 868.715 966.706 873.952C964.343 879.187 961.117 882.799 957.01 884.647C952.903 886.495 948.061 886.514 942.576 884.812C937.087 883.109 930.974 879.689 924.357 874.689C911.122 864.689 895.921 848.417 879.715 827.119C847.307 784.526 810.924 721.889 778.258 649.306Z" stroke="#01010D" stroke-opacity="0.5" stroke-width="0.67049"/>
<path opacity="0.689655" d="M774.039 642.926C747.822 567.772 731.145 497.282 725.37 444.074C722.482 417.467 722.323 395.2 725.051 378.838C726.415 370.657 728.499 363.97 731.311 358.958C734.122 353.949 737.649 350.632 741.902 349.149C746.154 347.666 750.98 348.068 756.296 350.242C761.616 352.417 767.406 356.358 773.563 361.916C785.876 373.03 799.601 390.565 813.888 413.195C842.461 458.451 873.246 524.02 899.463 599.174C925.679 674.328 942.357 744.818 948.131 798.026C951.019 824.633 951.179 846.899 948.45 863.261C947.086 871.442 945.003 878.13 942.191 883.141C939.38 888.15 935.852 891.467 931.599 892.95C927.347 894.434 922.522 894.031 917.206 891.857C911.886 889.682 906.095 885.741 899.938 880.184C887.625 869.069 873.901 851.534 859.613 828.904C831.04 783.649 800.255 718.08 774.039 642.926Z" stroke="#01010D" stroke-opacity="0.5" stroke-width="0.67049"/>
<path opacity="0.724138" d="M770.298 636.375C750.731 559.222 740.261 487.547 739.145 434.038C738.587 407.281 740.369 385.085 744.513 369.023C746.585 360.992 749.244 354.511 752.482 349.764C755.719 345.019 759.522 342.023 763.887 340.916C768.253 339.808 773.025 340.63 778.132 343.259C783.241 345.889 788.666 350.32 794.315 356.393C805.613 368.539 817.757 387.203 830.018 410.992C854.538 458.565 879.491 526.568 899.057 603.72C918.624 680.873 929.095 752.549 930.21 806.058C930.768 832.815 928.986 855.011 924.842 871.073C922.77 879.104 920.112 885.585 916.874 890.332C913.637 895.077 909.833 898.074 905.468 899.181C901.103 900.288 896.331 899.466 891.224 896.837C886.115 894.207 880.689 889.776 875.04 883.703C863.743 871.558 851.598 852.893 839.337 829.104C814.817 781.531 789.864 713.528 770.298 636.375Z" stroke="#01010D" stroke-opacity="0.5" stroke-width="0.67049"/>
<path opacity="0.758621" d="M767.045 629.701C754.277 551.136 750.093 478.821 753.646 425.418C755.422 398.715 759.132 376.758 764.66 361.119C767.424 353.299 770.637 347.075 774.277 342.628C777.915 338.183 781.965 335.529 786.41 334.807C790.855 334.084 795.538 335.319 800.396 338.383C805.257 341.449 810.275 346.335 815.373 352.877C825.569 365.961 836.041 385.613 846.182 410.38C866.462 459.91 885.393 529.828 898.161 608.392C910.929 686.957 915.112 759.273 911.56 812.675C909.784 839.379 906.074 861.336 900.546 876.975C897.782 884.795 894.569 891.019 890.93 895.466C887.292 899.911 883.241 902.565 878.796 903.287C874.351 904.01 869.669 902.775 864.81 899.711C859.95 896.645 854.931 891.759 849.833 885.217C839.637 872.132 829.165 852.481 819.024 827.714C798.744 778.184 779.813 708.265 767.045 629.701Z" stroke="#01010D" stroke-opacity="0.5" stroke-width="0.67049"/>
<path opacity="0.793103" d="M764.295 622.947C758.423 543.569 760.558 471.164 768.751 418.274C772.848 391.827 778.457 370.278 785.327 355.179C788.762 347.63 792.506 341.71 796.52 337.597C800.531 333.486 804.797 331.195 809.288 330.863C813.779 330.531 818.337 332.169 822.909 335.645C827.484 339.122 832.058 344.427 836.566 351.389C845.583 365.312 854.302 385.802 862.246 411.358C878.132 462.467 890.897 533.769 896.769 613.147C902.641 692.526 900.506 764.931 892.313 817.821C888.216 844.268 882.607 865.818 875.737 880.916C872.302 888.465 868.559 894.386 864.545 898.498C860.534 902.609 856.267 904.9 851.776 905.232C847.285 905.564 842.728 903.926 838.155 900.451C833.581 896.973 829.006 891.668 824.498 884.706C815.481 870.783 806.762 850.294 798.818 824.737C782.932 773.628 770.167 702.325 764.295 622.947Z" stroke="#01010D" stroke-opacity="0.5" stroke-width="0.67049"/>
<path opacity="0.827586" d="M762.044 616.155C763.113 536.567 771.55 464.624 784.322 412.65C790.708 386.66 798.174 365.682 806.334 351.239C810.414 344.018 814.659 338.447 819.016 334.699C823.37 330.954 827.82 329.044 832.323 329.104C836.826 329.164 841.223 331.193 845.475 335.055C849.73 338.918 853.823 344.601 857.708 351.929C865.477 366.585 872.377 387.757 878.063 413.908C889.435 466.207 895.937 538.351 894.868 617.939C893.799 697.527 885.362 769.47 872.59 821.445C866.204 847.435 858.738 868.413 850.578 882.855C846.498 890.076 842.254 895.648 837.897 899.395C833.543 903.141 829.093 905.051 824.589 904.991C820.086 904.93 815.69 902.901 811.438 899.04C807.183 895.177 803.089 889.493 799.204 882.165C791.435 867.509 784.535 846.338 778.849 820.186C767.477 767.887 760.975 695.743 762.044 616.155Z" stroke="#01010D" stroke-opacity="0.5" stroke-width="0.67049"/>
<path opacity="0.862069" d="M760.306 609.368C768.307 530.176 782.983 459.243 800.236 408.579C808.863 383.245 818.129 362.997 827.516 349.321C832.21 342.483 836.925 337.303 841.592 333.949C846.256 330.597 850.855 329.082 855.336 329.535C859.816 329.988 864.02 332.392 867.92 336.609C871.821 340.828 875.404 346.847 878.635 354.486C885.097 369.763 890.125 391.455 893.511 418.003C900.281 471.094 900.47 543.53 892.469 622.722C884.468 701.914 869.793 772.848 852.54 823.512C843.912 848.846 834.646 869.094 825.259 882.77C820.565 889.608 815.851 894.788 811.184 898.142C806.52 901.494 801.921 903.009 797.44 902.556C792.959 902.103 788.756 899.699 784.857 895.482C780.955 891.263 777.371 885.244 774.14 877.605C767.678 862.328 762.65 840.636 759.265 814.088C752.494 760.997 752.305 688.56 760.306 609.368Z" stroke="#01010D" stroke-opacity="0.5" stroke-width="0.67049"/>
<path opacity="0.896552" d="M759.066 602.633C773.939 524.439 794.74 455.055 816.343 406.088C827.146 381.602 838.141 362.238 848.685 349.433C853.957 343.03 859.105 338.28 864.046 335.346C868.985 332.414 873.698 331.305 878.123 332.146C882.547 332.988 886.525 335.75 890.042 340.291C893.561 344.834 896.606 351.142 899.159 359.033C904.265 374.815 907.383 396.863 908.442 423.605C910.559 477.084 904.435 549.261 889.562 627.454C874.689 705.647 853.887 775.033 832.284 824C821.482 848.486 810.487 867.849 799.943 880.655C794.671 887.058 789.523 891.808 784.582 894.742C779.643 897.674 774.929 898.783 770.505 897.941C766.081 897.1 762.104 894.338 758.586 889.797C755.067 885.254 752.022 878.946 749.469 871.054C744.363 855.272 741.244 833.224 740.186 806.482C738.069 753.003 744.193 680.826 759.066 602.633Z" stroke="#01010D" stroke-opacity="0.5" stroke-width="0.67049"/>
<path opacity="0.931035" d="M758.319 595.993C779.95 519.394 806.72 452.086 832.509 405.188C845.404 381.737 858.045 363.406 869.665 351.568C875.475 345.648 881.018 341.365 886.196 338.873C891.371 336.383 896.163 335.689 900.497 336.913C904.832 338.137 908.554 341.235 911.662 346.065C914.772 350.897 917.255 357.447 919.11 365.531C922.821 381.698 924.006 403.934 922.73 430.666C920.178 484.126 907.787 555.494 886.156 632.093C864.524 708.693 837.754 776.002 811.966 822.9C799.07 846.351 786.429 864.682 774.81 876.52C769 882.439 763.458 886.722 758.28 889.215C753.104 891.705 748.311 892.399 743.977 891.175C739.643 889.951 735.922 886.853 732.814 882.023C729.704 877.191 727.22 870.641 725.364 862.557C721.654 846.39 720.468 824.154 721.744 797.422C724.296 743.962 736.688 672.593 758.319 595.993Z" stroke="#01010D" stroke-opacity="0.5" stroke-width="0.67049"/>
<path opacity="0.965517" d="M758.067 589.49C786.292 515.068 818.826 450.349 848.604 405.877C863.494 383.639 877.685 366.479 890.292 355.699C896.595 350.309 902.491 346.525 907.866 344.494C913.239 342.464 918.073 342.19 922.284 343.787C926.495 345.384 929.933 348.795 932.608 353.878C935.285 358.963 937.188 365.704 938.332 373.918C940.62 390.348 939.862 412.602 936.261 439.122C929.06 492.156 910.495 562.172 882.27 636.595C854.045 711.018 821.511 775.737 791.733 820.209C776.843 842.447 762.652 859.607 750.045 870.387C743.741 875.777 737.847 879.561 732.471 881.592C727.098 883.623 722.263 883.896 718.052 882.299C713.842 880.702 710.404 877.291 707.729 872.209C705.052 867.124 703.149 860.383 702.005 852.168C699.717 835.739 700.474 813.484 704.075 786.965C711.277 733.93 729.842 663.913 758.067 589.49Z" stroke="#01010D" stroke-opacity="0.5" stroke-width="0.67049"/>
<path d="M758.283 583.166C792.887 511.487 830.938 449.85 864.478 408.143C881.25 387.287 896.882 371.429 910.381 361.789C917.13 356.969 923.333 353.713 928.865 352.158C934.394 350.604 939.234 350.753 943.29 352.711C947.345 354.669 950.473 358.366 952.695 363.662C954.919 368.962 956.227 375.843 956.65 384.126C957.497 400.692 954.803 422.796 948.905 448.9C937.108 501.105 912.512 569.237 877.908 640.917C843.304 712.596 805.253 774.234 771.712 815.941C754.941 836.797 739.308 852.654 725.81 862.295C719.06 867.115 712.858 870.371 707.326 871.926C701.797 873.48 696.956 873.331 692.901 871.373C688.845 869.415 685.718 865.718 683.496 860.422C681.273 855.123 679.964 848.241 679.54 839.958C678.693 823.392 681.387 801.288 687.286 775.183C699.082 722.979 723.679 654.846 758.283 583.166Z" stroke="#01010D" stroke-opacity="0.5" stroke-width="0.67049"/>
</g>
</svg>
