<svg width="61" height="46" viewBox="0 0 61 46" fill="none" xmlns="http://www.w3.org/2000/svg">
<rect x="1.38867" y="1" width="58" height="44" rx="22" fill="#F2F2F2"/>
<rect x="1.38867" y="1" width="58" height="44" rx="22" stroke="#F2F2F2" stroke-width="2"/>
<path fill-rule="evenodd" clip-rule="evenodd" d="M26.3255 32.4791C25.8814 32.4791 25.513 32.1108 25.513 31.6666V14.3333C25.513 13.8891 25.8814 13.5208 26.3255 13.5208C26.7697 13.5208 27.138 13.8891 27.138 14.3333V31.6666C27.138 32.1108 26.7697 32.4791 26.3255 32.4791ZM21.9922 32.4791C21.548 32.4791 21.1797 32.1108 21.1797 31.6666V19.7499C21.1797 19.3058 21.548 18.9374 21.9922 18.9374C22.4364 18.9374 22.8047 19.3058 22.8047 19.7499V31.6666C22.8047 32.1108 22.4364 32.4791 21.9922 32.4791ZM29.8464 31.6666C29.8464 32.1108 30.2147 32.4791 30.6589 32.4791C31.103 32.4791 31.4714 32.1108 31.4714 31.6666V21.9166C31.4714 21.4724 31.103 21.1041 30.6589 21.1041C30.2147 21.1041 29.8464 21.4724 29.8464 21.9166V31.6666ZM34.9922 32.4791C34.548 32.4791 34.1797 32.1108 34.1797 31.6666V17.5833C34.1797 17.1391 34.548 16.7708 34.9922 16.7708C35.4364 16.7708 35.8047 17.1391 35.8047 17.5833V31.6666C35.8047 32.1108 35.4364 32.4791 34.9922 32.4791ZM38.513 31.6666C38.513 32.1108 38.8814 32.4791 39.3255 32.4791C39.7697 32.4791 40.138 32.1108 40.138 31.6666V25.1666C40.138 24.7224 39.7697 24.3541 39.3255 24.3541C38.8814 24.3541 38.513 24.7224 38.513 25.1666V31.6666Z" fill="black"/>
</svg>
