<svg width="60" height="48" viewBox="0 0 60 48" fill="none" xmlns="http://www.w3.org/2000/svg">
<rect x="1" y="1" width="58" height="46" rx="23" fill="#F2F2F2"/>
<rect x="1" y="1" width="58" height="46" rx="23" stroke="#F2F2F2" stroke-width="2"/>
<path d="M36.5003 30.5001C38.8936 30.5001 40.8337 26.6199 40.8337 21.8334C40.8337 17.0469 38.8936 13.1667 36.5003 13.1667C34.1071 13.1667 32.167 17.0469 32.167 21.8334C32.167 26.6199 34.1071 30.5001 36.5003 30.5001Z" stroke="black" stroke-width="2" stroke-linecap="round" stroke-linejoin="round"/>
<path d="M36.5003 13.1667C33.1387 13.1667 26.1707 15.7429 22.1689 17.3419C20.3359 18.0742 19.167 19.8596 19.167 21.8334C19.167 23.8072 20.337 25.5926 22.1689 26.3249C26.1707 27.9239 33.1387 30.5001 36.5003 30.5001M28.917 34.8334L26.8121 33.6742C25.6883 33.0523 24.7768 32.1078 24.1951 30.9627C23.6135 29.8176 23.3885 28.5244 23.5491 27.2501" stroke="black" stroke-width="2" stroke-linecap="round" stroke-linejoin="round"/>
</svg>
