<svg width="61" height="48" viewBox="0 0 61 48" fill="none" xmlns="http://www.w3.org/2000/svg">
<rect x="1.38867" y="1" width="58" height="46" rx="23" fill="#D7FCE3"/>
<rect x="1.38867" y="1" width="58" height="46" rx="23" stroke="#F2F2F2" stroke-width="2"/>
<path d="M30 33.6635C31.6667 33.6635 33.0836 33.079 34.2507 31.91C35.4178 30.741 36.0009 29.3208 36 27.6493C35.9991 25.9778 35.416 24.558 34.2507 23.3899C33.0853 22.2218 31.6684 21.6369 30 21.6351C28.3316 21.6333 26.9151 22.2182 25.7507 23.3899C24.5862 24.5615 24.0027 25.9813 24 27.6493C23.9973 29.3172 24.5809 30.7375 25.7507 31.91C26.9204 33.0826 28.3369 33.6671 30 33.6635ZM26.152 21.4146C26.5787 21.1348 27.0333 20.9098 27.516 20.7396C27.9996 20.5694 28.4969 20.4447 29.008 20.3654L25.9733 14.3352H22.64L26.152 21.4146ZM23.4824 32.3269C24 32.3265 24.5669 32.368 24.6211 32.188C24.6744 32.0063 23.8716 31.3723 23.9747 31.1709C23.564 30.5054 23.268 29.7868 23.0867 29.0152C22.9053 28.2436 22.8578 27.4493 22.944 26.6322C22.944 25.964 23.0596 25.3296 23.2907 24.7291C23.5209 24.1294 23.8409 23.5899 24.2507 23.1106C23.9333 23.1649 23.4736 23.2161 23.2327 23.3899C22.9918 23.5645 23.2327 23.3899 22.8158 23.6397C21.8246 23.8812 20.7029 24.7677 20.1491 25.6445C19.5953 26.5212 19.4876 27.6384 19.7027 28.704C19.7027 29.6974 20.4182 30.5049 21.1107 31.199C21.8031 31.8931 22.4913 32.3278 23.4824 32.3269ZM36.364 32.2388C37.5711 32.1675 38.5902 31.6935 39.4213 30.8168C40.2516 29.9409 40.6667 28.8851 40.6667 27.6493C40.6667 26.4135 40.2511 25.3577 39.42 24.4818C38.5889 23.606 37.5702 23.1315 36.364 23.0584C36.2618 23.0584 36.1596 23.0629 36.0573 23.0718C35.9542 23.0807 35.8511 23.0936 35.748 23.1106C36.2458 23.7396 36.6342 24.4399 36.9133 25.2115C37.1933 25.9831 37.3333 26.7957 37.3333 27.6493C37.3333 28.5029 37.1938 29.3155 36.9147 30.0871C36.6347 30.8587 36.2462 31.559 35.7493 32.188C35.8516 32.2058 35.9538 32.2188 36.056 32.2268C36.1591 32.2357 36.2618 32.2388 36.364 32.2388ZM30 35C29.1458 35 28.3387 34.8677 27.5787 34.6031C26.8187 34.3384 26.1284 33.9575 25.508 33.4604C25.2733 33.5397 25.0262 33.5931 24.7667 33.6207C24.5071 33.6484 24.2404 33.6626 23.9667 33.6635C22.3204 33.6635 20.9147 33.0795 19.7493 31.9114C18.584 30.7433 18.0009 29.3337 18 27.6827C18 26.0531 18.5676 24.6591 19.7027 23.5008C20.8378 22.3425 22.2129 21.7456 23.828 21.7099C24.0164 21.7099 24.196 21.7228 24.3667 21.7487C24.5373 21.7736 24.708 21.8035 24.8787 21.8382L21.2507 14.5517C21.0622 14.1917 21.0747 13.8429 21.288 13.5052C21.5004 13.1684 21.8111 13 22.22 13H25.4933C25.9022 13 26.2738 13.1078 26.608 13.3234C26.9422 13.5391 27.2058 13.8268 27.3987 14.1868L30 19.3724L32.6 14.1868C32.7929 13.8268 33.0564 13.5391 33.3907 13.3234C33.7249 13.1078 34.0964 13 34.5053 13H37.7813C38.1902 13 38.5013 13.1684 38.7147 13.5052C38.9271 13.8438 38.9391 14.1926 38.7507 14.5517L35.18 21.746C35.3338 21.7113 35.492 21.6854 35.6547 21.6685C35.8164 21.6507 35.9831 21.6418 36.1547 21.6418C37.7867 21.6836 39.1689 22.2837 40.3013 23.442C41.4338 24.6003 42 26.0027 42 27.6493C42 29.3217 41.4173 30.7424 40.252 31.9114C39.0867 33.0804 37.6693 33.6644 36 33.6635C35.7316 33.6635 35.4707 33.6493 35.2173 33.6207C34.964 33.5922 34.7196 33.5388 34.484 33.4604C33.8644 33.9406 33.1756 34.3171 32.4173 34.5897C31.6591 34.8623 30.8533 34.9991 30 35ZM30 29.1194L28.572 30.202C28.4556 30.2786 28.348 30.28 28.2493 30.206C28.1507 30.132 28.1231 30.034 28.1667 29.912L28.6973 28.1291L27.2947 27.1147C27.1791 27.0381 27.1436 26.9401 27.188 26.8207C27.2324 26.7013 27.3178 26.6416 27.444 26.6416H29.188L29.744 24.7785C29.7884 24.6573 29.8738 24.5967 30 24.5967C30.1262 24.5967 30.2116 24.6573 30.256 24.7785L30.812 26.6416H32.556C32.6822 26.6416 32.7676 26.7013 32.812 26.8207C32.8564 26.9401 32.8209 27.0381 32.7053 27.1147L31.3027 28.1304L31.8333 29.9106C31.8778 30.0327 31.8507 30.1307 31.752 30.2047C31.6533 30.2786 31.5453 30.2777 31.428 30.202L30 29.1194ZM33.8493 21.4146L37.392 14.3365H34.0267L31.116 20.1182L31.2627 20.4122C31.7276 20.5013 32.1773 20.626 32.612 20.7864C33.0458 20.9468 33.4582 21.1562 33.8493 21.4146Z" fill="black"/>
</svg>
