<svg width="60" height="48" viewBox="0 0 60 48" fill="none" xmlns="http://www.w3.org/2000/svg">
<rect x="1" y="1" width="58" height="46" rx="23" fill="#F2F2F2"/>
<rect x="1" y="1" width="58" height="46" rx="23" stroke="#F2F2F2" stroke-width="2"/>
<g clip-path="url(#clip0_2058_19346)">
<path d="M30.0898 25.435L26.4498 29.075C26.6209 29.3666 26.7469 29.6738 26.8278 29.9966C26.9087 30.3194 26.9491 30.6538 26.9491 31C26.9491 32.0616 26.5715 32.9701 25.8163 33.7253C25.0611 34.4813 24.153 34.8593 23.0921 34.8593C22.0312 34.8593 21.1224 34.4817 20.3656 33.7265C19.6089 32.9712 19.2305 32.0632 19.2305 31.0023C19.2305 29.9414 19.6085 29.033 20.3645 28.277C21.1205 27.5194 22.0289 27.1406 23.0898 27.1406C23.4351 27.1406 23.7696 27.1811 24.0931 27.262C24.4159 27.3428 24.7231 27.4685 25.0148 27.6388L28.6548 24L25.0148 20.36C24.7231 20.5311 24.4159 20.6571 24.0931 20.738C23.7704 20.8188 23.4359 20.8593 23.0898 20.8593C22.0289 20.8593 21.1205 20.4817 20.3645 19.7265C19.6085 18.9712 19.2305 18.0632 19.2305 17.0023C19.2305 15.9414 19.6081 15.033 20.3633 14.277C21.1185 13.5194 22.0266 13.1406 23.0875 13.1406C24.1484 13.1406 25.0568 13.5186 25.8128 14.2746C26.5704 15.0306 26.9491 15.9391 26.9491 17C26.9491 17.3453 26.9087 17.6797 26.8278 18.0033C26.7469 18.3261 26.6213 18.6333 26.451 18.925L39.7638 32.239C40.0944 32.5695 40.1694 32.939 39.989 33.3473C39.8077 33.7572 39.4881 33.9621 39.03 33.9621C38.8977 33.9621 38.7698 33.9361 38.6461 33.884C38.5232 33.8318 38.4151 33.7599 38.3218 33.6681L30.0898 25.435ZM33.052 22.474L31.6158 21.039L38.3218 14.3318C38.4175 14.24 38.5279 14.1681 38.6531 14.116C38.7784 14.0638 38.9071 14.0378 39.0393 14.0378C39.4943 14.0378 39.8105 14.2439 39.9878 14.6561C40.1651 15.0668 40.0885 15.4374 39.758 15.768L33.052 22.474ZM23.0898 19.6926C23.8302 19.6926 24.4641 19.429 24.9915 18.9016C25.5188 18.3743 25.7821 17.7404 25.7813 17C25.7805 16.2595 25.5172 15.6256 24.9915 15.0983C24.4657 14.571 23.8318 14.3073 23.0898 14.3073C22.3478 14.3073 21.7139 14.571 21.1881 15.0983C20.6624 15.6256 20.3987 16.2595 20.3971 17C20.3956 17.7404 20.6592 18.3743 21.1881 18.9016C21.717 19.429 22.3509 19.6926 23.0898 19.6926ZM23.0898 33.6926C23.8302 33.6926 24.4641 33.429 24.9915 32.9016C25.5188 32.3743 25.7821 31.7404 25.7813 31C25.7805 30.2595 25.5172 29.6256 24.9915 29.0983C24.4657 28.571 23.8318 28.3073 23.0898 28.3073C22.3478 28.3073 21.7139 28.571 21.1881 29.0983C20.6624 29.6256 20.3987 30.2595 20.3971 31C20.3956 31.7404 20.6592 32.3743 21.1881 32.9016C21.717 33.429 22.3509 33.6926 23.0898 33.6926Z" fill="black"/>
</g>
<defs>
<clipPath id="clip0_2058_19346">
<rect width="26" height="26" fill="white" transform="translate(17 11)"/>
</clipPath>
</defs>
</svg>
