<svg width="395" height="72" viewBox="0 0 395 72" fill="none" xmlns="http://www.w3.org/2000/svg">
<g opacity="0.2">
<path d="M384.651 -25.0818C410.015 73.5504 309.497 81.7798 237.604 50.8702C195.621 34.8859 167.043 81.8019 115.035 61.9649C63.0274 42.128 126.818 -16.3621 47.269 -48.3523C-32.2801 -80.3424 9.21972 -216.496 79.244 -216.844C149.268 -217.191 130.439 -240.546 201.36 -291.972C272.281 -343.398 388.919 -268.178 358.24 -191.444C327.561 -114.711 357.194 -131.853 384.651 -25.0818Z" stroke="black" stroke-opacity="0.5" stroke-width="3"/>
<path d="M371.072 -31.7899C394.4 58.7306 301.665 67.5596 235.248 38.8561C196.111 23.7719 169.126 66.7666 121.192 48.4826C72.1874 29.7896 130.823 -23.7048 57.7432 -53.5473C-15.5024 -83.5548 21.816 -209.719 87.6449 -209.996C153.088 -210.281 135.452 -232.389 201.269 -279.501C267.086 -326.612 374.625 -257.55 346.705 -186.07C318.803 -115.666 345.663 -130.278 371.072 -31.7899Z" stroke="black" stroke-opacity="0.5" stroke-width="3"/>
<path d="M357.492 -38.4982C378.783 43.9106 293.831 53.3392 232.889 26.8417C196.599 12.6576 171.208 51.7311 127.346 34.9999C81.3454 17.451 134.826 -31.0479 68.2152 -58.7427C1.27327 -86.7674 34.4103 -202.941 96.0437 -203.15C156.907 -203.371 140.463 -224.232 201.176 -267.03C261.889 -309.827 360.329 -246.922 335.168 -180.697C310.044 -116.622 334.13 -128.704 357.492 -38.4982Z" stroke="black" stroke-opacity="0.5" stroke-width="3"/>
<path d="M343.911 -45.207C363.165 29.0901 285.997 39.1183 230.531 14.8268C197.087 1.54277 173.29 36.6951 133.501 21.5168C90.5034 5.11191 138.829 -38.3914 78.6873 -63.9385C18.0489 -89.9804 47.0044 -196.165 104.443 -196.303C160.725 -196.462 145.474 -216.076 201.083 -254.559C256.692 -293.042 346.033 -236.295 323.63 -175.324C301.284 -117.578 322.597 -127.13 343.911 -45.207Z" stroke="black" stroke-opacity="0.5" stroke-width="3"/>
<path d="M330.33 -51.9162C347.548 14.2692 278.162 24.897 228.173 2.81159C197.574 -9.57238 175.371 21.6587 139.655 8.03335C99.6612 -7.22756 142.832 -45.7352 89.1591 -69.1347C34.8243 -93.1939 59.5985 -189.388 112.841 -189.457C164.543 -189.553 150.485 -207.921 200.99 -242.089C251.495 -276.258 331.737 -225.668 312.093 -169.951C292.525 -118.535 311.064 -125.557 330.33 -51.9162Z" stroke="black" stroke-opacity="0.5" stroke-width="3"/>
<path d="M316.757 -58.9534C331.938 -0.879611 270.336 10.3478 225.822 -9.5316C198.07 -21.0155 177.46 6.29435 145.817 -5.77808C108.827 -19.895 146.843 -53.407 99.6386 -74.6588C51.6074 -96.7353 72.2001 -182.94 121.247 -182.939C168.368 -182.972 155.503 -200.093 200.905 -229.947C246.306 -259.801 317.449 -215.369 300.564 -164.906C283.773 -119.819 299.538 -124.311 316.757 -58.9534Z" stroke="black" stroke-opacity="0.5" stroke-width="3"/>
</g>
</svg>
