<svg width="49" height="49" viewBox="0 0 49 49" fill="none" xmlns="http://www.w3.org/2000/svg">
<rect y="1.00732" width="48" height="48" rx="24" transform="rotate(-1 0 1.00732)" fill="#4BED7B"/>
<rect x="0.50865" y="1.49852" width="47" height="47" rx="23.5" transform="rotate(-1 0.50865 1.49852)" stroke="white" stroke-opacity="0.07"/>
<path d="M33.166 36.8348C35.099 36.8348 36.666 35.2678 36.666 33.3348C36.666 31.4018 35.099 29.8348 33.166 29.8348C31.233 29.8348 29.666 31.4018 29.666 33.3348C29.666 35.2678 31.233 36.8348 33.166 36.8348Z" fill="black"/>
<path d="M19.166 21.9598L20.916 21.9598L20.916 23.7098L19.166 23.7098L19.166 21.9598ZM19.166 26.3348L20.916 26.3348L20.916 28.0848L19.166 28.0848L19.166 26.3348ZM19.166 30.7098L20.916 30.7098L20.916 32.4598L19.166 32.4598L19.166 30.7098ZM22.666 21.9598L29.666 21.9598L29.666 23.7098L22.666 23.7098L22.666 21.9598ZM22.666 26.3348L29.666 26.3348L29.666 28.0848L22.666 28.0848L22.666 26.3348ZM22.666 30.7098L26.166 30.7098L26.166 32.4598L22.666 32.4598L22.666 30.7098Z" fill="black"/>
<path d="M16.541 35.0848L16.541 16.7098L19.166 16.7098L19.166 19.3348L29.666 19.3348L29.666 16.7098L32.291 16.7098L32.291 26.3348L34.041 26.3348L34.041 16.7098C34.041 16.2457 33.8566 15.8006 33.5285 15.4724C33.2003 15.1442 32.7551 14.9598 32.291 14.9598L29.666 14.9598L29.666 14.0848C29.666 13.6207 29.4816 13.1756 29.1535 12.8474C28.8253 12.5192 28.3801 12.3348 27.916 12.3348L20.916 12.3348C20.4519 12.3348 20.0068 12.5192 19.6786 12.8474C19.3504 13.1756 19.166 13.6207 19.166 14.0848L19.166 14.9598L16.541 14.9598C16.0769 14.9598 15.6318 15.1442 15.3036 15.4724C14.9754 15.8006 14.791 16.2457 14.791 16.7098L14.791 35.0848C14.791 35.549 14.9754 35.9941 15.3036 36.3223C15.6318 36.6505 16.0769 36.8348 16.541 36.8348L26.166 36.8348L26.166 35.0848L16.541 35.0848ZM20.916 14.0848L27.916 14.0848L27.916 17.5848L20.916 17.5848L20.916 14.0848Z" fill="black"/>
</svg>
