<svg width="49" height="49" viewBox="0 0 49 49" fill="none" xmlns="http://www.w3.org/2000/svg">
<rect y="1.00732" width="48" height="48" rx="24" transform="rotate(-1 0 1.00732)" fill="#4BED7B"/>
<rect x="0.50865" y="1.49852" width="47" height="47" rx="23.5" transform="rotate(-1 0.50865 1.49852)" stroke="white" stroke-opacity="0.07"/>
<g clip-path="url(#clip0_2058_19259)">
<path d="M12.415 22.3348C12.4135 20.1285 13.1604 17.9869 14.5335 16.26C15.9067 14.533 17.825 13.3229 19.9749 12.8273C22.1248 12.3317 24.3793 12.5799 26.3699 13.5315C28.3605 14.483 29.9695 16.0815 30.934 18.0658C32.3302 18.7465 33.5435 19.7508 34.473 20.9951C35.4025 22.2395 36.0212 23.6879 36.2777 25.2198C36.5342 26.7516 36.421 28.3226 35.9476 29.8019C35.4742 31.2812 34.6542 32.6259 33.5559 33.7242C32.4576 34.8225 31.1129 35.6425 29.6336 36.1159C28.1543 36.5894 26.5833 36.7025 25.0515 36.446C23.5196 36.1895 22.0712 35.5708 20.8268 34.6413C19.5824 33.7118 18.5781 32.4985 17.8975 31.1023C16.2535 30.302 14.8677 29.0556 13.8982 27.5053C12.9288 25.955 12.4148 24.1633 12.415 22.3348ZM20.131 31.8718C20.8471 32.8005 21.753 33.5659 22.7882 34.1169C23.8234 34.6679 24.9642 34.9918 26.1345 35.0671C27.3048 35.1425 28.4777 34.9674 29.575 34.5537C30.6723 34.1399 31.6688 33.497 32.498 32.6678C33.3272 31.8386 33.9701 30.8421 34.3839 29.7448C34.7976 28.6475 34.9727 27.4746 34.8973 26.3043C34.822 25.134 34.4981 23.9932 33.9471 22.958C33.3961 21.9228 32.6307 21.0169 31.702 20.3008C32.0417 21.8915 31.978 23.5419 31.5167 25.1016C31.0555 26.6614 30.2114 28.0809 29.0613 29.2311C27.9111 30.3812 26.4916 31.2253 24.9318 31.6866C23.3721 32.1478 21.7217 32.2115 20.131 31.8718ZM19.0315 29.9683C19.5775 30.1943 20.1495 30.3593 20.7475 30.4633L18.5365 28.2523C18.6405 28.8493 18.8055 29.4213 19.0315 29.9683ZM22.9525 30.5473C23.5505 30.4908 24.1405 30.369 24.712 30.1843L18.976 24.4498C18.7744 24.9932 18.6257 25.5549 18.532 26.1268L22.9525 30.5473ZM26.188 29.5393C26.634 29.2893 27.053 29.0013 27.445 28.6753L20.542 21.7738C20.2141 22.1613 19.9196 22.5758 19.6615 23.0128L26.188 29.5393ZM28.5055 27.6133C28.8305 27.2233 29.1185 26.8048 29.3695 26.3578L22.8445 19.8298C22.4069 20.0878 21.992 20.3824 21.604 20.7103L28.504 27.6133L28.5055 27.6133ZM30.0145 24.8803C30.1975 24.3183 30.3185 23.7323 30.3775 23.1223L25.957 18.7018C25.377 18.7978 24.818 18.9458 24.28 19.1458L30.0145 24.8818L30.0145 24.8803ZM30.2935 20.9173C30.1911 20.3291 30.0252 19.7537 29.7985 19.2013C29.2461 18.9747 28.6708 18.8088 28.0825 18.7063L30.2935 20.9173Z" fill="black"/>
</g>
<defs>
<clipPath id="clip0_2058_19259">
<rect width="24" height="24" fill="white" transform="translate(12.415 12.5848)"/>
</clipPath>
</defs>
</svg>
