<svg width="49" height="49" viewBox="0 0 49 49" fill="none" xmlns="http://www.w3.org/2000/svg">
<rect y="1.00732" width="48" height="48" rx="24" transform="rotate(-1 0 1.00732)" fill="#4BED7B"/>
<rect x="0.50865" y="1.49852" width="47" height="47" rx="23.5" transform="rotate(-1 0.50865 1.49852)" stroke="white" stroke-opacity="0.07"/>
<path d="M17.416 18.4598C16.7238 18.4598 16.0471 18.2546 15.4715 17.87C14.8959 17.4854 14.4473 16.9388 14.1824 16.2992C13.9175 15.6597 13.8482 14.956 13.9833 14.277C14.1183 13.5981 14.4517 12.9745 14.9411 12.485C15.4306 11.9955 16.0543 11.6621 16.7332 11.5271C17.4121 11.392 18.1159 11.4614 18.7554 11.7263C19.3949 11.9912 19.9416 12.4398 20.3262 13.0153C20.7107 13.5909 20.916 14.2676 20.916 14.9598C20.916 15.8881 20.5473 16.7783 19.8909 17.4347C19.2345 18.0911 18.3443 18.4598 17.416 18.4598ZM17.416 13.2098C17.0699 13.2098 16.7316 13.3125 16.4438 13.5048C16.156 13.6971 15.9317 13.9704 15.7992 14.2901C15.6668 14.6099 15.6321 14.9618 15.6996 15.3012C15.7672 15.6407 15.9338 15.9525 16.1786 16.1973C16.4233 16.442 16.7351 16.6087 17.0746 16.6762C17.4141 16.7437 17.7659 16.7091 18.0857 16.5766C18.4055 16.4442 18.6788 16.2199 18.8711 15.9321C19.0634 15.6443 19.166 15.306 19.166 14.9598C19.166 14.4957 18.9816 14.0506 18.6535 13.7224C18.3253 13.3942 17.8801 13.2098 17.416 13.2098ZM31.416 18.4598C30.7238 18.4598 30.0471 18.2546 29.4715 17.87C28.8959 17.4854 28.4473 16.9388 28.1824 16.2992C27.9175 15.6597 27.8482 14.956 27.9833 14.277C28.1183 13.5981 28.4517 12.9745 28.9411 12.485C29.4306 11.9955 30.0543 11.6621 30.7332 11.5271C31.4121 11.392 32.1159 11.4614 32.7554 11.7263C33.3949 11.9912 33.9416 12.4398 34.3262 13.0153C34.7107 13.5909 34.916 14.2676 34.916 14.9598C34.916 15.8881 34.5473 16.7783 33.8909 17.4347C33.2345 18.0911 32.3443 18.4598 31.416 18.4598ZM31.416 13.2098C31.0699 13.2098 30.7316 13.3125 30.4438 13.5048C30.156 13.6971 29.9317 13.9704 29.7992 14.2901C29.6668 14.6099 29.6321 14.9618 29.6996 15.3012C29.7672 15.6407 29.9338 15.9525 30.1786 16.1973C30.4233 16.442 30.7351 16.6087 31.0746 16.6762C31.4141 16.7437 31.7659 16.7091 32.0857 16.5766C32.4055 16.4442 32.6788 16.2199 32.8711 15.9321C33.0634 15.6443 33.166 15.306 33.166 14.9598C33.166 14.4957 32.9816 14.0506 32.6535 13.7224C32.3253 13.3942 31.8801 13.2098 31.416 13.2098ZM33.166 36.8348L29.666 36.8348C29.2019 36.8348 28.7568 36.6505 28.4286 36.3223C28.1004 35.9941 27.916 35.549 27.916 35.0848L27.916 28.9598L29.666 28.9598L29.666 35.0848L33.166 35.0848L33.166 27.2098L34.916 27.2098L34.916 21.9598C34.916 21.7278 34.8238 21.5052 34.6597 21.3411C34.4956 21.177 34.2731 21.0848 34.041 21.0848L28.4235 21.0848L24.416 28.0848L20.4085 21.0848L14.791 21.0848C14.559 21.0848 14.3364 21.177 14.1723 21.3411C14.0082 21.5052 13.916 21.7278 13.916 21.9598L13.916 27.2098L15.666 27.2098L15.666 35.0848L19.166 35.0848L19.166 28.9598L20.916 28.9598L20.916 35.0848C20.916 35.549 20.7316 35.9941 20.4035 36.3223C20.0753 36.6505 19.6301 36.8348 19.166 36.8348L15.666 36.8348C15.2019 36.8348 14.7568 36.6505 14.4286 36.3223C14.1004 35.9941 13.916 35.549 13.916 35.0848L13.916 28.9598C13.4519 28.9598 13.0068 28.7755 12.6786 28.4473C12.3504 28.1191 12.166 27.674 12.166 27.2098L12.166 21.9598C12.166 21.2636 12.4426 20.596 12.9349 20.1037C13.4271 19.6114 14.0948 19.3348 14.791 19.3348L21.4235 19.3348L24.416 24.5848L27.4085 19.3348L34.041 19.3348C34.7372 19.3348 35.4049 19.6114 35.8972 20.1037C36.3895 20.596 36.666 21.2636 36.666 21.9598L36.666 27.2098C36.666 27.674 36.4816 28.1191 36.1535 28.4473C35.8253 28.7755 35.3801 28.9598 34.916 28.9598L34.916 35.0848C34.916 35.549 34.7316 35.9941 34.4035 36.3223C34.0753 36.6505 33.6301 36.8348 33.166 36.8348Z" fill="black"/>
</svg>
