<svg width="49" height="49" viewBox="0 0 49 49" fill="none" xmlns="http://www.w3.org/2000/svg">
<rect y="1.00732" width="48" height="48" rx="24" transform="rotate(-1 0 1.00732)" fill="#4BED7B"/>
<rect x="0.50865" y="1.49852" width="47" height="47" rx="23.5" transform="rotate(-1 0.50865 1.49852)" stroke="white" stroke-opacity="0.07"/>
<path d="M15.2721 27.2515C14.2716 25.6131 13.7441 23.7298 13.7481 21.8101C13.7481 15.9781 18.5241 11.2515 24.4147 11.2515C30.3054 11.2515 35.0814 15.9781 35.0814 21.8101C35.0853 23.7298 34.5579 25.6131 33.5574 27.2515M28.4147 33.9181L28.2414 34.7808C28.0547 35.7235 27.9601 36.1941 27.7481 36.5675C27.4214 37.1429 26.8925 37.5763 26.2641 37.7835C25.8574 37.9181 25.3747 37.9181 24.4147 37.9181C23.4547 37.9181 22.9721 37.9181 22.5654 37.7848C21.9368 37.5773 21.4078 37.1434 21.0814 36.5675C20.8694 36.1941 20.7747 35.7235 20.5881 34.7808L20.4147 33.9181M18.2587 31.3821C18.1361 31.0141 18.0747 30.8288 18.0814 30.6795C18.0889 30.5251 18.1411 30.3761 18.2315 30.2507C18.3218 30.1253 18.4466 30.0288 18.5907 29.9728C18.7294 29.9181 18.9241 29.9181 19.3107 29.9181L29.5187 29.9181C29.9067 29.9181 30.1001 29.9181 30.2387 29.9715C30.383 30.0275 30.508 30.1243 30.5984 30.25C30.6888 30.3756 30.7408 30.5248 30.7481 30.6795C30.7547 30.8288 30.6934 31.0128 30.5707 31.3821C30.3441 32.0635 30.2307 32.4048 30.0561 32.6808C29.6907 33.2576 29.1181 33.6723 28.4561 33.8395C28.1387 33.9181 27.7814 33.9181 27.0654 33.9181L21.7641 33.9181C21.0481 33.9181 20.6894 33.9181 20.3734 33.8381C19.7116 33.6713 19.139 33.2571 18.7734 32.6808C18.5987 32.4048 18.4854 32.0635 18.2587 31.3821Z" stroke="black" stroke-width="1.5" stroke-linecap="round" stroke-linejoin="round"/>
<path d="M19.415 21.5848L22.415 24.5848L22.415 29.9182M29.415 21.5848L26.415 24.5848L26.415 29.9182M19.415 22.5848C19.6803 22.5848 19.9346 22.4795 20.1221 22.2919C20.3097 22.1044 20.415 21.8501 20.415 21.5848C20.415 21.3196 20.3097 21.0653 20.1221 20.8777C19.9346 20.6902 19.6803 20.5848 19.415 20.5848C19.1498 20.5848 18.8955 20.6902 18.7079 20.8777C18.5204 21.0653 18.415 21.3196 18.415 21.5848C18.415 21.8501 18.5204 22.1044 18.7079 22.2919C18.8955 22.4795 19.1498 22.5848 19.415 22.5848ZM29.415 22.5848C29.1498 22.5848 28.8955 22.4795 28.7079 22.2919C28.5204 22.1044 28.415 21.8501 28.415 21.5848C28.415 21.3196 28.5204 21.0653 28.7079 20.8777C28.8955 20.6902 29.1498 20.5848 29.415 20.5848C29.6803 20.5848 29.9346 20.6902 30.1221 20.8777C30.3097 21.0653 30.415 21.3196 30.415 21.5848C30.415 21.8501 30.3097 22.1044 30.1221 22.2919C29.9346 22.4795 29.6803 22.5848 29.415 22.5848Z" stroke="black" stroke-width="1.5" stroke-linecap="round" stroke-linejoin="round"/>
</svg>
