<svg width="49" height="49" viewBox="0 0 49 49" fill="none" xmlns="http://www.w3.org/2000/svg">
<rect y="0.837891" width="48" height="48" rx="24" transform="rotate(-1 0 0.837891)" fill="#4BED7B"/>
<rect x="0.50865" y="1.32909" width="47" height="47" rx="23.5" transform="rotate(-1 0.50865 1.32909)" stroke="white" stroke-opacity="0.07"/>
<path d="M14.2902 24.4155C14.2922 22.5264 15.0435 20.7153 16.3793 19.3795C17.715 18.0438 19.5261 17.2925 21.4152 17.2905L30.6964 17.2905L30.3664 16.9614C30.2618 16.8568 30.1788 16.7325 30.1222 16.5958C30.0655 16.4591 30.0364 16.3125 30.0364 16.1645C30.0364 16.0166 30.0655 15.87 30.1222 15.7333C30.1788 15.5966 30.2618 15.4723 30.3664 15.3677C30.4711 15.263 30.5953 15.18 30.7321 15.1234C30.8688 15.0667 31.0153 15.0376 31.1633 15.0376C31.3113 15.0376 31.4579 15.0667 31.5946 15.1234C31.7313 15.18 31.8555 15.263 31.9602 15.3677L34.2102 17.6177C34.3151 17.7222 34.3983 17.8464 34.4551 17.9831C34.5119 18.1199 34.5411 18.2665 34.5411 18.4145C34.5411 18.5626 34.5119 18.7092 34.4551 18.846C34.3983 18.9827 34.3151 19.1069 34.2102 19.2114L31.9602 21.4614C31.7488 21.6728 31.4622 21.7915 31.1633 21.7915C30.8644 21.7915 30.5778 21.6728 30.3664 21.4614C30.1551 21.2501 30.0364 20.9634 30.0364 20.6645C30.0364 20.3657 30.1551 20.079 30.3664 19.8677L30.6964 19.5405L21.4152 19.5405C20.1227 19.542 18.8836 20.0561 17.9697 20.97C17.0558 21.8839 16.5417 23.123 16.5402 24.4155C16.5402 24.7139 16.4217 25 16.2107 25.211C15.9997 25.422 15.7136 25.5405 15.4152 25.5405C15.1168 25.5405 14.8307 25.422 14.6197 25.211C14.4087 25 14.2902 24.7139 14.2902 24.4155ZM33.4152 23.2905C33.1168 23.2905 32.8307 23.409 32.6197 23.62C32.4087 23.831 32.2902 24.1171 32.2902 24.4155C32.2887 25.708 31.7746 26.9471 30.8607 27.861C29.9468 28.7749 28.7077 29.289 27.4152 29.2905L18.1339 29.2905L18.4639 28.9614C18.5686 28.8568 18.6516 28.7325 18.7082 28.5958C18.7649 28.4591 18.794 28.3125 18.794 28.1645C18.794 28.0166 18.7649 27.87 18.7082 27.7333C18.6516 27.5966 18.5686 27.4723 18.4639 27.3677C18.3593 27.263 18.2351 27.18 18.0983 27.1234C17.9616 27.0667 17.8151 27.0376 17.6671 27.0376C17.5191 27.0376 17.3725 27.0667 17.2358 27.1234C17.0991 27.18 16.9748 27.263 16.8702 27.3677L14.6202 29.6177C14.5153 29.7222 14.4321 29.8464 14.3753 29.9831C14.3185 30.1199 14.2893 30.2665 14.2893 30.4145C14.2893 30.5626 14.3185 30.7092 14.3753 30.846C14.4321 30.9827 14.5153 31.1069 14.6202 31.2114L16.8702 33.4614C16.9748 33.5661 17.0991 33.6491 17.2358 33.7057C17.3725 33.7624 17.5191 33.7915 17.6671 33.7915C17.8151 33.7915 17.9616 33.7624 18.0983 33.7057C18.2351 33.6491 18.3593 33.5661 18.4639 33.4614C18.5686 33.3568 18.6516 33.2325 18.7082 33.0958C18.7649 32.9591 18.794 32.8125 18.794 32.6645C18.794 32.5166 18.7649 32.37 18.7082 32.2333C18.6516 32.0966 18.5686 31.9723 18.4639 31.8677L18.1339 31.5405L27.4152 31.5405C29.3043 31.5385 31.1154 30.7872 32.4511 29.4514C33.7869 28.1157 34.5382 26.3045 34.5402 24.4155C34.5402 24.1171 34.4217 23.831 34.2107 23.62C33.9997 23.409 33.7136 23.2905 33.4152 23.2905Z" fill="#01010D"/>
</svg>
