<svg width="49" height="49" viewBox="0 0 49 49" fill="none" xmlns="http://www.w3.org/2000/svg">
<rect y="0.837891" width="48" height="48" rx="24" transform="rotate(-1 0 0.837891)" fill="#4BED7B"/>
<rect x="0.50865" y="1.32909" width="47" height="47" rx="23.5" transform="rotate(-1 0.50865 1.32909)" stroke="white" stroke-opacity="0.07"/>
<path d="M22.4153 21.4155C22.4153 21.1503 22.5206 20.896 22.7082 20.7084C22.8957 20.5209 23.1501 20.4155 23.4153 20.4155C23.6805 20.4155 23.9349 20.5209 24.1224 20.7084C24.3099 20.896 24.4153 21.1503 24.4153 21.4155L24.4153 25.8855L25.6253 26.0155L30.5653 28.2055C31.0953 28.4455 31.4153 28.9755 31.4153 29.5555L31.4153 33.9155C31.3853 34.7355 30.7353 35.3855 29.9153 35.4155L23.4153 35.4155C23.0353 35.4155 22.6753 35.2655 22.4153 34.9855L17.5153 30.7855L18.2553 30.0155C18.4453 29.8055 18.7153 29.6955 18.9953 29.6955L19.2153 29.6955L22.4153 31.4155L22.4153 21.4155ZM23.4153 17.4155C24.4761 17.4155 25.4936 17.837 26.2437 18.5871C26.9939 19.3372 27.4153 20.3547 27.4153 21.4155C27.4153 22.9155 26.6153 24.1855 25.4153 24.8755L25.4153 23.6555C26.0253 23.1055 26.4153 22.3055 26.4153 21.4155C26.4153 20.6199 26.0992 19.8568 25.5366 19.2942C24.974 18.7316 24.2109 18.4155 23.4153 18.4155C22.6196 18.4155 21.8566 18.7316 21.294 19.2942C20.7314 19.8568 20.4153 20.6199 20.4153 21.4155C20.4153 22.3055 20.8053 23.1055 21.4153 23.6555L21.4153 24.8755C20.2153 24.1855 19.4153 22.9155 19.4153 21.4155C19.4153 20.3547 19.8367 19.3372 20.5869 18.5871C21.337 17.837 22.3544 17.4155 23.4153 17.4155ZM23.4153 15.4155C25.0066 15.4155 26.5327 16.0477 27.6579 17.1729C28.7831 18.2981 29.4153 19.8242 29.4153 21.4155C29.4153 23.1155 28.7053 24.6455 27.5753 25.7455L26.5753 25.2955C27.1499 24.8251 27.6129 24.2331 27.9311 23.5622C28.2493 22.8913 28.4146 22.1581 28.4153 21.4155C28.4153 20.0894 27.8885 18.8177 26.9508 17.88C26.0131 16.9423 24.7414 16.4155 23.4153 16.4155C22.0892 16.4155 20.8174 16.9423 19.8797 17.88C18.9421 18.8177 18.4153 20.0894 18.4153 21.4155C18.4153 23.4655 19.6453 25.2255 21.4153 25.9955L21.4153 27.0755C19.0853 26.2455 17.4153 24.0255 17.4153 21.4155C17.4153 19.8242 18.0474 18.2981 19.1726 17.1729C20.2979 16.0477 21.824 15.4155 23.4153 15.4155Z" fill="#01010D"/>
</svg>
