<svg width="640" height="278" viewBox="0 0 640 278" fill="none" xmlns="http://www.w3.org/2000/svg">
<g opacity="0.2">
<path d="M581.72 -209.719C618.56 -234.739 620.554 -316.378 542.93 -284.834C530.203 -279.662 507.497 -274.133 479.265 -269.949C453.402 -266.117 429.91 -303.974 394.177 -308.927C338.137 -316.694 319.599 -234.332 289.819 -239.786C250.815 -246.93 224.418 -290.556 198.945 -312.144C174.965 -332.467 142.05 -341.289 110.569 -340.27C55.3385 -338.483 4.5195 -306.411 14.0979 -253.032C18.8928 -226.311 38.8231 -194.251 80.9117 -157.977C99.7297 -141.759 115.502 -127.266 128.578 -114.165C162.233 -80.4465 101.953 -77.534 110.797 -30.1506C115.837 -3.15168 172.261 13.0858 150.582 40.4323C135.168 59.8772 116.233 82.4824 98.3793 112.617C67.0243 165.539 73.5558 221.013 134.517 214.822C163.294 211.9 204.201 195.237 258.976 158.077C294.03 134.297 301.266 171.37 351.602 164.068C401.939 156.766 416.599 116.815 442.884 137.109L443.411 137.516C463.443 152.984 484.809 169.483 519.297 173.158C549.005 176.323 575.995 169.047 594.871 155.489C615.073 140.978 625.981 119.272 620.983 95.4699C615.969 71.5872 594.94 45.5936 551.216 22.6398C522.388 7.50601 574.899 -19.5843 560.508 -55.4076C546.118 -91.2309 491.075 -83.8087 501.485 -109.719C519.569 -154.726 538.575 -180.415 581.72 -209.719Z" stroke="#03031D" stroke-width="3"/>
<path d="M528.306 -267.843C599.038 -296.268 597.193 -221.659 563.421 -198.72C522.138 -170.652 505.39 -146.376 489.805 -104.474C480.451 -80.7708 530.754 -87.354 544.051 -54.5806C557.348 -21.8073 509.755 3.02829 536.019 16.9638C575.869 38.1789 594.851 62.1305 599.134 84.0617C603.55 105.813 593.402 125.653 574.774 138.833C557.351 151.147 532.522 157.633 505.26 154.395C472.608 149.486 450 136.657 430.719 122.768C406.48 104.406 392.909 140.586 347.013 146.941C301.117 153.297 294.57 119.159 262.896 140.429C213.307 173.822 176.352 188.67 150.384 191.059C95.0431 196.497 89.2324 145.682 117.757 97.1413C133.998 69.3337 151.087 48.3283 164.694 30.2468C184.236 5.18391 132.681 -9.79143 127.835 -34.5815C119.497 -77.9455 174.126 -80.8312 143.355 -111.731C131.308 -123.871 116.872 -137.262 99.718 -152.203C61.2918 -185.947 43.8625 -215.562 40.2646 -239.9C31.7673 -288.475 78.2261 -317.629 128.686 -319.19C157.538 -320.053 187.682 -311.926 209.666 -293.293C233.769 -272.865 258.28 -232.784 295.124 -226.518C322.57 -221.615 339.816 -296.725 391.183 -289.826C424.074 -285.488 445.83 -251.21 469.713 -254.749C495.709 -258.6 516.617 -263.411 528.306 -267.843Z" stroke="#03031D" stroke-width="3"/>
<path d="M513.075 -250.101C576.679 -275.335 575.019 -207.872 544.431 -187.065C505.159 -160.293 490.732 -137.474 477.71 -98.7487C469.451 -77.2924 514.852 -83.0059 527.026 -53.3282C539.199 -23.6504 496.687 -1.12718 520.307 11.5989C556.165 31.0583 573.05 52.9383 576.597 72.8854C580.428 92.5531 571.081 110.492 554.09 122.314C538.182 133.358 515.595 139.032 490.866 135.717C460.455 129.598 436.749 120.708 418.431 108.528C396.309 92.1164 383.885 124.463 342.579 129.843C301.273 135.224 295.421 104.073 267.234 122.787C223.004 152.341 190.123 165.335 167.047 167.178C117.504 171.831 112.412 125.752 137.995 81.6798C152.56 56.2491 167.74 36.8831 179.49 20.1983C196.824 -2.53423 150.297 -16.245 145.651 -38.7898C137.827 -78.0704 186.631 -80.9029 158.83 -108.949C147.845 -120.114 134.787 -132.387 119.345 -146.036C84.6898 -177.213 69.8034 -204.344 67.4028 -226.261C59.9937 -269.96 101.932 -296.132 147.46 -297.444C173.591 -298.138 200.87 -290.705 220.795 -273.783C243.459 -254.538 266.02 -218.052 300.587 -212.658C325.613 -208.304 341.48 -276.037 388.013 -269.997C417.959 -266.267 437.922 -235.612 459.747 -238.841C483.422 -242.345 502.464 -246.422 513.075 -250.101Z" stroke="#03031D" stroke-width="3"/>
<path d="M498.449 -233.113C555.162 -255.228 553.649 -194.798 526.129 -176.075C488.721 -150.537 476.552 -129.131 466.027 -93.5103C458.825 -74.2617 499.486 -79.136 510.566 -52.5104C521.645 -25.8848 484.051 -5.61668 505.106 5.91005C537.091 23.6293 551.928 43.4658 554.743 61.46C557.992 79.0747 549.405 95.1469 533.988 105.638C519.534 115.437 499.106 120.319 476.824 116.932C448.551 109.607 423.676 104.65 406.264 94.1677C386.189 79.6899 374.852 108.262 337.987 112.695C301.122 117.128 295.96 88.915 271.151 105.117C232.108 130.902 203.178 142.08 182.91 143.389C138.989 147.29 134.618 105.873 157.37 66.1841C170.322 43.0815 183.657 25.3153 193.6 9.99389C208.797 -10.454 167.141 -22.9013 162.688 -43.236C155.371 -78.4946 198.523 -81.3018 173.607 -106.527C163.652 -116.731 151.93 -127.901 138.152 -140.272C107.16 -168.918 94.7741 -193.601 93.5709 -213.133C87.2438 -252.025 124.822 -275.276 165.579 -276.364C189.081 -276.901 213.589 -270.163 231.517 -254.933C252.812 -236.848 273.485 -203.909 305.891 -199.393C328.582 -195.591 343.159 -256.068 385.019 -250.897C412.123 -247.784 430.348 -220.71 450.193 -223.645C471.632 -226.817 488.876 -230.175 498.449 -233.113Z" stroke="#03031D" stroke-width="3"/>
<path d="M483.958 -215.551C533.782 -234.531 532.393 -181.236 507.936 -164.616C472.382 -140.341 462.466 -120.378 454.428 -87.9187C448.276 -70.9075 484.194 -74.9501 494.168 -51.4258C504.141 -27.9016 471.463 -9.90832 489.946 0.391508C518.046 16.3285 530.825 34.0825 532.9 50.0926C535.561 65.6235 527.729 79.805 513.882 88.9535C500.879 97.496 482.611 101.587 462.78 98.1418C436.65 89.6343 410.602 88.63 394.1 79.8704C376.08 67.3588 365.822 92.1126 333.401 95.6053C300.979 99.0979 296.518 73.8717 275.085 87.5443C241.224 109.53 216.246 118.884 198.789 119.666C160.493 122.823 156.86 86.1408 176.795 50.8929C188.141 30.152 199.636 14.0105 207.775 0.074436C220.842 -18.0602 184.066 -29.2069 179.815 -47.2955C173.017 -78.4697 210.514 -81.2634 188.496 -103.615C179.574 -112.838 169.195 -122.88 157.087 -133.948C129.773 -160.003 119.901 -182.194 119.905 -199.307C114.676 -233.323 147.899 -253.63 183.88 -254.506C204.75 -254.896 226.482 -248.872 242.406 -235.367C262.324 -218.482 281.094 -189.152 311.336 -185.535C331.69 -182.302 344.998 -235.424 382.178 -231.149C406.436 -228.667 422.911 -205.228 440.776 -207.873C459.977 -210.716 475.424 -213.356 483.958 -215.551Z" stroke="#03031D" stroke-width="3"/>
<path d="M468.636 -197.801C511.454 -213.618 510.219 -167.467 488.885 -152.966C455.274 -129.975 447.64 -111.465 442.121 -82.1784C437.04 -67.4102 468.137 -70.6034 476.995 -50.1791C485.854 -29.7547 458.169 -14.0552 474.046 -4.97483C498.209 9.19087 508.912 24.8658 510.251 38.8903C512.324 52.3367 505.271 64.6217 493.029 72.4199C481.508 79.6991 465.441 82.9896 448.102 79.4778C424.167 69.7799 397.004 72.7115 381.443 65.6671C365.509 55.1141 356.363 76.042 328.456 78.5786C300.55 81.1152 296.787 58.8779 278.781 70.0092C250.186 88.1786 229.217 95.6956 214.608 95.9409C182.02 98.3367 179.115 66.3918 196.172 35.6003C205.879 17.2305 215.502 2.72248 221.814 -9.82129C232.714 -25.6334 200.89 -35.4957 196.841 -51.3374C190.563 -78.426 222.323 -81.1866 203.239 -100.673C195.365 -108.916 186.346 -117.835 175.929 -127.604C152.338 -151.075 144.99 -170.774 146.191 -185.467C142.055 -214.605 170.842 -231.949 201.971 -232.597C220.165 -232.829 239.076 -227.511 252.968 -215.725C271.474 -200.033 288.316 -174.309 316.332 -171.577C334.306 -168.902 346.29 -214.658 378.714 -211.259C400.076 -209.397 414.778 -189.587 430.623 -191.932C447.545 -194.436 461.16 -196.352 468.636 -197.801Z" stroke="#03031D" stroke-width="3"/>
<path d="M454.008 -180.826C489.93 -193.52 488.841 -154.414 470.575 -141.999C438.821 -120.241 433.449 -103.145 430.431 -76.9681C426.407 -64.4112 452.761 -66.7647 460.525 -49.3982C468.288 -32.0316 445.526 -18.5901 458.835 -10.7117C479.121 1.71022 487.774 15.338 488.378 27.4063C489.868 38.7962 483.575 49.2112 472.906 55.6765C462.839 61.7089 448.933 64.207 434.042 60.6232C412.243 49.7163 383.897 56.5927 369.24 51.25C355.354 42.6352 347.296 59.782 323.834 61.3704C300.372 62.9589 297.3 43.6642 282.676 52.2794C259.272 66.6729 242.258 72.3706 230.462 72.0819C203.5 73.7243 201.319 46.45 215.544 20.0485C223.637 4.01 231.413 -8.896 235.915 -20.0746C244.677 -33.5986 217.727 -42.194 213.872 -55.8218C208.1 -78.8811 234.204 -81.6177 218.007 -98.2778C211.164 -105.558 203.482 -113.372 194.73 -121.86C174.806 -142.796 169.965 -160.044 172.368 -172.347C169.317 -196.669 193.741 -211.089 220.096 -211.512C235.659 -211.588 251.797 -206.967 263.691 -196.877C280.829 -182.347 295.782 -160.175 321.641 -158.325C337.28 -156.205 347.975 -194.691 375.722 -192.165C394.241 -190.921 407.204 -174.7 421.069 -176.751C435.754 -178.924 447.571 -180.12 454.008 -180.826Z" stroke="#03031D" stroke-width="3"/>
<path d="M439.513 -163.286C468.536 -172.843 467.571 -140.881 452.371 -130.573C422.458 -110.084 419.341 -94.4421 418.815 -71.4409C415.843 -61.1249 437.448 -62.6478 444.105 -48.3872C450.762 -34.1266 432.924 -22.9646 443.657 -16.3153C460.052 -5.6798 466.643 5.86198 466.504 15.9439C467.404 25.248 461.865 33.7707 452.767 38.8932C444.153 43.6695 432.408 45.3773 419.972 41.7391C400.319 29.6651 370.774 40.4875 357.022 36.8692C345.19 30.222 338.212 43.5497 319.2 44.1992C300.189 44.8488 297.82 28.5469 286.579 34.6323C268.368 45.2267 255.313 49.1 246.334 48.2844C225.006 49.184 223.565 26.6497 234.97 4.69686C241.457 -8.97429 247.39 -20.2497 250.085 -30.0368C256.713 -41.2431 234.649 -48.535 230.995 -59.912C225.743 -78.8806 246.183 -81.6002 232.887 -95.3829C227.079 -101.677 220.742 -108.362 213.663 -115.544C197.423 -133.881 195.104 -148.632 198.719 -158.517C196.768 -177.961 216.832 -189.434 238.406 -189.646C251.335 -189.576 264.694 -185.672 274.581 -177.309C290.342 -163.99 303.392 -145.435 327.092 -144.487C340.393 -142.936 349.819 -174.062 372.882 -172.431C388.555 -171.82 399.769 -159.235 411.653 -160.996C424.099 -162.84 434.117 -163.32 439.513 -163.286Z" stroke="#03031D" stroke-width="3"/>
<path d="M424.932 -146.122C447.043 -152.554 446.242 -127.573 434.117 -119.337C406.053 -100.039 405.215 -85.7709 407.218 -65.8236C405.312 -57.6994 422.168 -58.3709 427.738 -47.135C433.308 -35.8991 420.409 -26.9817 428.575 -21.5134C441.092 -12.5878 445.634 -3.06338 444.763 5.08419C445.082 12.3512 440.306 19.0183 432.785 22.8123C425.626 26.3457 416.044 27.2559 406.055 23.527C388.525 10.1892 357.765 24.9951 344.906 23.0684C335.117 18.3416 329.234 27.9071 314.673 27.5951C300.112 27.283 298.427 13.886 290.579 17.4551C277.578 24.2775 268.49 26.3269 262.33 24.9668C246.638 25.0999 245.912 7.18802 254.468 -10.4152C259.331 -21.7826 263.406 -31.48 264.278 -39.924C268.756 -48.8621 251.567 -54.9162 248.098 -64.1058C243.34 -79.0872 258.11 -81.7795 247.697 -92.7724L247.424 -93.0782C242.725 -98.3354 237.811 -103.833 232.499 -109.643C219.92 -125.498 220.112 -137.834 224.934 -145.346C224.06 -160.011 239.751 -168.571 256.545 -168.546C266.842 -168.312 277.427 -165.088 285.319 -158.397C299.728 -146.196 310.902 -131.146 332.458 -131.069C343.424 -130.062 351.545 -153.975 369.93 -153.203C382.76 -153.202 392.245 -144.179 402.148 -145.644C412.356 -147.154 420.575 -146.906 424.932 -146.122Z" stroke="#03031D" stroke-width="3"/>
<path d="M409.576 -128.415C424.679 -131.686 424.026 -113.877 415.028 -107.767C388.93 -89.7837 390.366 -76.9929 394.872 -60.2486C394.034 -54.3765 406.065 -54.2034 410.514 -46.0817C414.964 -37.96 407.056 -31.3446 412.613 -27.1048C421.189 -19.9657 423.654 -12.5342 422.048 -6.38241C421.781 -1.20828 417.785 3.55566 411.871 5.99725C406.199 8.26563 398.822 8.37777 391.33 4.59234C376.011 -9.90176 344.175 8.80393 332.27 8.59351C324.574 5.83097 319.804 11.5643 309.761 10.3028C299.718 9.04123 298.734 -1.34857 294.311 -0.318397C286.572 2.68806 281.491 2.9038 278.177 1.01358C268.194 0.390477 268.198 -12.7622 273.879 -25.8889C277.104 -34.8706 279.311 -42.9208 278.362 -49.9601C280.677 -56.5657 268.447 -61.3234 265.185 -68.2537C260.954 -79.1309 269.988 -81.788 262.515 -89.8998C258.785 -94.2612 255.146 -98.7273 251.424 -103.341C242.575 -116.586 245.284 -126.413 251.296 -131.498C251.515 -141.271 262.767 -146.863 274.704 -146.613C282.321 -146.224 290.081 -143.713 295.938 -138.751C308.919 -127.767 318.154 -116.344 337.464 -117.154C346.044 -116.708 352.841 -133.23 366.463 -133.338C376.391 -133.958 384.094 -128.572 391.972 -129.737C399.896 -130.909 406.279 -129.941 409.576 -128.415Z" stroke="#03031D" stroke-width="3"/>
<path d="M395.097 -110.704C403.244 -110.834 402.738 -100.14 396.838 -96.1376C372.646 -79.4352 376.349 -68.0995 383.359 -54.5233C383.584 -50.8853 390.828 -49.8716 394.168 -44.8392C397.509 -39.8069 394.561 -35.4746 397.527 -32.452C402.192 -27.0817 402.592 -21.7233 400.25 -17.5493C399.397 -14.4513 396.171 -11.5749 391.848 -10.4758C387.646 -9.46315 382.453 -10.1448 377.435 -13.991C364.294 -29.6528 331.316 -7.03569 320.338 -5.53651C314.713 -6.34715 311.045 -4.42017 305.486 -6.62834C299.927 -8.83651 299.64 -16.2468 298.624 -17.7428C296.116 -18.5311 295.019 -20.1408 294.538 -22.5616C290.226 -23.9387 290.958 -32.3718 293.785 -41.0599C295.384 -47.6788 295.733 -54.0996 292.968 -59.7489C293.131 -64.0411 285.82 -67.5146 282.759 -72.2047C279.045 -79.0104 282.38 -81.6353 277.822 -86.8899C275.134 -90.2731 272.846 -93.618 270.805 -96.9353C265.658 -107.6 270.883 -114.944 278.092 -117.621C279.401 -122.538 286.25 -125.183 293.369 -124.71C298.329 -124.167 303.289 -122.361 307.128 -119.114C318.71 -109.33 326.03 -101.502 343.14 -103.198C349.359 -103.31 354.85 -112.498 363.75 -113.482C370.805 -114.721 376.748 -112.95 382.624 -113.819C388.286 -114.656 392.851 -112.969 395.097 -110.704Z" stroke="#03031D" stroke-width="3"/>
</g>
</svg>
