<svg width="49" height="50" viewBox="0 0 49 50" fill="none" xmlns="http://www.w3.org/2000/svg">
<rect y="1.66821" width="48" height="48" rx="24" transform="rotate(-1 0 1.66821)" fill="black"/>
<rect x="0.50865" y="2.15941" width="47" height="47" rx="23.5" transform="rotate(-1 0.50865 2.15941)" stroke="white" stroke-opacity="0.07"/>
<path fill-rule="evenodd" clip-rule="evenodd" d="M24.416 14.7458C23.8251 14.7458 23.2399 14.8622 22.6939 15.0883C22.148 15.3145 21.6519 15.6459 21.234 16.0638C20.8162 16.4817 20.4847 16.9777 20.2586 17.5237C20.0324 18.0697 19.916 18.6548 19.916 19.2458C19.916 19.8367 20.0324 20.4219 20.2586 20.9679C20.4847 21.5138 20.8162 22.0099 21.234 22.4278C21.6519 22.8456 22.148 23.1771 22.6939 23.4032C23.2399 23.6294 23.8251 23.7458 24.416 23.7458C25.6095 23.7458 26.7541 23.2717 27.598 22.4278C28.4419 21.5838 28.916 20.4393 28.916 19.2458C28.916 18.0523 28.4419 16.9077 27.598 16.0638C26.7541 15.2199 25.6095 14.7458 24.416 14.7458ZM18.416 19.2458C18.4161 18.0911 18.7494 16.961 19.3759 15.9911C20.0023 15.0211 20.8953 14.2525 21.9478 13.7775C23.0002 13.3025 24.1673 13.1413 25.3091 13.3132C26.4509 13.4851 27.5189 13.9827 28.3849 14.7465C29.2508 15.5103 29.878 16.5077 30.1911 17.6191C30.5043 18.7305 30.4901 19.9086 30.1503 21.0122C29.8105 22.1157 29.1594 23.0977 28.2753 23.8404C27.3912 24.5831 26.3116 25.0549 25.166 25.1993L25.166 33.4958C25.166 33.6947 25.087 33.8855 24.9463 34.0261C24.8057 34.1668 24.6149 34.2458 24.416 34.2458C24.2171 34.2458 24.0263 34.1668 23.8857 34.0261C23.745 33.8855 23.666 33.6947 23.666 33.4958L23.666 25.2008C22.2155 25.018 20.8815 24.3119 19.9148 23.2151C18.9481 22.1183 18.4151 20.7078 18.416 19.2458ZM22.1555 32.1068C22.188 32.3029 22.1414 32.5039 22.0258 32.6656C21.9102 32.8274 21.7351 32.9366 21.539 32.9693C20.471 33.1463 19.619 33.4118 19.0565 33.7088C18.8496 33.8076 18.6617 33.9422 18.5015 34.1063C18.4652 34.1458 18.4362 34.1915 18.416 34.2413L18.416 34.2458L18.419 34.2578L18.443 34.3073C18.5018 34.3944 18.5754 34.4706 18.6605 34.5323C18.908 34.7273 19.313 34.9373 19.88 35.1248C21.0065 35.4998 22.61 35.7458 24.416 35.7458C26.222 35.7458 27.8255 35.5013 28.952 35.1248C29.519 34.9358 29.924 34.7273 30.1715 34.5323C30.2571 34.4707 30.3313 34.3945 30.3905 34.3073L30.413 34.2578L30.416 34.2458L30.416 34.2398C30.3958 34.19 30.3668 34.1443 30.3305 34.1048C30.1702 33.9412 29.9823 33.8072 29.7755 33.7088C29.2115 33.4118 28.361 33.1463 27.293 32.9693C27.1935 32.9558 27.0978 32.9225 27.0114 32.8713C26.925 32.8201 26.8498 32.7521 26.7902 32.6713C26.7306 32.5906 26.6878 32.4986 26.6644 32.401C26.641 32.3034 26.6374 32.202 26.6539 32.103C26.6704 32.004 26.7065 31.9093 26.7603 31.8245C26.8141 31.7397 26.8843 31.6666 26.9668 31.6094C27.0494 31.5523 27.1426 31.5123 27.2408 31.4918C27.3391 31.4714 27.4405 31.4708 27.539 31.4903C28.694 31.6808 29.717 31.9823 30.4745 32.3813C31.166 32.7458 31.916 33.3458 31.916 34.2458C31.916 34.8848 31.526 35.3738 31.1 35.7113C30.665 36.0533 30.08 36.3308 29.426 36.5483C28.109 36.9878 26.3375 37.2458 24.416 37.2458C22.4945 37.2458 20.723 36.9878 19.406 36.5483C18.752 36.3308 18.167 36.0533 17.732 35.7113C17.306 35.3738 16.916 34.8848 16.916 34.2458C16.916 33.3473 17.666 32.7458 18.3575 32.3813C19.115 31.9823 20.138 31.6808 21.293 31.4903C21.4891 31.4578 21.6901 31.5044 21.8519 31.62C22.0136 31.7356 22.1228 31.9107 22.1555 32.1068Z" fill="white"/>
</svg>
