<svg width="49" height="50" viewBox="0 0 49 50" fill="none" xmlns="http://www.w3.org/2000/svg">
<rect y="1.66821" width="48" height="48" rx="24" transform="rotate(-1 0 1.66821)" fill="black"/>
<rect x="0.50865" y="2.15941" width="47" height="47" rx="23.5" transform="rotate(-1 0.50865 2.15941)" stroke="white" stroke-opacity="0.07"/>
<path d="M16.541 30.4957L13.916 35.7457L19.166 35.7457L16.541 30.4957ZM31.916 24.4957L31.916 25.9957C32.7433 25.9957 33.416 26.6692 33.416 27.4957L33.416 31.2457C33.416 32.073 32.7433 32.7457 31.916 32.7457L19.916 32.7457L19.916 34.2457L31.916 34.2457C33.5705 34.2457 34.916 32.9002 34.916 31.2457L34.916 27.4957C34.916 25.8412 33.5705 24.4957 31.916 24.4957Z" fill="white"/>
<path d="M22.916 31.2458C22.7531 31.2457 22.5947 31.1926 22.4647 31.0945C22.3346 30.9964 22.2401 30.8586 22.1953 30.702L20.8505 25.9958L18.416 25.9958L18.416 24.4958L21.416 24.4958C21.5789 24.4959 21.7373 24.549 21.8674 24.6471C21.9974 24.7452 22.092 24.8829 22.1368 25.0395L22.916 27.7658L25.1953 19.7895C25.2403 19.6331 25.3349 19.4956 25.4649 19.3978C25.595 19.2999 25.7533 19.2469 25.916 19.2469C26.0788 19.2469 26.2371 19.2999 26.3671 19.3978C26.4971 19.4956 26.5918 19.6331 26.6368 19.7895L27.9815 24.4958L30.416 24.4958L30.416 25.9958L27.416 25.9958C27.2531 25.9957 27.0947 25.9426 26.9647 25.8445C26.8346 25.7464 26.7401 25.6086 26.6953 25.452L25.916 22.7258L23.6368 30.702C23.592 30.8586 23.4974 30.9964 23.3674 31.0945C23.2373 31.1926 23.0789 31.2457 22.916 31.2458Z" fill="white"/>
<path d="M15.416 22.9957L15.416 19.2457C15.416 18.4185 16.0888 17.7457 16.916 17.7457L28.916 17.7457L28.916 16.2457L16.916 16.2457C15.2615 16.2457 13.916 17.5912 13.916 19.2457L13.916 22.9957C13.916 24.6502 15.2615 25.9957 16.916 25.9957L16.916 24.4957C16.0888 24.4957 15.416 23.823 15.416 22.9957Z" fill="white"/>
<path d="M32.666 19.2457C33.9087 19.2457 34.916 18.2384 34.916 16.9957C34.916 15.7531 33.9087 14.7457 32.666 14.7457C31.4234 14.7457 30.416 15.7531 30.416 16.9957C30.416 18.2384 31.4234 19.2457 32.666 19.2457Z" fill="white"/>
</svg>
