<svg width="49" height="50" viewBox="0 0 49 50" fill="none" xmlns="http://www.w3.org/2000/svg">
<rect y="1.66821" width="48" height="48" rx="24" transform="rotate(-1 0 1.66821)" fill="black"/>
<rect x="0.50865" y="2.15941" width="47" height="47" rx="23.5" transform="rotate(-1 0.50865 2.15941)" stroke="white" stroke-opacity="0.07"/>
<path fill-rule="evenodd" clip-rule="evenodd" d="M25.5822 14.7458C25.5822 14.4363 25.4593 14.1396 25.2405 13.9208C25.0217 13.702 24.725 13.5791 24.4156 13.5791C24.1061 13.5791 23.8094 13.702 23.5906 13.9208C23.3718 14.1396 23.2489 14.4363 23.2489 14.7458L23.2489 15.6208L22.5991 15.6208C21.3484 15.6207 20.1448 16.0972 19.2331 16.9534C18.3215 17.8095 17.7704 18.9809 17.6921 20.2291L17.4342 24.3521C17.3346 25.9239 16.8069 27.4384 15.9082 28.7318C15.7223 28.999 15.6087 29.3098 15.5785 29.634C15.5482 29.9581 15.6024 30.2846 15.7357 30.5816C15.869 30.8786 16.0769 31.1361 16.3392 31.3289C16.6014 31.5218 16.9092 31.6435 17.2324 31.6823L21.2072 32.1583L21.2072 33.4124C21.2072 34.2633 21.5453 35.0794 22.1469 35.6811C22.7486 36.2827 23.5647 36.6208 24.4156 36.6208C25.2665 36.6208 26.0825 36.2827 26.6842 35.6811C27.2859 35.0794 27.6239 34.2633 27.6239 33.4124L27.6239 32.1583L31.5987 31.6811C31.9218 31.6423 32.2293 31.5205 32.4914 31.3277C32.7535 31.1349 32.9613 30.8776 33.0946 30.5808C33.2278 30.2839 33.2821 29.9577 33.252 29.6337C33.2219 29.3097 33.1085 28.999 32.9229 28.7318C32.0243 27.4384 31.4966 25.9239 31.3969 24.3521L31.1391 20.2303C31.061 18.9819 30.51 17.8102 29.5984 16.9538C28.6867 16.0974 27.4829 15.6207 26.2321 15.6208L25.5822 15.6208L25.5822 14.7458ZM22.5991 17.3708C21.7936 17.3707 21.0183 17.6776 20.4311 18.229C19.844 18.7804 19.489 19.5349 19.4386 20.3388L19.1819 24.4618C19.0619 26.3526 18.4269 28.1746 17.3456 29.7304C17.3321 29.7498 17.3239 29.7722 17.3217 29.7957C17.3195 29.8191 17.3234 29.8427 17.333 29.8642C17.3427 29.8857 17.3577 29.9044 17.3766 29.9183C17.3956 29.9323 17.4179 29.9411 17.4412 29.9439L21.8011 30.4678C23.5382 30.6754 25.2929 30.6754 27.0301 30.4678L31.3899 29.9439C31.4133 29.9411 31.4355 29.9323 31.4545 29.9183C31.4734 29.9044 31.4885 29.8857 31.4981 29.8642C31.5077 29.8427 31.5116 29.8191 31.5094 29.7957C31.5072 29.7722 31.499 29.7498 31.4856 29.7304C30.4046 28.1745 29.77 26.3525 29.6504 24.4618L29.3926 20.3388C29.3421 19.5349 28.9872 18.7804 28.4 18.229C27.8128 17.6776 27.0376 17.3707 26.2321 17.3708L22.5991 17.3708ZM24.4156 34.8708C23.6106 34.8708 22.9572 34.2174 22.9572 33.4124L22.9572 32.5374L25.8739 32.5374L25.8739 33.4124C25.8739 34.2174 25.2206 34.8708 24.4156 34.8708Z" fill="white"/>
</svg>
