<svg width="49" height="49" viewBox="0 0 49 49" fill="none" xmlns="http://www.w3.org/2000/svg">
<rect y="0.837769" width="48" height="48" rx="24" transform="rotate(-1 0 0.837769)" fill="black"/>
<rect x="0.50865" y="1.32897" width="47" height="47" rx="23.5" transform="rotate(-1 0.50865 1.32897)" stroke="white" stroke-opacity="0.07"/>
<path d="M15.1111 33C14.7963 33 14.5326 32.8958 14.32 32.6875C14.1074 32.4792 14.0007 32.2216 14 31.9149L14 30.8298C14 30.5224 14.1067 30.2648 14.32 30.0572C14.5333 29.8496 14.797 29.7454 15.1111 29.7447C15.4252 29.744 15.6893 29.8482 15.9033 30.0572C16.1174 30.2663 16.2237 30.5238 16.2222 30.8298L16.2222 31.9149C16.2222 32.2223 16.1156 32.4802 15.9022 32.6886C15.6889 32.8969 15.4252 33.0007 15.1111 33ZM19.5556 33C19.2407 33 18.977 32.8958 18.7644 32.6875C18.5518 32.4792 18.4452 32.2216 18.4444 31.9149L18.4444 25.9469C18.4444 25.6395 18.5511 25.3819 18.7644 25.1743C18.9778 24.9667 19.2415 24.8625 19.5556 24.8618C19.8696 24.8611 20.1337 24.9653 20.3478 25.1743C20.5618 25.3834 20.6681 25.6409 20.6667 25.9469L20.6667 31.9149C20.6667 32.2223 20.56 32.4802 20.3467 32.6886C20.1333 32.8969 19.8696 33.0007 19.5556 33ZM24 33C23.6852 33 23.4215 32.8958 23.2089 32.6875C22.9963 32.4792 22.8896 32.2216 22.8889 31.9149L22.8889 28.1171C22.8889 27.8096 22.9955 27.5521 23.2089 27.3445C23.4222 27.1369 23.6859 27.0327 24 27.032C24.3141 27.0313 24.5781 27.1354 24.7922 27.3445C25.0063 27.5536 25.1126 27.8111 25.1111 28.1171L25.1111 31.9149C25.1111 32.2223 25.0044 32.4802 24.7911 32.6886C24.5778 32.8969 24.3141 33.0007 24 33ZM28.4444 33C28.1296 33 27.8659 32.8958 27.6533 32.6875C27.4407 32.4792 27.3341 32.2216 27.3333 31.9149L27.3333 26.4894C27.3333 26.182 27.44 25.9245 27.6533 25.7169C27.8667 25.5092 28.1304 25.4051 28.4444 25.4044C28.7585 25.4036 29.0226 25.5078 29.2367 25.7169C29.4507 25.9259 29.557 26.1835 29.5555 26.4894L29.5555 31.9149C29.5555 32.2223 29.4489 32.4802 29.2355 32.6886C29.0222 32.8969 28.7585 33.0007 28.4444 33ZM32.8889 33C32.5741 33 32.3104 32.8958 32.0978 32.6875C31.8852 32.4792 31.7785 32.2216 31.7778 31.9149L31.7778 22.1491C31.7778 21.8416 31.8844 21.5841 32.0978 21.3765C32.3111 21.1689 32.5748 21.0647 32.8889 21.064C33.2029 21.0633 33.467 21.1674 33.6811 21.3765C33.8952 21.5856 34.0015 21.8431 34 22.1491L34 31.9149C34 32.2223 33.8933 32.4802 33.68 32.6886C33.4667 32.8969 33.2029 33.0007 32.8889 33ZM26.2222 23.207C25.9259 23.207 25.6433 23.1528 25.3744 23.0443C25.1055 22.9358 24.8604 22.7821 24.6389 22.5831L21.7778 19.789L15.8889 25.54C15.6667 25.757 15.403 25.8612 15.0978 25.8525C14.7926 25.8438 14.5285 25.7306 14.3056 25.5129C14.1019 25.2958 14.0048 25.0383 14.0144 24.7403C14.0241 24.4422 14.1304 24.1934 14.3333 23.9937L20.1944 18.2699C20.4167 18.0529 20.6622 17.8948 20.9311 17.7957C21.2 17.6966 21.4822 17.6467 21.7778 17.646C22.0733 17.6452 22.3604 17.6951 22.6389 17.7957C22.9174 17.8962 23.1581 18.0543 23.3611 18.2699L26.2222 21.064L32.1111 15.313C32.3333 15.096 32.5974 14.9918 32.9033 15.0005C33.2092 15.0092 33.4729 15.1224 33.6944 15.3401C33.8981 15.5572 33.9955 15.815 33.9867 16.1138C33.9778 16.4126 33.8711 16.6611 33.6667 16.8593L27.8055 22.5831C27.6018 22.7821 27.3611 22.9358 27.0833 23.0443C26.8055 23.1528 26.5185 23.207 26.2222 23.207Z" fill="white"/>
</svg>
