<svg width="49" height="49" viewBox="0 0 49 49" fill="none" xmlns="http://www.w3.org/2000/svg">
<rect y="0.837769" width="48" height="48" rx="24" transform="rotate(-1 0 0.837769)" fill="black"/>
<rect x="0.50865" y="1.32897" width="47" height="47" rx="23.5" transform="rotate(-1 0.50865 1.32897)" stroke="white" stroke-opacity="0.07"/>
<g clip-path="url(#clip0_2070_60105)">
<path d="M35.1297 35.1296L30.9006 30.9005M23.7726 33.8439C26.4437 33.8439 29.0054 32.7828 30.8942 30.8941C32.7829 29.0053 33.844 26.4436 33.844 23.7725C33.844 21.1014 32.7829 18.5397 30.8942 16.6509C29.0054 14.7621 26.4437 13.701 23.7726 13.701C21.1015 13.701 18.5398 14.7621 16.651 16.6509C14.7623 18.5397 13.7012 21.1014 13.7012 23.7725C13.7012 26.4436 14.7623 29.0053 16.651 30.8941C18.5398 32.7828 21.1015 33.8439 23.7726 33.8439Z" stroke="white" stroke-width="2" stroke-linecap="round" stroke-linejoin="round"/>
<path d="M21.8446 20.1296L18.416 23.5582L21.8446 26.9868M25.2732 20.1296L28.7017 23.5582L25.2732 26.9868" stroke="white" stroke-width="2" stroke-linecap="round" stroke-linejoin="round"/>
</g>
<defs>
<clipPath id="clip0_2070_60105">
<rect width="24" height="24" fill="white" transform="translate(12.416 12.4153)"/>
</clipPath>
</defs>
</svg>
